<svg xmlns="http://www.w3.org/2000/svg" width="1200" height="630" viewBox="0 0 1200 630">
  <rect width="1200" height="630" fill="#0a0a0a"/>
  <!-- Wave overlay -->
  <path d="M0 315 Q300 252 600 315 T1200 315" stroke="#4B5563" stroke-width="1" fill="none" opacity="0.3"/>
  <!-- Game of Life cells -->
  <g>
    <circle cx="15.6" cy="15.5" r="3" fill="#38BDF8" opacity="0.58"/>
    <circle cx="78.5" cy="12.1" r="3" fill="#A855F7" opacity="0.73"/>
    <circle cx="102.8" cy="17.0" r="3" fill="#C084FC" opacity="0.63"/>
    <circle cx="167.3" cy="15.8" r="3" fill="#22D3EE" opacity="0.32"/>
    <circle cx="282.7" cy="17.9" r="3" fill="#A855F7" opacity="0.72"/>
    <circle cx="378.8" cy="14.3" r="3" fill="#C084FC" opacity="0.38"/>
    <circle cx="431.8" cy="17.7" r="3" fill="#38BDF8" opacity="0.55"/>
    <circle cx="551.3" cy="17.8" r="3" fill="#C084FC" opacity="0.65"/>
    <circle cx="611.9" cy="12.2" r="3" fill="#A855F7" opacity="0.38"/>
    <circle cx="645.7" cy="11.7" r="3" fill="#38BDF8" opacity="0.30"/>
    <circle cx="702.4" cy="14.1" r="3" fill="#22D3EE" opacity="0.77"/>
    <circle cx="768.3" cy="12.3" r="3" fill="#6B21A8" opacity="0.78"/>
    <circle cx="828.4" cy="18.6" r="3" fill="#A855F7" opacity="0.46"/>
    <circle cx="856.0" cy="13.1" r="3" fill="#C084FC" opacity="0.63"/>
    <circle cx="974.0" cy="15.6" r="3" fill="#38BDF8" opacity="0.49"/>
    <circle cx="1152.1" cy="12.6" r="3" fill="#A855F7" opacity="0.38"/>
    <circle cx="1182.9" cy="18.2" r="3" fill="#22D3EE" opacity="0.62"/>
    <circle cx="78.4" cy="45.1" r="3" fill="#C084FC" opacity="0.33"/>
    <circle cx="105.3" cy="41.8" r="3" fill="#C084FC" opacity="0.66"/>
    <circle cx="196.0" cy="43.4" r="3" fill="#6B21A8" opacity="0.46"/>
    <circle cx="221.1" cy="46.4" r="3" fill="#A855F7" opacity="0.40"/>
    <circle cx="256.4" cy="45.7" r="3" fill="#38BDF8" opacity="0.55"/>
    <circle cx="311.1" cy="47.6" r="3" fill="#38BDF8" opacity="0.71"/>
    <circle cx="551.4" cy="45.4" r="3" fill="#A855F7" opacity="0.78"/>
    <circle cx="582.3" cy="42.5" r="3" fill="#22D3EE" opacity="0.33"/>
    <circle cx="674.0" cy="46.5" r="3" fill="#6B21A8" opacity="0.50"/>
    <circle cx="701.6" cy="45.1" r="3" fill="#C084FC" opacity="0.31"/>
    <circle cx="732.8" cy="44.4" r="3" fill="#6B21A8" opacity="0.31"/>
    <circle cx="857.9" cy="41.3" r="3" fill="#C084FC" opacity="0.67"/>
    <circle cx="918.7" cy="44.3" r="3" fill="#C084FC" opacity="0.33"/>
    <circle cx="942.7" cy="47.5" r="3" fill="#A855F7" opacity="0.75"/>
    <circle cx="1067.6" cy="43.6" r="3" fill="#C084FC" opacity="0.49"/>
    <circle cx="1092.3" cy="46.1" r="3" fill="#38BDF8" opacity="0.63"/>
    <circle cx="1126.0" cy="45.8" r="3" fill="#C084FC" opacity="0.42"/>
    <circle cx="164.0" cy="76.2" r="3" fill="#6B21A8" opacity="0.77"/>
    <circle cx="195.3" cy="77.4" r="3" fill="#6B21A8" opacity="0.44"/>
    <circle cx="281.3" cy="75.6" r="3" fill="#38BDF8" opacity="0.44"/>
    <circle cx="377.1" cy="77.1" r="3" fill="#A855F7" opacity="0.66"/>
    <circle cx="465.0" cy="72.3" r="3" fill="#22D3EE" opacity="0.59"/>
    <circle cx="552.2" cy="72.7" r="3" fill="#6B21A8" opacity="0.58"/>
    <circle cx="648.9" cy="75.7" r="3" fill="#A855F7" opacity="0.54"/>
    <circle cx="767.2" cy="73.6" r="3" fill="#38BDF8" opacity="0.36"/>
    <circle cx="791.6" cy="76.2" r="3" fill="#C084FC" opacity="0.41"/>
    <circle cx="914.9" cy="74.1" r="3" fill="#22D3EE" opacity="0.67"/>
    <circle cx="973.4" cy="73.8" r="3" fill="#22D3EE" opacity="0.36"/>
    <circle cx="1036.6" cy="76.8" r="3" fill="#22D3EE" opacity="0.33"/>
    <circle cx="13.7" cy="104.9" r="3" fill="#38BDF8" opacity="0.72"/>
    <circle cx="101.6" cy="106.8" r="3" fill="#C084FC" opacity="0.50"/>
    <circle cx="133.6" cy="106.4" r="3" fill="#6B21A8" opacity="0.48"/>
    <circle cx="165.5" cy="107.1" r="3" fill="#38BDF8" opacity="0.39"/>
    <circle cx="197.5" cy="107.6" r="3" fill="#22D3EE" opacity="0.44"/>
    <circle cx="227.4" cy="107.4" r="3" fill="#C084FC" opacity="0.46"/>
    <circle cx="251.4" cy="107.8" r="3" fill="#C084FC" opacity="0.74"/>
    <circle cx="282.9" cy="103.0" r="3" fill="#38BDF8" opacity="0.67"/>
    <circle cx="314.3" cy="105.2" r="3" fill="#38BDF8" opacity="0.56"/>
    <circle cx="345.7" cy="108.8" r="3" fill="#6B21A8" opacity="0.68"/>
    <circle cx="375.1" cy="103.2" r="3" fill="#22D3EE" opacity="0.74"/>
    <circle cx="556.4" cy="108.1" r="3" fill="#C084FC" opacity="0.59"/>
    <circle cx="673.9" cy="106.7" r="3" fill="#6B21A8" opacity="0.80"/>
    <circle cx="731.2" cy="105.5" r="3" fill="#38BDF8" opacity="0.77"/>
    <circle cx="855.7" cy="106.0" r="3" fill="#22D3EE" opacity="0.77"/>
    <circle cx="944.3" cy="101.9" r="3" fill="#A855F7" opacity="0.49"/>
    <circle cx="1063.6" cy="108.0" r="3" fill="#6B21A8" opacity="0.72"/>
    <circle cx="1095.2" cy="106.8" r="3" fill="#6B21A8" opacity="0.42"/>
    <circle cx="131.1" cy="133.6" r="3" fill="#38BDF8" opacity="0.37"/>
    <circle cx="288.6" cy="134.5" r="3" fill="#38BDF8" opacity="0.51"/>
    <circle cx="408.3" cy="137.7" r="3" fill="#A855F7" opacity="0.46"/>
    <circle cx="438.9" cy="138.7" r="3" fill="#C084FC" opacity="0.79"/>
    <circle cx="466.9" cy="137.4" r="3" fill="#38BDF8" opacity="0.51"/>
    <circle cx="671.8" cy="133.0" r="3" fill="#C084FC" opacity="0.54"/>
    <circle cx="828.5" cy="135.0" r="3" fill="#38BDF8" opacity="0.43"/>
    <circle cx="857.3" cy="137.3" r="3" fill="#A855F7" opacity="0.45"/>
    <circle cx="948.0" cy="137.1" r="3" fill="#6B21A8" opacity="0.48"/>
    <circle cx="977.4" cy="136.9" r="3" fill="#22D3EE" opacity="0.61"/>
    <circle cx="1004.6" cy="135.5" r="3" fill="#A855F7" opacity="0.38"/>
    <circle cx="1098.6" cy="131.4" r="3" fill="#38BDF8" opacity="0.64"/>
    <circle cx="1181.4" cy="134.6" r="3" fill="#6B21A8" opacity="0.80"/>
    <circle cx="76.0" cy="163.2" r="3" fill="#6B21A8" opacity="0.44"/>
    <circle cx="137.4" cy="161.9" r="3" fill="#6B21A8" opacity="0.77"/>
    <circle cx="225.6" cy="161.0" r="3" fill="#A855F7" opacity="0.72"/>
    <circle cx="373.6" cy="165.4" r="3" fill="#22D3EE" opacity="0.51"/>
    <circle cx="496.7" cy="166.4" r="3" fill="#A855F7" opacity="0.31"/>
    <circle cx="582.4" cy="166.4" r="3" fill="#A855F7" opacity="0.78"/>
    <circle cx="618.1" cy="165.9" r="3" fill="#22D3EE" opacity="0.49"/>
    <circle cx="703.6" cy="164.8" r="3" fill="#22D3EE" opacity="0.47"/>
    <circle cx="762.9" cy="168.7" r="3" fill="#C084FC" opacity="0.67"/>
    <circle cx="797.8" cy="164.8" r="3" fill="#6B21A8" opacity="0.47"/>
    <circle cx="826.4" cy="162.2" r="3" fill="#C084FC" opacity="0.41"/>
    <circle cx="852.9" cy="165.7" r="3" fill="#C084FC" opacity="0.73"/>
    <circle cx="882.3" cy="168.5" r="3" fill="#22D3EE" opacity="0.48"/>
    <circle cx="973.5" cy="165.9" r="3" fill="#A855F7" opacity="0.59"/>
    <circle cx="1003.7" cy="164.0" r="3" fill="#A855F7" opacity="0.77"/>
    <circle cx="1061.0" cy="166.9" r="3" fill="#6B21A8" opacity="0.37"/>
    <circle cx="1095.5" cy="161.4" r="3" fill="#C084FC" opacity="0.60"/>
    <circle cx="104.3" cy="198.2" r="3" fill="#6B21A8" opacity="0.77"/>
    <circle cx="137.7" cy="192.1" r="3" fill="#22D3EE" opacity="0.36"/>
    <circle cx="196.3" cy="191.1" r="3" fill="#C084FC" opacity="0.76"/>
    <circle cx="287.2" cy="197.9" r="3" fill="#22D3EE" opacity="0.62"/>
    <circle cx="311.2" cy="198.1" r="3" fill="#C084FC" opacity="0.32"/>
    <circle cx="341.1" cy="192.9" r="3" fill="#A855F7" opacity="0.64"/>
    <circle cx="377.1" cy="195.1" r="3" fill="#C084FC" opacity="0.45"/>
    <circle cx="642.5" cy="192.5" r="3" fill="#38BDF8" opacity="0.31"/>
    <circle cx="678.3" cy="197.1" r="3" fill="#A855F7" opacity="0.36"/>
    <circle cx="798.4" cy="196.6" r="3" fill="#A855F7" opacity="0.31"/>
    <circle cx="822.2" cy="198.4" r="3" fill="#22D3EE" opacity="0.50"/>
    <circle cx="851.8" cy="195.8" r="3" fill="#A855F7" opacity="0.37"/>
    <circle cx="885.7" cy="194.1" r="3" fill="#C084FC" opacity="0.36"/>
    <circle cx="978.8" cy="196.6" r="3" fill="#A855F7" opacity="0.49"/>
    <circle cx="1035.3" cy="198.8" r="3" fill="#22D3EE" opacity="0.74"/>
    <circle cx="1156.7" cy="198.7" r="3" fill="#A855F7" opacity="0.43"/>
    <circle cx="46.9" cy="227.9" r="3" fill="#38BDF8" opacity="0.53"/>
    <circle cx="76.9" cy="226.6" r="3" fill="#22D3EE" opacity="0.73"/>
    <circle cx="136.7" cy="222.3" r="3" fill="#C084FC" opacity="0.76"/>
    <circle cx="222.0" cy="222.8" r="3" fill="#A855F7" opacity="0.51"/>
    <circle cx="282.7" cy="224.3" r="3" fill="#6B21A8" opacity="0.33"/>
    <circle cx="434.7" cy="225.6" r="3" fill="#38BDF8" opacity="0.56"/>
    <circle cx="468.2" cy="223.9" r="3" fill="#22D3EE" opacity="0.66"/>
    <circle cx="494.7" cy="226.2" r="3" fill="#22D3EE" opacity="0.56"/>
    <circle cx="585.3" cy="222.7" r="3" fill="#6B21A8" opacity="0.72"/>
    <circle cx="677.4" cy="223.7" r="3" fill="#C084FC" opacity="0.74"/>
    <circle cx="701.5" cy="221.7" r="3" fill="#38BDF8" opacity="0.68"/>
    <circle cx="915.0" cy="227.6" r="3" fill="#6B21A8" opacity="0.52"/>
    <circle cx="943.9" cy="226.1" r="3" fill="#38BDF8" opacity="0.69"/>
    <circle cx="1152.6" cy="221.6" r="3" fill="#38BDF8" opacity="0.78"/>
    <circle cx="47.9" cy="256.9" r="3" fill="#38BDF8" opacity="0.54"/>
    <circle cx="71.4" cy="258.6" r="3" fill="#38BDF8" opacity="0.61"/>
    <circle cx="104.8" cy="256.7" r="3" fill="#C084FC" opacity="0.79"/>
    <circle cx="161.1" cy="252.7" r="3" fill="#6B21A8" opacity="0.77"/>
    <circle cx="192.2" cy="258.3" r="3" fill="#38BDF8" opacity="0.56"/>
    <circle cx="258.8" cy="252.8" r="3" fill="#38BDF8" opacity="0.72"/>
    <circle cx="282.2" cy="258.4" r="3" fill="#22D3EE" opacity="0.78"/>
    <circle cx="345.9" cy="258.4" r="3" fill="#C084FC" opacity="0.49"/>
    <circle cx="402.6" cy="253.9" r="3" fill="#A855F7" opacity="0.58"/>
    <circle cx="554.4" cy="255.2" r="3" fill="#38BDF8" opacity="0.35"/>
    <circle cx="704.0" cy="258.2" r="3" fill="#A855F7" opacity="0.65"/>
    <circle cx="763.8" cy="257.0" r="3" fill="#22D3EE" opacity="0.51"/>
    <circle cx="827.4" cy="251.0" r="3" fill="#A855F7" opacity="0.78"/>
    <circle cx="886.4" cy="258.6" r="3" fill="#C084FC" opacity="0.35"/>
    <circle cx="1007.9" cy="251.3" r="3" fill="#22D3EE" opacity="0.57"/>
    <circle cx="1062.8" cy="254.9" r="3" fill="#38BDF8" opacity="0.67"/>
    <circle cx="1098.6" cy="252.4" r="3" fill="#22D3EE" opacity="0.74"/>
    <circle cx="72.3" cy="286.8" r="3" fill="#22D3EE" opacity="0.68"/>
    <circle cx="198.6" cy="284.0" r="3" fill="#38BDF8" opacity="0.37"/>
    <circle cx="225.2" cy="284.1" r="3" fill="#22D3EE" opacity="0.74"/>
    <circle cx="283.0" cy="284.9" r="3" fill="#A855F7" opacity="0.37"/>
    <circle cx="316.5" cy="288.0" r="3" fill="#6B21A8" opacity="0.31"/>
    <circle cx="345.9" cy="285.4" r="3" fill="#6B21A8" opacity="0.36"/>
    <circle cx="378.1" cy="285.2" r="3" fill="#38BDF8" opacity="0.62"/>
    <circle cx="405.4" cy="287.4" r="3" fill="#A855F7" opacity="0.39"/>
    <circle cx="433.1" cy="281.9" r="3" fill="#38BDF8" opacity="0.70"/>
    <circle cx="554.7" cy="288.3" r="3" fill="#22D3EE" opacity="0.65"/>
    <circle cx="736.7" cy="286.8" r="3" fill="#A855F7" opacity="0.63"/>
    <circle cx="762.8" cy="287.9" r="3" fill="#6B21A8" opacity="0.41"/>
    <circle cx="795.2" cy="285.5" r="3" fill="#C084FC" opacity="0.75"/>
    <circle cx="821.1" cy="282.1" r="3" fill="#A855F7" opacity="0.53"/>
    <circle cx="1128.4" cy="287.3" r="3" fill="#22D3EE" opacity="0.66"/>
    <circle cx="1185.2" cy="287.2" r="3" fill="#A855F7" opacity="0.60"/>
    <circle cx="44.9" cy="313.3" r="3" fill="#C084FC" opacity="0.48"/>
    <circle cx="71.5" cy="315.1" r="3" fill="#22D3EE" opacity="0.38"/>
    <circle cx="226.0" cy="317.8" r="3" fill="#22D3EE" opacity="0.36"/>
    <circle cx="258.0" cy="311.7" r="3" fill="#C084FC" opacity="0.61"/>
    <circle cx="284.9" cy="314.7" r="3" fill="#A855F7" opacity="0.49"/>
    <circle cx="402.1" cy="315.0" r="3" fill="#6B21A8" opacity="0.43"/>
    <circle cx="466.0" cy="313.0" r="3" fill="#A855F7" opacity="0.80"/>
    <circle cx="586.3" cy="318.2" r="3" fill="#6B21A8" opacity="0.62"/>
    <circle cx="763.2" cy="316.9" r="3" fill="#6B21A8" opacity="0.40"/>
    <circle cx="827.5" cy="314.6" r="3" fill="#A855F7" opacity="0.79"/>
    <circle cx="851.9" cy="318.3" r="3" fill="#22D3EE" opacity="0.67"/>
    <circle cx="1128.2" cy="311.7" r="3" fill="#C084FC" opacity="0.63"/>
    <circle cx="1153.9" cy="318.0" r="3" fill="#A855F7" opacity="0.69"/>
    <circle cx="46.0" cy="347.2" r="3" fill="#38BDF8" opacity="0.56"/>
    <circle cx="161.8" cy="349.0" r="3" fill="#C084FC" opacity="0.68"/>
    <circle cx="254.2" cy="341.7" r="3" fill="#22D3EE" opacity="0.34"/>
    <circle cx="288.0" cy="342.3" r="3" fill="#38BDF8" opacity="0.78"/>
    <circle cx="348.3" cy="341.8" r="3" fill="#22D3EE" opacity="0.67"/>
    <circle cx="524.7" cy="344.3" r="3" fill="#6B21A8" opacity="0.59"/>
    <circle cx="614.0" cy="345.1" r="3" fill="#C084FC" opacity="0.33"/>
    <circle cx="646.7" cy="342.0" r="3" fill="#A855F7" opacity="0.36"/>
    <circle cx="767.8" cy="344.0" r="3" fill="#6B21A8" opacity="0.57"/>
    <circle cx="796.2" cy="347.9" r="3" fill="#A855F7" opacity="0.35"/>
    <circle cx="827.7" cy="345.1" r="3" fill="#22D3EE" opacity="0.60"/>
    <circle cx="885.4" cy="348.9" r="3" fill="#6B21A8" opacity="0.39"/>
    <circle cx="914.1" cy="342.0" r="3" fill="#C084FC" opacity="0.65"/>
    <circle cx="974.3" cy="345.1" r="3" fill="#6B21A8" opacity="0.71"/>
    <circle cx="1031.9" cy="347.5" r="3" fill="#A855F7" opacity="0.35"/>
    <circle cx="1093.3" cy="346.3" r="3" fill="#A855F7" opacity="0.72"/>
    <circle cx="1128.4" cy="343.5" r="3" fill="#C084FC" opacity="0.70"/>
    <circle cx="11.8" cy="374.4" r="3" fill="#C084FC" opacity="0.31"/>
    <circle cx="73.8" cy="371.0" r="3" fill="#22D3EE" opacity="0.63"/>
    <circle cx="137.2" cy="377.3" r="3" fill="#C084FC" opacity="0.45"/>
    <circle cx="194.4" cy="374.8" r="3" fill="#22D3EE" opacity="0.31"/>
    <circle cx="341.2" cy="374.6" r="3" fill="#38BDF8" opacity="0.37"/>
    <circle cx="402.7" cy="377.6" r="3" fill="#C084FC" opacity="0.62"/>
    <circle cx="612.2" cy="375.0" r="3" fill="#38BDF8" opacity="0.56"/>
    <circle cx="645.8" cy="376.2" r="3" fill="#22D3EE" opacity="0.66"/>
    <circle cx="733.7" cy="373.7" r="3" fill="#C084FC" opacity="0.40"/>
    <circle cx="763.8" cy="372.2" r="3" fill="#22D3EE" opacity="0.69"/>
    <circle cx="797.7" cy="373.0" r="3" fill="#6B21A8" opacity="0.72"/>
    <circle cx="821.3" cy="375.9" r="3" fill="#A855F7" opacity="0.47"/>
    <circle cx="886.1" cy="371.9" r="3" fill="#A855F7" opacity="0.51"/>
    <circle cx="942.7" cy="373.9" r="3" fill="#38BDF8" opacity="0.74"/>
    <circle cx="971.5" cy="373.8" r="3" fill="#22D3EE" opacity="0.38"/>
    <circle cx="1128.2" cy="376.3" r="3" fill="#38BDF8" opacity="0.71"/>
    <circle cx="1158.3" cy="375.3" r="3" fill="#6B21A8" opacity="0.32"/>
    <circle cx="1188.5" cy="371.4" r="3" fill="#6B21A8" opacity="0.70"/>
    <circle cx="18.9" cy="402.0" r="3" fill="#22D3EE" opacity="0.66"/>
    <circle cx="41.5" cy="405.1" r="3" fill="#C084FC" opacity="0.37"/>
    <circle cx="132.1" cy="401.4" r="3" fill="#A855F7" opacity="0.74"/>
    <circle cx="165.3" cy="402.1" r="3" fill="#C084FC" opacity="0.52"/>
    <circle cx="257.7" cy="404.8" r="3" fill="#6B21A8" opacity="0.34"/>
    <circle cx="288.3" cy="407.6" r="3" fill="#6B21A8" opacity="0.35"/>
    <circle cx="319.0" cy="406.9" r="3" fill="#C084FC" opacity="0.79"/>
    <circle cx="347.9" cy="405.8" r="3" fill="#38BDF8" opacity="0.70"/>
    <circle cx="461.4" cy="408.5" r="3" fill="#38BDF8" opacity="0.72"/>
    <circle cx="642.8" cy="403.8" r="3" fill="#22D3EE" opacity="0.60"/>
    <circle cx="796.7" cy="404.7" r="3" fill="#6B21A8" opacity="0.60"/>
    <circle cx="854.6" cy="408.7" r="3" fill="#6B21A8" opacity="0.74"/>
    <circle cx="914.8" cy="406.5" r="3" fill="#C084FC" opacity="0.67"/>
    <circle cx="945.6" cy="402.4" r="3" fill="#6B21A8" opacity="0.61"/>
    <circle cx="978.8" cy="404.5" r="3" fill="#22D3EE" opacity="0.41"/>
    <circle cx="1035.7" cy="402.5" r="3" fill="#C084FC" opacity="0.69"/>
    <circle cx="1098.2" cy="402.3" r="3" fill="#A855F7" opacity="0.32"/>
    <circle cx="1154.1" cy="406.5" r="3" fill="#6B21A8" opacity="0.34"/>
    <circle cx="12.8" cy="432.5" r="3" fill="#38BDF8" opacity="0.61"/>
    <circle cx="71.3" cy="436.8" r="3" fill="#22D3EE" opacity="0.69"/>
    <circle cx="137.9" cy="436.9" r="3" fill="#38BDF8" opacity="0.78"/>
    <circle cx="162.1" cy="437.0" r="3" fill="#A855F7" opacity="0.47"/>
    <circle cx="317.1" cy="437.2" r="3" fill="#22D3EE" opacity="0.45"/>
    <circle cx="463.8" cy="435.0" r="3" fill="#A855F7" opacity="0.39"/>
    <circle cx="528.9" cy="438.2" r="3" fill="#A855F7" opacity="0.36"/>
    <circle cx="554.7" cy="436.6" r="3" fill="#C084FC" opacity="0.69"/>
    <circle cx="581.7" cy="432.5" r="3" fill="#A855F7" opacity="0.44"/>
    <circle cx="647.9" cy="433.7" r="3" fill="#38BDF8" opacity="0.46"/>
    <circle cx="673.2" cy="437.6" r="3" fill="#22D3EE" opacity="0.50"/>
    <circle cx="765.4" cy="435.6" r="3" fill="#A855F7" opacity="0.57"/>
    <circle cx="824.1" cy="438.2" r="3" fill="#22D3EE" opacity="0.44"/>
    <circle cx="858.1" cy="432.6" r="3" fill="#6B21A8" opacity="0.37"/>
    <circle cx="888.4" cy="438.2" r="3" fill="#A855F7" opacity="0.39"/>
    <circle cx="945.1" cy="437.6" r="3" fill="#6B21A8" opacity="0.42"/>
    <circle cx="1031.5" cy="436.0" r="3" fill="#6B21A8" opacity="0.72"/>
    <circle cx="1122.5" cy="431.7" r="3" fill="#6B21A8" opacity="0.59"/>
    <circle cx="1156.3" cy="438.7" r="3" fill="#6B21A8" opacity="0.36"/>
    <circle cx="1186.6" cy="436.0" r="3" fill="#A855F7" opacity="0.53"/>
    <circle cx="44.1" cy="461.3" r="3" fill="#22D3EE" opacity="0.64"/>
    <circle cx="108.9" cy="462.0" r="3" fill="#A855F7" opacity="0.77"/>
    <circle cx="222.8" cy="466.4" r="3" fill="#A855F7" opacity="0.68"/>
    <circle cx="257.4" cy="463.4" r="3" fill="#A855F7" opacity="0.63"/>
    <circle cx="468.4" cy="467.7" r="3" fill="#C084FC" opacity="0.49"/>
    <circle cx="525.6" cy="462.8" r="3" fill="#C084FC" opacity="0.53"/>
    <circle cx="558.0" cy="465.1" r="3" fill="#6B21A8" opacity="0.69"/>
    <circle cx="586.7" cy="465.1" r="3" fill="#6B21A8" opacity="0.50"/>
    <circle cx="677.0" cy="461.2" r="3" fill="#C084FC" opacity="0.59"/>
    <circle cx="736.7" cy="462.7" r="3" fill="#A855F7" opacity="0.58"/>
    <circle cx="767.7" cy="467.2" r="3" fill="#38BDF8" opacity="0.79"/>
    <circle cx="823.3" cy="461.8" r="3" fill="#38BDF8" opacity="0.50"/>
    <circle cx="852.2" cy="466.9" r="3" fill="#A855F7" opacity="0.54"/>
    <circle cx="944.3" cy="467.8" r="3" fill="#C084FC" opacity="0.70"/>
    <circle cx="1006.4" cy="463.4" r="3" fill="#6B21A8" opacity="0.66"/>
    <circle cx="1032.0" cy="465.4" r="3" fill="#38BDF8" opacity="0.51"/>
    <circle cx="1068.4" cy="466.7" r="3" fill="#38BDF8" opacity="0.34"/>
    <circle cx="1095.6" cy="464.5" r="3" fill="#C084FC" opacity="0.34"/>
    <circle cx="1126.6" cy="463.4" r="3" fill="#22D3EE" opacity="0.63"/>
    <circle cx="1185.3" cy="462.2" r="3" fill="#6B21A8" opacity="0.45"/>
    <circle cx="15.5" cy="494.6" r="3" fill="#A855F7" opacity="0.79"/>
    <circle cx="101.7" cy="494.0" r="3" fill="#22D3EE" opacity="0.33"/>
    <circle cx="132.4" cy="497.5" r="3" fill="#A855F7" opacity="0.78"/>
    <circle cx="166.0" cy="492.3" r="3" fill="#6B21A8" opacity="0.61"/>
    <circle cx="192.3" cy="492.0" r="3" fill="#38BDF8" opacity="0.42"/>
    <circle cx="408.4" cy="494.6" r="3" fill="#38BDF8" opacity="0.48"/>
    <circle cx="466.4" cy="493.7" r="3" fill="#C084FC" opacity="0.60"/>
    <circle cx="556.2" cy="493.2" r="3" fill="#A855F7" opacity="0.60"/>
    <circle cx="732.3" cy="497.1" r="3" fill="#38BDF8" opacity="0.32"/>
    <circle cx="825.7" cy="491.9" r="3" fill="#6B21A8" opacity="0.42"/>
    <circle cx="854.6" cy="493.6" r="3" fill="#22D3EE" opacity="0.31"/>
    <circle cx="911.8" cy="491.8" r="3" fill="#C084FC" opacity="0.55"/>
    <circle cx="945.3" cy="496.8" r="3" fill="#6B21A8" opacity="0.32"/>
    <circle cx="974.3" cy="491.2" r="3" fill="#38BDF8" opacity="0.79"/>
    <circle cx="1157.3" cy="496.8" r="3" fill="#A855F7" opacity="0.50"/>
    <circle cx="1184.3" cy="492.3" r="3" fill="#A855F7" opacity="0.58"/>
    <circle cx="46.2" cy="527.5" r="3" fill="#38BDF8" opacity="0.38"/>
    <circle cx="78.9" cy="527.6" r="3" fill="#A855F7" opacity="0.61"/>
    <circle cx="108.7" cy="525.6" r="3" fill="#38BDF8" opacity="0.73"/>
    <circle cx="137.1" cy="526.2" r="3" fill="#A855F7" opacity="0.72"/>
    <circle cx="162.0" cy="526.2" r="3" fill="#C084FC" opacity="0.62"/>
    <circle cx="254.9" cy="528.6" r="3" fill="#A855F7" opacity="0.46"/>
    <circle cx="341.2" cy="528.4" r="3" fill="#22D3EE" opacity="0.70"/>
    <circle cx="372.8" cy="526.7" r="3" fill="#6B21A8" opacity="0.73"/>
    <circle cx="408.4" cy="527.4" r="3" fill="#22D3EE" opacity="0.48"/>
    <circle cx="491.9" cy="524.9" r="3" fill="#6B21A8" opacity="0.64"/>
    <circle cx="524.9" cy="526.1" r="3" fill="#38BDF8" opacity="0.71"/>
    <circle cx="552.5" cy="521.6" r="3" fill="#C084FC" opacity="0.79"/>
    <circle cx="671.7" cy="523.7" r="3" fill="#6B21A8" opacity="0.35"/>
    <circle cx="795.3" cy="523.3" r="3" fill="#22D3EE" opacity="0.70"/>
    <circle cx="821.6" cy="527.5" r="3" fill="#A855F7" opacity="0.37"/>
    <circle cx="856.4" cy="528.1" r="3" fill="#22D3EE" opacity="0.44"/>
    <circle cx="888.4" cy="527.5" r="3" fill="#A855F7" opacity="0.49"/>
    <circle cx="914.6" cy="522.5" r="3" fill="#A855F7" opacity="0.76"/>
    <circle cx="1001.7" cy="527.8" r="3" fill="#A855F7" opacity="0.32"/>
    <circle cx="1033.2" cy="526.8" r="3" fill="#38BDF8" opacity="0.79"/>
    <circle cx="1093.0" cy="521.7" r="3" fill="#6B21A8" opacity="0.78"/>
    <circle cx="1121.3" cy="528.6" r="3" fill="#22D3EE" opacity="0.72"/>
    <circle cx="46.1" cy="555.1" r="3" fill="#22D3EE" opacity="0.54"/>
    <circle cx="135.1" cy="551.2" r="3" fill="#6B21A8" opacity="0.72"/>
    <circle cx="166.2" cy="556.6" r="3" fill="#C084FC" opacity="0.65"/>
    <circle cx="405.3" cy="552.0" r="3" fill="#22D3EE" opacity="0.56"/>
    <circle cx="463.9" cy="557.2" r="3" fill="#C084FC" opacity="0.58"/>
    <circle cx="524.3" cy="552.3" r="3" fill="#38BDF8" opacity="0.61"/>
    <circle cx="703.9" cy="558.8" r="3" fill="#C084FC" opacity="0.78"/>
    <circle cx="793.9" cy="555.6" r="3" fill="#22D3EE" opacity="0.71"/>
    <circle cx="824.9" cy="558.4" r="3" fill="#22D3EE" opacity="0.34"/>
    <circle cx="855.5" cy="557.0" r="3" fill="#C084FC" opacity="0.31"/>
    <circle cx="1062.9" cy="557.7" r="3" fill="#22D3EE" opacity="0.55"/>
    <circle cx="1096.1" cy="553.0" r="3" fill="#A855F7" opacity="0.34"/>
    <circle cx="1151.1" cy="551.3" r="3" fill="#6B21A8" opacity="0.66"/>
    <circle cx="1184.7" cy="559.0" r="3" fill="#C084FC" opacity="0.45"/>
    <circle cx="13.0" cy="581.8" r="3" fill="#6B21A8" opacity="0.76"/>
    <circle cx="42.2" cy="588.1" r="3" fill="#38BDF8" opacity="0.78"/>
    <circle cx="75.3" cy="583.4" r="3" fill="#C084FC" opacity="0.36"/>
    <circle cx="284.4" cy="584.6" r="3" fill="#22D3EE" opacity="0.53"/>
    <circle cx="432.5" cy="583.0" r="3" fill="#C084FC" opacity="0.52"/>
    <circle cx="552.1" cy="582.8" r="3" fill="#22D3EE" opacity="0.55"/>
    <circle cx="584.4" cy="584.4" r="3" fill="#C084FC" opacity="0.70"/>
    <circle cx="644.0" cy="583.2" r="3" fill="#22D3EE" opacity="0.74"/>
    <circle cx="704.1" cy="585.7" r="3" fill="#38BDF8" opacity="0.61"/>
    <circle cx="733.2" cy="585.2" r="3" fill="#38BDF8" opacity="0.56"/>
    <circle cx="796.2" cy="587.8" r="3" fill="#A855F7" opacity="0.72"/>
    <circle cx="944.2" cy="585.1" r="3" fill="#6B21A8" opacity="0.75"/>
    <circle cx="229.0" cy="611.3" r="3" fill="#C084FC" opacity="0.34"/>
    <circle cx="346.0" cy="613.8" r="3" fill="#A855F7" opacity="0.49"/>
    <circle cx="647.4" cy="613.7" r="3" fill="#C084FC" opacity="0.33"/>
    <circle cx="708.0" cy="612.7" r="3" fill="#38BDF8" opacity="0.77"/>
    <circle cx="737.6" cy="614.1" r="3" fill="#38BDF8" opacity="0.44"/>
    <circle cx="764.0" cy="616.2" r="3" fill="#22D3EE" opacity="0.38"/>
    <circle cx="798.5" cy="616.4" r="3" fill="#C084FC" opacity="0.68"/>
    <circle cx="975.9" cy="617.5" r="3" fill="#38BDF8" opacity="0.30"/>
    <circle cx="1032.7" cy="611.1" r="3" fill="#38BDF8" opacity="0.42"/>
  </g>
</svg>