<svg xmlns="http://www.w3.org/2000/svg" width="1200" height="630" viewBox="0 0 1200 630">
  <rect width="1200" height="630" fill="#1c1917"/>
  <!-- Wave overlay -->
  <path d="M0 315 Q300 252 600 315 T1200 315" stroke="#4B5563" stroke-width="1" fill="none" opacity="0.3"/>
  <!-- Game of Life cells -->
  <g>
    <circle cx="11.9" cy="17.2" r="3" fill="#78716C" opacity="0.63"/>
    <circle cx="104.7" cy="11.8" r="3" fill="#78716C" opacity="0.48"/>
    <circle cx="134.2" cy="12.3" r="3" fill="#FDBA74" opacity="0.75"/>
    <circle cx="166.1" cy="11.9" r="3" fill="#F97316" opacity="0.37"/>
    <circle cx="255.1" cy="13.1" r="3" fill="#F97316" opacity="0.72"/>
    <circle cx="313.9" cy="12.8" r="3" fill="#FDBA74" opacity="0.36"/>
    <circle cx="348.6" cy="13.3" r="3" fill="#78716C" opacity="0.69"/>
    <circle cx="403.8" cy="18.3" r="3" fill="#FDBA74" opacity="0.74"/>
    <circle cx="466.8" cy="18.8" r="3" fill="#525252" opacity="0.69"/>
    <circle cx="498.9" cy="11.4" r="3" fill="#FDBA74" opacity="0.35"/>
    <circle cx="521.8" cy="11.5" r="3" fill="#78716C" opacity="0.57"/>
    <circle cx="584.5" cy="13.1" r="3" fill="#78716C" opacity="0.39"/>
    <circle cx="645.4" cy="13.5" r="3" fill="#78716C" opacity="0.48"/>
    <circle cx="677.4" cy="14.0" r="3" fill="#F97316" opacity="0.71"/>
    <circle cx="767.5" cy="13.1" r="3" fill="#F97316" opacity="0.79"/>
    <circle cx="828.0" cy="15.8" r="3" fill="#525252" opacity="0.33"/>
    <circle cx="855.7" cy="18.7" r="3" fill="#F97316" opacity="0.60"/>
    <circle cx="916.0" cy="12.0" r="3" fill="#F97316" opacity="0.40"/>
    <circle cx="1009.0" cy="17.9" r="3" fill="#525252" opacity="0.36"/>
    <circle cx="1156.0" cy="14.0" r="3" fill="#FDBA74" opacity="0.55"/>
    <circle cx="18.9" cy="47.8" r="3" fill="#78716C" opacity="0.36"/>
    <circle cx="104.1" cy="41.8" r="3" fill="#F97316" opacity="0.39"/>
    <circle cx="133.9" cy="41.8" r="3" fill="#F97316" opacity="0.37"/>
    <circle cx="167.7" cy="41.5" r="3" fill="#FDBA74" opacity="0.79"/>
    <circle cx="195.7" cy="41.8" r="3" fill="#EA580C" opacity="0.63"/>
    <circle cx="226.4" cy="46.2" r="3" fill="#FDBA74" opacity="0.44"/>
    <circle cx="344.1" cy="44.9" r="3" fill="#EA580C" opacity="0.62"/>
    <circle cx="401.6" cy="41.9" r="3" fill="#EA580C" opacity="0.66"/>
    <circle cx="433.5" cy="43.7" r="3" fill="#EA580C" opacity="0.57"/>
    <circle cx="671.7" cy="46.3" r="3" fill="#F97316" opacity="0.46"/>
    <circle cx="702.8" cy="44.3" r="3" fill="#78716C" opacity="0.75"/>
    <circle cx="735.1" cy="46.5" r="3" fill="#EA580C" opacity="0.70"/>
    <circle cx="825.5" cy="41.8" r="3" fill="#FDBA74" opacity="0.50"/>
    <circle cx="946.7" cy="48.2" r="3" fill="#F97316" opacity="0.51"/>
    <circle cx="975.6" cy="43.5" r="3" fill="#525252" opacity="0.51"/>
    <circle cx="1123.2" cy="47.3" r="3" fill="#525252" opacity="0.55"/>
    <circle cx="75.1" cy="72.2" r="3" fill="#FDBA74" opacity="0.36"/>
    <circle cx="137.1" cy="74.9" r="3" fill="#78716C" opacity="0.53"/>
    <circle cx="196.6" cy="74.4" r="3" fill="#78716C" opacity="0.43"/>
    <circle cx="223.7" cy="74.7" r="3" fill="#FDBA74" opacity="0.33"/>
    <circle cx="255.6" cy="72.2" r="3" fill="#F97316" opacity="0.74"/>
    <circle cx="373.6" cy="76.3" r="3" fill="#78716C" opacity="0.77"/>
    <circle cx="406.1" cy="74.7" r="3" fill="#78716C" opacity="0.51"/>
    <circle cx="433.7" cy="71.1" r="3" fill="#EA580C" opacity="0.38"/>
    <circle cx="462.8" cy="72.8" r="3" fill="#EA580C" opacity="0.68"/>
    <circle cx="492.0" cy="72.1" r="3" fill="#525252" opacity="0.72"/>
    <circle cx="552.7" cy="74.4" r="3" fill="#525252" opacity="0.59"/>
    <circle cx="588.3" cy="78.2" r="3" fill="#F97316" opacity="0.52"/>
    <circle cx="615.0" cy="73.3" r="3" fill="#F97316" opacity="0.33"/>
    <circle cx="642.6" cy="75.9" r="3" fill="#F97316" opacity="0.40"/>
    <circle cx="672.2" cy="75.5" r="3" fill="#FDBA74" opacity="0.73"/>
    <circle cx="707.9" cy="72.2" r="3" fill="#EA580C" opacity="0.43"/>
    <circle cx="793.6" cy="78.1" r="3" fill="#EA580C" opacity="0.49"/>
    <circle cx="976.9" cy="71.9" r="3" fill="#EA580C" opacity="0.65"/>
    <circle cx="1008.7" cy="76.8" r="3" fill="#78716C" opacity="0.70"/>
    <circle cx="11.4" cy="103.4" r="3" fill="#FDBA74" opacity="0.45"/>
    <circle cx="45.4" cy="104.1" r="3" fill="#EA580C" opacity="0.45"/>
    <circle cx="78.3" cy="108.4" r="3" fill="#FDBA74" opacity="0.70"/>
    <circle cx="106.3" cy="103.6" r="3" fill="#78716C" opacity="0.46"/>
    <circle cx="134.6" cy="105.2" r="3" fill="#525252" opacity="0.62"/>
    <circle cx="165.1" cy="101.5" r="3" fill="#F97316" opacity="0.38"/>
    <circle cx="196.8" cy="101.5" r="3" fill="#F97316" opacity="0.75"/>
    <circle cx="257.9" cy="108.1" r="3" fill="#F97316" opacity="0.40"/>
    <circle cx="318.8" cy="102.8" r="3" fill="#F97316" opacity="0.78"/>
    <circle cx="344.7" cy="102.9" r="3" fill="#FDBA74" opacity="0.56"/>
    <circle cx="376.1" cy="107.5" r="3" fill="#EA580C" opacity="0.32"/>
    <circle cx="467.6" cy="108.2" r="3" fill="#78716C" opacity="0.54"/>
    <circle cx="522.2" cy="107.8" r="3" fill="#F97316" opacity="0.79"/>
    <circle cx="588.6" cy="108.4" r="3" fill="#78716C" opacity="0.69"/>
    <circle cx="615.5" cy="107.2" r="3" fill="#F97316" opacity="0.73"/>
    <circle cx="644.9" cy="107.3" r="3" fill="#F97316" opacity="0.54"/>
    <circle cx="677.5" cy="101.0" r="3" fill="#FDBA74" opacity="0.46"/>
    <circle cx="708.9" cy="104.0" r="3" fill="#525252" opacity="0.49"/>
    <circle cx="856.8" cy="104.3" r="3" fill="#78716C" opacity="0.52"/>
    <circle cx="1001.8" cy="102.8" r="3" fill="#EA580C" opacity="0.80"/>
    <circle cx="1154.1" cy="101.4" r="3" fill="#525252" opacity="0.63"/>
    <circle cx="45.1" cy="133.4" r="3" fill="#525252" opacity="0.61"/>
    <circle cx="195.0" cy="134.5" r="3" fill="#525252" opacity="0.75"/>
    <circle cx="228.8" cy="132.7" r="3" fill="#FDBA74" opacity="0.67"/>
    <circle cx="348.1" cy="135.5" r="3" fill="#525252" opacity="0.73"/>
    <circle cx="673.2" cy="136.6" r="3" fill="#EA580C" opacity="0.61"/>
    <circle cx="738.2" cy="136.1" r="3" fill="#FDBA74" opacity="0.77"/>
    <circle cx="857.3" cy="139.0" r="3" fill="#525252" opacity="0.43"/>
    <circle cx="971.7" cy="138.7" r="3" fill="#FDBA74" opacity="0.42"/>
    <circle cx="1007.9" cy="135.6" r="3" fill="#FDBA74" opacity="0.48"/>
    <circle cx="1068.2" cy="135.3" r="3" fill="#EA580C" opacity="0.54"/>
    <circle cx="15.5" cy="165.0" r="3" fill="#525252" opacity="0.32"/>
    <circle cx="44.7" cy="161.1" r="3" fill="#FDBA74" opacity="0.64"/>
    <circle cx="168.1" cy="166.0" r="3" fill="#FDBA74" opacity="0.68"/>
    <circle cx="318.9" cy="162.3" r="3" fill="#FDBA74" opacity="0.76"/>
    <circle cx="493.2" cy="163.1" r="3" fill="#EA580C" opacity="0.66"/>
    <circle cx="523.8" cy="168.8" r="3" fill="#78716C" opacity="0.41"/>
    <circle cx="587.3" cy="162.1" r="3" fill="#525252" opacity="0.34"/>
    <circle cx="615.8" cy="165.0" r="3" fill="#F97316" opacity="0.70"/>
    <circle cx="642.8" cy="164.5" r="3" fill="#78716C" opacity="0.79"/>
    <circle cx="738.2" cy="164.1" r="3" fill="#EA580C" opacity="0.36"/>
    <circle cx="796.9" cy="162.9" r="3" fill="#78716C" opacity="0.47"/>
    <circle cx="855.0" cy="162.2" r="3" fill="#EA580C" opacity="0.50"/>
    <circle cx="912.6" cy="165.1" r="3" fill="#EA580C" opacity="0.62"/>
    <circle cx="943.1" cy="163.6" r="3" fill="#78716C" opacity="0.53"/>
    <circle cx="1154.4" cy="169.0" r="3" fill="#F97316" opacity="0.78"/>
    <circle cx="15.1" cy="194.9" r="3" fill="#FDBA74" opacity="0.49"/>
    <circle cx="314.5" cy="197.4" r="3" fill="#F97316" opacity="0.71"/>
    <circle cx="345.8" cy="198.0" r="3" fill="#EA580C" opacity="0.65"/>
    <circle cx="493.7" cy="194.3" r="3" fill="#FDBA74" opacity="0.46"/>
    <circle cx="555.7" cy="195.9" r="3" fill="#EA580C" opacity="0.57"/>
    <circle cx="822.6" cy="191.6" r="3" fill="#525252" opacity="0.49"/>
    <circle cx="853.7" cy="195.2" r="3" fill="#EA580C" opacity="0.43"/>
    <circle cx="885.4" cy="195.0" r="3" fill="#78716C" opacity="0.59"/>
    <circle cx="918.0" cy="197.6" r="3" fill="#78716C" opacity="0.42"/>
    <circle cx="1005.1" cy="196.3" r="3" fill="#FDBA74" opacity="0.37"/>
    <circle cx="1062.7" cy="195.5" r="3" fill="#78716C" opacity="0.71"/>
    <circle cx="1124.5" cy="199.0" r="3" fill="#FDBA74" opacity="0.77"/>
    <circle cx="103.2" cy="228.9" r="3" fill="#78716C" opacity="0.58"/>
    <circle cx="377.7" cy="226.9" r="3" fill="#78716C" opacity="0.64"/>
    <circle cx="432.1" cy="227.1" r="3" fill="#78716C" opacity="0.67"/>
    <circle cx="522.1" cy="224.9" r="3" fill="#FDBA74" opacity="0.58"/>
    <circle cx="703.5" cy="223.0" r="3" fill="#EA580C" opacity="0.72"/>
    <circle cx="793.4" cy="227.1" r="3" fill="#F97316" opacity="0.75"/>
    <circle cx="851.3" cy="221.9" r="3" fill="#FDBA74" opacity="0.52"/>
    <circle cx="885.9" cy="223.0" r="3" fill="#F97316" opacity="0.63"/>
    <circle cx="945.8" cy="225.8" r="3" fill="#78716C" opacity="0.50"/>
    <circle cx="974.5" cy="225.1" r="3" fill="#F97316" opacity="0.51"/>
    <circle cx="1093.4" cy="226.2" r="3" fill="#EA580C" opacity="0.36"/>
    <circle cx="1127.1" cy="222.0" r="3" fill="#EA580C" opacity="0.48"/>
    <circle cx="1184.3" cy="223.8" r="3" fill="#525252" opacity="0.38"/>
    <circle cx="41.1" cy="254.6" r="3" fill="#EA580C" opacity="0.75"/>
    <circle cx="106.9" cy="255.7" r="3" fill="#525252" opacity="0.77"/>
    <circle cx="196.0" cy="253.0" r="3" fill="#FDBA74" opacity="0.54"/>
    <circle cx="226.5" cy="256.4" r="3" fill="#F97316" opacity="0.71"/>
    <circle cx="318.6" cy="256.1" r="3" fill="#78716C" opacity="0.51"/>
    <circle cx="404.6" cy="257.7" r="3" fill="#EA580C" opacity="0.49"/>
    <circle cx="522.3" cy="255.7" r="3" fill="#525252" opacity="0.36"/>
    <circle cx="588.6" cy="251.8" r="3" fill="#525252" opacity="0.56"/>
    <circle cx="642.1" cy="257.8" r="3" fill="#F97316" opacity="0.39"/>
    <circle cx="1006.2" cy="254.1" r="3" fill="#FDBA74" opacity="0.32"/>
    <circle cx="1032.8" cy="256.5" r="3" fill="#78716C" opacity="0.40"/>
    <circle cx="16.6" cy="281.0" r="3" fill="#FDBA74" opacity="0.31"/>
    <circle cx="197.5" cy="287.1" r="3" fill="#FDBA74" opacity="0.72"/>
    <circle cx="285.5" cy="283.9" r="3" fill="#78716C" opacity="0.65"/>
    <circle cx="553.9" cy="289.0" r="3" fill="#525252" opacity="0.68"/>
    <circle cx="584.4" cy="287.5" r="3" fill="#EA580C" opacity="0.34"/>
    <circle cx="611.7" cy="283.0" r="3" fill="#F97316" opacity="0.77"/>
    <circle cx="644.7" cy="288.8" r="3" fill="#FDBA74" opacity="0.67"/>
    <circle cx="763.6" cy="286.9" r="3" fill="#F97316" opacity="0.61"/>
    <circle cx="917.1" cy="283.8" r="3" fill="#525252" opacity="0.52"/>
    <circle cx="975.9" cy="288.3" r="3" fill="#F97316" opacity="0.73"/>
    <circle cx="1007.9" cy="281.8" r="3" fill="#78716C" opacity="0.75"/>
    <circle cx="1037.5" cy="282.8" r="3" fill="#FDBA74" opacity="0.45"/>
    <circle cx="1121.2" cy="287.3" r="3" fill="#78716C" opacity="0.61"/>
    <circle cx="1182.2" cy="282.5" r="3" fill="#525252" opacity="0.67"/>
    <circle cx="42.3" cy="315.3" r="3" fill="#EA580C" opacity="0.70"/>
    <circle cx="77.8" cy="314.7" r="3" fill="#EA580C" opacity="0.74"/>
    <circle cx="105.9" cy="311.4" r="3" fill="#78716C" opacity="0.60"/>
    <circle cx="135.6" cy="317.4" r="3" fill="#78716C" opacity="0.31"/>
    <circle cx="196.0" cy="316.3" r="3" fill="#FDBA74" opacity="0.71"/>
    <circle cx="258.5" cy="314.7" r="3" fill="#525252" opacity="0.51"/>
    <circle cx="437.7" cy="314.3" r="3" fill="#F97316" opacity="0.35"/>
    <circle cx="554.9" cy="318.1" r="3" fill="#EA580C" opacity="0.64"/>
    <circle cx="613.3" cy="311.7" r="3" fill="#FDBA74" opacity="0.50"/>
    <circle cx="735.4" cy="316.3" r="3" fill="#78716C" opacity="0.79"/>
    <circle cx="767.9" cy="317.1" r="3" fill="#F97316" opacity="0.72"/>
    <circle cx="794.9" cy="312.5" r="3" fill="#78716C" opacity="0.47"/>
    <circle cx="825.7" cy="313.1" r="3" fill="#EA580C" opacity="0.66"/>
    <circle cx="853.6" cy="318.8" r="3" fill="#525252" opacity="0.62"/>
    <circle cx="913.3" cy="317.3" r="3" fill="#EA580C" opacity="0.45"/>
    <circle cx="978.8" cy="313.3" r="3" fill="#FDBA74" opacity="0.59"/>
    <circle cx="1032.2" cy="315.0" r="3" fill="#F97316" opacity="0.35"/>
    <circle cx="1065.8" cy="317.0" r="3" fill="#525252" opacity="0.71"/>
    <circle cx="1123.8" cy="311.7" r="3" fill="#78716C" opacity="0.75"/>
    <circle cx="1153.7" cy="318.7" r="3" fill="#F97316" opacity="0.58"/>
    <circle cx="11.8" cy="341.3" r="3" fill="#525252" opacity="0.38"/>
    <circle cx="75.4" cy="344.7" r="3" fill="#FDBA74" opacity="0.32"/>
    <circle cx="104.9" cy="344.6" r="3" fill="#F97316" opacity="0.34"/>
    <circle cx="161.5" cy="345.2" r="3" fill="#525252" opacity="0.64"/>
    <circle cx="196.5" cy="343.2" r="3" fill="#FDBA74" opacity="0.40"/>
    <circle cx="255.2" cy="348.2" r="3" fill="#F97316" opacity="0.64"/>
    <circle cx="288.4" cy="343.6" r="3" fill="#78716C" opacity="0.59"/>
    <circle cx="318.2" cy="344.9" r="3" fill="#F97316" opacity="0.49"/>
    <circle cx="345.5" cy="348.8" r="3" fill="#EA580C" opacity="0.42"/>
    <circle cx="377.2" cy="347.2" r="3" fill="#EA580C" opacity="0.69"/>
    <circle cx="497.5" cy="346.1" r="3" fill="#FDBA74" opacity="0.40"/>
    <circle cx="584.9" cy="345.1" r="3" fill="#78716C" opacity="0.59"/>
    <circle cx="617.4" cy="344.5" r="3" fill="#525252" opacity="0.74"/>
    <circle cx="647.1" cy="343.7" r="3" fill="#EA580C" opacity="0.30"/>
    <circle cx="674.4" cy="342.9" r="3" fill="#F97316" opacity="0.54"/>
    <circle cx="735.5" cy="348.0" r="3" fill="#78716C" opacity="0.63"/>
    <circle cx="764.7" cy="348.8" r="3" fill="#F97316" opacity="0.55"/>
    <circle cx="821.5" cy="342.8" r="3" fill="#525252" opacity="0.45"/>
    <circle cx="854.7" cy="341.5" r="3" fill="#FDBA74" opacity="0.77"/>
    <circle cx="885.3" cy="341.1" r="3" fill="#EA580C" opacity="0.66"/>
    <circle cx="1001.2" cy="348.8" r="3" fill="#FDBA74" opacity="0.57"/>
    <circle cx="1038.5" cy="344.3" r="3" fill="#F97316" opacity="0.68"/>
    <circle cx="1066.3" cy="346.1" r="3" fill="#FDBA74" opacity="0.53"/>
    <circle cx="1094.1" cy="346.2" r="3" fill="#F97316" opacity="0.59"/>
    <circle cx="1186.8" cy="345.5" r="3" fill="#EA580C" opacity="0.41"/>
    <circle cx="14.8" cy="371.6" r="3" fill="#525252" opacity="0.78"/>
    <circle cx="45.4" cy="377.5" r="3" fill="#FDBA74" opacity="0.30"/>
    <circle cx="73.7" cy="378.6" r="3" fill="#FDBA74" opacity="0.53"/>
    <circle cx="108.8" cy="372.0" r="3" fill="#78716C" opacity="0.32"/>
    <circle cx="162.0" cy="377.5" r="3" fill="#525252" opacity="0.63"/>
    <circle cx="195.3" cy="371.7" r="3" fill="#EA580C" opacity="0.77"/>
    <circle cx="223.6" cy="375.5" r="3" fill="#F97316" opacity="0.55"/>
    <circle cx="288.4" cy="378.7" r="3" fill="#FDBA74" opacity="0.59"/>
    <circle cx="344.2" cy="373.7" r="3" fill="#EA580C" opacity="0.61"/>
    <circle cx="432.2" cy="375.3" r="3" fill="#F97316" opacity="0.40"/>
    <circle cx="557.7" cy="379.0" r="3" fill="#525252" opacity="0.58"/>
    <circle cx="737.8" cy="373.7" r="3" fill="#F97316" opacity="0.49"/>
    <circle cx="766.4" cy="375.8" r="3" fill="#525252" opacity="0.33"/>
    <circle cx="792.8" cy="376.2" r="3" fill="#F97316" opacity="0.58"/>
    <circle cx="827.5" cy="378.1" r="3" fill="#F97316" opacity="0.34"/>
    <circle cx="916.6" cy="375.1" r="3" fill="#F97316" opacity="0.67"/>
    <circle cx="1004.9" cy="377.9" r="3" fill="#EA580C" opacity="0.64"/>
    <circle cx="1096.6" cy="372.9" r="3" fill="#EA580C" opacity="0.48"/>
    <circle cx="18.9" cy="405.8" r="3" fill="#78716C" opacity="0.63"/>
    <circle cx="133.3" cy="405.1" r="3" fill="#525252" opacity="0.45"/>
    <circle cx="162.8" cy="405.7" r="3" fill="#525252" opacity="0.65"/>
    <circle cx="226.8" cy="404.5" r="3" fill="#525252" opacity="0.80"/>
    <circle cx="254.6" cy="405.9" r="3" fill="#EA580C" opacity="0.73"/>
    <circle cx="404.6" cy="407.3" r="3" fill="#EA580C" opacity="0.75"/>
    <circle cx="673.0" cy="402.2" r="3" fill="#EA580C" opacity="0.43"/>
    <circle cx="763.2" cy="403.8" r="3" fill="#EA580C" opacity="0.35"/>
    <circle cx="823.0" cy="406.3" r="3" fill="#F97316" opacity="0.63"/>
    <circle cx="857.1" cy="402.8" r="3" fill="#FDBA74" opacity="0.61"/>
    <circle cx="917.4" cy="408.4" r="3" fill="#78716C" opacity="0.33"/>
    <circle cx="1005.9" cy="406.5" r="3" fill="#EA580C" opacity="0.45"/>
    <circle cx="1035.2" cy="406.1" r="3" fill="#78716C" opacity="0.79"/>
    <circle cx="1091.4" cy="403.1" r="3" fill="#525252" opacity="0.37"/>
    <circle cx="1127.5" cy="407.4" r="3" fill="#EA580C" opacity="0.60"/>
    <circle cx="74.4" cy="435.9" r="3" fill="#78716C" opacity="0.45"/>
    <circle cx="106.7" cy="437.4" r="3" fill="#F97316" opacity="0.30"/>
    <circle cx="136.4" cy="433.6" r="3" fill="#FDBA74" opacity="0.80"/>
    <circle cx="167.3" cy="437.1" r="3" fill="#525252" opacity="0.70"/>
    <circle cx="318.8" cy="431.2" r="3" fill="#78716C" opacity="0.57"/>
    <circle cx="343.5" cy="431.2" r="3" fill="#F97316" opacity="0.39"/>
    <circle cx="434.6" cy="431.1" r="3" fill="#FDBA74" opacity="0.42"/>
    <circle cx="551.8" cy="435.7" r="3" fill="#F97316" opacity="0.32"/>
    <circle cx="613.7" cy="437.0" r="3" fill="#F97316" opacity="0.44"/>
    <circle cx="643.5" cy="435.5" r="3" fill="#525252" opacity="0.68"/>
    <circle cx="673.0" cy="435.5" r="3" fill="#525252" opacity="0.66"/>
    <circle cx="735.6" cy="436.6" r="3" fill="#F97316" opacity="0.62"/>
    <circle cx="765.6" cy="433.3" r="3" fill="#EA580C" opacity="0.48"/>
    <circle cx="945.3" cy="434.6" r="3" fill="#F97316" opacity="0.55"/>
    <circle cx="1092.1" cy="434.5" r="3" fill="#525252" opacity="0.33"/>
    <circle cx="1121.8" cy="434.8" r="3" fill="#EA580C" opacity="0.80"/>
    <circle cx="1152.2" cy="434.1" r="3" fill="#EA580C" opacity="0.37"/>
    <circle cx="1182.8" cy="432.7" r="3" fill="#EA580C" opacity="0.66"/>
    <circle cx="16.6" cy="465.3" r="3" fill="#78716C" opacity="0.38"/>
    <circle cx="46.8" cy="462.7" r="3" fill="#78716C" opacity="0.76"/>
    <circle cx="134.0" cy="468.4" r="3" fill="#78716C" opacity="0.42"/>
    <circle cx="161.0" cy="461.5" r="3" fill="#78716C" opacity="0.68"/>
    <circle cx="191.5" cy="463.5" r="3" fill="#525252" opacity="0.68"/>
    <circle cx="223.7" cy="463.9" r="3" fill="#78716C" opacity="0.41"/>
    <circle cx="315.1" cy="467.8" r="3" fill="#EA580C" opacity="0.68"/>
    <circle cx="341.9" cy="466.4" r="3" fill="#EA580C" opacity="0.50"/>
    <circle cx="401.9" cy="462.6" r="3" fill="#FDBA74" opacity="0.42"/>
    <circle cx="466.5" cy="463.6" r="3" fill="#F97316" opacity="0.51"/>
    <circle cx="554.1" cy="467.1" r="3" fill="#F97316" opacity="0.33"/>
    <circle cx="648.7" cy="463.4" r="3" fill="#525252" opacity="0.74"/>
    <circle cx="738.4" cy="463.6" r="3" fill="#78716C" opacity="0.61"/>
    <circle cx="761.3" cy="465.8" r="3" fill="#F97316" opacity="0.38"/>
    <circle cx="795.6" cy="468.3" r="3" fill="#525252" opacity="0.37"/>
    <circle cx="821.5" cy="464.1" r="3" fill="#FDBA74" opacity="0.79"/>
    <circle cx="852.1" cy="466.1" r="3" fill="#78716C" opacity="0.67"/>
    <circle cx="918.8" cy="463.9" r="3" fill="#EA580C" opacity="0.68"/>
    <circle cx="946.1" cy="466.9" r="3" fill="#78716C" opacity="0.34"/>
    <circle cx="977.9" cy="468.5" r="3" fill="#F97316" opacity="0.35"/>
    <circle cx="1097.2" cy="462.6" r="3" fill="#525252" opacity="0.67"/>
    <circle cx="1151.9" cy="464.3" r="3" fill="#F97316" opacity="0.62"/>
    <circle cx="12.9" cy="497.8" r="3" fill="#EA580C" opacity="0.53"/>
    <circle cx="47.8" cy="498.2" r="3" fill="#78716C" opacity="0.53"/>
    <circle cx="133.5" cy="497.5" r="3" fill="#78716C" opacity="0.73"/>
    <circle cx="161.3" cy="497.8" r="3" fill="#F97316" opacity="0.36"/>
    <circle cx="198.0" cy="491.5" r="3" fill="#EA580C" opacity="0.57"/>
    <circle cx="259.0" cy="495.5" r="3" fill="#EA580C" opacity="0.51"/>
    <circle cx="313.2" cy="494.2" r="3" fill="#78716C" opacity="0.73"/>
    <circle cx="438.6" cy="492.4" r="3" fill="#78716C" opacity="0.79"/>
    <circle cx="522.9" cy="494.9" r="3" fill="#F97316" opacity="0.52"/>
    <circle cx="672.4" cy="495.9" r="3" fill="#FDBA74" opacity="0.40"/>
    <circle cx="701.9" cy="493.0" r="3" fill="#525252" opacity="0.79"/>
    <circle cx="738.5" cy="497.3" r="3" fill="#525252" opacity="0.43"/>
    <circle cx="765.4" cy="497.1" r="3" fill="#F97316" opacity="0.31"/>
    <circle cx="792.2" cy="496.1" r="3" fill="#EA580C" opacity="0.73"/>
    <circle cx="823.2" cy="496.9" r="3" fill="#EA580C" opacity="0.53"/>
    <circle cx="914.7" cy="493.4" r="3" fill="#FDBA74" opacity="0.66"/>
    <circle cx="945.8" cy="493.3" r="3" fill="#EA580C" opacity="0.50"/>
    <circle cx="973.2" cy="493.0" r="3" fill="#EA580C" opacity="0.45"/>
    <circle cx="1004.7" cy="496.7" r="3" fill="#525252" opacity="0.50"/>
    <circle cx="1097.3" cy="492.3" r="3" fill="#525252" opacity="0.37"/>
    <circle cx="1156.0" cy="497.4" r="3" fill="#78716C" opacity="0.74"/>
    <circle cx="78.0" cy="525.3" r="3" fill="#78716C" opacity="0.51"/>
    <circle cx="133.6" cy="521.9" r="3" fill="#F97316" opacity="0.55"/>
    <circle cx="198.0" cy="527.7" r="3" fill="#F97316" opacity="0.71"/>
    <circle cx="256.7" cy="522.4" r="3" fill="#FDBA74" opacity="0.59"/>
    <circle cx="318.7" cy="523.8" r="3" fill="#F97316" opacity="0.70"/>
    <circle cx="374.4" cy="522.0" r="3" fill="#F97316" opacity="0.56"/>
    <circle cx="527.3" cy="523.2" r="3" fill="#FDBA74" opacity="0.55"/>
    <circle cx="581.5" cy="527.9" r="3" fill="#FDBA74" opacity="0.41"/>
    <circle cx="704.4" cy="523.7" r="3" fill="#525252" opacity="0.73"/>
    <circle cx="763.2" cy="527.2" r="3" fill="#525252" opacity="0.47"/>
    <circle cx="822.4" cy="524.5" r="3" fill="#EA580C" opacity="0.30"/>
    <circle cx="1004.6" cy="528.2" r="3" fill="#F97316" opacity="0.48"/>
    <circle cx="1062.2" cy="526.4" r="3" fill="#EA580C" opacity="0.47"/>
    <circle cx="1122.6" cy="527.1" r="3" fill="#F97316" opacity="0.36"/>
    <circle cx="45.0" cy="554.3" r="3" fill="#78716C" opacity="0.73"/>
    <circle cx="223.9" cy="558.4" r="3" fill="#EA580C" opacity="0.58"/>
    <circle cx="256.0" cy="557.9" r="3" fill="#FDBA74" opacity="0.45"/>
    <circle cx="314.8" cy="557.6" r="3" fill="#78716C" opacity="0.57"/>
    <circle cx="402.6" cy="553.8" r="3" fill="#F97316" opacity="0.36"/>
    <circle cx="553.6" cy="556.7" r="3" fill="#FDBA74" opacity="0.75"/>
    <circle cx="617.5" cy="555.3" r="3" fill="#FDBA74" opacity="0.44"/>
    <circle cx="648.6" cy="553.2" r="3" fill="#525252" opacity="0.45"/>
    <circle cx="703.5" cy="556.1" r="3" fill="#525252" opacity="0.30"/>
    <circle cx="763.6" cy="551.8" r="3" fill="#EA580C" opacity="0.63"/>
    <circle cx="826.1" cy="559.0" r="3" fill="#EA580C" opacity="0.50"/>
    <circle cx="851.6" cy="556.5" r="3" fill="#EA580C" opacity="0.32"/>
    <circle cx="884.2" cy="552.6" r="3" fill="#EA580C" opacity="0.58"/>
    <circle cx="916.3" cy="558.6" r="3" fill="#F97316" opacity="0.73"/>
    <circle cx="1001.6" cy="551.4" r="3" fill="#FDBA74" opacity="0.65"/>
    <circle cx="1153.1" cy="558.7" r="3" fill="#78716C" opacity="0.44"/>
    <circle cx="1186.1" cy="553.9" r="3" fill="#F97316" opacity="0.37"/>
    <circle cx="42.6" cy="587.4" r="3" fill="#78716C" opacity="0.39"/>
    <circle cx="137.9" cy="588.1" r="3" fill="#EA580C" opacity="0.61"/>
    <circle cx="166.3" cy="586.4" r="3" fill="#FDBA74" opacity="0.42"/>
    <circle cx="198.6" cy="581.2" r="3" fill="#78716C" opacity="0.75"/>
    <circle cx="226.6" cy="583.2" r="3" fill="#FDBA74" opacity="0.58"/>
    <circle cx="252.9" cy="585.7" r="3" fill="#F97316" opacity="0.48"/>
    <circle cx="283.0" cy="585.3" r="3" fill="#525252" opacity="0.64"/>
    <circle cx="402.5" cy="587.7" r="3" fill="#FDBA74" opacity="0.64"/>
    <circle cx="705.9" cy="586.6" r="3" fill="#EA580C" opacity="0.51"/>
    <circle cx="793.5" cy="583.3" r="3" fill="#FDBA74" opacity="0.39"/>
    <circle cx="855.5" cy="587.6" r="3" fill="#F97316" opacity="0.78"/>
    <circle cx="1064.5" cy="585.5" r="3" fill="#FDBA74" opacity="0.62"/>
    <circle cx="72.6" cy="611.7" r="3" fill="#78716C" opacity="0.51"/>
    <circle cx="103.7" cy="613.8" r="3" fill="#78716C" opacity="0.37"/>
    <circle cx="287.4" cy="615.6" r="3" fill="#F97316" opacity="0.56"/>
    <circle cx="613.2" cy="611.4" r="3" fill="#F97316" opacity="0.46"/>
    <circle cx="707.0" cy="612.4" r="3" fill="#78716C" opacity="0.70"/>
    <circle cx="731.1" cy="617.6" r="3" fill="#78716C" opacity="0.63"/>
    <circle cx="761.4" cy="612.9" r="3" fill="#78716C" opacity="0.80"/>
    <circle cx="824.7" cy="613.9" r="3" fill="#F97316" opacity="0.37"/>
    <circle cx="855.1" cy="618.9" r="3" fill="#F97316" opacity="0.60"/>
    <circle cx="912.5" cy="612.9" r="3" fill="#525252" opacity="0.39"/>
    <circle cx="948.3" cy="617.2" r="3" fill="#78716C" opacity="0.32"/>
    <circle cx="973.8" cy="618.1" r="3" fill="#EA580C" opacity="0.40"/>
    <circle cx="1001.1" cy="618.6" r="3" fill="#FDBA74" opacity="0.70"/>
  </g>
</svg>