<svg xmlns="http://www.w3.org/2000/svg" width="1200" height="630" viewBox="0 0 1200 630">
  <rect width="1200" height="630" fill="#0a0a0a"/>
  <!-- Wave overlay -->
  <path d="M0 315 Q300 252 600 315 T1200 315" stroke="#4B5563" stroke-width="1" fill="none" opacity="0.3"/>
  <!-- Game of Life cells -->
  <g>
    <circle cx="15.6" cy="18.6" r="3" fill="#FBBF24" opacity="0.78"/>
    <circle cx="106.9" cy="15.1" r="3" fill="#F59E0B" opacity="0.51"/>
    <circle cx="135.2" cy="16.9" r="3" fill="#F97316" opacity="0.46"/>
    <circle cx="161.1" cy="11.9" r="3" fill="#F59E0B" opacity="0.56"/>
    <circle cx="221.5" cy="11.7" r="3" fill="#F59E0B" opacity="0.46"/>
    <circle cx="287.0" cy="18.5" r="3" fill="#EF4444" opacity="0.61"/>
    <circle cx="316.2" cy="15.5" r="3" fill="#F97316" opacity="0.76"/>
    <circle cx="342.8" cy="15.4" r="3" fill="#F59E0B" opacity="0.53"/>
    <circle cx="375.8" cy="17.3" r="3" fill="#F59E0B" opacity="0.47"/>
    <circle cx="436.4" cy="13.7" r="3" fill="#DC2626" opacity="0.32"/>
    <circle cx="642.6" cy="16.5" r="3" fill="#F97316" opacity="0.52"/>
    <circle cx="794.7" cy="13.9" r="3" fill="#F59E0B" opacity="0.35"/>
    <circle cx="829.0" cy="11.7" r="3" fill="#DC2626" opacity="0.57"/>
    <circle cx="882.0" cy="19.0" r="3" fill="#FBBF24" opacity="0.33"/>
    <circle cx="916.0" cy="17.9" r="3" fill="#F97316" opacity="0.42"/>
    <circle cx="973.5" cy="16.4" r="3" fill="#F97316" opacity="0.77"/>
    <circle cx="1094.6" cy="15.9" r="3" fill="#DC2626" opacity="0.52"/>
    <circle cx="41.5" cy="46.3" r="3" fill="#DC2626" opacity="0.45"/>
    <circle cx="75.9" cy="46.9" r="3" fill="#FBBF24" opacity="0.60"/>
    <circle cx="106.7" cy="44.2" r="3" fill="#FBBF24" opacity="0.61"/>
    <circle cx="162.2" cy="47.8" r="3" fill="#EF4444" opacity="0.60"/>
    <circle cx="193.6" cy="47.9" r="3" fill="#EF4444" opacity="0.73"/>
    <circle cx="258.2" cy="48.8" r="3" fill="#F59E0B" opacity="0.46"/>
    <circle cx="342.1" cy="48.7" r="3" fill="#EF4444" opacity="0.54"/>
    <circle cx="524.0" cy="42.7" r="3" fill="#FBBF24" opacity="0.54"/>
    <circle cx="553.2" cy="44.7" r="3" fill="#EF4444" opacity="0.65"/>
    <circle cx="581.3" cy="44.4" r="3" fill="#F97316" opacity="0.77"/>
    <circle cx="767.2" cy="41.8" r="3" fill="#F59E0B" opacity="0.69"/>
    <circle cx="915.3" cy="41.9" r="3" fill="#F97316" opacity="0.80"/>
    <circle cx="942.6" cy="42.1" r="3" fill="#F97316" opacity="0.52"/>
    <circle cx="1097.1" cy="43.1" r="3" fill="#F59E0B" opacity="0.59"/>
    <circle cx="1186.9" cy="48.1" r="3" fill="#DC2626" opacity="0.77"/>
    <circle cx="16.7" cy="71.3" r="3" fill="#F59E0B" opacity="0.59"/>
    <circle cx="45.7" cy="72.9" r="3" fill="#DC2626" opacity="0.69"/>
    <circle cx="75.2" cy="73.7" r="3" fill="#FBBF24" opacity="0.78"/>
    <circle cx="131.6" cy="73.6" r="3" fill="#F97316" opacity="0.74"/>
    <circle cx="168.7" cy="76.6" r="3" fill="#EF4444" opacity="0.75"/>
    <circle cx="193.3" cy="78.8" r="3" fill="#DC2626" opacity="0.48"/>
    <circle cx="228.4" cy="71.4" r="3" fill="#F59E0B" opacity="0.64"/>
    <circle cx="283.9" cy="73.4" r="3" fill="#DC2626" opacity="0.68"/>
    <circle cx="345.8" cy="75.4" r="3" fill="#EF4444" opacity="0.76"/>
    <circle cx="378.6" cy="74.8" r="3" fill="#FBBF24" opacity="0.33"/>
    <circle cx="433.6" cy="78.0" r="3" fill="#FBBF24" opacity="0.64"/>
    <circle cx="528.6" cy="76.0" r="3" fill="#F97316" opacity="0.54"/>
    <circle cx="554.3" cy="77.0" r="3" fill="#FBBF24" opacity="0.42"/>
    <circle cx="588.1" cy="72.0" r="3" fill="#EF4444" opacity="0.67"/>
    <circle cx="617.4" cy="78.0" r="3" fill="#EF4444" opacity="0.66"/>
    <circle cx="643.7" cy="78.3" r="3" fill="#F97316" opacity="0.52"/>
    <circle cx="734.7" cy="78.9" r="3" fill="#F97316" opacity="0.30"/>
    <circle cx="1066.5" cy="73.9" r="3" fill="#FBBF24" opacity="0.32"/>
    <circle cx="73.6" cy="103.6" r="3" fill="#FBBF24" opacity="0.54"/>
    <circle cx="101.1" cy="101.7" r="3" fill="#F97316" opacity="0.80"/>
    <circle cx="137.0" cy="103.9" r="3" fill="#F59E0B" opacity="0.64"/>
    <circle cx="165.4" cy="104.6" r="3" fill="#F97316" opacity="0.58"/>
    <circle cx="257.7" cy="102.2" r="3" fill="#FBBF24" opacity="0.31"/>
    <circle cx="315.8" cy="105.7" r="3" fill="#F59E0B" opacity="0.58"/>
    <circle cx="551.3" cy="107.8" r="3" fill="#FBBF24" opacity="0.57"/>
    <circle cx="857.2" cy="106.1" r="3" fill="#FBBF24" opacity="0.78"/>
    <circle cx="887.0" cy="102.2" r="3" fill="#DC2626" opacity="0.48"/>
    <circle cx="971.5" cy="103.6" r="3" fill="#EF4444" opacity="0.72"/>
    <circle cx="1001.6" cy="102.3" r="3" fill="#FBBF24" opacity="0.52"/>
    <circle cx="1035.8" cy="106.0" r="3" fill="#EF4444" opacity="0.35"/>
    <circle cx="1067.2" cy="108.9" r="3" fill="#FBBF24" opacity="0.42"/>
    <circle cx="1125.3" cy="105.6" r="3" fill="#F59E0B" opacity="0.60"/>
    <circle cx="72.0" cy="132.5" r="3" fill="#EF4444" opacity="0.62"/>
    <circle cx="103.7" cy="137.9" r="3" fill="#F59E0B" opacity="0.45"/>
    <circle cx="252.4" cy="134.7" r="3" fill="#F97316" opacity="0.46"/>
    <circle cx="347.2" cy="133.9" r="3" fill="#F59E0B" opacity="0.66"/>
    <circle cx="375.0" cy="137.8" r="3" fill="#F97316" opacity="0.79"/>
    <circle cx="641.7" cy="136.6" r="3" fill="#F59E0B" opacity="0.44"/>
    <circle cx="762.9" cy="135.5" r="3" fill="#DC2626" opacity="0.43"/>
    <circle cx="823.2" cy="131.9" r="3" fill="#FBBF24" opacity="0.79"/>
    <circle cx="853.3" cy="137.7" r="3" fill="#DC2626" opacity="0.31"/>
    <circle cx="882.4" cy="134.5" r="3" fill="#EF4444" opacity="0.63"/>
    <circle cx="977.5" cy="136.5" r="3" fill="#EF4444" opacity="0.62"/>
    <circle cx="1062.5" cy="133.8" r="3" fill="#F97316" opacity="0.70"/>
    <circle cx="14.9" cy="161.6" r="3" fill="#F59E0B" opacity="0.31"/>
    <circle cx="73.5" cy="161.0" r="3" fill="#FBBF24" opacity="0.46"/>
    <circle cx="104.6" cy="162.0" r="3" fill="#FBBF24" opacity="0.68"/>
    <circle cx="195.0" cy="166.7" r="3" fill="#DC2626" opacity="0.50"/>
    <circle cx="227.0" cy="161.4" r="3" fill="#F97316" opacity="0.44"/>
    <circle cx="283.3" cy="162.4" r="3" fill="#EF4444" opacity="0.38"/>
    <circle cx="403.6" cy="163.7" r="3" fill="#F97316" opacity="0.64"/>
    <circle cx="615.7" cy="162.3" r="3" fill="#EF4444" opacity="0.77"/>
    <circle cx="644.4" cy="165.8" r="3" fill="#EF4444" opacity="0.67"/>
    <circle cx="915.9" cy="161.1" r="3" fill="#EF4444" opacity="0.52"/>
    <circle cx="1158.5" cy="162.1" r="3" fill="#DC2626" opacity="0.77"/>
    <circle cx="11.3" cy="193.5" r="3" fill="#EF4444" opacity="0.78"/>
    <circle cx="43.7" cy="192.3" r="3" fill="#FBBF24" opacity="0.35"/>
    <circle cx="198.7" cy="192.0" r="3" fill="#EF4444" opacity="0.41"/>
    <circle cx="251.8" cy="197.6" r="3" fill="#F59E0B" opacity="0.75"/>
    <circle cx="316.6" cy="194.8" r="3" fill="#F59E0B" opacity="0.31"/>
    <circle cx="377.2" cy="197.4" r="3" fill="#F59E0B" opacity="0.75"/>
    <circle cx="402.6" cy="192.6" r="3" fill="#FBBF24" opacity="0.58"/>
    <circle cx="676.2" cy="194.2" r="3" fill="#F97316" opacity="0.65"/>
    <circle cx="702.0" cy="194.2" r="3" fill="#EF4444" opacity="0.36"/>
    <circle cx="768.3" cy="194.9" r="3" fill="#F59E0B" opacity="0.34"/>
    <circle cx="792.4" cy="196.7" r="3" fill="#DC2626" opacity="0.55"/>
    <circle cx="826.2" cy="196.4" r="3" fill="#DC2626" opacity="0.72"/>
    <circle cx="887.9" cy="197.7" r="3" fill="#EF4444" opacity="0.37"/>
    <circle cx="973.6" cy="197.2" r="3" fill="#FBBF24" opacity="0.58"/>
    <circle cx="46.7" cy="227.0" r="3" fill="#F97316" opacity="0.70"/>
    <circle cx="74.5" cy="223.8" r="3" fill="#EF4444" opacity="0.65"/>
    <circle cx="193.3" cy="228.4" r="3" fill="#FBBF24" opacity="0.59"/>
    <circle cx="252.2" cy="222.6" r="3" fill="#F59E0B" opacity="0.41"/>
    <circle cx="281.7" cy="223.3" r="3" fill="#EF4444" opacity="0.44"/>
    <circle cx="499.0" cy="224.5" r="3" fill="#F59E0B" opacity="0.74"/>
    <circle cx="528.0" cy="222.5" r="3" fill="#F59E0B" opacity="0.60"/>
    <circle cx="677.7" cy="228.0" r="3" fill="#FBBF24" opacity="0.47"/>
    <circle cx="824.0" cy="227.2" r="3" fill="#FBBF24" opacity="0.40"/>
    <circle cx="858.9" cy="226.0" r="3" fill="#DC2626" opacity="0.56"/>
    <circle cx="1156.7" cy="224.0" r="3" fill="#F97316" opacity="0.64"/>
    <circle cx="76.6" cy="255.5" r="3" fill="#EF4444" opacity="0.64"/>
    <circle cx="136.5" cy="257.9" r="3" fill="#FBBF24" opacity="0.71"/>
    <circle cx="167.9" cy="258.7" r="3" fill="#DC2626" opacity="0.36"/>
    <circle cx="198.7" cy="254.9" r="3" fill="#FBBF24" opacity="0.50"/>
    <circle cx="313.3" cy="255.7" r="3" fill="#DC2626" opacity="0.40"/>
    <circle cx="406.1" cy="256.4" r="3" fill="#FBBF24" opacity="0.37"/>
    <circle cx="433.5" cy="253.2" r="3" fill="#DC2626" opacity="0.32"/>
    <circle cx="796.2" cy="257.1" r="3" fill="#F59E0B" opacity="0.33"/>
    <circle cx="822.0" cy="258.7" r="3" fill="#EF4444" opacity="0.48"/>
    <circle cx="1124.3" cy="251.5" r="3" fill="#DC2626" opacity="0.62"/>
    <circle cx="1186.0" cy="255.8" r="3" fill="#DC2626" opacity="0.33"/>
    <circle cx="11.7" cy="281.8" r="3" fill="#EF4444" opacity="0.61"/>
    <circle cx="78.2" cy="284.2" r="3" fill="#FBBF24" opacity="0.68"/>
    <circle cx="107.9" cy="281.1" r="3" fill="#F59E0B" opacity="0.33"/>
    <circle cx="166.0" cy="286.2" r="3" fill="#F97316" opacity="0.79"/>
    <circle cx="191.8" cy="288.0" r="3" fill="#EF4444" opacity="0.77"/>
    <circle cx="226.7" cy="282.6" r="3" fill="#EF4444" opacity="0.57"/>
    <circle cx="252.0" cy="282.4" r="3" fill="#FBBF24" opacity="0.69"/>
    <circle cx="461.8" cy="282.6" r="3" fill="#F97316" opacity="0.58"/>
    <circle cx="614.8" cy="284.0" r="3" fill="#F59E0B" opacity="0.58"/>
    <circle cx="647.0" cy="283.2" r="3" fill="#DC2626" opacity="0.74"/>
    <circle cx="731.9" cy="284.7" r="3" fill="#DC2626" opacity="0.66"/>
    <circle cx="762.7" cy="283.7" r="3" fill="#F97316" opacity="0.68"/>
    <circle cx="794.8" cy="285.3" r="3" fill="#EF4444" opacity="0.57"/>
    <circle cx="911.0" cy="286.4" r="3" fill="#F59E0B" opacity="0.45"/>
    <circle cx="1005.3" cy="283.4" r="3" fill="#EF4444" opacity="0.35"/>
    <circle cx="1038.0" cy="281.1" r="3" fill="#F59E0B" opacity="0.53"/>
    <circle cx="1065.8" cy="282.7" r="3" fill="#F97316" opacity="0.67"/>
    <circle cx="1125.9" cy="285.7" r="3" fill="#F97316" opacity="0.73"/>
    <circle cx="76.3" cy="311.3" r="3" fill="#EF4444" opacity="0.36"/>
    <circle cx="103.7" cy="318.9" r="3" fill="#DC2626" opacity="0.73"/>
    <circle cx="135.2" cy="311.0" r="3" fill="#F59E0B" opacity="0.38"/>
    <circle cx="162.8" cy="311.7" r="3" fill="#EF4444" opacity="0.51"/>
    <circle cx="286.0" cy="314.8" r="3" fill="#F97316" opacity="0.30"/>
    <circle cx="344.9" cy="314.7" r="3" fill="#F59E0B" opacity="0.54"/>
    <circle cx="407.8" cy="311.3" r="3" fill="#F97316" opacity="0.31"/>
    <circle cx="526.8" cy="312.0" r="3" fill="#DC2626" opacity="0.54"/>
    <circle cx="611.7" cy="317.4" r="3" fill="#EF4444" opacity="0.76"/>
    <circle cx="855.9" cy="316.6" r="3" fill="#FBBF24" opacity="0.80"/>
    <circle cx="882.8" cy="314.2" r="3" fill="#FBBF24" opacity="0.54"/>
    <circle cx="943.8" cy="314.8" r="3" fill="#EF4444" opacity="0.33"/>
    <circle cx="42.7" cy="343.3" r="3" fill="#F97316" opacity="0.66"/>
    <circle cx="75.1" cy="345.8" r="3" fill="#DC2626" opacity="0.66"/>
    <circle cx="133.6" cy="344.4" r="3" fill="#F97316" opacity="0.74"/>
    <circle cx="167.6" cy="344.4" r="3" fill="#FBBF24" opacity="0.37"/>
    <circle cx="403.5" cy="347.3" r="3" fill="#EF4444" opacity="0.64"/>
    <circle cx="436.9" cy="348.4" r="3" fill="#F97316" opacity="0.63"/>
    <circle cx="492.1" cy="346.5" r="3" fill="#F59E0B" opacity="0.79"/>
    <circle cx="555.8" cy="345.7" r="3" fill="#F97316" opacity="0.72"/>
    <circle cx="586.0" cy="347.4" r="3" fill="#EF4444" opacity="0.48"/>
    <circle cx="703.4" cy="342.0" r="3" fill="#DC2626" opacity="0.31"/>
    <circle cx="735.1" cy="346.6" r="3" fill="#DC2626" opacity="0.32"/>
    <circle cx="883.4" cy="348.7" r="3" fill="#DC2626" opacity="0.76"/>
    <circle cx="911.6" cy="346.3" r="3" fill="#F59E0B" opacity="0.62"/>
    <circle cx="945.3" cy="347.9" r="3" fill="#FBBF24" opacity="0.36"/>
    <circle cx="971.2" cy="347.1" r="3" fill="#FBBF24" opacity="0.76"/>
    <circle cx="1065.3" cy="347.8" r="3" fill="#EF4444" opacity="0.75"/>
    <circle cx="12.5" cy="377.3" r="3" fill="#EF4444" opacity="0.34"/>
    <circle cx="77.8" cy="377.9" r="3" fill="#F59E0B" opacity="0.67"/>
    <circle cx="108.2" cy="378.3" r="3" fill="#DC2626" opacity="0.51"/>
    <circle cx="136.4" cy="375.1" r="3" fill="#FBBF24" opacity="0.79"/>
    <circle cx="165.1" cy="371.4" r="3" fill="#DC2626" opacity="0.39"/>
    <circle cx="197.5" cy="378.6" r="3" fill="#F59E0B" opacity="0.77"/>
    <circle cx="228.9" cy="373.6" r="3" fill="#EF4444" opacity="0.36"/>
    <circle cx="258.4" cy="377.3" r="3" fill="#F97316" opacity="0.72"/>
    <circle cx="284.0" cy="372.2" r="3" fill="#F59E0B" opacity="0.33"/>
    <circle cx="317.6" cy="374.0" r="3" fill="#F59E0B" opacity="0.37"/>
    <circle cx="343.2" cy="377.1" r="3" fill="#DC2626" opacity="0.63"/>
    <circle cx="374.2" cy="378.1" r="3" fill="#FBBF24" opacity="0.73"/>
    <circle cx="402.6" cy="372.7" r="3" fill="#FBBF24" opacity="0.34"/>
    <circle cx="495.0" cy="372.5" r="3" fill="#EF4444" opacity="0.56"/>
    <circle cx="528.7" cy="373.5" r="3" fill="#F59E0B" opacity="0.40"/>
    <circle cx="555.3" cy="378.4" r="3" fill="#FBBF24" opacity="0.51"/>
    <circle cx="582.5" cy="378.0" r="3" fill="#DC2626" opacity="0.51"/>
    <circle cx="646.2" cy="371.3" r="3" fill="#F59E0B" opacity="0.48"/>
    <circle cx="671.1" cy="371.4" r="3" fill="#F59E0B" opacity="0.77"/>
    <circle cx="703.0" cy="376.5" r="3" fill="#F59E0B" opacity="0.31"/>
    <circle cx="731.9" cy="377.0" r="3" fill="#F97316" opacity="0.79"/>
    <circle cx="766.4" cy="378.5" r="3" fill="#FBBF24" opacity="0.63"/>
    <circle cx="795.9" cy="372.6" r="3" fill="#F97316" opacity="0.34"/>
    <circle cx="828.4" cy="375.9" r="3" fill="#DC2626" opacity="0.62"/>
    <circle cx="887.0" cy="372.4" r="3" fill="#FBBF24" opacity="0.63"/>
    <circle cx="912.2" cy="375.7" r="3" fill="#F97316" opacity="0.63"/>
    <circle cx="1002.7" cy="376.4" r="3" fill="#F97316" opacity="0.53"/>
    <circle cx="1158.7" cy="375.6" r="3" fill="#FBBF24" opacity="0.45"/>
    <circle cx="11.3" cy="406.8" r="3" fill="#DC2626" opacity="0.39"/>
    <circle cx="106.0" cy="402.9" r="3" fill="#EF4444" opacity="0.57"/>
    <circle cx="138.9" cy="405.8" r="3" fill="#F59E0B" opacity="0.47"/>
    <circle cx="194.7" cy="406.5" r="3" fill="#DC2626" opacity="0.61"/>
    <circle cx="223.0" cy="403.9" r="3" fill="#DC2626" opacity="0.43"/>
    <circle cx="315.3" cy="405.1" r="3" fill="#F59E0B" opacity="0.66"/>
    <circle cx="497.6" cy="403.5" r="3" fill="#EF4444" opacity="0.62"/>
    <circle cx="525.6" cy="408.7" r="3" fill="#FBBF24" opacity="0.53"/>
    <circle cx="557.8" cy="401.7" r="3" fill="#F97316" opacity="0.56"/>
    <circle cx="614.6" cy="404.1" r="3" fill="#EF4444" opacity="0.34"/>
    <circle cx="643.6" cy="401.4" r="3" fill="#EF4444" opacity="0.35"/>
    <circle cx="763.0" cy="406.2" r="3" fill="#F97316" opacity="0.57"/>
    <circle cx="793.4" cy="404.9" r="3" fill="#FBBF24" opacity="0.54"/>
    <circle cx="1098.9" cy="402.4" r="3" fill="#F97316" opacity="0.43"/>
    <circle cx="1153.1" cy="405.8" r="3" fill="#FBBF24" opacity="0.63"/>
    <circle cx="1186.0" cy="406.7" r="3" fill="#F59E0B" opacity="0.55"/>
    <circle cx="43.6" cy="434.3" r="3" fill="#F59E0B" opacity="0.51"/>
    <circle cx="74.4" cy="434.4" r="3" fill="#FBBF24" opacity="0.71"/>
    <circle cx="104.7" cy="432.2" r="3" fill="#FBBF24" opacity="0.52"/>
    <circle cx="167.1" cy="438.3" r="3" fill="#FBBF24" opacity="0.56"/>
    <circle cx="221.8" cy="431.1" r="3" fill="#F97316" opacity="0.36"/>
    <circle cx="258.3" cy="435.4" r="3" fill="#FBBF24" opacity="0.39"/>
    <circle cx="287.4" cy="431.4" r="3" fill="#EF4444" opacity="0.60"/>
    <circle cx="342.0" cy="438.0" r="3" fill="#FBBF24" opacity="0.56"/>
    <circle cx="463.8" cy="435.1" r="3" fill="#EF4444" opacity="0.36"/>
    <circle cx="498.8" cy="432.2" r="3" fill="#F97316" opacity="0.51"/>
    <circle cx="588.3" cy="433.6" r="3" fill="#F59E0B" opacity="0.42"/>
    <circle cx="613.4" cy="435.8" r="3" fill="#EF4444" opacity="0.73"/>
    <circle cx="763.8" cy="431.1" r="3" fill="#EF4444" opacity="0.70"/>
    <circle cx="822.2" cy="431.6" r="3" fill="#FBBF24" opacity="0.70"/>
    <circle cx="851.1" cy="438.5" r="3" fill="#FBBF24" opacity="0.42"/>
    <circle cx="1007.8" cy="437.9" r="3" fill="#F97316" opacity="0.64"/>
    <circle cx="1034.1" cy="437.0" r="3" fill="#FBBF24" opacity="0.63"/>
    <circle cx="1093.4" cy="438.2" r="3" fill="#FBBF24" opacity="0.67"/>
    <circle cx="1128.0" cy="433.6" r="3" fill="#DC2626" opacity="0.75"/>
    <circle cx="1154.9" cy="438.1" r="3" fill="#F97316" opacity="0.78"/>
    <circle cx="1181.1" cy="432.4" r="3" fill="#EF4444" opacity="0.49"/>
    <circle cx="41.2" cy="462.8" r="3" fill="#F59E0B" opacity="0.31"/>
    <circle cx="78.7" cy="462.1" r="3" fill="#DC2626" opacity="0.61"/>
    <circle cx="131.3" cy="463.7" r="3" fill="#FBBF24" opacity="0.74"/>
    <circle cx="197.5" cy="469.0" r="3" fill="#F97316" opacity="0.75"/>
    <circle cx="281.8" cy="464.3" r="3" fill="#F59E0B" opacity="0.68"/>
    <circle cx="317.4" cy="463.7" r="3" fill="#DC2626" opacity="0.42"/>
    <circle cx="373.9" cy="466.3" r="3" fill="#EF4444" opacity="0.32"/>
    <circle cx="522.3" cy="461.3" r="3" fill="#F97316" opacity="0.50"/>
    <circle cx="557.9" cy="462.5" r="3" fill="#DC2626" opacity="0.37"/>
    <circle cx="672.6" cy="466.6" r="3" fill="#F59E0B" opacity="0.43"/>
    <circle cx="736.7" cy="464.2" r="3" fill="#FBBF24" opacity="0.45"/>
    <circle cx="767.8" cy="466.9" r="3" fill="#F59E0B" opacity="0.42"/>
    <circle cx="791.3" cy="465.4" r="3" fill="#F97316" opacity="0.56"/>
    <circle cx="827.3" cy="467.1" r="3" fill="#DC2626" opacity="0.52"/>
    <circle cx="853.1" cy="465.5" r="3" fill="#DC2626" opacity="0.34"/>
    <circle cx="882.4" cy="464.9" r="3" fill="#DC2626" opacity="0.49"/>
    <circle cx="946.5" cy="468.9" r="3" fill="#EF4444" opacity="0.33"/>
    <circle cx="976.2" cy="462.9" r="3" fill="#FBBF24" opacity="0.68"/>
    <circle cx="1151.2" cy="463.7" r="3" fill="#F59E0B" opacity="0.54"/>
    <circle cx="14.7" cy="498.5" r="3" fill="#FBBF24" opacity="0.64"/>
    <circle cx="46.6" cy="495.1" r="3" fill="#FBBF24" opacity="0.76"/>
    <circle cx="164.0" cy="491.7" r="3" fill="#DC2626" opacity="0.30"/>
    <circle cx="192.7" cy="494.8" r="3" fill="#FBBF24" opacity="0.41"/>
    <circle cx="252.8" cy="495.2" r="3" fill="#FBBF24" opacity="0.79"/>
    <circle cx="281.6" cy="498.4" r="3" fill="#FBBF24" opacity="0.47"/>
    <circle cx="315.3" cy="494.2" r="3" fill="#F97316" opacity="0.38"/>
    <circle cx="378.9" cy="495.1" r="3" fill="#F59E0B" opacity="0.56"/>
    <circle cx="432.1" cy="497.7" r="3" fill="#EF4444" opacity="0.72"/>
    <circle cx="495.4" cy="496.6" r="3" fill="#DC2626" opacity="0.37"/>
    <circle cx="646.8" cy="491.9" r="3" fill="#EF4444" opacity="0.56"/>
    <circle cx="707.8" cy="494.4" r="3" fill="#F97316" opacity="0.43"/>
    <circle cx="768.8" cy="491.7" r="3" fill="#EF4444" opacity="0.41"/>
    <circle cx="884.7" cy="493.2" r="3" fill="#DC2626" opacity="0.47"/>
    <circle cx="943.2" cy="493.8" r="3" fill="#FBBF24" opacity="0.77"/>
    <circle cx="1006.3" cy="493.6" r="3" fill="#F59E0B" opacity="0.61"/>
    <circle cx="1038.7" cy="492.6" r="3" fill="#EF4444" opacity="0.57"/>
    <circle cx="1093.7" cy="494.6" r="3" fill="#FBBF24" opacity="0.63"/>
    <circle cx="1157.7" cy="491.0" r="3" fill="#F59E0B" opacity="0.32"/>
    <circle cx="108.7" cy="524.5" r="3" fill="#DC2626" opacity="0.65"/>
    <circle cx="132.8" cy="525.5" r="3" fill="#F97316" opacity="0.79"/>
    <circle cx="162.1" cy="525.8" r="3" fill="#FBBF24" opacity="0.68"/>
    <circle cx="282.6" cy="524.1" r="3" fill="#DC2626" opacity="0.31"/>
    <circle cx="376.5" cy="524.8" r="3" fill="#F59E0B" opacity="0.67"/>
    <circle cx="585.5" cy="521.8" r="3" fill="#EF4444" opacity="0.62"/>
    <circle cx="618.6" cy="521.9" r="3" fill="#EF4444" opacity="0.66"/>
    <circle cx="644.2" cy="523.2" r="3" fill="#EF4444" opacity="0.35"/>
    <circle cx="731.9" cy="521.1" r="3" fill="#F59E0B" opacity="0.46"/>
    <circle cx="768.6" cy="523.9" r="3" fill="#F59E0B" opacity="0.37"/>
    <circle cx="791.3" cy="524.7" r="3" fill="#F97316" opacity="0.56"/>
    <circle cx="826.3" cy="522.6" r="3" fill="#F59E0B" opacity="0.54"/>
    <circle cx="855.6" cy="524.8" r="3" fill="#FBBF24" opacity="0.75"/>
    <circle cx="917.7" cy="523.9" r="3" fill="#EF4444" opacity="0.78"/>
    <circle cx="1004.2" cy="524.8" r="3" fill="#DC2626" opacity="0.59"/>
    <circle cx="1067.5" cy="522.7" r="3" fill="#F59E0B" opacity="0.67"/>
    <circle cx="1125.8" cy="528.5" r="3" fill="#FBBF24" opacity="0.48"/>
    <circle cx="1184.4" cy="526.3" r="3" fill="#F97316" opacity="0.71"/>
    <circle cx="134.5" cy="554.8" r="3" fill="#F97316" opacity="0.68"/>
    <circle cx="167.2" cy="555.3" r="3" fill="#F59E0B" opacity="0.39"/>
    <circle cx="198.0" cy="554.0" r="3" fill="#FBBF24" opacity="0.32"/>
    <circle cx="257.0" cy="551.5" r="3" fill="#FBBF24" opacity="0.80"/>
    <circle cx="287.1" cy="554.2" r="3" fill="#EF4444" opacity="0.56"/>
    <circle cx="374.0" cy="556.3" r="3" fill="#F97316" opacity="0.56"/>
    <circle cx="437.1" cy="552.8" r="3" fill="#DC2626" opacity="0.62"/>
    <circle cx="554.7" cy="553.7" r="3" fill="#F97316" opacity="0.69"/>
    <circle cx="613.5" cy="554.0" r="3" fill="#EF4444" opacity="0.66"/>
    <circle cx="704.3" cy="554.5" r="3" fill="#DC2626" opacity="0.59"/>
    <circle cx="735.9" cy="554.3" r="3" fill="#DC2626" opacity="0.73"/>
    <circle cx="827.1" cy="552.4" r="3" fill="#DC2626" opacity="0.44"/>
    <circle cx="42.7" cy="585.6" r="3" fill="#F97316" opacity="0.47"/>
    <circle cx="197.9" cy="581.2" r="3" fill="#F97316" opacity="0.34"/>
    <circle cx="347.5" cy="581.6" r="3" fill="#FBBF24" opacity="0.45"/>
    <circle cx="584.5" cy="588.9" r="3" fill="#FBBF24" opacity="0.62"/>
    <circle cx="732.8" cy="586.7" r="3" fill="#F97316" opacity="0.77"/>
    <circle cx="798.4" cy="586.4" r="3" fill="#F97316" opacity="0.51"/>
    <circle cx="852.8" cy="587.7" r="3" fill="#DC2626" opacity="0.60"/>
    <circle cx="882.0" cy="583.7" r="3" fill="#F59E0B" opacity="0.56"/>
    <circle cx="977.1" cy="586.6" r="3" fill="#F59E0B" opacity="0.51"/>
    <circle cx="1003.0" cy="586.3" r="3" fill="#F59E0B" opacity="0.50"/>
    <circle cx="1093.2" cy="585.2" r="3" fill="#F97316" opacity="0.53"/>
    <circle cx="1126.9" cy="584.7" r="3" fill="#F97316" opacity="0.51"/>
    <circle cx="18.5" cy="611.2" r="3" fill="#FBBF24" opacity="0.56"/>
    <circle cx="75.0" cy="615.7" r="3" fill="#F97316" opacity="0.41"/>
    <circle cx="101.1" cy="618.3" r="3" fill="#F59E0B" opacity="0.48"/>
    <circle cx="346.6" cy="614.6" r="3" fill="#F97316" opacity="0.75"/>
    <circle cx="552.7" cy="616.4" r="3" fill="#F97316" opacity="0.48"/>
    <circle cx="581.2" cy="613.0" r="3" fill="#F59E0B" opacity="0.78"/>
    <circle cx="618.5" cy="613.0" r="3" fill="#EF4444" opacity="0.62"/>
    <circle cx="766.8" cy="613.1" r="3" fill="#F97316" opacity="0.58"/>
    <circle cx="824.5" cy="612.7" r="3" fill="#F59E0B" opacity="0.80"/>
    <circle cx="853.6" cy="611.7" r="3" fill="#F59E0B" opacity="0.65"/>
    <circle cx="886.9" cy="612.8" r="3" fill="#F59E0B" opacity="0.57"/>
    <circle cx="971.5" cy="614.5" r="3" fill="#EF4444" opacity="0.59"/>
    <circle cx="1091.7" cy="614.8" r="3" fill="#F59E0B" opacity="0.43"/>
  </g>
</svg>