<svg xmlns="http://www.w3.org/2000/svg" width="1200" height="630" viewBox="0 0 1200 630">
  <rect width="1200" height="630" fill="#0a0a0a"/>
  <!-- Wave overlay -->
  <path d="M0 315 Q300 252 600 315 T1200 315" stroke="#4B5563" stroke-width="1" fill="none" opacity="0.3"/>
  <!-- Game of Life cells -->
  <g>
    <circle cx="15.4" cy="17.2" r="3" fill="#3B82F6" opacity="0.54"/>
    <circle cx="163.8" cy="13.3" r="3" fill="#6366F1" opacity="0.69"/>
    <circle cx="192.1" cy="11.9" r="3" fill="#3B82F6" opacity="0.71"/>
    <circle cx="225.1" cy="13.5" r="3" fill="#6366F1" opacity="0.59"/>
    <circle cx="316.3" cy="12.8" r="3" fill="#1D4ED8" opacity="0.55"/>
    <circle cx="374.8" cy="15.4" r="3" fill="#3B82F6" opacity="0.39"/>
    <circle cx="403.1" cy="15.5" r="3" fill="#60A5FA" opacity="0.79"/>
    <circle cx="433.3" cy="15.5" r="3" fill="#38BDF8" opacity="0.80"/>
    <circle cx="491.5" cy="16.6" r="3" fill="#1D4ED8" opacity="0.69"/>
    <circle cx="521.1" cy="14.0" r="3" fill="#1D4ED8" opacity="0.59"/>
    <circle cx="676.9" cy="17.7" r="3" fill="#1D4ED8" opacity="0.45"/>
    <circle cx="766.7" cy="15.1" r="3" fill="#3B82F6" opacity="0.41"/>
    <circle cx="793.8" cy="11.8" r="3" fill="#3B82F6" opacity="0.67"/>
    <circle cx="853.2" cy="16.0" r="3" fill="#1D4ED8" opacity="0.61"/>
    <circle cx="917.0" cy="18.3" r="3" fill="#38BDF8" opacity="0.61"/>
    <circle cx="945.8" cy="14.8" r="3" fill="#3B82F6" opacity="0.79"/>
    <circle cx="1062.9" cy="17.3" r="3" fill="#6366F1" opacity="0.32"/>
    <circle cx="1151.8" cy="15.9" r="3" fill="#60A5FA" opacity="0.71"/>
    <circle cx="1181.2" cy="14.0" r="3" fill="#3B82F6" opacity="0.33"/>
    <circle cx="18.7" cy="44.9" r="3" fill="#1D4ED8" opacity="0.52"/>
    <circle cx="72.8" cy="41.2" r="3" fill="#6366F1" opacity="0.49"/>
    <circle cx="105.7" cy="47.3" r="3" fill="#3B82F6" opacity="0.74"/>
    <circle cx="132.4" cy="48.5" r="3" fill="#6366F1" opacity="0.36"/>
    <circle cx="164.1" cy="46.1" r="3" fill="#1D4ED8" opacity="0.62"/>
    <circle cx="406.0" cy="42.6" r="3" fill="#3B82F6" opacity="0.42"/>
    <circle cx="464.9" cy="47.2" r="3" fill="#6366F1" opacity="0.68"/>
    <circle cx="492.5" cy="43.8" r="3" fill="#60A5FA" opacity="0.34"/>
    <circle cx="521.5" cy="47.5" r="3" fill="#38BDF8" opacity="0.67"/>
    <circle cx="617.0" cy="43.8" r="3" fill="#38BDF8" opacity="0.65"/>
    <circle cx="642.1" cy="44.0" r="3" fill="#60A5FA" opacity="0.64"/>
    <circle cx="761.5" cy="45.4" r="3" fill="#38BDF8" opacity="0.69"/>
    <circle cx="797.0" cy="46.5" r="3" fill="#38BDF8" opacity="0.50"/>
    <circle cx="852.0" cy="47.6" r="3" fill="#6366F1" opacity="0.47"/>
    <circle cx="1037.7" cy="46.9" r="3" fill="#6366F1" opacity="0.44"/>
    <circle cx="1093.8" cy="46.2" r="3" fill="#1D4ED8" opacity="0.77"/>
    <circle cx="1151.7" cy="42.1" r="3" fill="#6366F1" opacity="0.46"/>
    <circle cx="1188.3" cy="48.2" r="3" fill="#38BDF8" opacity="0.62"/>
    <circle cx="138.1" cy="78.4" r="3" fill="#6366F1" opacity="0.53"/>
    <circle cx="168.0" cy="77.4" r="3" fill="#38BDF8" opacity="0.47"/>
    <circle cx="284.2" cy="75.9" r="3" fill="#60A5FA" opacity="0.67"/>
    <circle cx="317.7" cy="74.4" r="3" fill="#60A5FA" opacity="0.43"/>
    <circle cx="437.1" cy="73.4" r="3" fill="#3B82F6" opacity="0.73"/>
    <circle cx="491.2" cy="71.7" r="3" fill="#38BDF8" opacity="0.45"/>
    <circle cx="555.7" cy="75.8" r="3" fill="#3B82F6" opacity="0.65"/>
    <circle cx="585.6" cy="73.9" r="3" fill="#1D4ED8" opacity="0.46"/>
    <circle cx="612.4" cy="78.7" r="3" fill="#6366F1" opacity="0.72"/>
    <circle cx="671.4" cy="77.2" r="3" fill="#6366F1" opacity="0.75"/>
    <circle cx="764.5" cy="78.6" r="3" fill="#1D4ED8" opacity="0.48"/>
    <circle cx="948.8" cy="74.3" r="3" fill="#3B82F6" opacity="0.75"/>
    <circle cx="1154.8" cy="74.0" r="3" fill="#1D4ED8" opacity="0.32"/>
    <circle cx="1188.7" cy="77.8" r="3" fill="#60A5FA" opacity="0.47"/>
    <circle cx="45.0" cy="106.3" r="3" fill="#38BDF8" opacity="0.73"/>
    <circle cx="74.6" cy="108.9" r="3" fill="#60A5FA" opacity="0.60"/>
    <circle cx="163.3" cy="101.6" r="3" fill="#3B82F6" opacity="0.77"/>
    <circle cx="254.4" cy="102.7" r="3" fill="#6366F1" opacity="0.40"/>
    <circle cx="287.3" cy="105.5" r="3" fill="#3B82F6" opacity="0.64"/>
    <circle cx="342.0" cy="101.1" r="3" fill="#1D4ED8" opacity="0.79"/>
    <circle cx="404.8" cy="103.3" r="3" fill="#3B82F6" opacity="0.70"/>
    <circle cx="527.2" cy="107.7" r="3" fill="#3B82F6" opacity="0.32"/>
    <circle cx="585.0" cy="107.6" r="3" fill="#6366F1" opacity="0.65"/>
    <circle cx="614.0" cy="101.3" r="3" fill="#6366F1" opacity="0.68"/>
    <circle cx="642.8" cy="101.8" r="3" fill="#1D4ED8" opacity="0.72"/>
    <circle cx="734.3" cy="103.2" r="3" fill="#38BDF8" opacity="0.57"/>
    <circle cx="767.7" cy="107.3" r="3" fill="#1D4ED8" opacity="0.78"/>
    <circle cx="791.4" cy="102.9" r="3" fill="#3B82F6" opacity="0.75"/>
    <circle cx="912.8" cy="104.5" r="3" fill="#6366F1" opacity="0.53"/>
    <circle cx="18.4" cy="133.2" r="3" fill="#38BDF8" opacity="0.70"/>
    <circle cx="76.7" cy="135.3" r="3" fill="#60A5FA" opacity="0.58"/>
    <circle cx="104.5" cy="131.1" r="3" fill="#60A5FA" opacity="0.62"/>
    <circle cx="165.8" cy="134.1" r="3" fill="#3B82F6" opacity="0.58"/>
    <circle cx="198.2" cy="132.1" r="3" fill="#38BDF8" opacity="0.34"/>
    <circle cx="258.0" cy="131.0" r="3" fill="#1D4ED8" opacity="0.63"/>
    <circle cx="343.4" cy="132.1" r="3" fill="#38BDF8" opacity="0.43"/>
    <circle cx="377.1" cy="133.6" r="3" fill="#60A5FA" opacity="0.43"/>
    <circle cx="463.8" cy="136.7" r="3" fill="#3B82F6" opacity="0.67"/>
    <circle cx="527.8" cy="137.2" r="3" fill="#1D4ED8" opacity="0.43"/>
    <circle cx="554.7" cy="134.4" r="3" fill="#1D4ED8" opacity="0.70"/>
    <circle cx="703.2" cy="134.2" r="3" fill="#3B82F6" opacity="0.64"/>
    <circle cx="735.0" cy="131.9" r="3" fill="#3B82F6" opacity="0.36"/>
    <circle cx="764.0" cy="131.4" r="3" fill="#1D4ED8" opacity="0.63"/>
    <circle cx="794.6" cy="135.7" r="3" fill="#3B82F6" opacity="0.32"/>
    <circle cx="823.6" cy="131.4" r="3" fill="#3B82F6" opacity="0.37"/>
    <circle cx="1127.9" cy="135.6" r="3" fill="#3B82F6" opacity="0.51"/>
    <circle cx="78.3" cy="164.0" r="3" fill="#1D4ED8" opacity="0.80"/>
    <circle cx="132.3" cy="164.6" r="3" fill="#38BDF8" opacity="0.79"/>
    <circle cx="167.6" cy="162.5" r="3" fill="#60A5FA" opacity="0.61"/>
    <circle cx="191.4" cy="163.9" r="3" fill="#3B82F6" opacity="0.69"/>
    <circle cx="223.9" cy="167.8" r="3" fill="#1D4ED8" opacity="0.32"/>
    <circle cx="251.5" cy="167.0" r="3" fill="#3B82F6" opacity="0.33"/>
    <circle cx="286.4" cy="167.9" r="3" fill="#38BDF8" opacity="0.48"/>
    <circle cx="318.3" cy="162.7" r="3" fill="#6366F1" opacity="0.32"/>
    <circle cx="585.8" cy="162.6" r="3" fill="#3B82F6" opacity="0.71"/>
    <circle cx="612.9" cy="166.3" r="3" fill="#3B82F6" opacity="0.33"/>
    <circle cx="708.1" cy="162.3" r="3" fill="#3B82F6" opacity="0.49"/>
    <circle cx="732.6" cy="165.9" r="3" fill="#1D4ED8" opacity="0.63"/>
    <circle cx="764.3" cy="166.3" r="3" fill="#38BDF8" opacity="0.36"/>
    <circle cx="795.6" cy="162.2" r="3" fill="#6366F1" opacity="0.34"/>
    <circle cx="885.8" cy="166.6" r="3" fill="#38BDF8" opacity="0.58"/>
    <circle cx="948.6" cy="163.0" r="3" fill="#60A5FA" opacity="0.33"/>
    <circle cx="973.5" cy="168.7" r="3" fill="#6366F1" opacity="0.46"/>
    <circle cx="1061.7" cy="166.9" r="3" fill="#60A5FA" opacity="0.59"/>
    <circle cx="47.2" cy="192.8" r="3" fill="#38BDF8" opacity="0.66"/>
    <circle cx="161.1" cy="193.4" r="3" fill="#38BDF8" opacity="0.38"/>
    <circle cx="375.6" cy="198.5" r="3" fill="#1D4ED8" opacity="0.39"/>
    <circle cx="643.0" cy="197.2" r="3" fill="#38BDF8" opacity="0.37"/>
    <circle cx="676.8" cy="198.0" r="3" fill="#60A5FA" opacity="0.41"/>
    <circle cx="708.5" cy="193.4" r="3" fill="#3B82F6" opacity="0.55"/>
    <circle cx="768.6" cy="193.5" r="3" fill="#3B82F6" opacity="0.44"/>
    <circle cx="795.5" cy="191.3" r="3" fill="#3B82F6" opacity="0.31"/>
    <circle cx="976.1" cy="193.2" r="3" fill="#1D4ED8" opacity="0.74"/>
    <circle cx="1098.4" cy="196.8" r="3" fill="#6366F1" opacity="0.46"/>
    <circle cx="15.6" cy="223.8" r="3" fill="#6366F1" opacity="0.31"/>
    <circle cx="72.1" cy="222.9" r="3" fill="#3B82F6" opacity="0.36"/>
    <circle cx="167.7" cy="227.6" r="3" fill="#6366F1" opacity="0.31"/>
    <circle cx="283.0" cy="221.5" r="3" fill="#3B82F6" opacity="0.44"/>
    <circle cx="374.5" cy="222.8" r="3" fill="#6366F1" opacity="0.48"/>
    <circle cx="648.9" cy="226.1" r="3" fill="#3B82F6" opacity="0.77"/>
    <circle cx="671.1" cy="224.1" r="3" fill="#3B82F6" opacity="0.35"/>
    <circle cx="701.9" cy="223.6" r="3" fill="#1D4ED8" opacity="0.43"/>
    <circle cx="916.4" cy="224.9" r="3" fill="#1D4ED8" opacity="0.73"/>
    <circle cx="975.8" cy="228.4" r="3" fill="#3B82F6" opacity="0.61"/>
    <circle cx="1004.2" cy="221.3" r="3" fill="#38BDF8" opacity="0.68"/>
    <circle cx="1155.6" cy="222.2" r="3" fill="#6366F1" opacity="0.48"/>
    <circle cx="105.3" cy="258.0" r="3" fill="#38BDF8" opacity="0.56"/>
    <circle cx="138.9" cy="252.1" r="3" fill="#3B82F6" opacity="0.45"/>
    <circle cx="162.2" cy="257.3" r="3" fill="#1D4ED8" opacity="0.43"/>
    <circle cx="282.4" cy="255.2" r="3" fill="#6366F1" opacity="0.36"/>
    <circle cx="524.4" cy="253.5" r="3" fill="#3B82F6" opacity="0.67"/>
    <circle cx="732.3" cy="257.9" r="3" fill="#6366F1" opacity="0.61"/>
    <circle cx="915.2" cy="253.5" r="3" fill="#38BDF8" opacity="0.56"/>
    <circle cx="1002.1" cy="258.8" r="3" fill="#1D4ED8" opacity="0.37"/>
    <circle cx="1062.4" cy="253.4" r="3" fill="#38BDF8" opacity="0.71"/>
    <circle cx="1096.8" cy="254.9" r="3" fill="#60A5FA" opacity="0.54"/>
    <circle cx="1128.5" cy="252.5" r="3" fill="#6366F1" opacity="0.79"/>
    <circle cx="1184.0" cy="255.4" r="3" fill="#38BDF8" opacity="0.80"/>
    <circle cx="42.7" cy="288.2" r="3" fill="#1D4ED8" opacity="0.33"/>
    <circle cx="108.4" cy="286.1" r="3" fill="#1D4ED8" opacity="0.37"/>
    <circle cx="223.7" cy="283.7" r="3" fill="#60A5FA" opacity="0.35"/>
    <circle cx="255.5" cy="288.4" r="3" fill="#6366F1" opacity="0.41"/>
    <circle cx="283.7" cy="283.7" r="3" fill="#3B82F6" opacity="0.41"/>
    <circle cx="317.8" cy="288.6" r="3" fill="#60A5FA" opacity="0.74"/>
    <circle cx="435.6" cy="288.7" r="3" fill="#60A5FA" opacity="0.56"/>
    <circle cx="491.2" cy="284.9" r="3" fill="#6366F1" opacity="0.67"/>
    <circle cx="587.4" cy="283.5" r="3" fill="#3B82F6" opacity="0.72"/>
    <circle cx="706.7" cy="287.0" r="3" fill="#3B82F6" opacity="0.50"/>
    <circle cx="731.9" cy="288.8" r="3" fill="#60A5FA" opacity="0.73"/>
    <circle cx="828.4" cy="284.0" r="3" fill="#3B82F6" opacity="0.69"/>
    <circle cx="858.2" cy="285.3" r="3" fill="#6366F1" opacity="0.54"/>
    <circle cx="1008.4" cy="283.6" r="3" fill="#38BDF8" opacity="0.30"/>
    <circle cx="1036.9" cy="283.5" r="3" fill="#38BDF8" opacity="0.57"/>
    <circle cx="1183.7" cy="282.2" r="3" fill="#1D4ED8" opacity="0.35"/>
    <circle cx="18.4" cy="314.3" r="3" fill="#3B82F6" opacity="0.43"/>
    <circle cx="72.4" cy="316.7" r="3" fill="#1D4ED8" opacity="0.41"/>
    <circle cx="134.3" cy="317.3" r="3" fill="#1D4ED8" opacity="0.33"/>
    <circle cx="166.4" cy="312.5" r="3" fill="#1D4ED8" opacity="0.74"/>
    <circle cx="192.8" cy="317.7" r="3" fill="#60A5FA" opacity="0.77"/>
    <circle cx="251.6" cy="312.1" r="3" fill="#38BDF8" opacity="0.79"/>
    <circle cx="285.8" cy="314.5" r="3" fill="#3B82F6" opacity="0.49"/>
    <circle cx="318.8" cy="317.1" r="3" fill="#6366F1" opacity="0.62"/>
    <circle cx="462.1" cy="314.5" r="3" fill="#60A5FA" opacity="0.35"/>
    <circle cx="493.0" cy="316.7" r="3" fill="#3B82F6" opacity="0.63"/>
    <circle cx="556.6" cy="311.3" r="3" fill="#60A5FA" opacity="0.37"/>
    <circle cx="643.3" cy="317.1" r="3" fill="#60A5FA" opacity="0.66"/>
    <circle cx="733.6" cy="311.5" r="3" fill="#1D4ED8" opacity="0.41"/>
    <circle cx="766.8" cy="312.4" r="3" fill="#3B82F6" opacity="0.54"/>
    <circle cx="796.2" cy="316.6" r="3" fill="#60A5FA" opacity="0.38"/>
    <circle cx="942.3" cy="314.2" r="3" fill="#38BDF8" opacity="0.62"/>
    <circle cx="46.8" cy="345.9" r="3" fill="#60A5FA" opacity="0.56"/>
    <circle cx="71.5" cy="347.4" r="3" fill="#1D4ED8" opacity="0.74"/>
    <circle cx="138.9" cy="347.8" r="3" fill="#3B82F6" opacity="0.53"/>
    <circle cx="168.0" cy="341.5" r="3" fill="#1D4ED8" opacity="0.60"/>
    <circle cx="194.9" cy="348.3" r="3" fill="#6366F1" opacity="0.56"/>
    <circle cx="253.3" cy="343.4" r="3" fill="#6366F1" opacity="0.47"/>
    <circle cx="284.6" cy="345.0" r="3" fill="#60A5FA" opacity="0.37"/>
    <circle cx="311.5" cy="346.0" r="3" fill="#1D4ED8" opacity="0.32"/>
    <circle cx="402.7" cy="342.0" r="3" fill="#38BDF8" opacity="0.64"/>
    <circle cx="525.7" cy="343.9" r="3" fill="#6366F1" opacity="0.37"/>
    <circle cx="583.5" cy="346.8" r="3" fill="#60A5FA" opacity="0.73"/>
    <circle cx="673.1" cy="343.6" r="3" fill="#38BDF8" opacity="0.69"/>
    <circle cx="705.5" cy="347.4" r="3" fill="#60A5FA" opacity="0.63"/>
    <circle cx="734.1" cy="347.5" r="3" fill="#3B82F6" opacity="0.54"/>
    <circle cx="764.1" cy="344.6" r="3" fill="#3B82F6" opacity="0.30"/>
    <circle cx="825.3" cy="344.1" r="3" fill="#3B82F6" opacity="0.68"/>
    <circle cx="884.3" cy="344.2" r="3" fill="#3B82F6" opacity="0.46"/>
    <circle cx="1001.7" cy="346.3" r="3" fill="#38BDF8" opacity="0.74"/>
    <circle cx="1035.7" cy="348.4" r="3" fill="#3B82F6" opacity="0.43"/>
    <circle cx="1064.8" cy="341.5" r="3" fill="#1D4ED8" opacity="0.73"/>
    <circle cx="1098.0" cy="343.0" r="3" fill="#60A5FA" opacity="0.45"/>
    <circle cx="1186.0" cy="341.9" r="3" fill="#60A5FA" opacity="0.43"/>
    <circle cx="13.3" cy="375.1" r="3" fill="#3B82F6" opacity="0.38"/>
    <circle cx="76.6" cy="374.2" r="3" fill="#3B82F6" opacity="0.75"/>
    <circle cx="132.0" cy="376.2" r="3" fill="#3B82F6" opacity="0.44"/>
    <circle cx="162.9" cy="377.0" r="3" fill="#6366F1" opacity="0.72"/>
    <circle cx="195.8" cy="372.1" r="3" fill="#1D4ED8" opacity="0.47"/>
    <circle cx="228.2" cy="375.3" r="3" fill="#60A5FA" opacity="0.60"/>
    <circle cx="252.5" cy="372.8" r="3" fill="#3B82F6" opacity="0.59"/>
    <circle cx="431.7" cy="372.8" r="3" fill="#1D4ED8" opacity="0.63"/>
    <circle cx="464.8" cy="373.3" r="3" fill="#3B82F6" opacity="0.39"/>
    <circle cx="496.5" cy="373.5" r="3" fill="#3B82F6" opacity="0.75"/>
    <circle cx="678.4" cy="373.1" r="3" fill="#3B82F6" opacity="0.38"/>
    <circle cx="767.0" cy="378.2" r="3" fill="#3B82F6" opacity="0.60"/>
    <circle cx="797.9" cy="377.6" r="3" fill="#60A5FA" opacity="0.36"/>
    <circle cx="852.0" cy="372.1" r="3" fill="#38BDF8" opacity="0.53"/>
    <circle cx="948.9" cy="375.2" r="3" fill="#3B82F6" opacity="0.50"/>
    <circle cx="1068.2" cy="372.1" r="3" fill="#6366F1" opacity="0.75"/>
    <circle cx="1091.5" cy="375.2" r="3" fill="#6366F1" opacity="0.77"/>
    <circle cx="1184.8" cy="372.6" r="3" fill="#38BDF8" opacity="0.68"/>
    <circle cx="18.9" cy="406.2" r="3" fill="#1D4ED8" opacity="0.61"/>
    <circle cx="78.7" cy="408.0" r="3" fill="#1D4ED8" opacity="0.62"/>
    <circle cx="167.4" cy="408.9" r="3" fill="#6366F1" opacity="0.80"/>
    <circle cx="195.8" cy="403.6" r="3" fill="#1D4ED8" opacity="0.40"/>
    <circle cx="281.5" cy="406.8" r="3" fill="#38BDF8" opacity="0.69"/>
    <circle cx="315.0" cy="401.9" r="3" fill="#60A5FA" opacity="0.63"/>
    <circle cx="347.2" cy="406.8" r="3" fill="#3B82F6" opacity="0.53"/>
    <circle cx="374.3" cy="405.9" r="3" fill="#60A5FA" opacity="0.49"/>
    <circle cx="464.7" cy="403.4" r="3" fill="#60A5FA" opacity="0.61"/>
    <circle cx="492.8" cy="407.6" r="3" fill="#60A5FA" opacity="0.73"/>
    <circle cx="556.9" cy="401.4" r="3" fill="#3B82F6" opacity="0.34"/>
    <circle cx="587.8" cy="402.3" r="3" fill="#38BDF8" opacity="0.75"/>
    <circle cx="613.2" cy="402.0" r="3" fill="#1D4ED8" opacity="0.41"/>
    <circle cx="642.4" cy="406.9" r="3" fill="#60A5FA" opacity="0.33"/>
    <circle cx="703.9" cy="405.2" r="3" fill="#38BDF8" opacity="0.60"/>
    <circle cx="763.6" cy="405.0" r="3" fill="#6366F1" opacity="0.71"/>
    <circle cx="795.9" cy="401.9" r="3" fill="#6366F1" opacity="0.41"/>
    <circle cx="827.5" cy="402.8" r="3" fill="#3B82F6" opacity="0.49"/>
    <circle cx="911.5" cy="402.0" r="3" fill="#38BDF8" opacity="0.57"/>
    <circle cx="947.7" cy="403.2" r="3" fill="#60A5FA" opacity="0.41"/>
    <circle cx="974.1" cy="403.3" r="3" fill="#3B82F6" opacity="0.58"/>
    <circle cx="1004.6" cy="407.0" r="3" fill="#38BDF8" opacity="0.40"/>
    <circle cx="1037.8" cy="401.9" r="3" fill="#1D4ED8" opacity="0.38"/>
    <circle cx="1068.5" cy="408.7" r="3" fill="#60A5FA" opacity="0.50"/>
    <circle cx="1126.2" cy="405.7" r="3" fill="#60A5FA" opacity="0.33"/>
    <circle cx="1155.1" cy="408.8" r="3" fill="#6366F1" opacity="0.61"/>
    <circle cx="1188.0" cy="407.9" r="3" fill="#3B82F6" opacity="0.53"/>
    <circle cx="13.5" cy="433.1" r="3" fill="#3B82F6" opacity="0.70"/>
    <circle cx="137.9" cy="438.2" r="3" fill="#38BDF8" opacity="0.39"/>
    <circle cx="166.5" cy="431.2" r="3" fill="#6366F1" opacity="0.39"/>
    <circle cx="226.3" cy="432.0" r="3" fill="#1D4ED8" opacity="0.72"/>
    <circle cx="258.6" cy="434.5" r="3" fill="#1D4ED8" opacity="0.59"/>
    <circle cx="286.3" cy="437.1" r="3" fill="#3B82F6" opacity="0.64"/>
    <circle cx="408.6" cy="437.9" r="3" fill="#60A5FA" opacity="0.62"/>
    <circle cx="464.7" cy="431.2" r="3" fill="#38BDF8" opacity="0.39"/>
    <circle cx="494.3" cy="436.0" r="3" fill="#6366F1" opacity="0.54"/>
    <circle cx="646.8" cy="439.0" r="3" fill="#60A5FA" opacity="0.73"/>
    <circle cx="671.8" cy="431.9" r="3" fill="#3B82F6" opacity="0.46"/>
    <circle cx="702.2" cy="435.6" r="3" fill="#38BDF8" opacity="0.65"/>
    <circle cx="731.1" cy="432.8" r="3" fill="#6366F1" opacity="0.79"/>
    <circle cx="975.2" cy="432.7" r="3" fill="#38BDF8" opacity="0.55"/>
    <circle cx="1098.4" cy="434.9" r="3" fill="#6366F1" opacity="0.39"/>
    <circle cx="1127.4" cy="432.0" r="3" fill="#6366F1" opacity="0.59"/>
    <circle cx="1152.3" cy="437.4" r="3" fill="#3B82F6" opacity="0.77"/>
    <circle cx="1185.2" cy="438.8" r="3" fill="#1D4ED8" opacity="0.70"/>
    <circle cx="11.8" cy="461.9" r="3" fill="#1D4ED8" opacity="0.31"/>
    <circle cx="44.7" cy="462.3" r="3" fill="#6366F1" opacity="0.51"/>
    <circle cx="196.1" cy="465.4" r="3" fill="#3B82F6" opacity="0.48"/>
    <circle cx="281.7" cy="465.0" r="3" fill="#60A5FA" opacity="0.64"/>
    <circle cx="316.7" cy="468.7" r="3" fill="#1D4ED8" opacity="0.34"/>
    <circle cx="376.2" cy="463.3" r="3" fill="#1D4ED8" opacity="0.72"/>
    <circle cx="402.5" cy="461.8" r="3" fill="#38BDF8" opacity="0.66"/>
    <circle cx="461.5" cy="466.7" r="3" fill="#6366F1" opacity="0.42"/>
    <circle cx="528.3" cy="464.6" r="3" fill="#60A5FA" opacity="0.69"/>
    <circle cx="643.5" cy="467.3" r="3" fill="#3B82F6" opacity="0.79"/>
    <circle cx="795.6" cy="464.7" r="3" fill="#38BDF8" opacity="0.36"/>
    <circle cx="826.0" cy="464.0" r="3" fill="#38BDF8" opacity="0.75"/>
    <circle cx="1125.0" cy="461.7" r="3" fill="#38BDF8" opacity="0.43"/>
    <circle cx="1186.1" cy="461.7" r="3" fill="#6366F1" opacity="0.74"/>
    <circle cx="72.8" cy="491.9" r="3" fill="#6366F1" opacity="0.46"/>
    <circle cx="106.2" cy="494.0" r="3" fill="#1D4ED8" opacity="0.31"/>
    <circle cx="164.2" cy="497.0" r="3" fill="#3B82F6" opacity="0.35"/>
    <circle cx="251.3" cy="492.5" r="3" fill="#3B82F6" opacity="0.31"/>
    <circle cx="281.1" cy="492.0" r="3" fill="#60A5FA" opacity="0.31"/>
    <circle cx="315.1" cy="492.5" r="3" fill="#6366F1" opacity="0.42"/>
    <circle cx="461.3" cy="492.9" r="3" fill="#6366F1" opacity="0.53"/>
    <circle cx="708.2" cy="495.0" r="3" fill="#6366F1" opacity="0.45"/>
    <circle cx="738.9" cy="496.0" r="3" fill="#38BDF8" opacity="0.33"/>
    <circle cx="762.0" cy="498.0" r="3" fill="#6366F1" opacity="0.41"/>
    <circle cx="824.2" cy="495.6" r="3" fill="#6366F1" opacity="0.79"/>
    <circle cx="851.8" cy="497.0" r="3" fill="#38BDF8" opacity="0.48"/>
    <circle cx="917.7" cy="494.4" r="3" fill="#60A5FA" opacity="0.59"/>
    <circle cx="948.0" cy="495.5" r="3" fill="#1D4ED8" opacity="0.64"/>
    <circle cx="974.4" cy="494.5" r="3" fill="#3B82F6" opacity="0.68"/>
    <circle cx="1185.6" cy="493.5" r="3" fill="#60A5FA" opacity="0.32"/>
    <circle cx="225.5" cy="523.4" r="3" fill="#3B82F6" opacity="0.61"/>
    <circle cx="253.0" cy="523.1" r="3" fill="#6366F1" opacity="0.53"/>
    <circle cx="433.8" cy="528.4" r="3" fill="#60A5FA" opacity="0.59"/>
    <circle cx="467.4" cy="521.7" r="3" fill="#1D4ED8" opacity="0.66"/>
    <circle cx="496.8" cy="522.0" r="3" fill="#6366F1" opacity="0.59"/>
    <circle cx="527.2" cy="528.4" r="3" fill="#38BDF8" opacity="0.48"/>
    <circle cx="618.0" cy="525.1" r="3" fill="#1D4ED8" opacity="0.34"/>
    <circle cx="644.4" cy="525.7" r="3" fill="#60A5FA" opacity="0.77"/>
    <circle cx="704.8" cy="527.9" r="3" fill="#3B82F6" opacity="0.32"/>
    <circle cx="767.8" cy="522.6" r="3" fill="#3B82F6" opacity="0.59"/>
    <circle cx="822.4" cy="521.1" r="3" fill="#38BDF8" opacity="0.47"/>
    <circle cx="856.4" cy="525.1" r="3" fill="#6366F1" opacity="0.73"/>
    <circle cx="947.4" cy="521.5" r="3" fill="#60A5FA" opacity="0.59"/>
    <circle cx="974.0" cy="528.7" r="3" fill="#38BDF8" opacity="0.45"/>
    <circle cx="1002.2" cy="522.2" r="3" fill="#38BDF8" opacity="0.42"/>
    <circle cx="1031.9" cy="524.4" r="3" fill="#3B82F6" opacity="0.34"/>
    <circle cx="1097.9" cy="528.4" r="3" fill="#60A5FA" opacity="0.76"/>
    <circle cx="167.5" cy="558.2" r="3" fill="#60A5FA" opacity="0.38"/>
    <circle cx="197.0" cy="553.6" r="3" fill="#38BDF8" opacity="0.37"/>
    <circle cx="468.9" cy="552.7" r="3" fill="#60A5FA" opacity="0.62"/>
    <circle cx="521.3" cy="554.3" r="3" fill="#38BDF8" opacity="0.67"/>
    <circle cx="587.8" cy="556.6" r="3" fill="#1D4ED8" opacity="0.56"/>
    <circle cx="614.4" cy="552.5" r="3" fill="#1D4ED8" opacity="0.39"/>
    <circle cx="648.0" cy="555.0" r="3" fill="#60A5FA" opacity="0.32"/>
    <circle cx="672.7" cy="556.1" r="3" fill="#60A5FA" opacity="0.62"/>
    <circle cx="886.9" cy="555.3" r="3" fill="#38BDF8" opacity="0.56"/>
    <circle cx="914.0" cy="552.6" r="3" fill="#60A5FA" opacity="0.51"/>
    <circle cx="1007.0" cy="557.1" r="3" fill="#3B82F6" opacity="0.76"/>
    <circle cx="1066.2" cy="551.2" r="3" fill="#6366F1" opacity="0.72"/>
    <circle cx="76.7" cy="583.3" r="3" fill="#60A5FA" opacity="0.35"/>
    <circle cx="138.2" cy="585.1" r="3" fill="#60A5FA" opacity="0.39"/>
    <circle cx="226.2" cy="583.5" r="3" fill="#38BDF8" opacity="0.44"/>
    <circle cx="256.2" cy="585.8" r="3" fill="#3B82F6" opacity="0.79"/>
    <circle cx="345.4" cy="582.2" r="3" fill="#38BDF8" opacity="0.62"/>
    <circle cx="554.0" cy="586.3" r="3" fill="#1D4ED8" opacity="0.68"/>
    <circle cx="583.6" cy="587.7" r="3" fill="#60A5FA" opacity="0.37"/>
    <circle cx="614.0" cy="585.2" r="3" fill="#60A5FA" opacity="0.76"/>
    <circle cx="647.4" cy="585.1" r="3" fill="#1D4ED8" opacity="0.38"/>
    <circle cx="678.8" cy="582.0" r="3" fill="#6366F1" opacity="0.36"/>
    <circle cx="703.8" cy="586.6" r="3" fill="#3B82F6" opacity="0.73"/>
    <circle cx="737.6" cy="587.5" r="3" fill="#3B82F6" opacity="0.63"/>
    <circle cx="915.9" cy="588.2" r="3" fill="#1D4ED8" opacity="0.61"/>
    <circle cx="947.8" cy="581.1" r="3" fill="#60A5FA" opacity="0.78"/>
    <circle cx="974.8" cy="587.3" r="3" fill="#1D4ED8" opacity="0.33"/>
    <circle cx="44.4" cy="615.5" r="3" fill="#6366F1" opacity="0.55"/>
    <circle cx="137.6" cy="615.5" r="3" fill="#38BDF8" opacity="0.68"/>
    <circle cx="161.6" cy="611.3" r="3" fill="#60A5FA" opacity="0.52"/>
    <circle cx="197.9" cy="618.7" r="3" fill="#3B82F6" opacity="0.62"/>
    <circle cx="228.2" cy="618.4" r="3" fill="#38BDF8" opacity="0.40"/>
    <circle cx="257.5" cy="616.6" r="3" fill="#38BDF8" opacity="0.46"/>
    <circle cx="317.0" cy="616.1" r="3" fill="#60A5FA" opacity="0.56"/>
    <circle cx="736.4" cy="614.7" r="3" fill="#6366F1" opacity="0.45"/>
    <circle cx="766.5" cy="616.4" r="3" fill="#1D4ED8" opacity="0.42"/>
    <circle cx="886.8" cy="616.7" r="3" fill="#6366F1" opacity="0.76"/>
    <circle cx="911.5" cy="618.8" r="3" fill="#60A5FA" opacity="0.63"/>
    <circle cx="1002.8" cy="611.2" r="3" fill="#6366F1" opacity="0.62"/>
  </g>
</svg>