<svg xmlns="http://www.w3.org/2000/svg" width="1200" height="630" viewBox="0 0 1200 630">
  <rect width="1200" height="630" fill="#000000"/>
  <!-- Wave overlay -->
  <path d="M0 315 Q300 252 600 315 T1200 315" stroke="#4B5563" stroke-width="1" fill="none" opacity="0.3"/>
  <!-- Game of Life cells -->
  <g>
    <circle cx="17.3" cy="13.0" r="3" fill="#f54029" opacity="0.44"/>
    <circle cx="47.4" cy="16.7" r="3" fill="#FB923C" opacity="0.47"/>
    <circle cx="72.4" cy="14.4" r="3" fill="#DC2626" opacity="0.60"/>
    <circle cx="107.9" cy="18.4" r="3" fill="#EF4444" opacity="0.33"/>
    <circle cx="136.2" cy="11.5" r="3" fill="#DC2626" opacity="0.30"/>
    <circle cx="254.7" cy="15.9" r="3" fill="#EF4444" opacity="0.57"/>
    <circle cx="284.7" cy="14.6" r="3" fill="#F87171" opacity="0.33"/>
    <circle cx="311.2" cy="18.5" r="3" fill="#f54029" opacity="0.48"/>
    <circle cx="402.9" cy="11.1" r="3" fill="#DC2626" opacity="0.77"/>
    <circle cx="463.8" cy="13.3" r="3" fill="#F87171" opacity="0.58"/>
    <circle cx="521.0" cy="14.3" r="3" fill="#DC2626" opacity="0.61"/>
    <circle cx="557.4" cy="11.6" r="3" fill="#F87171" opacity="0.77"/>
    <circle cx="587.5" cy="13.8" r="3" fill="#FB923C" opacity="0.74"/>
    <circle cx="615.8" cy="11.0" r="3" fill="#FB923C" opacity="0.57"/>
    <circle cx="643.8" cy="14.3" r="3" fill="#FB923C" opacity="0.72"/>
    <circle cx="674.8" cy="13.5" r="3" fill="#f54029" opacity="0.79"/>
    <circle cx="708.5" cy="12.9" r="3" fill="#f54029" opacity="0.69"/>
    <circle cx="732.1" cy="15.2" r="3" fill="#f54029" opacity="0.65"/>
    <circle cx="764.8" cy="14.1" r="3" fill="#f54029" opacity="0.70"/>
    <circle cx="794.6" cy="16.2" r="3" fill="#DC2626" opacity="0.69"/>
    <circle cx="828.2" cy="11.9" r="3" fill="#F87171" opacity="0.60"/>
    <circle cx="854.5" cy="18.2" r="3" fill="#DC2626" opacity="0.69"/>
    <circle cx="916.6" cy="16.9" r="3" fill="#DC2626" opacity="0.31"/>
    <circle cx="974.7" cy="15.2" r="3" fill="#EF4444" opacity="0.58"/>
    <circle cx="1036.9" cy="12.4" r="3" fill="#FB923C" opacity="0.78"/>
    <circle cx="77.1" cy="42.8" r="3" fill="#F87171" opacity="0.48"/>
    <circle cx="107.7" cy="43.7" r="3" fill="#F87171" opacity="0.32"/>
    <circle cx="167.2" cy="47.3" r="3" fill="#FB923C" opacity="0.71"/>
    <circle cx="196.8" cy="43.0" r="3" fill="#F87171" opacity="0.58"/>
    <circle cx="258.2" cy="45.5" r="3" fill="#f54029" opacity="0.71"/>
    <circle cx="313.4" cy="41.4" r="3" fill="#FB923C" opacity="0.67"/>
    <circle cx="586.8" cy="46.9" r="3" fill="#f54029" opacity="0.54"/>
    <circle cx="615.9" cy="41.5" r="3" fill="#DC2626" opacity="0.50"/>
    <circle cx="646.7" cy="47.5" r="3" fill="#EF4444" opacity="0.64"/>
    <circle cx="677.0" cy="41.3" r="3" fill="#EF4444" opacity="0.36"/>
    <circle cx="704.7" cy="43.5" r="3" fill="#F87171" opacity="0.40"/>
    <circle cx="764.5" cy="48.4" r="3" fill="#FB923C" opacity="0.59"/>
    <circle cx="795.2" cy="49.0" r="3" fill="#DC2626" opacity="0.37"/>
    <circle cx="886.1" cy="47.6" r="3" fill="#f54029" opacity="0.34"/>
    <circle cx="911.8" cy="42.3" r="3" fill="#f54029" opacity="0.67"/>
    <circle cx="978.4" cy="45.4" r="3" fill="#FB923C" opacity="0.62"/>
    <circle cx="1098.3" cy="42.2" r="3" fill="#DC2626" opacity="0.68"/>
    <circle cx="1151.9" cy="47.9" r="3" fill="#DC2626" opacity="0.47"/>
    <circle cx="71.2" cy="76.0" r="3" fill="#EF4444" opacity="0.38"/>
    <circle cx="195.5" cy="77.2" r="3" fill="#FB923C" opacity="0.43"/>
    <circle cx="224.5" cy="74.7" r="3" fill="#EF4444" opacity="0.50"/>
    <circle cx="284.4" cy="74.4" r="3" fill="#FB923C" opacity="0.70"/>
    <circle cx="345.8" cy="72.4" r="3" fill="#f54029" opacity="0.42"/>
    <circle cx="371.7" cy="75.9" r="3" fill="#DC2626" opacity="0.33"/>
    <circle cx="466.1" cy="79.0" r="3" fill="#FB923C" opacity="0.73"/>
    <circle cx="558.5" cy="77.6" r="3" fill="#EF4444" opacity="0.35"/>
    <circle cx="613.1" cy="78.7" r="3" fill="#DC2626" opacity="0.66"/>
    <circle cx="768.4" cy="71.8" r="3" fill="#f54029" opacity="0.75"/>
    <circle cx="826.3" cy="72.4" r="3" fill="#FB923C" opacity="0.58"/>
    <circle cx="972.3" cy="71.3" r="3" fill="#FB923C" opacity="0.40"/>
    <circle cx="1035.6" cy="74.5" r="3" fill="#F87171" opacity="0.79"/>
    <circle cx="1064.8" cy="76.0" r="3" fill="#f54029" opacity="0.50"/>
    <circle cx="78.7" cy="107.3" r="3" fill="#DC2626" opacity="0.59"/>
    <circle cx="107.7" cy="101.8" r="3" fill="#F87171" opacity="0.50"/>
    <circle cx="192.1" cy="106.1" r="3" fill="#F87171" opacity="0.55"/>
    <circle cx="225.8" cy="103.6" r="3" fill="#DC2626" opacity="0.43"/>
    <circle cx="318.4" cy="102.6" r="3" fill="#FB923C" opacity="0.50"/>
    <circle cx="431.6" cy="107.4" r="3" fill="#EF4444" opacity="0.79"/>
    <circle cx="521.1" cy="107.5" r="3" fill="#F87171" opacity="0.69"/>
    <circle cx="611.3" cy="107.2" r="3" fill="#F87171" opacity="0.52"/>
    <circle cx="644.7" cy="106.6" r="3" fill="#F87171" opacity="0.53"/>
    <circle cx="676.7" cy="104.7" r="3" fill="#F87171" opacity="0.41"/>
    <circle cx="791.0" cy="107.3" r="3" fill="#F87171" opacity="0.69"/>
    <circle cx="828.5" cy="104.3" r="3" fill="#FB923C" opacity="0.49"/>
    <circle cx="854.8" cy="102.4" r="3" fill="#EF4444" opacity="0.52"/>
    <circle cx="912.1" cy="108.5" r="3" fill="#EF4444" opacity="0.56"/>
    <circle cx="973.8" cy="103.8" r="3" fill="#FB923C" opacity="0.60"/>
    <circle cx="1064.9" cy="106.7" r="3" fill="#F87171" opacity="0.78"/>
    <circle cx="101.3" cy="134.0" r="3" fill="#EF4444" opacity="0.78"/>
    <circle cx="132.9" cy="135.5" r="3" fill="#EF4444" opacity="0.51"/>
    <circle cx="163.8" cy="138.1" r="3" fill="#FB923C" opacity="0.48"/>
    <circle cx="194.4" cy="136.1" r="3" fill="#DC2626" opacity="0.76"/>
    <circle cx="227.5" cy="135.5" r="3" fill="#EF4444" opacity="0.62"/>
    <circle cx="255.5" cy="137.4" r="3" fill="#EF4444" opacity="0.79"/>
    <circle cx="318.6" cy="133.7" r="3" fill="#DC2626" opacity="0.46"/>
    <circle cx="407.8" cy="131.4" r="3" fill="#DC2626" opacity="0.70"/>
    <circle cx="614.8" cy="134.0" r="3" fill="#F87171" opacity="0.78"/>
    <circle cx="763.3" cy="135.2" r="3" fill="#DC2626" opacity="0.73"/>
    <circle cx="797.8" cy="133.1" r="3" fill="#FB923C" opacity="0.65"/>
    <circle cx="826.9" cy="135.7" r="3" fill="#f54029" opacity="0.61"/>
    <circle cx="858.7" cy="133.6" r="3" fill="#F87171" opacity="0.49"/>
    <circle cx="911.6" cy="132.0" r="3" fill="#EF4444" opacity="0.32"/>
    <circle cx="1034.3" cy="137.1" r="3" fill="#F87171" opacity="0.50"/>
    <circle cx="1158.8" cy="132.8" r="3" fill="#DC2626" opacity="0.50"/>
    <circle cx="13.2" cy="166.9" r="3" fill="#DC2626" opacity="0.64"/>
    <circle cx="41.9" cy="164.5" r="3" fill="#EF4444" opacity="0.60"/>
    <circle cx="77.4" cy="161.2" r="3" fill="#FB923C" opacity="0.61"/>
    <circle cx="131.4" cy="168.0" r="3" fill="#F87171" opacity="0.41"/>
    <circle cx="164.7" cy="161.5" r="3" fill="#DC2626" opacity="0.49"/>
    <circle cx="224.7" cy="168.0" r="3" fill="#EF4444" opacity="0.56"/>
    <circle cx="252.1" cy="167.0" r="3" fill="#F87171" opacity="0.60"/>
    <circle cx="431.7" cy="168.6" r="3" fill="#DC2626" opacity="0.57"/>
    <circle cx="464.6" cy="163.9" r="3" fill="#f54029" opacity="0.35"/>
    <circle cx="526.5" cy="168.8" r="3" fill="#DC2626" opacity="0.64"/>
    <circle cx="551.6" cy="169.0" r="3" fill="#F87171" opacity="0.75"/>
    <circle cx="643.0" cy="168.6" r="3" fill="#f54029" opacity="0.44"/>
    <circle cx="676.5" cy="166.0" r="3" fill="#EF4444" opacity="0.50"/>
    <circle cx="732.0" cy="166.4" r="3" fill="#DC2626" opacity="0.40"/>
    <circle cx="765.7" cy="161.0" r="3" fill="#f54029" opacity="0.51"/>
    <circle cx="912.1" cy="167.1" r="3" fill="#f54029" opacity="0.73"/>
    <circle cx="971.6" cy="163.0" r="3" fill="#f54029" opacity="0.63"/>
    <circle cx="1066.4" cy="165.3" r="3" fill="#EF4444" opacity="0.35"/>
    <circle cx="1125.4" cy="161.9" r="3" fill="#F87171" opacity="0.47"/>
    <circle cx="135.9" cy="194.0" r="3" fill="#f54029" opacity="0.59"/>
    <circle cx="316.5" cy="192.4" r="3" fill="#EF4444" opacity="0.61"/>
    <circle cx="402.0" cy="197.8" r="3" fill="#EF4444" opacity="0.63"/>
    <circle cx="496.9" cy="195.7" r="3" fill="#DC2626" opacity="0.78"/>
    <circle cx="581.8" cy="192.1" r="3" fill="#EF4444" opacity="0.77"/>
    <circle cx="646.7" cy="194.0" r="3" fill="#f54029" opacity="0.77"/>
    <circle cx="675.2" cy="196.7" r="3" fill="#DC2626" opacity="0.57"/>
    <circle cx="884.6" cy="193.7" r="3" fill="#f54029" opacity="0.73"/>
    <circle cx="977.6" cy="193.2" r="3" fill="#EF4444" opacity="0.47"/>
    <circle cx="1031.5" cy="191.1" r="3" fill="#f54029" opacity="0.32"/>
    <circle cx="43.2" cy="221.1" r="3" fill="#EF4444" opacity="0.73"/>
    <circle cx="132.3" cy="224.8" r="3" fill="#EF4444" opacity="0.49"/>
    <circle cx="194.1" cy="227.0" r="3" fill="#F87171" opacity="0.45"/>
    <circle cx="227.5" cy="228.4" r="3" fill="#f54029" opacity="0.63"/>
    <circle cx="557.9" cy="225.3" r="3" fill="#F87171" opacity="0.79"/>
    <circle cx="735.2" cy="223.7" r="3" fill="#FB923C" opacity="0.32"/>
    <circle cx="886.0" cy="221.7" r="3" fill="#f54029" opacity="0.59"/>
    <circle cx="1096.4" cy="225.3" r="3" fill="#DC2626" opacity="0.41"/>
    <circle cx="1155.6" cy="225.4" r="3" fill="#EF4444" opacity="0.34"/>
    <circle cx="17.9" cy="258.7" r="3" fill="#FB923C" opacity="0.39"/>
    <circle cx="43.9" cy="258.5" r="3" fill="#EF4444" opacity="0.63"/>
    <circle cx="131.2" cy="255.6" r="3" fill="#f54029" opacity="0.56"/>
    <circle cx="164.3" cy="257.0" r="3" fill="#DC2626" opacity="0.31"/>
    <circle cx="225.6" cy="252.2" r="3" fill="#DC2626" opacity="0.34"/>
    <circle cx="288.3" cy="252.2" r="3" fill="#f54029" opacity="0.33"/>
    <circle cx="343.6" cy="251.6" r="3" fill="#DC2626" opacity="0.43"/>
    <circle cx="431.1" cy="255.0" r="3" fill="#EF4444" opacity="0.36"/>
    <circle cx="583.7" cy="251.7" r="3" fill="#F87171" opacity="0.60"/>
    <circle cx="613.9" cy="252.5" r="3" fill="#f54029" opacity="0.68"/>
    <circle cx="707.3" cy="251.4" r="3" fill="#F87171" opacity="0.78"/>
    <circle cx="853.1" cy="256.3" r="3" fill="#FB923C" opacity="0.38"/>
    <circle cx="912.4" cy="254.1" r="3" fill="#DC2626" opacity="0.33"/>
    <circle cx="1125.3" cy="257.4" r="3" fill="#F87171" opacity="0.58"/>
    <circle cx="1181.3" cy="253.6" r="3" fill="#EF4444" opacity="0.74"/>
    <circle cx="132.5" cy="282.9" r="3" fill="#DC2626" opacity="0.60"/>
    <circle cx="196.3" cy="285.0" r="3" fill="#FB923C" opacity="0.56"/>
    <circle cx="258.7" cy="285.5" r="3" fill="#DC2626" opacity="0.65"/>
    <circle cx="287.3" cy="284.5" r="3" fill="#DC2626" opacity="0.46"/>
    <circle cx="495.0" cy="284.6" r="3" fill="#EF4444" opacity="0.59"/>
    <circle cx="551.3" cy="283.2" r="3" fill="#F87171" opacity="0.63"/>
    <circle cx="677.6" cy="281.3" r="3" fill="#FB923C" opacity="0.34"/>
    <circle cx="796.0" cy="286.8" r="3" fill="#F87171" opacity="0.50"/>
    <circle cx="823.1" cy="288.9" r="3" fill="#F87171" opacity="0.37"/>
    <circle cx="917.3" cy="282.0" r="3" fill="#EF4444" opacity="0.44"/>
    <circle cx="941.9" cy="286.2" r="3" fill="#EF4444" opacity="0.74"/>
    <circle cx="1091.6" cy="287.4" r="3" fill="#DC2626" opacity="0.55"/>
    <circle cx="1128.3" cy="286.3" r="3" fill="#EF4444" opacity="0.69"/>
    <circle cx="72.9" cy="315.4" r="3" fill="#DC2626" opacity="0.66"/>
    <circle cx="104.4" cy="315.3" r="3" fill="#DC2626" opacity="0.62"/>
    <circle cx="131.2" cy="315.8" r="3" fill="#EF4444" opacity="0.63"/>
    <circle cx="256.0" cy="318.7" r="3" fill="#FB923C" opacity="0.69"/>
    <circle cx="404.7" cy="318.6" r="3" fill="#FB923C" opacity="0.72"/>
    <circle cx="588.7" cy="319.0" r="3" fill="#f54029" opacity="0.31"/>
    <circle cx="611.8" cy="317.6" r="3" fill="#EF4444" opacity="0.48"/>
    <circle cx="645.3" cy="316.0" r="3" fill="#EF4444" opacity="0.80"/>
    <circle cx="676.6" cy="311.0" r="3" fill="#EF4444" opacity="0.36"/>
    <circle cx="705.0" cy="312.3" r="3" fill="#FB923C" opacity="0.75"/>
    <circle cx="737.2" cy="312.0" r="3" fill="#EF4444" opacity="0.72"/>
    <circle cx="795.5" cy="315.5" r="3" fill="#DC2626" opacity="0.43"/>
    <circle cx="828.5" cy="317.1" r="3" fill="#FB923C" opacity="0.62"/>
    <circle cx="912.8" cy="317.6" r="3" fill="#F87171" opacity="0.49"/>
    <circle cx="1094.0" cy="312.3" r="3" fill="#DC2626" opacity="0.72"/>
    <circle cx="1158.2" cy="313.6" r="3" fill="#DC2626" opacity="0.36"/>
    <circle cx="1185.0" cy="314.2" r="3" fill="#DC2626" opacity="0.74"/>
    <circle cx="72.0" cy="342.8" r="3" fill="#FB923C" opacity="0.68"/>
    <circle cx="103.2" cy="341.9" r="3" fill="#F87171" opacity="0.48"/>
    <circle cx="165.1" cy="347.1" r="3" fill="#f54029" opacity="0.33"/>
    <circle cx="192.1" cy="348.7" r="3" fill="#DC2626" opacity="0.60"/>
    <circle cx="221.8" cy="345.2" r="3" fill="#f54029" opacity="0.38"/>
    <circle cx="285.6" cy="342.4" r="3" fill="#F87171" opacity="0.76"/>
    <circle cx="346.9" cy="343.2" r="3" fill="#EF4444" opacity="0.58"/>
    <circle cx="375.7" cy="348.2" r="3" fill="#F87171" opacity="0.46"/>
    <circle cx="526.2" cy="341.4" r="3" fill="#EF4444" opacity="0.78"/>
    <circle cx="581.6" cy="341.0" r="3" fill="#EF4444" opacity="0.54"/>
    <circle cx="648.0" cy="346.5" r="3" fill="#f54029" opacity="0.62"/>
    <circle cx="676.1" cy="347.8" r="3" fill="#F87171" opacity="0.36"/>
    <circle cx="701.9" cy="348.0" r="3" fill="#FB923C" opacity="0.60"/>
    <circle cx="887.6" cy="348.5" r="3" fill="#FB923C" opacity="0.80"/>
    <circle cx="914.8" cy="344.7" r="3" fill="#FB923C" opacity="0.72"/>
    <circle cx="946.7" cy="345.1" r="3" fill="#FB923C" opacity="0.42"/>
    <circle cx="973.0" cy="342.9" r="3" fill="#EF4444" opacity="0.58"/>
    <circle cx="1063.5" cy="342.4" r="3" fill="#EF4444" opacity="0.47"/>
    <circle cx="44.6" cy="371.9" r="3" fill="#F87171" opacity="0.38"/>
    <circle cx="72.2" cy="371.6" r="3" fill="#f54029" opacity="0.40"/>
    <circle cx="138.8" cy="373.7" r="3" fill="#F87171" opacity="0.64"/>
    <circle cx="224.1" cy="373.9" r="3" fill="#F87171" opacity="0.49"/>
    <circle cx="254.4" cy="377.2" r="3" fill="#DC2626" opacity="0.62"/>
    <circle cx="284.2" cy="374.8" r="3" fill="#f54029" opacity="0.61"/>
    <circle cx="312.0" cy="372.0" r="3" fill="#EF4444" opacity="0.75"/>
    <circle cx="407.2" cy="377.6" r="3" fill="#FB923C" opacity="0.32"/>
    <circle cx="617.4" cy="375.5" r="3" fill="#EF4444" opacity="0.41"/>
    <circle cx="707.9" cy="373.3" r="3" fill="#EF4444" opacity="0.79"/>
    <circle cx="766.4" cy="374.1" r="3" fill="#EF4444" opacity="0.78"/>
    <circle cx="827.4" cy="372.9" r="3" fill="#f54029" opacity="0.76"/>
    <circle cx="853.2" cy="378.9" r="3" fill="#EF4444" opacity="0.43"/>
    <circle cx="887.3" cy="376.2" r="3" fill="#FB923C" opacity="0.58"/>
    <circle cx="917.3" cy="378.6" r="3" fill="#F87171" opacity="0.33"/>
    <circle cx="971.7" cy="377.1" r="3" fill="#DC2626" opacity="0.78"/>
    <circle cx="1002.7" cy="375.9" r="3" fill="#EF4444" opacity="0.44"/>
    <circle cx="1067.5" cy="378.1" r="3" fill="#F87171" opacity="0.73"/>
    <circle cx="1094.6" cy="373.2" r="3" fill="#FB923C" opacity="0.45"/>
    <circle cx="1153.9" cy="378.1" r="3" fill="#F87171" opacity="0.42"/>
    <circle cx="45.5" cy="404.9" r="3" fill="#DC2626" opacity="0.57"/>
    <circle cx="74.4" cy="404.5" r="3" fill="#EF4444" opacity="0.54"/>
    <circle cx="108.7" cy="407.4" r="3" fill="#DC2626" opacity="0.71"/>
    <circle cx="132.0" cy="408.6" r="3" fill="#DC2626" opacity="0.62"/>
    <circle cx="166.1" cy="403.7" r="3" fill="#EF4444" opacity="0.48"/>
    <circle cx="227.0" cy="403.1" r="3" fill="#DC2626" opacity="0.76"/>
    <circle cx="252.8" cy="407.6" r="3" fill="#F87171" opacity="0.67"/>
    <circle cx="286.3" cy="402.6" r="3" fill="#EF4444" opacity="0.80"/>
    <circle cx="376.4" cy="407.8" r="3" fill="#EF4444" opacity="0.33"/>
    <circle cx="642.5" cy="405.4" r="3" fill="#DC2626" opacity="0.56"/>
    <circle cx="675.4" cy="402.3" r="3" fill="#DC2626" opacity="0.59"/>
    <circle cx="706.5" cy="401.1" r="3" fill="#DC2626" opacity="0.72"/>
    <circle cx="734.2" cy="408.8" r="3" fill="#f54029" opacity="0.46"/>
    <circle cx="766.3" cy="403.0" r="3" fill="#EF4444" opacity="0.67"/>
    <circle cx="798.7" cy="408.1" r="3" fill="#DC2626" opacity="0.60"/>
    <circle cx="826.3" cy="404.1" r="3" fill="#F87171" opacity="0.40"/>
    <circle cx="916.3" cy="403.1" r="3" fill="#DC2626" opacity="0.46"/>
    <circle cx="944.2" cy="407.2" r="3" fill="#DC2626" opacity="0.57"/>
    <circle cx="1008.6" cy="404.3" r="3" fill="#DC2626" opacity="0.63"/>
    <circle cx="1127.8" cy="405.4" r="3" fill="#DC2626" opacity="0.44"/>
    <circle cx="1187.4" cy="405.3" r="3" fill="#EF4444" opacity="0.69"/>
    <circle cx="16.1" cy="435.6" r="3" fill="#f54029" opacity="0.70"/>
    <circle cx="43.6" cy="431.4" r="3" fill="#f54029" opacity="0.51"/>
    <circle cx="73.5" cy="436.7" r="3" fill="#DC2626" opacity="0.58"/>
    <circle cx="101.8" cy="434.4" r="3" fill="#f54029" opacity="0.32"/>
    <circle cx="196.5" cy="435.7" r="3" fill="#FB923C" opacity="0.50"/>
    <circle cx="226.7" cy="437.3" r="3" fill="#F87171" opacity="0.65"/>
    <circle cx="282.9" cy="431.7" r="3" fill="#F87171" opacity="0.72"/>
    <circle cx="315.8" cy="432.0" r="3" fill="#f54029" opacity="0.33"/>
    <circle cx="341.8" cy="438.0" r="3" fill="#F87171" opacity="0.45"/>
    <circle cx="375.0" cy="432.7" r="3" fill="#EF4444" opacity="0.57"/>
    <circle cx="403.7" cy="437.5" r="3" fill="#F87171" opacity="0.43"/>
    <circle cx="431.2" cy="434.0" r="3" fill="#F87171" opacity="0.31"/>
    <circle cx="497.1" cy="435.3" r="3" fill="#EF4444" opacity="0.74"/>
    <circle cx="528.9" cy="433.2" r="3" fill="#EF4444" opacity="0.80"/>
    <circle cx="551.2" cy="438.4" r="3" fill="#EF4444" opacity="0.71"/>
    <circle cx="618.6" cy="438.2" r="3" fill="#F87171" opacity="0.63"/>
    <circle cx="672.8" cy="431.9" r="3" fill="#F87171" opacity="0.62"/>
    <circle cx="732.1" cy="431.1" r="3" fill="#F87171" opacity="0.76"/>
    <circle cx="763.2" cy="436.7" r="3" fill="#f54029" opacity="0.52"/>
    <circle cx="791.6" cy="432.9" r="3" fill="#F87171" opacity="0.35"/>
    <circle cx="828.2" cy="435.1" r="3" fill="#EF4444" opacity="0.51"/>
    <circle cx="914.8" cy="437.7" r="3" fill="#F87171" opacity="0.74"/>
    <circle cx="942.7" cy="433.5" r="3" fill="#DC2626" opacity="0.71"/>
    <circle cx="1032.5" cy="435.9" r="3" fill="#EF4444" opacity="0.38"/>
    <circle cx="1153.2" cy="433.0" r="3" fill="#f54029" opacity="0.54"/>
    <circle cx="1181.8" cy="436.1" r="3" fill="#FB923C" opacity="0.79"/>
    <circle cx="44.8" cy="465.7" r="3" fill="#DC2626" opacity="0.44"/>
    <circle cx="77.7" cy="466.7" r="3" fill="#F87171" opacity="0.53"/>
    <circle cx="105.1" cy="466.7" r="3" fill="#FB923C" opacity="0.54"/>
    <circle cx="133.0" cy="462.0" r="3" fill="#F87171" opacity="0.73"/>
    <circle cx="255.2" cy="464.6" r="3" fill="#f54029" opacity="0.68"/>
    <circle cx="285.1" cy="465.0" r="3" fill="#EF4444" opacity="0.64"/>
    <circle cx="465.8" cy="468.4" r="3" fill="#f54029" opacity="0.37"/>
    <circle cx="525.3" cy="466.9" r="3" fill="#DC2626" opacity="0.74"/>
    <circle cx="704.8" cy="467.4" r="3" fill="#F87171" opacity="0.70"/>
    <circle cx="736.4" cy="463.6" r="3" fill="#DC2626" opacity="0.69"/>
    <circle cx="793.3" cy="463.7" r="3" fill="#f54029" opacity="0.71"/>
    <circle cx="948.1" cy="468.6" r="3" fill="#FB923C" opacity="0.40"/>
    <circle cx="972.7" cy="463.2" r="3" fill="#FB923C" opacity="0.47"/>
    <circle cx="1037.0" cy="468.2" r="3" fill="#F87171" opacity="0.78"/>
    <circle cx="1063.8" cy="468.9" r="3" fill="#f54029" opacity="0.41"/>
    <circle cx="1098.1" cy="461.6" r="3" fill="#EF4444" opacity="0.51"/>
    <circle cx="14.8" cy="495.9" r="3" fill="#F87171" opacity="0.76"/>
    <circle cx="107.0" cy="496.4" r="3" fill="#EF4444" opacity="0.34"/>
    <circle cx="162.9" cy="497.3" r="3" fill="#f54029" opacity="0.44"/>
    <circle cx="191.9" cy="494.6" r="3" fill="#F87171" opacity="0.47"/>
    <circle cx="225.9" cy="494.8" r="3" fill="#DC2626" opacity="0.55"/>
    <circle cx="287.8" cy="494.8" r="3" fill="#DC2626" opacity="0.78"/>
    <circle cx="403.6" cy="497.0" r="3" fill="#DC2626" opacity="0.52"/>
    <circle cx="497.8" cy="497.0" r="3" fill="#EF4444" opacity="0.47"/>
    <circle cx="528.2" cy="493.9" r="3" fill="#FB923C" opacity="0.53"/>
    <circle cx="557.8" cy="496.5" r="3" fill="#f54029" opacity="0.30"/>
    <circle cx="647.9" cy="496.3" r="3" fill="#DC2626" opacity="0.39"/>
    <circle cx="677.9" cy="498.4" r="3" fill="#DC2626" opacity="0.42"/>
    <circle cx="706.9" cy="492.5" r="3" fill="#f54029" opacity="0.42"/>
    <circle cx="735.1" cy="496.9" r="3" fill="#EF4444" opacity="0.39"/>
    <circle cx="795.5" cy="497.3" r="3" fill="#DC2626" opacity="0.36"/>
    <circle cx="882.7" cy="492.0" r="3" fill="#EF4444" opacity="0.67"/>
    <circle cx="944.9" cy="497.8" r="3" fill="#EF4444" opacity="0.76"/>
    <circle cx="1123.8" cy="496.6" r="3" fill="#F87171" opacity="0.44"/>
    <circle cx="48.6" cy="528.4" r="3" fill="#f54029" opacity="0.41"/>
    <circle cx="78.7" cy="521.8" r="3" fill="#FB923C" opacity="0.40"/>
    <circle cx="101.2" cy="525.6" r="3" fill="#DC2626" opacity="0.55"/>
    <circle cx="134.0" cy="528.5" r="3" fill="#EF4444" opacity="0.55"/>
    <circle cx="193.3" cy="523.6" r="3" fill="#DC2626" opacity="0.47"/>
    <circle cx="225.5" cy="525.5" r="3" fill="#FB923C" opacity="0.64"/>
    <circle cx="345.3" cy="521.3" r="3" fill="#DC2626" opacity="0.52"/>
    <circle cx="373.7" cy="525.0" r="3" fill="#DC2626" opacity="0.72"/>
    <circle cx="646.8" cy="524.9" r="3" fill="#f54029" opacity="0.40"/>
    <circle cx="826.9" cy="527.1" r="3" fill="#F87171" opacity="0.71"/>
    <circle cx="852.2" cy="525.9" r="3" fill="#EF4444" opacity="0.44"/>
    <circle cx="1096.7" cy="521.3" r="3" fill="#f54029" opacity="0.65"/>
    <circle cx="1154.2" cy="522.1" r="3" fill="#EF4444" opacity="0.32"/>
    <circle cx="1186.0" cy="522.9" r="3" fill="#DC2626" opacity="0.73"/>
    <circle cx="43.2" cy="554.9" r="3" fill="#EF4444" opacity="0.43"/>
    <circle cx="72.7" cy="551.2" r="3" fill="#f54029" opacity="0.59"/>
    <circle cx="191.0" cy="556.9" r="3" fill="#EF4444" opacity="0.76"/>
    <circle cx="225.2" cy="557.7" r="3" fill="#DC2626" opacity="0.56"/>
    <circle cx="286.3" cy="553.9" r="3" fill="#F87171" opacity="0.75"/>
    <circle cx="371.6" cy="557.8" r="3" fill="#DC2626" opacity="0.76"/>
    <circle cx="523.9" cy="552.7" r="3" fill="#FB923C" opacity="0.45"/>
    <circle cx="554.3" cy="557.4" r="3" fill="#f54029" opacity="0.72"/>
    <circle cx="704.7" cy="553.5" r="3" fill="#DC2626" opacity="0.63"/>
    <circle cx="734.4" cy="551.8" r="3" fill="#DC2626" opacity="0.54"/>
    <circle cx="764.6" cy="554.6" r="3" fill="#f54029" opacity="0.62"/>
    <circle cx="828.6" cy="558.3" r="3" fill="#F87171" opacity="0.78"/>
    <circle cx="855.7" cy="557.5" r="3" fill="#DC2626" opacity="0.72"/>
    <circle cx="882.1" cy="551.5" r="3" fill="#F87171" opacity="0.64"/>
    <circle cx="971.8" cy="551.5" r="3" fill="#EF4444" opacity="0.41"/>
    <circle cx="1031.7" cy="554.1" r="3" fill="#FB923C" opacity="0.70"/>
    <circle cx="1185.5" cy="557.6" r="3" fill="#EF4444" opacity="0.63"/>
    <circle cx="41.2" cy="586.0" r="3" fill="#DC2626" opacity="0.70"/>
    <circle cx="71.9" cy="588.8" r="3" fill="#F87171" opacity="0.73"/>
    <circle cx="254.9" cy="582.1" r="3" fill="#EF4444" opacity="0.72"/>
    <circle cx="343.9" cy="585.7" r="3" fill="#FB923C" opacity="0.48"/>
    <circle cx="408.2" cy="584.8" r="3" fill="#F87171" opacity="0.32"/>
    <circle cx="432.0" cy="583.7" r="3" fill="#FB923C" opacity="0.75"/>
    <circle cx="527.8" cy="584.5" r="3" fill="#F87171" opacity="0.49"/>
    <circle cx="616.7" cy="584.2" r="3" fill="#DC2626" opacity="0.64"/>
    <circle cx="702.7" cy="582.0" r="3" fill="#DC2626" opacity="0.78"/>
    <circle cx="853.2" cy="583.0" r="3" fill="#FB923C" opacity="0.47"/>
    <circle cx="886.1" cy="582.0" r="3" fill="#EF4444" opacity="0.37"/>
    <circle cx="1034.4" cy="587.9" r="3" fill="#F87171" opacity="0.32"/>
    <circle cx="1067.6" cy="582.5" r="3" fill="#F87171" opacity="0.44"/>
    <circle cx="193.9" cy="614.5" r="3" fill="#f54029" opacity="0.60"/>
    <circle cx="288.6" cy="613.9" r="3" fill="#EF4444" opacity="0.38"/>
    <circle cx="437.4" cy="613.9" r="3" fill="#F87171" opacity="0.72"/>
    <circle cx="558.6" cy="611.7" r="3" fill="#f54029" opacity="0.50"/>
    <circle cx="585.9" cy="616.1" r="3" fill="#FB923C" opacity="0.34"/>
    <circle cx="647.7" cy="612.8" r="3" fill="#DC2626" opacity="0.78"/>
    <circle cx="735.6" cy="616.9" r="3" fill="#F87171" opacity="0.37"/>
    <circle cx="825.0" cy="618.6" r="3" fill="#DC2626" opacity="0.32"/>
    <circle cx="858.2" cy="615.9" r="3" fill="#f54029" opacity="0.76"/>
    <circle cx="915.8" cy="613.7" r="3" fill="#f54029" opacity="0.61"/>
    <circle cx="948.0" cy="611.0" r="3" fill="#f54029" opacity="0.40"/>
  </g>
</svg>