<svg xmlns="http://www.w3.org/2000/svg" width="1200" height="630" viewBox="0 0 1200 630">
  <rect width="1200" height="630" fill="#2e1005"/>
  <!-- Wave overlay -->
  <path d="M0 315 Q300 252 600 315 T1200 315" stroke="#4B5563" stroke-width="1" fill="none" opacity="0.3"/>
  <!-- Game of Life cells -->
  <g>
    <circle cx="18.2" cy="12.9" r="3" fill="#FB923C" opacity="0.31"/>
    <circle cx="74.4" cy="18.2" r="3" fill="#FB923C" opacity="0.43"/>
    <circle cx="102.9" cy="17.8" r="3" fill="#FB923C" opacity="0.31"/>
    <circle cx="165.2" cy="11.5" r="3" fill="#F97316" opacity="0.68"/>
    <circle cx="255.0" cy="13.7" r="3" fill="#F97316" opacity="0.59"/>
    <circle cx="313.3" cy="18.1" r="3" fill="#C2410C" opacity="0.34"/>
    <circle cx="372.7" cy="17.0" r="3" fill="#FDBA74" opacity="0.39"/>
    <circle cx="408.3" cy="14.3" r="3" fill="#C2410C" opacity="0.33"/>
    <circle cx="432.1" cy="16.2" r="3" fill="#C2410C" opacity="0.30"/>
    <circle cx="465.0" cy="15.0" r="3" fill="#EA580C" opacity="0.59"/>
    <circle cx="527.7" cy="13.9" r="3" fill="#C2410C" opacity="0.68"/>
    <circle cx="642.4" cy="18.9" r="3" fill="#F97316" opacity="0.53"/>
    <circle cx="675.8" cy="17.3" r="3" fill="#EA580C" opacity="0.75"/>
    <circle cx="706.6" cy="16.5" r="3" fill="#F97316" opacity="0.74"/>
    <circle cx="768.3" cy="18.9" r="3" fill="#EA580C" opacity="0.37"/>
    <circle cx="823.0" cy="14.3" r="3" fill="#EA580C" opacity="0.30"/>
    <circle cx="856.7" cy="11.2" r="3" fill="#FB923C" opacity="0.76"/>
    <circle cx="942.2" cy="12.0" r="3" fill="#F97316" opacity="0.38"/>
    <circle cx="1068.8" cy="18.5" r="3" fill="#FDBA74" opacity="0.73"/>
    <circle cx="1092.4" cy="11.6" r="3" fill="#F97316" opacity="0.37"/>
    <circle cx="1184.0" cy="17.0" r="3" fill="#C2410C" opacity="0.58"/>
    <circle cx="73.4" cy="47.2" r="3" fill="#C2410C" opacity="0.62"/>
    <circle cx="106.1" cy="41.4" r="3" fill="#EA580C" opacity="0.33"/>
    <circle cx="252.4" cy="45.4" r="3" fill="#F97316" opacity="0.72"/>
    <circle cx="283.7" cy="44.8" r="3" fill="#FB923C" opacity="0.76"/>
    <circle cx="375.0" cy="48.2" r="3" fill="#FB923C" opacity="0.66"/>
    <circle cx="431.6" cy="42.1" r="3" fill="#C2410C" opacity="0.54"/>
    <circle cx="493.7" cy="48.0" r="3" fill="#F97316" opacity="0.67"/>
    <circle cx="558.7" cy="47.0" r="3" fill="#F97316" opacity="0.35"/>
    <circle cx="583.5" cy="46.4" r="3" fill="#EA580C" opacity="0.78"/>
    <circle cx="613.2" cy="41.4" r="3" fill="#EA580C" opacity="0.59"/>
    <circle cx="645.6" cy="46.5" r="3" fill="#FDBA74" opacity="0.58"/>
    <circle cx="769.0" cy="42.5" r="3" fill="#C2410C" opacity="0.73"/>
    <circle cx="794.3" cy="45.4" r="3" fill="#FB923C" opacity="0.63"/>
    <circle cx="852.9" cy="48.2" r="3" fill="#FB923C" opacity="0.62"/>
    <circle cx="888.1" cy="41.9" r="3" fill="#FDBA74" opacity="0.40"/>
    <circle cx="915.8" cy="46.6" r="3" fill="#FDBA74" opacity="0.60"/>
    <circle cx="1061.9" cy="46.3" r="3" fill="#C2410C" opacity="0.44"/>
    <circle cx="1095.2" cy="46.1" r="3" fill="#C2410C" opacity="0.33"/>
    <circle cx="1156.5" cy="44.5" r="3" fill="#FB923C" opacity="0.37"/>
    <circle cx="15.3" cy="75.3" r="3" fill="#FB923C" opacity="0.76"/>
    <circle cx="44.3" cy="76.1" r="3" fill="#F97316" opacity="0.65"/>
    <circle cx="74.0" cy="76.7" r="3" fill="#EA580C" opacity="0.44"/>
    <circle cx="108.3" cy="75.0" r="3" fill="#EA580C" opacity="0.45"/>
    <circle cx="132.9" cy="71.2" r="3" fill="#EA580C" opacity="0.79"/>
    <circle cx="161.7" cy="78.1" r="3" fill="#FDBA74" opacity="0.54"/>
    <circle cx="281.5" cy="73.2" r="3" fill="#C2410C" opacity="0.40"/>
    <circle cx="341.2" cy="74.2" r="3" fill="#FDBA74" opacity="0.70"/>
    <circle cx="376.2" cy="73.9" r="3" fill="#FB923C" opacity="0.46"/>
    <circle cx="467.4" cy="78.2" r="3" fill="#EA580C" opacity="0.67"/>
    <circle cx="524.3" cy="72.0" r="3" fill="#EA580C" opacity="0.71"/>
    <circle cx="555.3" cy="78.7" r="3" fill="#FB923C" opacity="0.45"/>
    <circle cx="708.7" cy="74.5" r="3" fill="#C2410C" opacity="0.35"/>
    <circle cx="731.7" cy="77.0" r="3" fill="#C2410C" opacity="0.33"/>
    <circle cx="768.7" cy="78.9" r="3" fill="#FDBA74" opacity="0.44"/>
    <circle cx="827.6" cy="78.0" r="3" fill="#C2410C" opacity="0.45"/>
    <circle cx="857.6" cy="73.2" r="3" fill="#FDBA74" opacity="0.70"/>
    <circle cx="943.6" cy="78.2" r="3" fill="#F97316" opacity="0.51"/>
    <circle cx="975.1" cy="72.7" r="3" fill="#F97316" opacity="0.35"/>
    <circle cx="1007.0" cy="78.2" r="3" fill="#F97316" opacity="0.60"/>
    <circle cx="1097.9" cy="76.3" r="3" fill="#C2410C" opacity="0.31"/>
    <circle cx="1122.9" cy="77.8" r="3" fill="#FDBA74" opacity="0.48"/>
    <circle cx="1152.5" cy="76.8" r="3" fill="#EA580C" opacity="0.39"/>
    <circle cx="16.2" cy="101.5" r="3" fill="#F97316" opacity="0.56"/>
    <circle cx="71.8" cy="106.2" r="3" fill="#F97316" opacity="0.58"/>
    <circle cx="164.9" cy="106.2" r="3" fill="#F97316" opacity="0.77"/>
    <circle cx="193.5" cy="108.0" r="3" fill="#F97316" opacity="0.63"/>
    <circle cx="226.5" cy="102.2" r="3" fill="#EA580C" opacity="0.79"/>
    <circle cx="256.9" cy="102.4" r="3" fill="#F97316" opacity="0.72"/>
    <circle cx="284.4" cy="103.8" r="3" fill="#FDBA74" opacity="0.77"/>
    <circle cx="313.5" cy="106.5" r="3" fill="#C2410C" opacity="0.43"/>
    <circle cx="408.6" cy="107.2" r="3" fill="#FB923C" opacity="0.37"/>
    <circle cx="462.3" cy="108.2" r="3" fill="#F97316" opacity="0.55"/>
    <circle cx="584.4" cy="101.5" r="3" fill="#FDBA74" opacity="0.56"/>
    <circle cx="613.2" cy="105.2" r="3" fill="#F97316" opacity="0.48"/>
    <circle cx="642.1" cy="104.0" r="3" fill="#F97316" opacity="0.30"/>
    <circle cx="707.5" cy="107.4" r="3" fill="#EA580C" opacity="0.68"/>
    <circle cx="798.3" cy="102.9" r="3" fill="#FDBA74" opacity="0.50"/>
    <circle cx="826.4" cy="106.4" r="3" fill="#EA580C" opacity="0.74"/>
    <circle cx="884.2" cy="107.5" r="3" fill="#EA580C" opacity="0.40"/>
    <circle cx="912.2" cy="106.8" r="3" fill="#F97316" opacity="0.50"/>
    <circle cx="1006.2" cy="106.4" r="3" fill="#C2410C" opacity="0.36"/>
    <circle cx="1038.6" cy="106.5" r="3" fill="#EA580C" opacity="0.45"/>
    <circle cx="1186.0" cy="106.3" r="3" fill="#EA580C" opacity="0.36"/>
    <circle cx="105.4" cy="136.5" r="3" fill="#F97316" opacity="0.44"/>
    <circle cx="164.5" cy="137.3" r="3" fill="#FB923C" opacity="0.57"/>
    <circle cx="226.5" cy="134.3" r="3" fill="#C2410C" opacity="0.48"/>
    <circle cx="281.3" cy="132.6" r="3" fill="#C2410C" opacity="0.31"/>
    <circle cx="348.1" cy="136.6" r="3" fill="#C2410C" opacity="0.38"/>
    <circle cx="523.0" cy="134.2" r="3" fill="#FB923C" opacity="0.68"/>
    <circle cx="702.3" cy="134.0" r="3" fill="#FB923C" opacity="0.48"/>
    <circle cx="768.2" cy="133.3" r="3" fill="#C2410C" opacity="0.49"/>
    <circle cx="791.8" cy="131.2" r="3" fill="#FDBA74" opacity="0.51"/>
    <circle cx="822.6" cy="134.9" r="3" fill="#C2410C" opacity="0.51"/>
    <circle cx="857.2" cy="135.0" r="3" fill="#FDBA74" opacity="0.58"/>
    <circle cx="887.4" cy="138.8" r="3" fill="#C2410C" opacity="0.42"/>
    <circle cx="946.1" cy="136.1" r="3" fill="#C2410C" opacity="0.68"/>
    <circle cx="975.3" cy="133.1" r="3" fill="#FB923C" opacity="0.59"/>
    <circle cx="1124.5" cy="136.9" r="3" fill="#C2410C" opacity="0.40"/>
    <circle cx="72.8" cy="166.8" r="3" fill="#C2410C" opacity="0.47"/>
    <circle cx="137.8" cy="161.1" r="3" fill="#C2410C" opacity="0.64"/>
    <circle cx="194.4" cy="168.4" r="3" fill="#C2410C" opacity="0.47"/>
    <circle cx="251.7" cy="167.8" r="3" fill="#F97316" opacity="0.47"/>
    <circle cx="288.9" cy="162.9" r="3" fill="#FB923C" opacity="0.58"/>
    <circle cx="401.2" cy="167.2" r="3" fill="#FB923C" opacity="0.63"/>
    <circle cx="553.8" cy="161.5" r="3" fill="#FDBA74" opacity="0.54"/>
    <circle cx="581.9" cy="167.7" r="3" fill="#FDBA74" opacity="0.55"/>
    <circle cx="613.1" cy="163.4" r="3" fill="#EA580C" opacity="0.57"/>
    <circle cx="738.1" cy="165.8" r="3" fill="#FDBA74" opacity="0.33"/>
    <circle cx="792.3" cy="162.5" r="3" fill="#FDBA74" opacity="0.64"/>
    <circle cx="828.4" cy="166.7" r="3" fill="#EA580C" opacity="0.68"/>
    <circle cx="854.0" cy="166.7" r="3" fill="#FB923C" opacity="0.80"/>
    <circle cx="974.9" cy="163.6" r="3" fill="#C2410C" opacity="0.79"/>
    <circle cx="1062.1" cy="164.7" r="3" fill="#FB923C" opacity="0.56"/>
    <circle cx="1092.6" cy="166.4" r="3" fill="#FB923C" opacity="0.67"/>
    <circle cx="1126.2" cy="168.7" r="3" fill="#FDBA74" opacity="0.65"/>
    <circle cx="1187.7" cy="163.1" r="3" fill="#FB923C" opacity="0.37"/>
    <circle cx="78.8" cy="194.8" r="3" fill="#C2410C" opacity="0.75"/>
    <circle cx="161.3" cy="194.2" r="3" fill="#C2410C" opacity="0.55"/>
    <circle cx="406.4" cy="191.8" r="3" fill="#EA580C" opacity="0.66"/>
    <circle cx="641.4" cy="195.2" r="3" fill="#F97316" opacity="0.45"/>
    <circle cx="732.0" cy="194.8" r="3" fill="#C2410C" opacity="0.67"/>
    <circle cx="821.6" cy="194.1" r="3" fill="#C2410C" opacity="0.77"/>
    <circle cx="881.9" cy="192.1" r="3" fill="#F97316" opacity="0.39"/>
    <circle cx="1091.1" cy="197.9" r="3" fill="#C2410C" opacity="0.51"/>
    <circle cx="45.4" cy="226.8" r="3" fill="#C2410C" opacity="0.77"/>
    <circle cx="78.2" cy="221.8" r="3" fill="#FB923C" opacity="0.54"/>
    <circle cx="283.1" cy="222.5" r="3" fill="#C2410C" opacity="0.37"/>
    <circle cx="348.6" cy="227.5" r="3" fill="#F97316" opacity="0.53"/>
    <circle cx="496.5" cy="226.3" r="3" fill="#EA580C" opacity="0.51"/>
    <circle cx="672.4" cy="224.6" r="3" fill="#F97316" opacity="0.58"/>
    <circle cx="735.6" cy="227.2" r="3" fill="#EA580C" opacity="0.62"/>
    <circle cx="856.9" cy="228.8" r="3" fill="#F97316" opacity="0.30"/>
    <circle cx="888.6" cy="228.7" r="3" fill="#FB923C" opacity="0.58"/>
    <circle cx="976.4" cy="224.3" r="3" fill="#F97316" opacity="0.36"/>
    <circle cx="1002.5" cy="224.3" r="3" fill="#FDBA74" opacity="0.78"/>
    <circle cx="1037.1" cy="229.0" r="3" fill="#EA580C" opacity="0.76"/>
    <circle cx="1062.4" cy="223.7" r="3" fill="#EA580C" opacity="0.67"/>
    <circle cx="1095.8" cy="221.2" r="3" fill="#FDBA74" opacity="0.71"/>
    <circle cx="1151.6" cy="226.9" r="3" fill="#FB923C" opacity="0.47"/>
    <circle cx="11.5" cy="253.8" r="3" fill="#C2410C" opacity="0.63"/>
    <circle cx="43.6" cy="252.3" r="3" fill="#FDBA74" opacity="0.60"/>
    <circle cx="77.5" cy="255.9" r="3" fill="#FDBA74" opacity="0.40"/>
    <circle cx="164.4" cy="258.2" r="3" fill="#F97316" opacity="0.48"/>
    <circle cx="194.9" cy="256.0" r="3" fill="#FB923C" opacity="0.39"/>
    <circle cx="377.6" cy="258.9" r="3" fill="#FDBA74" opacity="0.63"/>
    <circle cx="464.3" cy="253.1" r="3" fill="#FB923C" opacity="0.54"/>
    <circle cx="673.7" cy="252.0" r="3" fill="#C2410C" opacity="0.37"/>
    <circle cx="735.1" cy="252.8" r="3" fill="#FB923C" opacity="0.75"/>
    <circle cx="796.9" cy="252.8" r="3" fill="#FB923C" opacity="0.42"/>
    <circle cx="977.5" cy="251.3" r="3" fill="#EA580C" opacity="0.42"/>
    <circle cx="1125.0" cy="253.2" r="3" fill="#FB923C" opacity="0.30"/>
    <circle cx="17.7" cy="287.7" r="3" fill="#F97316" opacity="0.64"/>
    <circle cx="48.1" cy="281.7" r="3" fill="#EA580C" opacity="0.70"/>
    <circle cx="77.7" cy="281.4" r="3" fill="#FDBA74" opacity="0.32"/>
    <circle cx="133.0" cy="281.1" r="3" fill="#EA580C" opacity="0.34"/>
    <circle cx="162.9" cy="284.2" r="3" fill="#FB923C" opacity="0.43"/>
    <circle cx="257.3" cy="285.3" r="3" fill="#FB923C" opacity="0.43"/>
    <circle cx="287.6" cy="285.0" r="3" fill="#F97316" opacity="0.51"/>
    <circle cx="347.1" cy="283.2" r="3" fill="#FDBA74" opacity="0.56"/>
    <circle cx="586.5" cy="287.6" r="3" fill="#EA580C" opacity="0.73"/>
    <circle cx="616.7" cy="282.1" r="3" fill="#FB923C" opacity="0.61"/>
    <circle cx="646.7" cy="288.1" r="3" fill="#F97316" opacity="0.39"/>
    <circle cx="764.3" cy="286.2" r="3" fill="#EA580C" opacity="0.48"/>
    <circle cx="821.5" cy="283.7" r="3" fill="#FB923C" opacity="0.55"/>
    <circle cx="855.2" cy="285.1" r="3" fill="#F97316" opacity="0.57"/>
    <circle cx="944.4" cy="285.4" r="3" fill="#F97316" opacity="0.63"/>
    <circle cx="48.8" cy="317.9" r="3" fill="#FB923C" opacity="0.75"/>
    <circle cx="223.4" cy="316.4" r="3" fill="#C2410C" opacity="0.55"/>
    <circle cx="434.7" cy="315.6" r="3" fill="#EA580C" opacity="0.52"/>
    <circle cx="552.5" cy="314.5" r="3" fill="#EA580C" opacity="0.65"/>
    <circle cx="706.3" cy="316.1" r="3" fill="#F97316" opacity="0.68"/>
    <circle cx="738.1" cy="317.1" r="3" fill="#F97316" opacity="0.50"/>
    <circle cx="792.8" cy="318.7" r="3" fill="#EA580C" opacity="0.32"/>
    <circle cx="917.9" cy="311.5" r="3" fill="#FB923C" opacity="0.56"/>
    <circle cx="948.6" cy="314.0" r="3" fill="#FDBA74" opacity="0.64"/>
    <circle cx="978.9" cy="318.5" r="3" fill="#FB923C" opacity="0.49"/>
    <circle cx="1036.8" cy="312.4" r="3" fill="#C2410C" opacity="0.66"/>
    <circle cx="1126.8" cy="318.0" r="3" fill="#F97316" opacity="0.73"/>
    <circle cx="1152.1" cy="316.9" r="3" fill="#C2410C" opacity="0.47"/>
    <circle cx="12.4" cy="348.5" r="3" fill="#EA580C" opacity="0.63"/>
    <circle cx="72.4" cy="342.3" r="3" fill="#C2410C" opacity="0.58"/>
    <circle cx="136.9" cy="344.0" r="3" fill="#EA580C" opacity="0.58"/>
    <circle cx="164.1" cy="341.4" r="3" fill="#FB923C" opacity="0.76"/>
    <circle cx="436.2" cy="347.2" r="3" fill="#FDBA74" opacity="0.70"/>
    <circle cx="468.9" cy="348.3" r="3" fill="#C2410C" opacity="0.31"/>
    <circle cx="525.5" cy="342.5" r="3" fill="#F97316" opacity="0.41"/>
    <circle cx="613.2" cy="348.8" r="3" fill="#FB923C" opacity="0.74"/>
    <circle cx="641.0" cy="345.0" r="3" fill="#FB923C" opacity="0.76"/>
    <circle cx="707.4" cy="341.5" r="3" fill="#FB923C" opacity="0.63"/>
    <circle cx="734.8" cy="342.2" r="3" fill="#F97316" opacity="0.47"/>
    <circle cx="793.2" cy="341.8" r="3" fill="#FDBA74" opacity="0.73"/>
    <circle cx="824.2" cy="341.7" r="3" fill="#F97316" opacity="0.40"/>
    <circle cx="853.0" cy="342.5" r="3" fill="#FB923C" opacity="0.39"/>
    <circle cx="882.9" cy="348.9" r="3" fill="#EA580C" opacity="0.76"/>
    <circle cx="1033.1" cy="348.3" r="3" fill="#C2410C" opacity="0.69"/>
    <circle cx="1096.4" cy="348.2" r="3" fill="#F97316" opacity="0.47"/>
    <circle cx="1123.0" cy="344.3" r="3" fill="#C2410C" opacity="0.60"/>
    <circle cx="1188.2" cy="348.5" r="3" fill="#C2410C" opacity="0.31"/>
    <circle cx="11.9" cy="374.4" r="3" fill="#FDBA74" opacity="0.51"/>
    <circle cx="46.3" cy="376.8" r="3" fill="#FB923C" opacity="0.68"/>
    <circle cx="107.6" cy="375.1" r="3" fill="#F97316" opacity="0.51"/>
    <circle cx="223.8" cy="376.2" r="3" fill="#FB923C" opacity="0.73"/>
    <circle cx="281.1" cy="374.2" r="3" fill="#EA580C" opacity="0.48"/>
    <circle cx="345.3" cy="372.2" r="3" fill="#FDBA74" opacity="0.34"/>
    <circle cx="436.9" cy="374.0" r="3" fill="#EA580C" opacity="0.56"/>
    <circle cx="551.2" cy="375.0" r="3" fill="#EA580C" opacity="0.47"/>
    <circle cx="587.5" cy="371.7" r="3" fill="#FB923C" opacity="0.47"/>
    <circle cx="616.1" cy="373.7" r="3" fill="#C2410C" opacity="0.51"/>
    <circle cx="675.2" cy="374.6" r="3" fill="#FDBA74" opacity="0.73"/>
    <circle cx="732.1" cy="375.2" r="3" fill="#F97316" opacity="0.68"/>
    <circle cx="764.5" cy="376.1" r="3" fill="#FDBA74" opacity="0.65"/>
    <circle cx="791.4" cy="373.2" r="3" fill="#F97316" opacity="0.61"/>
    <circle cx="827.4" cy="377.4" r="3" fill="#C2410C" opacity="0.49"/>
    <circle cx="887.6" cy="378.6" r="3" fill="#FB923C" opacity="0.47"/>
    <circle cx="943.7" cy="376.8" r="3" fill="#F97316" opacity="0.33"/>
    <circle cx="1004.5" cy="371.2" r="3" fill="#FB923C" opacity="0.72"/>
    <circle cx="1031.6" cy="375.3" r="3" fill="#FDBA74" opacity="0.60"/>
    <circle cx="1097.6" cy="373.6" r="3" fill="#FB923C" opacity="0.63"/>
    <circle cx="1122.1" cy="372.3" r="3" fill="#FDBA74" opacity="0.75"/>
    <circle cx="1186.4" cy="377.5" r="3" fill="#F97316" opacity="0.41"/>
    <circle cx="46.9" cy="407.6" r="3" fill="#C2410C" opacity="0.52"/>
    <circle cx="197.5" cy="405.7" r="3" fill="#F97316" opacity="0.56"/>
    <circle cx="311.8" cy="407.1" r="3" fill="#C2410C" opacity="0.56"/>
    <circle cx="371.5" cy="402.3" r="3" fill="#FDBA74" opacity="0.56"/>
    <circle cx="465.7" cy="403.6" r="3" fill="#C2410C" opacity="0.77"/>
    <circle cx="554.8" cy="401.3" r="3" fill="#F97316" opacity="0.75"/>
    <circle cx="678.8" cy="404.8" r="3" fill="#EA580C" opacity="0.46"/>
    <circle cx="768.8" cy="406.4" r="3" fill="#FDBA74" opacity="0.40"/>
    <circle cx="798.2" cy="406.4" r="3" fill="#C2410C" opacity="0.36"/>
    <circle cx="826.1" cy="407.5" r="3" fill="#FDBA74" opacity="0.52"/>
    <circle cx="855.3" cy="408.5" r="3" fill="#EA580C" opacity="0.62"/>
    <circle cx="886.7" cy="407.6" r="3" fill="#F97316" opacity="0.45"/>
    <circle cx="916.3" cy="407.4" r="3" fill="#F97316" opacity="0.75"/>
    <circle cx="944.9" cy="402.8" r="3" fill="#C2410C" opacity="0.58"/>
    <circle cx="977.8" cy="408.4" r="3" fill="#FB923C" opacity="0.58"/>
    <circle cx="1031.4" cy="405.0" r="3" fill="#C2410C" opacity="0.43"/>
    <circle cx="1095.6" cy="406.9" r="3" fill="#FB923C" opacity="0.34"/>
    <circle cx="1126.8" cy="403.6" r="3" fill="#FDBA74" opacity="0.47"/>
    <circle cx="74.4" cy="436.2" r="3" fill="#FB923C" opacity="0.46"/>
    <circle cx="133.9" cy="435.4" r="3" fill="#FB923C" opacity="0.66"/>
    <circle cx="192.0" cy="431.2" r="3" fill="#FDBA74" opacity="0.38"/>
    <circle cx="227.5" cy="437.1" r="3" fill="#C2410C" opacity="0.56"/>
    <circle cx="251.3" cy="437.6" r="3" fill="#F97316" opacity="0.71"/>
    <circle cx="316.2" cy="438.1" r="3" fill="#EA580C" opacity="0.75"/>
    <circle cx="345.2" cy="432.5" r="3" fill="#EA580C" opacity="0.35"/>
    <circle cx="464.5" cy="433.4" r="3" fill="#F97316" opacity="0.44"/>
    <circle cx="582.2" cy="436.8" r="3" fill="#FB923C" opacity="0.57"/>
    <circle cx="611.5" cy="433.6" r="3" fill="#FB923C" opacity="0.60"/>
    <circle cx="648.8" cy="437.1" r="3" fill="#F97316" opacity="0.75"/>
    <circle cx="735.3" cy="436.3" r="3" fill="#C2410C" opacity="0.48"/>
    <circle cx="827.4" cy="436.1" r="3" fill="#EA580C" opacity="0.47"/>
    <circle cx="853.0" cy="436.4" r="3" fill="#FDBA74" opacity="0.43"/>
    <circle cx="888.8" cy="433.3" r="3" fill="#EA580C" opacity="0.75"/>
    <circle cx="945.6" cy="432.5" r="3" fill="#EA580C" opacity="0.52"/>
    <circle cx="974.4" cy="431.0" r="3" fill="#FDBA74" opacity="0.44"/>
    <circle cx="1003.7" cy="435.9" r="3" fill="#FDBA74" opacity="0.43"/>
    <circle cx="191.7" cy="468.3" r="3" fill="#FB923C" opacity="0.66"/>
    <circle cx="225.9" cy="463.8" r="3" fill="#F97316" opacity="0.42"/>
    <circle cx="257.1" cy="461.4" r="3" fill="#C2410C" opacity="0.77"/>
    <circle cx="311.6" cy="467.2" r="3" fill="#FDBA74" opacity="0.65"/>
    <circle cx="341.6" cy="467.8" r="3" fill="#FDBA74" opacity="0.67"/>
    <circle cx="523.8" cy="465.7" r="3" fill="#C2410C" opacity="0.50"/>
    <circle cx="614.2" cy="463.6" r="3" fill="#F97316" opacity="0.52"/>
    <circle cx="641.6" cy="469.0" r="3" fill="#EA580C" opacity="0.64"/>
    <circle cx="822.2" cy="466.7" r="3" fill="#FB923C" opacity="0.50"/>
    <circle cx="856.2" cy="468.1" r="3" fill="#FDBA74" opacity="0.72"/>
    <circle cx="888.8" cy="463.9" r="3" fill="#FB923C" opacity="0.54"/>
    <circle cx="918.3" cy="462.6" r="3" fill="#FB923C" opacity="0.40"/>
    <circle cx="1037.5" cy="466.4" r="3" fill="#FDBA74" opacity="0.42"/>
    <circle cx="1125.2" cy="461.7" r="3" fill="#FDBA74" opacity="0.51"/>
    <circle cx="1158.1" cy="463.6" r="3" fill="#EA580C" opacity="0.62"/>
    <circle cx="43.8" cy="492.0" r="3" fill="#FB923C" opacity="0.41"/>
    <circle cx="102.7" cy="493.9" r="3" fill="#FB923C" opacity="0.31"/>
    <circle cx="195.1" cy="497.6" r="3" fill="#C2410C" opacity="0.51"/>
    <circle cx="225.3" cy="493.2" r="3" fill="#FB923C" opacity="0.34"/>
    <circle cx="251.2" cy="493.6" r="3" fill="#C2410C" opacity="0.53"/>
    <circle cx="344.7" cy="496.5" r="3" fill="#FDBA74" opacity="0.79"/>
    <circle cx="373.5" cy="494.5" r="3" fill="#C2410C" opacity="0.60"/>
    <circle cx="406.6" cy="497.3" r="3" fill="#FDBA74" opacity="0.79"/>
    <circle cx="434.4" cy="496.4" r="3" fill="#C2410C" opacity="0.67"/>
    <circle cx="461.1" cy="491.7" r="3" fill="#FDBA74" opacity="0.56"/>
    <circle cx="494.6" cy="497.9" r="3" fill="#C2410C" opacity="0.42"/>
    <circle cx="583.5" cy="498.4" r="3" fill="#FDBA74" opacity="0.55"/>
    <circle cx="647.1" cy="494.0" r="3" fill="#C2410C" opacity="0.57"/>
    <circle cx="671.2" cy="492.8" r="3" fill="#C2410C" opacity="0.50"/>
    <circle cx="795.2" cy="496.0" r="3" fill="#FB923C" opacity="0.72"/>
    <circle cx="823.1" cy="498.0" r="3" fill="#FDBA74" opacity="0.75"/>
    <circle cx="947.3" cy="496.5" r="3" fill="#FB923C" opacity="0.54"/>
    <circle cx="971.7" cy="497.9" r="3" fill="#F97316" opacity="0.76"/>
    <circle cx="1036.2" cy="498.0" r="3" fill="#FDBA74" opacity="0.53"/>
    <circle cx="1065.0" cy="494.5" r="3" fill="#FDBA74" opacity="0.69"/>
    <circle cx="1127.3" cy="491.6" r="3" fill="#FB923C" opacity="0.33"/>
    <circle cx="1156.2" cy="497.8" r="3" fill="#FDBA74" opacity="0.49"/>
    <circle cx="1184.9" cy="491.6" r="3" fill="#EA580C" opacity="0.42"/>
    <circle cx="15.9" cy="528.4" r="3" fill="#C2410C" opacity="0.37"/>
    <circle cx="45.9" cy="525.5" r="3" fill="#FDBA74" opacity="0.74"/>
    <circle cx="77.6" cy="523.7" r="3" fill="#F97316" opacity="0.68"/>
    <circle cx="162.6" cy="525.1" r="3" fill="#C2410C" opacity="0.64"/>
    <circle cx="317.2" cy="524.1" r="3" fill="#EA580C" opacity="0.51"/>
    <circle cx="613.7" cy="525.2" r="3" fill="#FDBA74" opacity="0.47"/>
    <circle cx="678.2" cy="522.4" r="3" fill="#C2410C" opacity="0.37"/>
    <circle cx="704.1" cy="527.5" r="3" fill="#EA580C" opacity="0.33"/>
    <circle cx="735.6" cy="525.6" r="3" fill="#FB923C" opacity="0.68"/>
    <circle cx="828.3" cy="524.0" r="3" fill="#FDBA74" opacity="0.33"/>
    <circle cx="914.9" cy="527.0" r="3" fill="#F97316" opacity="0.41"/>
    <circle cx="974.2" cy="522.4" r="3" fill="#F97316" opacity="0.67"/>
    <circle cx="1003.9" cy="528.4" r="3" fill="#EA580C" opacity="0.57"/>
    <circle cx="1032.5" cy="528.6" r="3" fill="#FDBA74" opacity="0.57"/>
    <circle cx="1062.4" cy="528.6" r="3" fill="#FB923C" opacity="0.42"/>
    <circle cx="1091.4" cy="528.8" r="3" fill="#FB923C" opacity="0.70"/>
    <circle cx="1182.9" cy="522.5" r="3" fill="#FB923C" opacity="0.42"/>
    <circle cx="16.4" cy="551.5" r="3" fill="#FB923C" opacity="0.47"/>
    <circle cx="167.3" cy="558.1" r="3" fill="#C2410C" opacity="0.36"/>
    <circle cx="192.6" cy="556.2" r="3" fill="#EA580C" opacity="0.42"/>
    <circle cx="221.1" cy="551.0" r="3" fill="#FDBA74" opacity="0.59"/>
    <circle cx="314.5" cy="554.9" r="3" fill="#EA580C" opacity="0.30"/>
    <circle cx="342.4" cy="553.9" r="3" fill="#EA580C" opacity="0.40"/>
    <circle cx="464.9" cy="552.4" r="3" fill="#FB923C" opacity="0.68"/>
    <circle cx="584.0" cy="557.0" r="3" fill="#FB923C" opacity="0.34"/>
    <circle cx="647.9" cy="556.7" r="3" fill="#F97316" opacity="0.39"/>
    <circle cx="731.3" cy="554.2" r="3" fill="#C2410C" opacity="0.66"/>
    <circle cx="793.1" cy="555.7" r="3" fill="#F97316" opacity="0.48"/>
    <circle cx="917.3" cy="553.0" r="3" fill="#EA580C" opacity="0.77"/>
    <circle cx="1034.6" cy="552.7" r="3" fill="#FB923C" opacity="0.73"/>
    <circle cx="1091.3" cy="558.5" r="3" fill="#F97316" opacity="0.70"/>
    <circle cx="1151.2" cy="558.5" r="3" fill="#EA580C" opacity="0.65"/>
    <circle cx="73.0" cy="584.2" r="3" fill="#FDBA74" opacity="0.46"/>
    <circle cx="102.0" cy="582.6" r="3" fill="#EA580C" opacity="0.34"/>
    <circle cx="348.3" cy="588.1" r="3" fill="#FDBA74" opacity="0.43"/>
    <circle cx="436.6" cy="585.5" r="3" fill="#C2410C" opacity="0.40"/>
    <circle cx="556.1" cy="588.4" r="3" fill="#FB923C" opacity="0.42"/>
    <circle cx="586.9" cy="584.8" r="3" fill="#F97316" opacity="0.34"/>
    <circle cx="676.3" cy="587.0" r="3" fill="#FDBA74" opacity="0.46"/>
    <circle cx="827.8" cy="586.7" r="3" fill="#FDBA74" opacity="0.34"/>
    <circle cx="887.0" cy="583.1" r="3" fill="#C2410C" opacity="0.70"/>
    <circle cx="1007.2" cy="581.8" r="3" fill="#F97316" opacity="0.60"/>
    <circle cx="1031.7" cy="582.4" r="3" fill="#EA580C" opacity="0.72"/>
    <circle cx="1098.6" cy="586.2" r="3" fill="#EA580C" opacity="0.36"/>
    <circle cx="1185.3" cy="587.6" r="3" fill="#C2410C" opacity="0.56"/>
    <circle cx="73.7" cy="614.4" r="3" fill="#EA580C" opacity="0.42"/>
    <circle cx="135.6" cy="615.9" r="3" fill="#C2410C" opacity="0.47"/>
    <circle cx="341.8" cy="611.4" r="3" fill="#F97316" opacity="0.67"/>
    <circle cx="403.6" cy="617.8" r="3" fill="#C2410C" opacity="0.72"/>
    <circle cx="588.7" cy="611.4" r="3" fill="#EA580C" opacity="0.70"/>
    <circle cx="677.9" cy="617.7" r="3" fill="#C2410C" opacity="0.66"/>
    <circle cx="763.9" cy="618.8" r="3" fill="#C2410C" opacity="0.70"/>
    <circle cx="911.0" cy="613.8" r="3" fill="#EA580C" opacity="0.75"/>
    <circle cx="1001.8" cy="611.9" r="3" fill="#C2410C" opacity="0.45"/>
  </g>
</svg>