<svg xmlns="http://www.w3.org/2000/svg" width="1200" height="630" viewBox="0 0 1200 630">
  <rect width="1200" height="630" fill="#022c22"/>
  <!-- Wave overlay -->
  <path d="M0 315 Q300 252 600 315 T1200 315" stroke="#4B5563" stroke-width="1" fill="none" opacity="0.3"/>
  <!-- Game of Life cells -->
  <g>
    <circle cx="76.0" cy="16.4" r="3" fill="#FBBF24" opacity="0.58"/>
    <circle cx="105.4" cy="13.7" r="3" fill="#FCD34D" opacity="0.77"/>
    <circle cx="133.0" cy="11.2" r="3" fill="#059669" opacity="0.54"/>
    <circle cx="161.7" cy="11.1" r="3" fill="#10B981" opacity="0.49"/>
    <circle cx="191.9" cy="12.9" r="3" fill="#FBBF24" opacity="0.37"/>
    <circle cx="311.2" cy="16.1" r="3" fill="#FCD34D" opacity="0.70"/>
    <circle cx="344.6" cy="14.7" r="3" fill="#059669" opacity="0.72"/>
    <circle cx="372.2" cy="12.7" r="3" fill="#FBBF24" opacity="0.38"/>
    <circle cx="406.8" cy="18.1" r="3" fill="#34D399" opacity="0.71"/>
    <circle cx="524.8" cy="13.7" r="3" fill="#FBBF24" opacity="0.44"/>
    <circle cx="646.2" cy="11.7" r="3" fill="#FCD34D" opacity="0.64"/>
    <circle cx="766.7" cy="18.5" r="3" fill="#34D399" opacity="0.63"/>
    <circle cx="793.5" cy="13.0" r="3" fill="#FBBF24" opacity="0.31"/>
    <circle cx="824.0" cy="16.8" r="3" fill="#059669" opacity="0.31"/>
    <circle cx="855.5" cy="18.2" r="3" fill="#FBBF24" opacity="0.54"/>
    <circle cx="977.7" cy="16.6" r="3" fill="#10B981" opacity="0.62"/>
    <circle cx="1007.4" cy="12.9" r="3" fill="#FBBF24" opacity="0.51"/>
    <circle cx="1035.8" cy="16.1" r="3" fill="#FBBF24" opacity="0.30"/>
    <circle cx="1183.9" cy="15.9" r="3" fill="#059669" opacity="0.66"/>
    <circle cx="11.8" cy="46.7" r="3" fill="#059669" opacity="0.57"/>
    <circle cx="46.2" cy="42.4" r="3" fill="#059669" opacity="0.56"/>
    <circle cx="226.1" cy="42.6" r="3" fill="#059669" opacity="0.73"/>
    <circle cx="346.0" cy="41.7" r="3" fill="#FCD34D" opacity="0.51"/>
    <circle cx="404.0" cy="44.0" r="3" fill="#34D399" opacity="0.58"/>
    <circle cx="437.2" cy="41.3" r="3" fill="#059669" opacity="0.75"/>
    <circle cx="468.6" cy="47.7" r="3" fill="#FCD34D" opacity="0.32"/>
    <circle cx="553.2" cy="43.1" r="3" fill="#059669" opacity="0.49"/>
    <circle cx="617.2" cy="42.4" r="3" fill="#059669" opacity="0.39"/>
    <circle cx="646.5" cy="48.6" r="3" fill="#FBBF24" opacity="0.57"/>
    <circle cx="677.4" cy="41.7" r="3" fill="#FCD34D" opacity="0.59"/>
    <circle cx="702.1" cy="47.5" r="3" fill="#34D399" opacity="0.37"/>
    <circle cx="736.0" cy="43.3" r="3" fill="#10B981" opacity="0.49"/>
    <circle cx="763.5" cy="42.8" r="3" fill="#FCD34D" opacity="0.42"/>
    <circle cx="822.6" cy="44.7" r="3" fill="#FBBF24" opacity="0.63"/>
    <circle cx="918.8" cy="45.1" r="3" fill="#059669" opacity="0.59"/>
    <circle cx="944.9" cy="48.9" r="3" fill="#FBBF24" opacity="0.60"/>
    <circle cx="1093.0" cy="43.9" r="3" fill="#059669" opacity="0.51"/>
    <circle cx="1121.3" cy="47.5" r="3" fill="#34D399" opacity="0.46"/>
    <circle cx="1156.6" cy="48.8" r="3" fill="#10B981" opacity="0.70"/>
    <circle cx="44.9" cy="78.9" r="3" fill="#34D399" opacity="0.80"/>
    <circle cx="166.1" cy="77.1" r="3" fill="#FBBF24" opacity="0.43"/>
    <circle cx="257.9" cy="73.1" r="3" fill="#10B981" opacity="0.75"/>
    <circle cx="318.6" cy="77.5" r="3" fill="#FBBF24" opacity="0.42"/>
    <circle cx="432.9" cy="76.7" r="3" fill="#FBBF24" opacity="0.31"/>
    <circle cx="464.0" cy="72.5" r="3" fill="#059669" opacity="0.68"/>
    <circle cx="497.4" cy="73.6" r="3" fill="#FCD34D" opacity="0.76"/>
    <circle cx="617.7" cy="74.4" r="3" fill="#FBBF24" opacity="0.46"/>
    <circle cx="673.0" cy="75.7" r="3" fill="#FBBF24" opacity="0.57"/>
    <circle cx="707.6" cy="74.2" r="3" fill="#10B981" opacity="0.35"/>
    <circle cx="762.5" cy="78.7" r="3" fill="#059669" opacity="0.55"/>
    <circle cx="793.2" cy="71.2" r="3" fill="#34D399" opacity="0.71"/>
    <circle cx="942.2" cy="71.4" r="3" fill="#059669" opacity="0.58"/>
    <circle cx="1068.8" cy="73.9" r="3" fill="#10B981" opacity="0.55"/>
    <circle cx="1127.4" cy="72.9" r="3" fill="#10B981" opacity="0.68"/>
    <circle cx="1185.0" cy="77.3" r="3" fill="#10B981" opacity="0.51"/>
    <circle cx="46.1" cy="102.3" r="3" fill="#FCD34D" opacity="0.43"/>
    <circle cx="78.6" cy="108.0" r="3" fill="#FBBF24" opacity="0.45"/>
    <circle cx="164.8" cy="102.4" r="3" fill="#059669" opacity="0.75"/>
    <circle cx="222.7" cy="107.9" r="3" fill="#34D399" opacity="0.62"/>
    <circle cx="252.6" cy="109.0" r="3" fill="#FBBF24" opacity="0.58"/>
    <circle cx="345.2" cy="106.2" r="3" fill="#FBBF24" opacity="0.60"/>
    <circle cx="371.8" cy="103.1" r="3" fill="#059669" opacity="0.41"/>
    <circle cx="611.3" cy="107.5" r="3" fill="#FBBF24" opacity="0.65"/>
    <circle cx="708.8" cy="106.2" r="3" fill="#34D399" opacity="0.53"/>
    <circle cx="733.0" cy="103.7" r="3" fill="#FCD34D" opacity="0.41"/>
    <circle cx="792.3" cy="107.3" r="3" fill="#059669" opacity="0.71"/>
    <circle cx="821.1" cy="108.2" r="3" fill="#10B981" opacity="0.52"/>
    <circle cx="974.8" cy="104.6" r="3" fill="#059669" opacity="0.50"/>
    <circle cx="1008.8" cy="104.0" r="3" fill="#10B981" opacity="0.70"/>
    <circle cx="1038.2" cy="106.9" r="3" fill="#059669" opacity="0.42"/>
    <circle cx="1068.3" cy="105.7" r="3" fill="#FBBF24" opacity="0.55"/>
    <circle cx="42.3" cy="132.4" r="3" fill="#34D399" opacity="0.40"/>
    <circle cx="108.3" cy="132.6" r="3" fill="#059669" opacity="0.53"/>
    <circle cx="135.9" cy="131.5" r="3" fill="#34D399" opacity="0.61"/>
    <circle cx="403.2" cy="137.9" r="3" fill="#10B981" opacity="0.74"/>
    <circle cx="431.1" cy="131.4" r="3" fill="#10B981" opacity="0.53"/>
    <circle cx="462.8" cy="136.8" r="3" fill="#059669" opacity="0.72"/>
    <circle cx="581.4" cy="134.2" r="3" fill="#FBBF24" opacity="0.64"/>
    <circle cx="671.8" cy="132.9" r="3" fill="#FBBF24" opacity="0.54"/>
    <circle cx="734.0" cy="137.4" r="3" fill="#FBBF24" opacity="0.52"/>
    <circle cx="764.7" cy="134.5" r="3" fill="#10B981" opacity="0.58"/>
    <circle cx="791.7" cy="138.0" r="3" fill="#059669" opacity="0.70"/>
    <circle cx="882.9" cy="133.6" r="3" fill="#059669" opacity="0.34"/>
    <circle cx="943.4" cy="134.6" r="3" fill="#FBBF24" opacity="0.59"/>
    <circle cx="1062.1" cy="134.9" r="3" fill="#10B981" opacity="0.64"/>
    <circle cx="1094.3" cy="136.1" r="3" fill="#10B981" opacity="0.63"/>
    <circle cx="47.3" cy="167.8" r="3" fill="#10B981" opacity="0.73"/>
    <circle cx="101.6" cy="163.9" r="3" fill="#FCD34D" opacity="0.50"/>
    <circle cx="227.2" cy="163.6" r="3" fill="#FBBF24" opacity="0.56"/>
    <circle cx="253.4" cy="168.7" r="3" fill="#FBBF24" opacity="0.68"/>
    <circle cx="492.2" cy="163.2" r="3" fill="#059669" opacity="0.45"/>
    <circle cx="521.5" cy="164.6" r="3" fill="#34D399" opacity="0.53"/>
    <circle cx="558.6" cy="163.7" r="3" fill="#FBBF24" opacity="0.59"/>
    <circle cx="581.9" cy="165.1" r="3" fill="#10B981" opacity="0.70"/>
    <circle cx="675.0" cy="163.4" r="3" fill="#FBBF24" opacity="0.68"/>
    <circle cx="764.2" cy="161.4" r="3" fill="#FBBF24" opacity="0.69"/>
    <circle cx="796.9" cy="161.8" r="3" fill="#059669" opacity="0.55"/>
    <circle cx="827.1" cy="163.8" r="3" fill="#10B981" opacity="0.42"/>
    <circle cx="853.7" cy="165.1" r="3" fill="#059669" opacity="0.68"/>
    <circle cx="888.0" cy="168.1" r="3" fill="#34D399" opacity="0.39"/>
    <circle cx="1003.3" cy="165.9" r="3" fill="#34D399" opacity="0.45"/>
    <circle cx="1034.8" cy="164.9" r="3" fill="#10B981" opacity="0.72"/>
    <circle cx="1181.5" cy="168.2" r="3" fill="#10B981" opacity="0.69"/>
    <circle cx="17.7" cy="193.2" r="3" fill="#FCD34D" opacity="0.50"/>
    <circle cx="166.1" cy="197.0" r="3" fill="#059669" opacity="0.54"/>
    <circle cx="224.3" cy="198.5" r="3" fill="#10B981" opacity="0.52"/>
    <circle cx="252.5" cy="197.1" r="3" fill="#10B981" opacity="0.35"/>
    <circle cx="286.6" cy="195.6" r="3" fill="#34D399" opacity="0.35"/>
    <circle cx="346.6" cy="197.5" r="3" fill="#059669" opacity="0.34"/>
    <circle cx="432.0" cy="194.7" r="3" fill="#FCD34D" opacity="0.42"/>
    <circle cx="462.3" cy="191.5" r="3" fill="#34D399" opacity="0.70"/>
    <circle cx="526.5" cy="196.4" r="3" fill="#10B981" opacity="0.79"/>
    <circle cx="612.5" cy="196.0" r="3" fill="#34D399" opacity="0.50"/>
    <circle cx="647.9" cy="192.2" r="3" fill="#10B981" opacity="0.63"/>
    <circle cx="676.5" cy="198.3" r="3" fill="#34D399" opacity="0.51"/>
    <circle cx="704.4" cy="195.5" r="3" fill="#FBBF24" opacity="0.72"/>
    <circle cx="765.6" cy="197.2" r="3" fill="#34D399" opacity="0.46"/>
    <circle cx="795.2" cy="196.2" r="3" fill="#34D399" opacity="0.44"/>
    <circle cx="857.6" cy="198.6" r="3" fill="#10B981" opacity="0.69"/>
    <circle cx="884.4" cy="194.8" r="3" fill="#34D399" opacity="0.75"/>
    <circle cx="941.3" cy="198.9" r="3" fill="#FCD34D" opacity="0.39"/>
    <circle cx="1128.1" cy="196.4" r="3" fill="#10B981" opacity="0.45"/>
    <circle cx="43.8" cy="226.7" r="3" fill="#FCD34D" opacity="0.59"/>
    <circle cx="102.6" cy="228.6" r="3" fill="#FCD34D" opacity="0.44"/>
    <circle cx="131.0" cy="224.6" r="3" fill="#FCD34D" opacity="0.66"/>
    <circle cx="197.1" cy="221.3" r="3" fill="#059669" opacity="0.30"/>
    <circle cx="221.4" cy="227.1" r="3" fill="#10B981" opacity="0.44"/>
    <circle cx="253.6" cy="225.0" r="3" fill="#10B981" opacity="0.44"/>
    <circle cx="311.5" cy="222.5" r="3" fill="#10B981" opacity="0.61"/>
    <circle cx="522.1" cy="227.9" r="3" fill="#FCD34D" opacity="0.32"/>
    <circle cx="554.0" cy="226.9" r="3" fill="#10B981" opacity="0.31"/>
    <circle cx="641.2" cy="226.7" r="3" fill="#10B981" opacity="0.77"/>
    <circle cx="733.4" cy="228.1" r="3" fill="#FCD34D" opacity="0.58"/>
    <circle cx="828.4" cy="221.5" r="3" fill="#10B981" opacity="0.39"/>
    <circle cx="914.2" cy="224.9" r="3" fill="#10B981" opacity="0.68"/>
    <circle cx="941.9" cy="223.4" r="3" fill="#FCD34D" opacity="0.68"/>
    <circle cx="1007.2" cy="222.6" r="3" fill="#10B981" opacity="0.70"/>
    <circle cx="1183.4" cy="223.6" r="3" fill="#059669" opacity="0.46"/>
    <circle cx="75.8" cy="251.1" r="3" fill="#059669" opacity="0.64"/>
    <circle cx="105.9" cy="255.2" r="3" fill="#10B981" opacity="0.39"/>
    <circle cx="139.0" cy="253.0" r="3" fill="#FBBF24" opacity="0.44"/>
    <circle cx="192.7" cy="251.3" r="3" fill="#059669" opacity="0.32"/>
    <circle cx="403.8" cy="258.7" r="3" fill="#10B981" opacity="0.33"/>
    <circle cx="524.5" cy="257.1" r="3" fill="#10B981" opacity="0.60"/>
    <circle cx="554.4" cy="255.0" r="3" fill="#FBBF24" opacity="0.58"/>
    <circle cx="587.3" cy="254.4" r="3" fill="#34D399" opacity="0.71"/>
    <circle cx="612.0" cy="258.7" r="3" fill="#10B981" opacity="0.62"/>
    <circle cx="732.1" cy="252.9" r="3" fill="#34D399" opacity="0.55"/>
    <circle cx="827.4" cy="251.5" r="3" fill="#34D399" opacity="0.64"/>
    <circle cx="854.1" cy="251.3" r="3" fill="#FBBF24" opacity="0.60"/>
    <circle cx="881.7" cy="257.1" r="3" fill="#34D399" opacity="0.54"/>
    <circle cx="943.3" cy="253.2" r="3" fill="#10B981" opacity="0.44"/>
    <circle cx="1065.6" cy="256.8" r="3" fill="#FBBF24" opacity="0.74"/>
    <circle cx="1097.5" cy="252.8" r="3" fill="#34D399" opacity="0.44"/>
    <circle cx="1123.4" cy="253.1" r="3" fill="#059669" opacity="0.50"/>
    <circle cx="1152.5" cy="255.4" r="3" fill="#34D399" opacity="0.66"/>
    <circle cx="12.7" cy="284.5" r="3" fill="#FBBF24" opacity="0.45"/>
    <circle cx="72.6" cy="281.5" r="3" fill="#FBBF24" opacity="0.40"/>
    <circle cx="165.0" cy="282.2" r="3" fill="#059669" opacity="0.79"/>
    <circle cx="285.0" cy="287.8" r="3" fill="#FBBF24" opacity="0.39"/>
    <circle cx="348.7" cy="283.7" r="3" fill="#059669" opacity="0.31"/>
    <circle cx="617.1" cy="288.9" r="3" fill="#FCD34D" opacity="0.62"/>
    <circle cx="671.8" cy="287.8" r="3" fill="#059669" opacity="0.50"/>
    <circle cx="706.8" cy="286.7" r="3" fill="#059669" opacity="0.36"/>
    <circle cx="795.7" cy="287.0" r="3" fill="#FCD34D" opacity="0.71"/>
    <circle cx="854.6" cy="281.2" r="3" fill="#FBBF24" opacity="0.69"/>
    <circle cx="918.4" cy="287.0" r="3" fill="#059669" opacity="0.50"/>
    <circle cx="948.1" cy="283.3" r="3" fill="#059669" opacity="0.78"/>
    <circle cx="1061.4" cy="281.5" r="3" fill="#059669" opacity="0.56"/>
    <circle cx="1188.9" cy="287.4" r="3" fill="#FBBF24" opacity="0.42"/>
    <circle cx="42.3" cy="317.8" r="3" fill="#10B981" opacity="0.60"/>
    <circle cx="101.2" cy="318.7" r="3" fill="#10B981" opacity="0.42"/>
    <circle cx="193.1" cy="311.9" r="3" fill="#10B981" opacity="0.69"/>
    <circle cx="222.5" cy="318.1" r="3" fill="#10B981" opacity="0.74"/>
    <circle cx="403.1" cy="317.9" r="3" fill="#FCD34D" opacity="0.70"/>
    <circle cx="469.0" cy="313.4" r="3" fill="#FBBF24" opacity="0.74"/>
    <circle cx="496.7" cy="313.8" r="3" fill="#FCD34D" opacity="0.66"/>
    <circle cx="587.9" cy="316.8" r="3" fill="#10B981" opacity="0.52"/>
    <circle cx="618.1" cy="312.2" r="3" fill="#10B981" opacity="0.78"/>
    <circle cx="673.9" cy="312.6" r="3" fill="#FBBF24" opacity="0.44"/>
    <circle cx="763.3" cy="317.1" r="3" fill="#059669" opacity="0.77"/>
    <circle cx="795.6" cy="312.8" r="3" fill="#10B981" opacity="0.61"/>
    <circle cx="918.3" cy="314.3" r="3" fill="#059669" opacity="0.32"/>
    <circle cx="1184.8" cy="318.3" r="3" fill="#059669" opacity="0.46"/>
    <circle cx="103.1" cy="343.5" r="3" fill="#34D399" opacity="0.45"/>
    <circle cx="134.9" cy="348.1" r="3" fill="#34D399" opacity="0.55"/>
    <circle cx="168.3" cy="347.0" r="3" fill="#34D399" opacity="0.73"/>
    <circle cx="224.0" cy="342.3" r="3" fill="#10B981" opacity="0.69"/>
    <circle cx="255.4" cy="344.3" r="3" fill="#059669" opacity="0.53"/>
    <circle cx="497.6" cy="347.1" r="3" fill="#FBBF24" opacity="0.65"/>
    <circle cx="529.0" cy="341.9" r="3" fill="#059669" opacity="0.76"/>
    <circle cx="557.7" cy="343.7" r="3" fill="#FCD34D" opacity="0.52"/>
    <circle cx="614.6" cy="342.7" r="3" fill="#10B981" opacity="0.80"/>
    <circle cx="671.6" cy="346.4" r="3" fill="#059669" opacity="0.33"/>
    <circle cx="734.8" cy="342.9" r="3" fill="#059669" opacity="0.48"/>
    <circle cx="763.8" cy="343.4" r="3" fill="#FBBF24" opacity="0.67"/>
    <circle cx="824.4" cy="347.6" r="3" fill="#10B981" opacity="0.46"/>
    <circle cx="854.3" cy="345.4" r="3" fill="#FBBF24" opacity="0.41"/>
    <circle cx="947.5" cy="342.1" r="3" fill="#059669" opacity="0.57"/>
    <circle cx="972.2" cy="346.3" r="3" fill="#059669" opacity="0.30"/>
    <circle cx="1038.3" cy="344.4" r="3" fill="#059669" opacity="0.74"/>
    <circle cx="1068.3" cy="342.1" r="3" fill="#059669" opacity="0.42"/>
    <circle cx="1128.1" cy="346.3" r="3" fill="#FBBF24" opacity="0.61"/>
    <circle cx="1152.1" cy="346.8" r="3" fill="#34D399" opacity="0.53"/>
    <circle cx="1184.2" cy="344.6" r="3" fill="#10B981" opacity="0.54"/>
    <circle cx="12.2" cy="372.8" r="3" fill="#10B981" opacity="0.79"/>
    <circle cx="103.9" cy="375.9" r="3" fill="#FBBF24" opacity="0.79"/>
    <circle cx="251.9" cy="376.2" r="3" fill="#FBBF24" opacity="0.71"/>
    <circle cx="317.1" cy="372.5" r="3" fill="#059669" opacity="0.37"/>
    <circle cx="371.4" cy="375.4" r="3" fill="#FBBF24" opacity="0.79"/>
    <circle cx="402.5" cy="373.3" r="3" fill="#FBBF24" opacity="0.44"/>
    <circle cx="435.7" cy="371.0" r="3" fill="#059669" opacity="0.75"/>
    <circle cx="496.1" cy="372.3" r="3" fill="#FCD34D" opacity="0.34"/>
    <circle cx="582.3" cy="375.0" r="3" fill="#FBBF24" opacity="0.41"/>
    <circle cx="618.5" cy="375.3" r="3" fill="#10B981" opacity="0.49"/>
    <circle cx="643.8" cy="372.9" r="3" fill="#FCD34D" opacity="0.32"/>
    <circle cx="671.3" cy="375.1" r="3" fill="#34D399" opacity="0.59"/>
    <circle cx="731.3" cy="374.0" r="3" fill="#059669" opacity="0.43"/>
    <circle cx="766.8" cy="376.1" r="3" fill="#10B981" opacity="0.34"/>
    <circle cx="792.5" cy="378.1" r="3" fill="#FBBF24" opacity="0.61"/>
    <circle cx="886.0" cy="375.3" r="3" fill="#059669" opacity="0.35"/>
    <circle cx="948.8" cy="371.5" r="3" fill="#FCD34D" opacity="0.47"/>
    <circle cx="1036.2" cy="377.2" r="3" fill="#FCD34D" opacity="0.74"/>
    <circle cx="1122.8" cy="378.6" r="3" fill="#059669" opacity="0.74"/>
    <circle cx="1182.5" cy="376.0" r="3" fill="#FBBF24" opacity="0.77"/>
    <circle cx="104.2" cy="408.3" r="3" fill="#FBBF24" opacity="0.51"/>
    <circle cx="196.3" cy="407.6" r="3" fill="#34D399" opacity="0.40"/>
    <circle cx="224.7" cy="408.8" r="3" fill="#059669" opacity="0.41"/>
    <circle cx="257.4" cy="409.0" r="3" fill="#FCD34D" opacity="0.50"/>
    <circle cx="282.1" cy="404.9" r="3" fill="#059669" opacity="0.45"/>
    <circle cx="348.8" cy="408.3" r="3" fill="#10B981" opacity="0.72"/>
    <circle cx="407.9" cy="407.9" r="3" fill="#FBBF24" opacity="0.35"/>
    <circle cx="522.3" cy="403.9" r="3" fill="#34D399" opacity="0.57"/>
    <circle cx="616.8" cy="408.9" r="3" fill="#10B981" opacity="0.67"/>
    <circle cx="676.9" cy="407.0" r="3" fill="#FCD34D" opacity="0.31"/>
    <circle cx="703.9" cy="402.2" r="3" fill="#FCD34D" opacity="0.52"/>
    <circle cx="763.2" cy="402.1" r="3" fill="#059669" opacity="0.78"/>
    <circle cx="852.9" cy="407.7" r="3" fill="#34D399" opacity="0.35"/>
    <circle cx="941.6" cy="404.5" r="3" fill="#10B981" opacity="0.31"/>
    <circle cx="1008.9" cy="408.0" r="3" fill="#FBBF24" opacity="0.45"/>
    <circle cx="1183.1" cy="404.1" r="3" fill="#FBBF24" opacity="0.77"/>
    <circle cx="77.9" cy="436.1" r="3" fill="#FBBF24" opacity="0.42"/>
    <circle cx="104.9" cy="434.3" r="3" fill="#FCD34D" opacity="0.65"/>
    <circle cx="133.6" cy="438.4" r="3" fill="#059669" opacity="0.70"/>
    <circle cx="165.7" cy="433.0" r="3" fill="#FCD34D" opacity="0.32"/>
    <circle cx="254.7" cy="438.2" r="3" fill="#FCD34D" opacity="0.42"/>
    <circle cx="285.5" cy="437.4" r="3" fill="#FCD34D" opacity="0.70"/>
    <circle cx="318.4" cy="431.3" r="3" fill="#FCD34D" opacity="0.42"/>
    <circle cx="345.4" cy="431.1" r="3" fill="#10B981" opacity="0.50"/>
    <circle cx="378.4" cy="436.5" r="3" fill="#10B981" opacity="0.46"/>
    <circle cx="404.2" cy="438.1" r="3" fill="#FCD34D" opacity="0.35"/>
    <circle cx="466.5" cy="436.4" r="3" fill="#FBBF24" opacity="0.56"/>
    <circle cx="497.9" cy="432.6" r="3" fill="#FBBF24" opacity="0.51"/>
    <circle cx="705.1" cy="436.6" r="3" fill="#10B981" opacity="0.30"/>
    <circle cx="738.9" cy="438.9" r="3" fill="#FCD34D" opacity="0.67"/>
    <circle cx="796.6" cy="433.1" r="3" fill="#059669" opacity="0.44"/>
    <circle cx="822.0" cy="438.4" r="3" fill="#FBBF24" opacity="0.45"/>
    <circle cx="888.2" cy="438.8" r="3" fill="#059669" opacity="0.65"/>
    <circle cx="943.7" cy="433.7" r="3" fill="#34D399" opacity="0.58"/>
    <circle cx="1038.4" cy="438.9" r="3" fill="#059669" opacity="0.39"/>
    <circle cx="1068.4" cy="438.9" r="3" fill="#059669" opacity="0.72"/>
    <circle cx="1091.5" cy="431.7" r="3" fill="#059669" opacity="0.60"/>
    <circle cx="1185.5" cy="435.3" r="3" fill="#34D399" opacity="0.36"/>
    <circle cx="44.6" cy="467.0" r="3" fill="#34D399" opacity="0.46"/>
    <circle cx="78.8" cy="467.2" r="3" fill="#34D399" opacity="0.36"/>
    <circle cx="108.8" cy="463.3" r="3" fill="#FBBF24" opacity="0.47"/>
    <circle cx="136.2" cy="467.0" r="3" fill="#FCD34D" opacity="0.41"/>
    <circle cx="167.0" cy="461.1" r="3" fill="#059669" opacity="0.43"/>
    <circle cx="193.9" cy="467.8" r="3" fill="#10B981" opacity="0.60"/>
    <circle cx="318.5" cy="463.2" r="3" fill="#34D399" opacity="0.38"/>
    <circle cx="345.0" cy="464.2" r="3" fill="#FCD34D" opacity="0.77"/>
    <circle cx="437.4" cy="467.0" r="3" fill="#10B981" opacity="0.61"/>
    <circle cx="468.9" cy="466.0" r="3" fill="#10B981" opacity="0.68"/>
    <circle cx="526.0" cy="461.1" r="3" fill="#FCD34D" opacity="0.31"/>
    <circle cx="556.2" cy="467.5" r="3" fill="#10B981" opacity="0.36"/>
    <circle cx="678.4" cy="468.8" r="3" fill="#059669" opacity="0.76"/>
    <circle cx="735.6" cy="466.2" r="3" fill="#059669" opacity="0.58"/>
    <circle cx="765.2" cy="462.9" r="3" fill="#059669" opacity="0.33"/>
    <circle cx="798.9" cy="468.4" r="3" fill="#059669" opacity="0.51"/>
    <circle cx="855.5" cy="465.4" r="3" fill="#059669" opacity="0.53"/>
    <circle cx="882.4" cy="468.1" r="3" fill="#34D399" opacity="0.46"/>
    <circle cx="914.9" cy="468.1" r="3" fill="#34D399" opacity="0.43"/>
    <circle cx="943.4" cy="468.5" r="3" fill="#10B981" opacity="0.60"/>
    <circle cx="976.5" cy="465.0" r="3" fill="#10B981" opacity="0.65"/>
    <circle cx="1152.8" cy="464.7" r="3" fill="#FBBF24" opacity="0.39"/>
    <circle cx="75.5" cy="492.0" r="3" fill="#10B981" opacity="0.38"/>
    <circle cx="192.9" cy="492.7" r="3" fill="#FBBF24" opacity="0.62"/>
    <circle cx="257.2" cy="495.3" r="3" fill="#10B981" opacity="0.71"/>
    <circle cx="372.8" cy="498.2" r="3" fill="#FCD34D" opacity="0.43"/>
    <circle cx="588.3" cy="496.1" r="3" fill="#FBBF24" opacity="0.32"/>
    <circle cx="641.1" cy="496.6" r="3" fill="#059669" opacity="0.53"/>
    <circle cx="762.3" cy="498.0" r="3" fill="#059669" opacity="0.39"/>
    <circle cx="825.2" cy="495.6" r="3" fill="#10B981" opacity="0.78"/>
    <circle cx="881.2" cy="495.2" r="3" fill="#FCD34D" opacity="0.78"/>
    <circle cx="911.4" cy="498.0" r="3" fill="#059669" opacity="0.62"/>
    <circle cx="944.0" cy="494.6" r="3" fill="#059669" opacity="0.63"/>
    <circle cx="1005.7" cy="493.9" r="3" fill="#34D399" opacity="0.56"/>
    <circle cx="1092.1" cy="497.9" r="3" fill="#34D399" opacity="0.54"/>
    <circle cx="1187.9" cy="498.2" r="3" fill="#FBBF24" opacity="0.33"/>
    <circle cx="78.5" cy="523.9" r="3" fill="#34D399" opacity="0.47"/>
    <circle cx="131.4" cy="524.7" r="3" fill="#059669" opacity="0.77"/>
    <circle cx="196.3" cy="528.8" r="3" fill="#34D399" opacity="0.47"/>
    <circle cx="225.8" cy="523.1" r="3" fill="#FCD34D" opacity="0.43"/>
    <circle cx="467.2" cy="525.0" r="3" fill="#34D399" opacity="0.63"/>
    <circle cx="555.8" cy="523.5" r="3" fill="#FCD34D" opacity="0.51"/>
    <circle cx="582.4" cy="521.4" r="3" fill="#FCD34D" opacity="0.35"/>
    <circle cx="671.6" cy="523.7" r="3" fill="#059669" opacity="0.36"/>
    <circle cx="763.8" cy="526.8" r="3" fill="#10B981" opacity="0.31"/>
    <circle cx="851.5" cy="526.6" r="3" fill="#FCD34D" opacity="0.55"/>
    <circle cx="17.8" cy="553.9" r="3" fill="#34D399" opacity="0.76"/>
    <circle cx="137.8" cy="552.6" r="3" fill="#FCD34D" opacity="0.37"/>
    <circle cx="221.1" cy="558.5" r="3" fill="#FCD34D" opacity="0.78"/>
    <circle cx="281.9" cy="558.5" r="3" fill="#10B981" opacity="0.49"/>
    <circle cx="315.2" cy="556.4" r="3" fill="#FBBF24" opacity="0.63"/>
    <circle cx="581.0" cy="555.9" r="3" fill="#059669" opacity="0.30"/>
    <circle cx="647.9" cy="557.6" r="3" fill="#FCD34D" opacity="0.54"/>
    <circle cx="703.0" cy="552.0" r="3" fill="#34D399" opacity="0.38"/>
    <circle cx="731.9" cy="553.3" r="3" fill="#10B981" opacity="0.67"/>
    <circle cx="821.0" cy="551.4" r="3" fill="#059669" opacity="0.74"/>
    <circle cx="881.5" cy="553.9" r="3" fill="#059669" opacity="0.30"/>
    <circle cx="1125.6" cy="552.7" r="3" fill="#10B981" opacity="0.67"/>
    <circle cx="1157.8" cy="554.0" r="3" fill="#FBBF24" opacity="0.60"/>
    <circle cx="105.5" cy="586.6" r="3" fill="#FCD34D" opacity="0.62"/>
    <circle cx="133.0" cy="586.2" r="3" fill="#059669" opacity="0.59"/>
    <circle cx="227.4" cy="585.6" r="3" fill="#FBBF24" opacity="0.67"/>
    <circle cx="286.6" cy="583.1" r="3" fill="#10B981" opacity="0.39"/>
    <circle cx="315.9" cy="582.2" r="3" fill="#FCD34D" opacity="0.65"/>
    <circle cx="466.2" cy="585.4" r="3" fill="#FBBF24" opacity="0.45"/>
    <circle cx="585.3" cy="584.9" r="3" fill="#059669" opacity="0.58"/>
    <circle cx="678.7" cy="584.5" r="3" fill="#10B981" opacity="0.79"/>
    <circle cx="706.5" cy="584.9" r="3" fill="#10B981" opacity="0.31"/>
    <circle cx="766.2" cy="585.7" r="3" fill="#FBBF24" opacity="0.79"/>
    <circle cx="824.2" cy="586.5" r="3" fill="#FCD34D" opacity="0.66"/>
    <circle cx="1155.8" cy="584.1" r="3" fill="#34D399" opacity="0.44"/>
    <circle cx="13.8" cy="611.9" r="3" fill="#10B981" opacity="0.58"/>
    <circle cx="77.6" cy="616.8" r="3" fill="#34D399" opacity="0.64"/>
    <circle cx="105.8" cy="617.6" r="3" fill="#059669" opacity="0.79"/>
    <circle cx="191.2" cy="614.1" r="3" fill="#059669" opacity="0.45"/>
    <circle cx="226.7" cy="611.3" r="3" fill="#FBBF24" opacity="0.45"/>
    <circle cx="374.3" cy="616.6" r="3" fill="#FBBF24" opacity="0.58"/>
    <circle cx="462.0" cy="615.7" r="3" fill="#FCD34D" opacity="0.33"/>
    <circle cx="615.6" cy="618.5" r="3" fill="#10B981" opacity="0.33"/>
    <circle cx="735.2" cy="616.8" r="3" fill="#FBBF24" opacity="0.50"/>
    <circle cx="853.6" cy="616.3" r="3" fill="#FBBF24" opacity="0.42"/>
    <circle cx="883.8" cy="614.8" r="3" fill="#10B981" opacity="0.45"/>
    <circle cx="911.2" cy="613.6" r="3" fill="#FBBF24" opacity="0.44"/>
    <circle cx="1006.9" cy="615.4" r="3" fill="#059669" opacity="0.50"/>
    <circle cx="1062.1" cy="618.0" r="3" fill="#FCD34D" opacity="0.47"/>
    <circle cx="1128.9" cy="617.6" r="3" fill="#10B981" opacity="0.61"/>
  </g>
</svg>