<svg xmlns="http://www.w3.org/2000/svg" width="1200" height="630" viewBox="0 0 1200 630">
  <rect width="1200" height="630" fill="#0a0a0a"/>
  <!-- Wave overlay -->
  <path d="M0 315 Q300 252 600 315 T1200 315" stroke="#4B5563" stroke-width="1" fill="none" opacity="0.3"/>
  <!-- Game of Life cells -->
  <g>
    <circle cx="191.2" cy="12.3" r="3" fill="#3B82F6" opacity="0.75"/>
    <circle cx="226.8" cy="14.3" r="3" fill="#10B981" opacity="0.35"/>
    <circle cx="258.4" cy="15.9" r="3" fill="#38BDF8" opacity="0.49"/>
    <circle cx="372.8" cy="11.6" r="3" fill="#F97316" opacity="0.37"/>
    <circle cx="405.7" cy="13.1" r="3" fill="#10B981" opacity="0.68"/>
    <circle cx="464.5" cy="11.4" r="3" fill="#38BDF8" opacity="0.52"/>
    <circle cx="491.8" cy="14.0" r="3" fill="#F97316" opacity="0.38"/>
    <circle cx="617.1" cy="11.1" r="3" fill="#F97316" opacity="0.44"/>
    <circle cx="643.5" cy="16.8" r="3" fill="#3B82F6" opacity="0.70"/>
    <circle cx="701.0" cy="16.3" r="3" fill="#38BDF8" opacity="0.54"/>
    <circle cx="767.2" cy="17.0" r="3" fill="#38BDF8" opacity="0.52"/>
    <circle cx="857.2" cy="11.2" r="3" fill="#A855F7" opacity="0.62"/>
    <circle cx="1007.1" cy="12.3" r="3" fill="#3B82F6" opacity="0.49"/>
    <circle cx="1034.6" cy="11.9" r="3" fill="#3B82F6" opacity="0.59"/>
    <circle cx="1098.7" cy="14.8" r="3" fill="#38BDF8" opacity="0.76"/>
    <circle cx="1151.3" cy="11.4" r="3" fill="#3B82F6" opacity="0.70"/>
    <circle cx="1181.2" cy="13.0" r="3" fill="#F97316" opacity="0.66"/>
    <circle cx="46.9" cy="48.8" r="3" fill="#10B981" opacity="0.58"/>
    <circle cx="77.6" cy="48.6" r="3" fill="#F97316" opacity="0.61"/>
    <circle cx="137.7" cy="47.9" r="3" fill="#A855F7" opacity="0.63"/>
    <circle cx="163.0" cy="47.9" r="3" fill="#38BDF8" opacity="0.32"/>
    <circle cx="196.0" cy="44.6" r="3" fill="#3B82F6" opacity="0.46"/>
    <circle cx="226.1" cy="45.4" r="3" fill="#F97316" opacity="0.65"/>
    <circle cx="347.3" cy="42.9" r="3" fill="#3B82F6" opacity="0.39"/>
    <circle cx="522.7" cy="44.0" r="3" fill="#38BDF8" opacity="0.72"/>
    <circle cx="641.1" cy="42.9" r="3" fill="#F97316" opacity="0.78"/>
    <circle cx="676.2" cy="44.1" r="3" fill="#F97316" opacity="0.51"/>
    <circle cx="705.8" cy="41.5" r="3" fill="#F97316" opacity="0.45"/>
    <circle cx="736.9" cy="47.4" r="3" fill="#F97316" opacity="0.64"/>
    <circle cx="766.1" cy="48.7" r="3" fill="#10B981" opacity="0.66"/>
    <circle cx="794.9" cy="43.2" r="3" fill="#38BDF8" opacity="0.30"/>
    <circle cx="822.6" cy="46.4" r="3" fill="#A855F7" opacity="0.80"/>
    <circle cx="884.3" cy="47.7" r="3" fill="#3B82F6" opacity="0.79"/>
    <circle cx="971.9" cy="46.6" r="3" fill="#F97316" opacity="0.43"/>
    <circle cx="1002.0" cy="43.5" r="3" fill="#F97316" opacity="0.78"/>
    <circle cx="1038.0" cy="42.1" r="3" fill="#38BDF8" opacity="0.44"/>
    <circle cx="1124.5" cy="47.1" r="3" fill="#F97316" opacity="0.50"/>
    <circle cx="1157.5" cy="47.1" r="3" fill="#3B82F6" opacity="0.34"/>
    <circle cx="13.3" cy="71.5" r="3" fill="#10B981" opacity="0.48"/>
    <circle cx="73.3" cy="72.1" r="3" fill="#A855F7" opacity="0.44"/>
    <circle cx="167.5" cy="77.3" r="3" fill="#3B82F6" opacity="0.54"/>
    <circle cx="225.7" cy="72.0" r="3" fill="#38BDF8" opacity="0.46"/>
    <circle cx="283.9" cy="71.8" r="3" fill="#A855F7" opacity="0.44"/>
    <circle cx="377.7" cy="78.9" r="3" fill="#10B981" opacity="0.79"/>
    <circle cx="467.1" cy="73.1" r="3" fill="#3B82F6" opacity="0.68"/>
    <circle cx="585.9" cy="77.5" r="3" fill="#F97316" opacity="0.61"/>
    <circle cx="642.6" cy="72.9" r="3" fill="#F97316" opacity="0.52"/>
    <circle cx="736.8" cy="72.0" r="3" fill="#3B82F6" opacity="0.44"/>
    <circle cx="766.4" cy="73.3" r="3" fill="#38BDF8" opacity="0.45"/>
    <circle cx="793.8" cy="77.0" r="3" fill="#A855F7" opacity="0.71"/>
    <circle cx="881.2" cy="77.1" r="3" fill="#A855F7" opacity="0.51"/>
    <circle cx="973.5" cy="77.9" r="3" fill="#10B981" opacity="0.39"/>
    <circle cx="1002.6" cy="73.7" r="3" fill="#A855F7" opacity="0.47"/>
    <circle cx="1062.9" cy="78.9" r="3" fill="#3B82F6" opacity="0.39"/>
    <circle cx="1092.9" cy="75.2" r="3" fill="#38BDF8" opacity="0.71"/>
    <circle cx="1123.2" cy="76.8" r="3" fill="#10B981" opacity="0.79"/>
    <circle cx="1156.4" cy="73.0" r="3" fill="#10B981" opacity="0.66"/>
    <circle cx="46.2" cy="108.7" r="3" fill="#A855F7" opacity="0.35"/>
    <circle cx="72.4" cy="102.8" r="3" fill="#38BDF8" opacity="0.52"/>
    <circle cx="132.7" cy="101.5" r="3" fill="#A855F7" opacity="0.36"/>
    <circle cx="164.8" cy="105.4" r="3" fill="#A855F7" opacity="0.61"/>
    <circle cx="257.6" cy="108.6" r="3" fill="#38BDF8" opacity="0.55"/>
    <circle cx="377.7" cy="104.1" r="3" fill="#38BDF8" opacity="0.48"/>
    <circle cx="462.1" cy="107.1" r="3" fill="#10B981" opacity="0.75"/>
    <circle cx="672.0" cy="106.0" r="3" fill="#10B981" opacity="0.55"/>
    <circle cx="702.2" cy="106.3" r="3" fill="#A855F7" opacity="0.36"/>
    <circle cx="791.6" cy="107.3" r="3" fill="#3B82F6" opacity="0.48"/>
    <circle cx="822.3" cy="106.8" r="3" fill="#F97316" opacity="0.49"/>
    <circle cx="911.6" cy="108.3" r="3" fill="#10B981" opacity="0.75"/>
    <circle cx="971.1" cy="103.0" r="3" fill="#3B82F6" opacity="0.39"/>
    <circle cx="1001.7" cy="104.3" r="3" fill="#3B82F6" opacity="0.37"/>
    <circle cx="1031.3" cy="108.3" r="3" fill="#3B82F6" opacity="0.75"/>
    <circle cx="1185.5" cy="104.3" r="3" fill="#3B82F6" opacity="0.32"/>
    <circle cx="13.4" cy="132.3" r="3" fill="#F97316" opacity="0.63"/>
    <circle cx="103.3" cy="132.4" r="3" fill="#10B981" opacity="0.44"/>
    <circle cx="165.3" cy="134.9" r="3" fill="#38BDF8" opacity="0.43"/>
    <circle cx="195.8" cy="133.5" r="3" fill="#F97316" opacity="0.32"/>
    <circle cx="257.0" cy="132.7" r="3" fill="#3B82F6" opacity="0.61"/>
    <circle cx="552.8" cy="138.8" r="3" fill="#A855F7" opacity="0.80"/>
    <circle cx="648.0" cy="133.0" r="3" fill="#38BDF8" opacity="0.45"/>
    <circle cx="761.5" cy="134.1" r="3" fill="#10B981" opacity="0.35"/>
    <circle cx="851.5" cy="131.5" r="3" fill="#10B981" opacity="0.78"/>
    <circle cx="944.7" cy="133.9" r="3" fill="#38BDF8" opacity="0.40"/>
    <circle cx="1033.6" cy="132.6" r="3" fill="#3B82F6" opacity="0.36"/>
    <circle cx="1153.3" cy="138.6" r="3" fill="#38BDF8" opacity="0.35"/>
    <circle cx="46.8" cy="163.0" r="3" fill="#A855F7" opacity="0.65"/>
    <circle cx="105.0" cy="161.9" r="3" fill="#10B981" opacity="0.40"/>
    <circle cx="312.2" cy="162.5" r="3" fill="#A855F7" opacity="0.33"/>
    <circle cx="342.3" cy="163.0" r="3" fill="#A855F7" opacity="0.64"/>
    <circle cx="403.6" cy="166.8" r="3" fill="#10B981" opacity="0.51"/>
    <circle cx="435.6" cy="165.0" r="3" fill="#A855F7" opacity="0.40"/>
    <circle cx="708.5" cy="165.2" r="3" fill="#10B981" opacity="0.63"/>
    <circle cx="732.1" cy="168.7" r="3" fill="#F97316" opacity="0.39"/>
    <circle cx="1038.7" cy="163.0" r="3" fill="#F97316" opacity="0.35"/>
    <circle cx="15.0" cy="193.7" r="3" fill="#38BDF8" opacity="0.75"/>
    <circle cx="77.9" cy="191.2" r="3" fill="#F97316" opacity="0.64"/>
    <circle cx="135.7" cy="197.7" r="3" fill="#38BDF8" opacity="0.58"/>
    <circle cx="198.8" cy="197.5" r="3" fill="#3B82F6" opacity="0.67"/>
    <circle cx="221.5" cy="193.4" r="3" fill="#10B981" opacity="0.38"/>
    <circle cx="257.9" cy="197.7" r="3" fill="#A855F7" opacity="0.57"/>
    <circle cx="341.7" cy="196.4" r="3" fill="#A855F7" opacity="0.67"/>
    <circle cx="642.3" cy="195.7" r="3" fill="#38BDF8" opacity="0.56"/>
    <circle cx="761.2" cy="191.6" r="3" fill="#A855F7" opacity="0.56"/>
    <circle cx="793.4" cy="197.0" r="3" fill="#10B981" opacity="0.51"/>
    <circle cx="828.8" cy="191.2" r="3" fill="#A855F7" opacity="0.73"/>
    <circle cx="858.5" cy="191.6" r="3" fill="#10B981" opacity="0.43"/>
    <circle cx="971.9" cy="198.9" r="3" fill="#38BDF8" opacity="0.36"/>
    <circle cx="1093.3" cy="191.6" r="3" fill="#3B82F6" opacity="0.35"/>
    <circle cx="1125.0" cy="195.5" r="3" fill="#10B981" opacity="0.80"/>
    <circle cx="12.9" cy="221.3" r="3" fill="#F97316" opacity="0.78"/>
    <circle cx="72.7" cy="226.1" r="3" fill="#A855F7" opacity="0.78"/>
    <circle cx="133.9" cy="227.1" r="3" fill="#F97316" opacity="0.77"/>
    <circle cx="195.9" cy="222.9" r="3" fill="#3B82F6" opacity="0.40"/>
    <circle cx="288.6" cy="228.0" r="3" fill="#38BDF8" opacity="0.48"/>
    <circle cx="371.0" cy="224.2" r="3" fill="#10B981" opacity="0.78"/>
    <circle cx="585.7" cy="226.9" r="3" fill="#10B981" opacity="0.35"/>
    <circle cx="822.6" cy="221.0" r="3" fill="#38BDF8" opacity="0.57"/>
    <circle cx="852.2" cy="226.6" r="3" fill="#A855F7" opacity="0.41"/>
    <circle cx="1153.3" cy="227.4" r="3" fill="#38BDF8" opacity="0.62"/>
    <circle cx="18.8" cy="255.5" r="3" fill="#F97316" opacity="0.31"/>
    <circle cx="106.3" cy="253.4" r="3" fill="#A855F7" opacity="0.56"/>
    <circle cx="223.0" cy="258.4" r="3" fill="#3B82F6" opacity="0.37"/>
    <circle cx="258.4" cy="251.7" r="3" fill="#3B82F6" opacity="0.75"/>
    <circle cx="407.7" cy="254.8" r="3" fill="#A855F7" opacity="0.54"/>
    <circle cx="526.4" cy="254.4" r="3" fill="#F97316" opacity="0.64"/>
    <circle cx="618.0" cy="256.5" r="3" fill="#3B82F6" opacity="0.52"/>
    <circle cx="672.7" cy="253.6" r="3" fill="#F97316" opacity="0.75"/>
    <circle cx="765.6" cy="255.5" r="3" fill="#3B82F6" opacity="0.32"/>
    <circle cx="827.4" cy="258.9" r="3" fill="#F97316" opacity="0.66"/>
    <circle cx="854.3" cy="253.2" r="3" fill="#F97316" opacity="0.79"/>
    <circle cx="1095.7" cy="253.1" r="3" fill="#3B82F6" opacity="0.76"/>
    <circle cx="11.9" cy="288.2" r="3" fill="#3B82F6" opacity="0.59"/>
    <circle cx="41.5" cy="284.0" r="3" fill="#A855F7" opacity="0.35"/>
    <circle cx="78.1" cy="281.3" r="3" fill="#38BDF8" opacity="0.46"/>
    <circle cx="168.0" cy="283.9" r="3" fill="#A855F7" opacity="0.42"/>
    <circle cx="253.8" cy="281.7" r="3" fill="#A855F7" opacity="0.37"/>
    <circle cx="406.1" cy="281.9" r="3" fill="#A855F7" opacity="0.49"/>
    <circle cx="465.5" cy="288.8" r="3" fill="#38BDF8" opacity="0.71"/>
    <circle cx="495.5" cy="282.3" r="3" fill="#F97316" opacity="0.50"/>
    <circle cx="558.0" cy="286.0" r="3" fill="#F97316" opacity="0.46"/>
    <circle cx="585.6" cy="284.9" r="3" fill="#10B981" opacity="0.38"/>
    <circle cx="618.5" cy="281.4" r="3" fill="#F97316" opacity="0.37"/>
    <circle cx="673.8" cy="287.4" r="3" fill="#3B82F6" opacity="0.65"/>
    <circle cx="736.8" cy="281.8" r="3" fill="#F97316" opacity="0.34"/>
    <circle cx="796.0" cy="284.0" r="3" fill="#A855F7" opacity="0.68"/>
    <circle cx="915.1" cy="284.9" r="3" fill="#10B981" opacity="0.40"/>
    <circle cx="1006.0" cy="282.5" r="3" fill="#38BDF8" opacity="0.80"/>
    <circle cx="1064.0" cy="288.0" r="3" fill="#A855F7" opacity="0.64"/>
    <circle cx="1094.2" cy="285.7" r="3" fill="#F97316" opacity="0.65"/>
    <circle cx="13.3" cy="317.0" r="3" fill="#3B82F6" opacity="0.80"/>
    <circle cx="41.6" cy="317.4" r="3" fill="#3B82F6" opacity="0.61"/>
    <circle cx="72.6" cy="317.4" r="3" fill="#F97316" opacity="0.66"/>
    <circle cx="283.7" cy="313.2" r="3" fill="#F97316" opacity="0.57"/>
    <circle cx="312.7" cy="311.8" r="3" fill="#38BDF8" opacity="0.79"/>
    <circle cx="348.5" cy="315.4" r="3" fill="#3B82F6" opacity="0.34"/>
    <circle cx="378.5" cy="314.6" r="3" fill="#3B82F6" opacity="0.49"/>
    <circle cx="437.6" cy="318.2" r="3" fill="#38BDF8" opacity="0.65"/>
    <circle cx="498.2" cy="317.3" r="3" fill="#38BDF8" opacity="0.44"/>
    <circle cx="581.4" cy="314.9" r="3" fill="#F97316" opacity="0.61"/>
    <circle cx="704.7" cy="313.0" r="3" fill="#10B981" opacity="0.56"/>
    <circle cx="766.3" cy="317.8" r="3" fill="#F97316" opacity="0.37"/>
    <circle cx="791.9" cy="313.3" r="3" fill="#3B82F6" opacity="0.58"/>
    <circle cx="857.7" cy="313.4" r="3" fill="#A855F7" opacity="0.50"/>
    <circle cx="881.9" cy="317.2" r="3" fill="#38BDF8" opacity="0.74"/>
    <circle cx="942.2" cy="315.0" r="3" fill="#38BDF8" opacity="0.58"/>
    <circle cx="1007.4" cy="318.2" r="3" fill="#F97316" opacity="0.57"/>
    <circle cx="1038.9" cy="318.7" r="3" fill="#38BDF8" opacity="0.35"/>
    <circle cx="1127.2" cy="315.5" r="3" fill="#A855F7" opacity="0.45"/>
    <circle cx="12.7" cy="344.4" r="3" fill="#F97316" opacity="0.37"/>
    <circle cx="71.9" cy="345.6" r="3" fill="#38BDF8" opacity="0.80"/>
    <circle cx="104.3" cy="345.7" r="3" fill="#A855F7" opacity="0.80"/>
    <circle cx="137.2" cy="345.3" r="3" fill="#A855F7" opacity="0.50"/>
    <circle cx="162.8" cy="346.3" r="3" fill="#3B82F6" opacity="0.45"/>
    <circle cx="252.1" cy="344.8" r="3" fill="#3B82F6" opacity="0.56"/>
    <circle cx="288.5" cy="343.8" r="3" fill="#A855F7" opacity="0.72"/>
    <circle cx="316.3" cy="342.6" r="3" fill="#F97316" opacity="0.30"/>
    <circle cx="437.3" cy="348.4" r="3" fill="#10B981" opacity="0.66"/>
    <circle cx="468.4" cy="346.1" r="3" fill="#38BDF8" opacity="0.70"/>
    <circle cx="523.2" cy="344.7" r="3" fill="#A855F7" opacity="0.78"/>
    <circle cx="583.4" cy="343.1" r="3" fill="#A855F7" opacity="0.42"/>
    <circle cx="614.2" cy="347.6" r="3" fill="#3B82F6" opacity="0.64"/>
    <circle cx="643.4" cy="347.5" r="3" fill="#3B82F6" opacity="0.73"/>
    <circle cx="702.8" cy="344.8" r="3" fill="#38BDF8" opacity="0.34"/>
    <circle cx="734.9" cy="343.3" r="3" fill="#10B981" opacity="0.43"/>
    <circle cx="762.6" cy="342.1" r="3" fill="#A855F7" opacity="0.75"/>
    <circle cx="825.8" cy="344.2" r="3" fill="#3B82F6" opacity="0.37"/>
    <circle cx="857.6" cy="341.3" r="3" fill="#A855F7" opacity="0.37"/>
    <circle cx="1007.3" cy="347.5" r="3" fill="#38BDF8" opacity="0.50"/>
    <circle cx="1124.8" cy="348.1" r="3" fill="#A855F7" opacity="0.72"/>
    <circle cx="1151.6" cy="348.0" r="3" fill="#10B981" opacity="0.53"/>
    <circle cx="13.5" cy="371.3" r="3" fill="#10B981" opacity="0.65"/>
    <circle cx="71.0" cy="377.5" r="3" fill="#10B981" opacity="0.54"/>
    <circle cx="101.2" cy="376.1" r="3" fill="#A855F7" opacity="0.74"/>
    <circle cx="168.0" cy="377.7" r="3" fill="#F97316" opacity="0.72"/>
    <circle cx="225.2" cy="374.9" r="3" fill="#3B82F6" opacity="0.31"/>
    <circle cx="252.3" cy="373.1" r="3" fill="#38BDF8" opacity="0.78"/>
    <circle cx="373.0" cy="373.9" r="3" fill="#A855F7" opacity="0.74"/>
    <circle cx="434.8" cy="377.0" r="3" fill="#A855F7" opacity="0.44"/>
    <circle cx="528.6" cy="375.5" r="3" fill="#10B981" opacity="0.35"/>
    <circle cx="611.8" cy="372.1" r="3" fill="#10B981" opacity="0.31"/>
    <circle cx="642.7" cy="375.9" r="3" fill="#10B981" opacity="0.33"/>
    <circle cx="674.5" cy="376.7" r="3" fill="#F97316" opacity="0.47"/>
    <circle cx="766.7" cy="371.8" r="3" fill="#38BDF8" opacity="0.40"/>
    <circle cx="792.7" cy="372.4" r="3" fill="#3B82F6" opacity="0.71"/>
    <circle cx="18.2" cy="406.7" r="3" fill="#F97316" opacity="0.76"/>
    <circle cx="165.9" cy="403.7" r="3" fill="#3B82F6" opacity="0.70"/>
    <circle cx="191.7" cy="408.3" r="3" fill="#F97316" opacity="0.72"/>
    <circle cx="288.0" cy="404.4" r="3" fill="#38BDF8" opacity="0.41"/>
    <circle cx="315.9" cy="408.6" r="3" fill="#10B981" opacity="0.66"/>
    <circle cx="344.6" cy="401.1" r="3" fill="#38BDF8" opacity="0.41"/>
    <circle cx="437.7" cy="403.8" r="3" fill="#3B82F6" opacity="0.54"/>
    <circle cx="527.0" cy="402.1" r="3" fill="#A855F7" opacity="0.67"/>
    <circle cx="557.0" cy="406.4" r="3" fill="#3B82F6" opacity="0.51"/>
    <circle cx="582.9" cy="403.3" r="3" fill="#38BDF8" opacity="0.70"/>
    <circle cx="612.6" cy="408.2" r="3" fill="#10B981" opacity="0.33"/>
    <circle cx="674.5" cy="407.5" r="3" fill="#3B82F6" opacity="0.80"/>
    <circle cx="704.3" cy="403.7" r="3" fill="#3B82F6" opacity="0.44"/>
    <circle cx="765.6" cy="405.6" r="3" fill="#F97316" opacity="0.75"/>
    <circle cx="791.5" cy="407.5" r="3" fill="#38BDF8" opacity="0.54"/>
    <circle cx="1003.7" cy="402.4" r="3" fill="#10B981" opacity="0.52"/>
    <circle cx="1064.0" cy="405.7" r="3" fill="#F97316" opacity="0.54"/>
    <circle cx="1124.8" cy="408.2" r="3" fill="#38BDF8" opacity="0.48"/>
    <circle cx="1151.3" cy="403.5" r="3" fill="#10B981" opacity="0.52"/>
    <circle cx="47.6" cy="433.8" r="3" fill="#10B981" opacity="0.40"/>
    <circle cx="71.5" cy="434.3" r="3" fill="#F97316" opacity="0.48"/>
    <circle cx="166.6" cy="436.3" r="3" fill="#A855F7" opacity="0.43"/>
    <circle cx="198.8" cy="436.2" r="3" fill="#10B981" opacity="0.50"/>
    <circle cx="225.3" cy="434.9" r="3" fill="#10B981" opacity="0.36"/>
    <circle cx="257.6" cy="431.2" r="3" fill="#38BDF8" opacity="0.60"/>
    <circle cx="281.6" cy="438.9" r="3" fill="#3B82F6" opacity="0.56"/>
    <circle cx="313.0" cy="437.3" r="3" fill="#3B82F6" opacity="0.80"/>
    <circle cx="344.1" cy="436.3" r="3" fill="#3B82F6" opacity="0.59"/>
    <circle cx="433.9" cy="433.0" r="3" fill="#A855F7" opacity="0.55"/>
    <circle cx="465.0" cy="435.4" r="3" fill="#10B981" opacity="0.77"/>
    <circle cx="554.0" cy="437.2" r="3" fill="#A855F7" opacity="0.45"/>
    <circle cx="733.3" cy="431.1" r="3" fill="#38BDF8" opacity="0.64"/>
    <circle cx="794.7" cy="433.5" r="3" fill="#38BDF8" opacity="0.75"/>
    <circle cx="916.3" cy="431.4" r="3" fill="#10B981" opacity="0.76"/>
    <circle cx="948.7" cy="437.8" r="3" fill="#A855F7" opacity="0.71"/>
    <circle cx="1003.4" cy="433.9" r="3" fill="#A855F7" opacity="0.59"/>
    <circle cx="1034.1" cy="432.2" r="3" fill="#10B981" opacity="0.62"/>
    <circle cx="1062.8" cy="434.3" r="3" fill="#A855F7" opacity="0.46"/>
    <circle cx="1098.8" cy="432.8" r="3" fill="#38BDF8" opacity="0.42"/>
    <circle cx="1123.9" cy="433.1" r="3" fill="#F97316" opacity="0.48"/>
    <circle cx="102.1" cy="462.5" r="3" fill="#3B82F6" opacity="0.48"/>
    <circle cx="133.1" cy="468.5" r="3" fill="#A855F7" opacity="0.55"/>
    <circle cx="222.1" cy="469.0" r="3" fill="#38BDF8" opacity="0.69"/>
    <circle cx="282.5" cy="466.3" r="3" fill="#38BDF8" opacity="0.48"/>
    <circle cx="373.7" cy="467.3" r="3" fill="#38BDF8" opacity="0.51"/>
    <circle cx="404.3" cy="463.1" r="3" fill="#3B82F6" opacity="0.52"/>
    <circle cx="464.9" cy="468.2" r="3" fill="#3B82F6" opacity="0.71"/>
    <circle cx="496.1" cy="462.6" r="3" fill="#A855F7" opacity="0.57"/>
    <circle cx="527.7" cy="466.3" r="3" fill="#10B981" opacity="0.70"/>
    <circle cx="558.2" cy="461.3" r="3" fill="#38BDF8" opacity="0.75"/>
    <circle cx="612.7" cy="462.6" r="3" fill="#10B981" opacity="0.46"/>
    <circle cx="646.2" cy="461.1" r="3" fill="#F97316" opacity="0.63"/>
    <circle cx="735.3" cy="468.2" r="3" fill="#10B981" opacity="0.68"/>
    <circle cx="858.1" cy="465.4" r="3" fill="#3B82F6" opacity="0.34"/>
    <circle cx="881.8" cy="465.1" r="3" fill="#A855F7" opacity="0.32"/>
    <circle cx="913.4" cy="461.1" r="3" fill="#F97316" opacity="0.79"/>
    <circle cx="1093.1" cy="464.3" r="3" fill="#F97316" opacity="0.39"/>
    <circle cx="1121.1" cy="464.8" r="3" fill="#10B981" opacity="0.80"/>
    <circle cx="1155.8" cy="466.6" r="3" fill="#3B82F6" opacity="0.63"/>
    <circle cx="1186.4" cy="463.9" r="3" fill="#10B981" opacity="0.65"/>
    <circle cx="46.6" cy="495.1" r="3" fill="#10B981" opacity="0.48"/>
    <circle cx="74.2" cy="497.3" r="3" fill="#38BDF8" opacity="0.34"/>
    <circle cx="104.2" cy="493.6" r="3" fill="#38BDF8" opacity="0.62"/>
    <circle cx="132.6" cy="494.0" r="3" fill="#10B981" opacity="0.66"/>
    <circle cx="166.2" cy="497.9" r="3" fill="#10B981" opacity="0.55"/>
    <circle cx="193.6" cy="494.6" r="3" fill="#A855F7" opacity="0.52"/>
    <circle cx="258.1" cy="492.7" r="3" fill="#F97316" opacity="0.56"/>
    <circle cx="283.3" cy="492.0" r="3" fill="#3B82F6" opacity="0.75"/>
    <circle cx="316.5" cy="494.9" r="3" fill="#A855F7" opacity="0.31"/>
    <circle cx="494.2" cy="498.4" r="3" fill="#F97316" opacity="0.48"/>
    <circle cx="581.9" cy="494.2" r="3" fill="#38BDF8" opacity="0.71"/>
    <circle cx="677.2" cy="494.9" r="3" fill="#10B981" opacity="0.62"/>
    <circle cx="735.5" cy="493.6" r="3" fill="#F97316" opacity="0.38"/>
    <circle cx="942.6" cy="495.1" r="3" fill="#A855F7" opacity="0.62"/>
    <circle cx="973.4" cy="498.8" r="3" fill="#38BDF8" opacity="0.61"/>
    <circle cx="1037.7" cy="497.6" r="3" fill="#10B981" opacity="0.74"/>
    <circle cx="1061.2" cy="495.7" r="3" fill="#F97316" opacity="0.77"/>
    <circle cx="1152.1" cy="492.1" r="3" fill="#10B981" opacity="0.75"/>
    <circle cx="78.3" cy="526.8" r="3" fill="#38BDF8" opacity="0.34"/>
    <circle cx="138.4" cy="526.7" r="3" fill="#3B82F6" opacity="0.80"/>
    <circle cx="228.1" cy="525.3" r="3" fill="#10B981" opacity="0.47"/>
    <circle cx="404.6" cy="527.8" r="3" fill="#F97316" opacity="0.39"/>
    <circle cx="528.0" cy="525.3" r="3" fill="#10B981" opacity="0.63"/>
    <circle cx="587.8" cy="528.5" r="3" fill="#A855F7" opacity="0.80"/>
    <circle cx="613.9" cy="523.3" r="3" fill="#3B82F6" opacity="0.40"/>
    <circle cx="641.1" cy="527.0" r="3" fill="#38BDF8" opacity="0.62"/>
    <circle cx="706.6" cy="528.2" r="3" fill="#3B82F6" opacity="0.32"/>
    <circle cx="794.6" cy="524.6" r="3" fill="#A855F7" opacity="0.76"/>
    <circle cx="1006.9" cy="528.1" r="3" fill="#F97316" opacity="0.43"/>
    <circle cx="1125.1" cy="523.8" r="3" fill="#10B981" opacity="0.73"/>
    <circle cx="75.5" cy="553.3" r="3" fill="#10B981" opacity="0.53"/>
    <circle cx="105.2" cy="552.0" r="3" fill="#F97316" opacity="0.60"/>
    <circle cx="225.3" cy="554.4" r="3" fill="#A855F7" opacity="0.45"/>
    <circle cx="342.3" cy="557.8" r="3" fill="#A855F7" opacity="0.32"/>
    <circle cx="373.2" cy="557.0" r="3" fill="#10B981" opacity="0.34"/>
    <circle cx="438.6" cy="551.6" r="3" fill="#38BDF8" opacity="0.47"/>
    <circle cx="498.1" cy="555.3" r="3" fill="#A855F7" opacity="0.32"/>
    <circle cx="528.3" cy="556.6" r="3" fill="#38BDF8" opacity="0.78"/>
    <circle cx="552.4" cy="557.1" r="3" fill="#A855F7" opacity="0.49"/>
    <circle cx="647.6" cy="557.0" r="3" fill="#3B82F6" opacity="0.66"/>
    <circle cx="732.3" cy="554.0" r="3" fill="#38BDF8" opacity="0.54"/>
    <circle cx="765.7" cy="557.8" r="3" fill="#3B82F6" opacity="0.66"/>
    <circle cx="792.5" cy="558.9" r="3" fill="#38BDF8" opacity="0.47"/>
    <circle cx="825.9" cy="551.4" r="3" fill="#3B82F6" opacity="0.37"/>
    <circle cx="978.2" cy="556.8" r="3" fill="#F97316" opacity="0.42"/>
    <circle cx="1004.9" cy="555.2" r="3" fill="#38BDF8" opacity="0.77"/>
    <circle cx="1036.2" cy="556.9" r="3" fill="#3B82F6" opacity="0.59"/>
    <circle cx="1066.9" cy="558.6" r="3" fill="#3B82F6" opacity="0.73"/>
    <circle cx="15.6" cy="583.2" r="3" fill="#38BDF8" opacity="0.64"/>
    <circle cx="136.8" cy="581.7" r="3" fill="#3B82F6" opacity="0.66"/>
    <circle cx="194.7" cy="588.6" r="3" fill="#10B981" opacity="0.76"/>
    <circle cx="378.3" cy="588.1" r="3" fill="#3B82F6" opacity="0.73"/>
    <circle cx="582.4" cy="587.7" r="3" fill="#38BDF8" opacity="0.66"/>
    <circle cx="678.9" cy="583.7" r="3" fill="#10B981" opacity="0.71"/>
    <circle cx="701.8" cy="583.1" r="3" fill="#F97316" opacity="0.54"/>
    <circle cx="763.6" cy="582.9" r="3" fill="#38BDF8" opacity="0.74"/>
    <circle cx="792.2" cy="588.2" r="3" fill="#A855F7" opacity="0.65"/>
    <circle cx="974.4" cy="581.6" r="3" fill="#F97316" opacity="0.67"/>
    <circle cx="1095.2" cy="585.9" r="3" fill="#A855F7" opacity="0.59"/>
    <circle cx="1157.4" cy="585.1" r="3" fill="#F97316" opacity="0.36"/>
    <circle cx="1185.7" cy="584.2" r="3" fill="#10B981" opacity="0.56"/>
    <circle cx="45.4" cy="614.6" r="3" fill="#10B981" opacity="0.47"/>
    <circle cx="163.4" cy="618.8" r="3" fill="#38BDF8" opacity="0.65"/>
    <circle cx="198.0" cy="611.4" r="3" fill="#38BDF8" opacity="0.34"/>
    <circle cx="283.8" cy="614.8" r="3" fill="#A855F7" opacity="0.73"/>
    <circle cx="438.4" cy="617.3" r="3" fill="#10B981" opacity="0.42"/>
    <circle cx="552.7" cy="614.4" r="3" fill="#38BDF8" opacity="0.74"/>
    <circle cx="705.8" cy="613.3" r="3" fill="#A855F7" opacity="0.76"/>
    <circle cx="735.3" cy="611.3" r="3" fill="#10B981" opacity="0.40"/>
    <circle cx="763.3" cy="615.8" r="3" fill="#38BDF8" opacity="0.42"/>
    <circle cx="794.6" cy="615.1" r="3" fill="#38BDF8" opacity="0.49"/>
    <circle cx="975.7" cy="616.0" r="3" fill="#38BDF8" opacity="0.75"/>
    <circle cx="1185.1" cy="612.8" r="3" fill="#3B82F6" opacity="0.77"/>
  </g>
</svg>