<svg xmlns="http://www.w3.org/2000/svg" width="1200" height="630" viewBox="0 0 1200 630">
  <rect width="1200" height="630" fill="#1a1805"/>
  <!-- Wave overlay -->
  <path d="M0 315 Q300 252 600 315 T1200 315" stroke="#4B5563" stroke-width="1" fill="none" opacity="0.3"/>
  <!-- Game of Life cells -->
  <g>
    <circle cx="42.9" cy="12.7" r="3" fill="#60A5FA" opacity="0.33"/>
    <circle cx="76.3" cy="15.4" r="3" fill="#FBBF24" opacity="0.55"/>
    <circle cx="101.4" cy="13.2" r="3" fill="#FDE047" opacity="0.74"/>
    <circle cx="134.4" cy="11.0" r="3" fill="#3B82F6" opacity="0.45"/>
    <circle cx="167.6" cy="13.1" r="3" fill="#60A5FA" opacity="0.39"/>
    <circle cx="221.4" cy="11.4" r="3" fill="#FBBF24" opacity="0.40"/>
    <circle cx="282.6" cy="11.8" r="3" fill="#60A5FA" opacity="0.36"/>
    <circle cx="318.4" cy="12.4" r="3" fill="#FBBF24" opacity="0.58"/>
    <circle cx="347.2" cy="16.0" r="3" fill="#FBBF24" opacity="0.60"/>
    <circle cx="401.6" cy="12.4" r="3" fill="#60A5FA" opacity="0.44"/>
    <circle cx="464.3" cy="19.0" r="3" fill="#FBBF24" opacity="0.63"/>
    <circle cx="524.9" cy="13.9" r="3" fill="#60A5FA" opacity="0.77"/>
    <circle cx="558.8" cy="11.9" r="3" fill="#3B82F6" opacity="0.69"/>
    <circle cx="586.4" cy="14.5" r="3" fill="#60A5FA" opacity="0.33"/>
    <circle cx="648.9" cy="12.6" r="3" fill="#3B82F6" opacity="0.75"/>
    <circle cx="673.4" cy="17.0" r="3" fill="#FBBF24" opacity="0.68"/>
    <circle cx="735.3" cy="13.8" r="3" fill="#60A5FA" opacity="0.37"/>
    <circle cx="762.6" cy="13.9" r="3" fill="#FFD700" opacity="0.68"/>
    <circle cx="826.3" cy="14.9" r="3" fill="#FFD700" opacity="0.68"/>
    <circle cx="857.3" cy="13.1" r="3" fill="#3B82F6" opacity="0.54"/>
    <circle cx="883.8" cy="16.1" r="3" fill="#FFD700" opacity="0.66"/>
    <circle cx="917.3" cy="13.3" r="3" fill="#3B82F6" opacity="0.63"/>
    <circle cx="948.4" cy="18.3" r="3" fill="#60A5FA" opacity="0.48"/>
    <circle cx="977.0" cy="13.0" r="3" fill="#60A5FA" opacity="0.64"/>
    <circle cx="1004.1" cy="12.8" r="3" fill="#FBBF24" opacity="0.78"/>
    <circle cx="1093.9" cy="15.1" r="3" fill="#FBBF24" opacity="0.35"/>
    <circle cx="1153.9" cy="12.9" r="3" fill="#3B82F6" opacity="0.55"/>
    <circle cx="1185.3" cy="16.2" r="3" fill="#60A5FA" opacity="0.76"/>
    <circle cx="12.9" cy="44.6" r="3" fill="#FFD700" opacity="0.46"/>
    <circle cx="104.8" cy="45.8" r="3" fill="#FDE047" opacity="0.44"/>
    <circle cx="138.4" cy="47.0" r="3" fill="#3B82F6" opacity="0.70"/>
    <circle cx="163.6" cy="41.1" r="3" fill="#FBBF24" opacity="0.68"/>
    <circle cx="281.6" cy="45.9" r="3" fill="#FFD700" opacity="0.78"/>
    <circle cx="318.9" cy="42.8" r="3" fill="#FDE047" opacity="0.72"/>
    <circle cx="347.2" cy="45.9" r="3" fill="#FBBF24" opacity="0.61"/>
    <circle cx="467.8" cy="41.4" r="3" fill="#FFD700" opacity="0.57"/>
    <circle cx="496.8" cy="46.4" r="3" fill="#FDE047" opacity="0.36"/>
    <circle cx="553.8" cy="44.0" r="3" fill="#FBBF24" opacity="0.48"/>
    <circle cx="582.0" cy="46.6" r="3" fill="#3B82F6" opacity="0.67"/>
    <circle cx="736.7" cy="45.7" r="3" fill="#FDE047" opacity="0.47"/>
    <circle cx="763.3" cy="46.9" r="3" fill="#60A5FA" opacity="0.68"/>
    <circle cx="793.0" cy="45.5" r="3" fill="#60A5FA" opacity="0.57"/>
    <circle cx="827.3" cy="47.9" r="3" fill="#3B82F6" opacity="0.46"/>
    <circle cx="858.1" cy="41.7" r="3" fill="#FFD700" opacity="0.50"/>
    <circle cx="886.8" cy="42.4" r="3" fill="#60A5FA" opacity="0.33"/>
    <circle cx="1002.2" cy="44.0" r="3" fill="#FBBF24" opacity="0.68"/>
    <circle cx="1038.5" cy="43.8" r="3" fill="#3B82F6" opacity="0.44"/>
    <circle cx="1065.4" cy="44.4" r="3" fill="#FBBF24" opacity="0.42"/>
    <circle cx="11.7" cy="75.9" r="3" fill="#3B82F6" opacity="0.78"/>
    <circle cx="131.9" cy="71.1" r="3" fill="#FBBF24" opacity="0.70"/>
    <circle cx="255.6" cy="75.4" r="3" fill="#FFD700" opacity="0.73"/>
    <circle cx="317.7" cy="75.5" r="3" fill="#FBBF24" opacity="0.50"/>
    <circle cx="496.1" cy="72.5" r="3" fill="#FFD700" opacity="0.62"/>
    <circle cx="522.7" cy="73.9" r="3" fill="#3B82F6" opacity="0.63"/>
    <circle cx="554.1" cy="72.0" r="3" fill="#FFD700" opacity="0.49"/>
    <circle cx="617.5" cy="74.8" r="3" fill="#FBBF24" opacity="0.62"/>
    <circle cx="641.4" cy="78.1" r="3" fill="#3B82F6" opacity="0.46"/>
    <circle cx="672.4" cy="77.9" r="3" fill="#FFD700" opacity="0.35"/>
    <circle cx="703.3" cy="76.0" r="3" fill="#FDE047" opacity="0.76"/>
    <circle cx="766.9" cy="75.2" r="3" fill="#60A5FA" opacity="0.55"/>
    <circle cx="851.6" cy="74.7" r="3" fill="#FFD700" opacity="0.57"/>
    <circle cx="883.9" cy="78.9" r="3" fill="#FFD700" opacity="0.70"/>
    <circle cx="1186.7" cy="72.1" r="3" fill="#FBBF24" opacity="0.47"/>
    <circle cx="75.2" cy="107.1" r="3" fill="#FBBF24" opacity="0.73"/>
    <circle cx="161.3" cy="104.1" r="3" fill="#FDE047" opacity="0.65"/>
    <circle cx="226.2" cy="108.6" r="3" fill="#3B82F6" opacity="0.50"/>
    <circle cx="254.5" cy="101.0" r="3" fill="#3B82F6" opacity="0.53"/>
    <circle cx="287.9" cy="104.7" r="3" fill="#FFD700" opacity="0.61"/>
    <circle cx="373.5" cy="101.9" r="3" fill="#3B82F6" opacity="0.53"/>
    <circle cx="406.7" cy="103.3" r="3" fill="#FFD700" opacity="0.72"/>
    <circle cx="525.7" cy="107.3" r="3" fill="#3B82F6" opacity="0.49"/>
    <circle cx="675.3" cy="108.7" r="3" fill="#FFD700" opacity="0.80"/>
    <circle cx="702.6" cy="103.2" r="3" fill="#FDE047" opacity="0.67"/>
    <circle cx="792.0" cy="103.0" r="3" fill="#FBBF24" opacity="0.75"/>
    <circle cx="882.5" cy="108.3" r="3" fill="#FDE047" opacity="0.63"/>
    <circle cx="914.5" cy="108.1" r="3" fill="#3B82F6" opacity="0.76"/>
    <circle cx="946.9" cy="101.9" r="3" fill="#60A5FA" opacity="0.52"/>
    <circle cx="44.0" cy="132.9" r="3" fill="#FFD700" opacity="0.77"/>
    <circle cx="131.8" cy="132.0" r="3" fill="#FBBF24" opacity="0.56"/>
    <circle cx="162.3" cy="134.8" r="3" fill="#FBBF24" opacity="0.78"/>
    <circle cx="194.3" cy="135.7" r="3" fill="#FBBF24" opacity="0.76"/>
    <circle cx="226.0" cy="132.8" r="3" fill="#FDE047" opacity="0.31"/>
    <circle cx="375.9" cy="134.8" r="3" fill="#FFD700" opacity="0.80"/>
    <circle cx="527.6" cy="133.0" r="3" fill="#FDE047" opacity="0.43"/>
    <circle cx="671.6" cy="138.5" r="3" fill="#FFD700" opacity="0.32"/>
    <circle cx="702.7" cy="135.6" r="3" fill="#60A5FA" opacity="0.43"/>
    <circle cx="738.7" cy="132.8" r="3" fill="#FBBF24" opacity="0.67"/>
    <circle cx="914.7" cy="137.9" r="3" fill="#3B82F6" opacity="0.79"/>
    <circle cx="1037.1" cy="131.4" r="3" fill="#FBBF24" opacity="0.36"/>
    <circle cx="1066.9" cy="138.7" r="3" fill="#FDE047" opacity="0.37"/>
    <circle cx="1184.0" cy="136.8" r="3" fill="#3B82F6" opacity="0.47"/>
    <circle cx="74.5" cy="162.6" r="3" fill="#FFD700" opacity="0.32"/>
    <circle cx="104.3" cy="168.1" r="3" fill="#FBBF24" opacity="0.75"/>
    <circle cx="132.7" cy="165.4" r="3" fill="#3B82F6" opacity="0.45"/>
    <circle cx="222.0" cy="165.2" r="3" fill="#FFD700" opacity="0.38"/>
    <circle cx="254.1" cy="163.6" r="3" fill="#3B82F6" opacity="0.45"/>
    <circle cx="342.1" cy="167.9" r="3" fill="#3B82F6" opacity="0.50"/>
    <circle cx="525.5" cy="165.1" r="3" fill="#FBBF24" opacity="0.77"/>
    <circle cx="553.7" cy="161.3" r="3" fill="#FFD700" opacity="0.31"/>
    <circle cx="642.7" cy="164.0" r="3" fill="#FFD700" opacity="0.64"/>
    <circle cx="701.6" cy="168.2" r="3" fill="#FDE047" opacity="0.58"/>
    <circle cx="825.1" cy="163.3" r="3" fill="#FFD700" opacity="0.52"/>
    <circle cx="858.8" cy="168.0" r="3" fill="#FBBF24" opacity="0.37"/>
    <circle cx="916.1" cy="167.5" r="3" fill="#FDE047" opacity="0.49"/>
    <circle cx="942.1" cy="162.5" r="3" fill="#3B82F6" opacity="0.44"/>
    <circle cx="14.5" cy="197.1" r="3" fill="#FDE047" opacity="0.73"/>
    <circle cx="137.3" cy="195.2" r="3" fill="#FBBF24" opacity="0.35"/>
    <circle cx="192.2" cy="192.4" r="3" fill="#FFD700" opacity="0.53"/>
    <circle cx="284.9" cy="193.7" r="3" fill="#FDE047" opacity="0.68"/>
    <circle cx="315.5" cy="193.3" r="3" fill="#FDE047" opacity="0.79"/>
    <circle cx="462.2" cy="197.4" r="3" fill="#3B82F6" opacity="0.41"/>
    <circle cx="491.9" cy="194.7" r="3" fill="#60A5FA" opacity="0.55"/>
    <circle cx="611.6" cy="191.5" r="3" fill="#FBBF24" opacity="0.50"/>
    <circle cx="703.5" cy="193.8" r="3" fill="#60A5FA" opacity="0.34"/>
    <circle cx="851.9" cy="198.1" r="3" fill="#FDE047" opacity="0.36"/>
    <circle cx="1001.3" cy="193.6" r="3" fill="#FDE047" opacity="0.50"/>
    <circle cx="1121.1" cy="194.4" r="3" fill="#3B82F6" opacity="0.43"/>
    <circle cx="1156.2" cy="197.8" r="3" fill="#FFD700" opacity="0.79"/>
    <circle cx="13.0" cy="226.8" r="3" fill="#FFD700" opacity="0.48"/>
    <circle cx="43.3" cy="223.7" r="3" fill="#3B82F6" opacity="0.53"/>
    <circle cx="104.1" cy="227.1" r="3" fill="#FFD700" opacity="0.55"/>
    <circle cx="133.9" cy="223.6" r="3" fill="#3B82F6" opacity="0.56"/>
    <circle cx="191.2" cy="221.6" r="3" fill="#60A5FA" opacity="0.36"/>
    <circle cx="406.1" cy="224.1" r="3" fill="#60A5FA" opacity="0.60"/>
    <circle cx="524.2" cy="221.3" r="3" fill="#3B82F6" opacity="0.73"/>
    <circle cx="585.3" cy="228.3" r="3" fill="#FBBF24" opacity="0.69"/>
    <circle cx="767.0" cy="228.8" r="3" fill="#FDE047" opacity="0.77"/>
    <circle cx="823.2" cy="228.1" r="3" fill="#3B82F6" opacity="0.46"/>
    <circle cx="858.0" cy="227.7" r="3" fill="#60A5FA" opacity="0.33"/>
    <circle cx="1063.6" cy="224.1" r="3" fill="#60A5FA" opacity="0.41"/>
    <circle cx="17.9" cy="253.1" r="3" fill="#FFD700" opacity="0.71"/>
    <circle cx="44.8" cy="252.9" r="3" fill="#FDE047" opacity="0.58"/>
    <circle cx="133.9" cy="252.2" r="3" fill="#FBBF24" opacity="0.33"/>
    <circle cx="315.2" cy="258.9" r="3" fill="#3B82F6" opacity="0.57"/>
    <circle cx="345.6" cy="255.7" r="3" fill="#FDE047" opacity="0.35"/>
    <circle cx="432.3" cy="257.6" r="3" fill="#FFD700" opacity="0.75"/>
    <circle cx="553.0" cy="252.2" r="3" fill="#FDE047" opacity="0.74"/>
    <circle cx="767.0" cy="256.9" r="3" fill="#FDE047" opacity="0.76"/>
    <circle cx="821.4" cy="258.8" r="3" fill="#FBBF24" opacity="0.41"/>
    <circle cx="852.9" cy="254.8" r="3" fill="#FDE047" opacity="0.53"/>
    <circle cx="913.7" cy="257.8" r="3" fill="#FFD700" opacity="0.48"/>
    <circle cx="945.4" cy="257.2" r="3" fill="#3B82F6" opacity="0.32"/>
    <circle cx="1126.3" cy="254.4" r="3" fill="#3B82F6" opacity="0.48"/>
    <circle cx="1152.7" cy="258.1" r="3" fill="#FDE047" opacity="0.60"/>
    <circle cx="73.9" cy="281.3" r="3" fill="#3B82F6" opacity="0.49"/>
    <circle cx="136.4" cy="287.7" r="3" fill="#3B82F6" opacity="0.34"/>
    <circle cx="161.5" cy="287.0" r="3" fill="#FBBF24" opacity="0.43"/>
    <circle cx="288.6" cy="288.3" r="3" fill="#FFD700" opacity="0.63"/>
    <circle cx="438.8" cy="286.0" r="3" fill="#3B82F6" opacity="0.42"/>
    <circle cx="462.5" cy="283.7" r="3" fill="#FBBF24" opacity="0.32"/>
    <circle cx="613.4" cy="282.7" r="3" fill="#FBBF24" opacity="0.78"/>
    <circle cx="642.3" cy="287.2" r="3" fill="#60A5FA" opacity="0.67"/>
    <circle cx="763.7" cy="284.3" r="3" fill="#FBBF24" opacity="0.66"/>
    <circle cx="798.2" cy="288.3" r="3" fill="#FBBF24" opacity="0.54"/>
    <circle cx="857.5" cy="287.5" r="3" fill="#3B82F6" opacity="0.62"/>
    <circle cx="884.9" cy="282.0" r="3" fill="#FBBF24" opacity="0.71"/>
    <circle cx="973.1" cy="287.0" r="3" fill="#FBBF24" opacity="0.79"/>
    <circle cx="1061.1" cy="283.1" r="3" fill="#FFD700" opacity="0.45"/>
    <circle cx="1091.9" cy="283.5" r="3" fill="#FFD700" opacity="0.43"/>
    <circle cx="45.2" cy="317.9" r="3" fill="#3B82F6" opacity="0.70"/>
    <circle cx="138.2" cy="311.0" r="3" fill="#FFD700" opacity="0.65"/>
    <circle cx="166.0" cy="318.3" r="3" fill="#FFD700" opacity="0.80"/>
    <circle cx="251.8" cy="312.8" r="3" fill="#FDE047" opacity="0.61"/>
    <circle cx="284.3" cy="315.8" r="3" fill="#3B82F6" opacity="0.35"/>
    <circle cx="316.2" cy="317.9" r="3" fill="#FDE047" opacity="0.71"/>
    <circle cx="402.5" cy="312.2" r="3" fill="#FBBF24" opacity="0.66"/>
    <circle cx="466.5" cy="318.4" r="3" fill="#FDE047" opacity="0.75"/>
    <circle cx="524.9" cy="315.0" r="3" fill="#3B82F6" opacity="0.33"/>
    <circle cx="673.3" cy="316.2" r="3" fill="#3B82F6" opacity="0.55"/>
    <circle cx="738.1" cy="313.4" r="3" fill="#60A5FA" opacity="0.44"/>
    <circle cx="825.9" cy="313.8" r="3" fill="#FFD700" opacity="0.53"/>
    <circle cx="857.6" cy="313.1" r="3" fill="#FFD700" opacity="0.39"/>
    <circle cx="882.1" cy="314.2" r="3" fill="#FFD700" opacity="0.36"/>
    <circle cx="1001.5" cy="312.8" r="3" fill="#FBBF24" opacity="0.73"/>
    <circle cx="1092.6" cy="315.1" r="3" fill="#FFD700" opacity="0.37"/>
    <circle cx="12.6" cy="347.3" r="3" fill="#FDE047" opacity="0.43"/>
    <circle cx="73.9" cy="342.0" r="3" fill="#FDE047" opacity="0.45"/>
    <circle cx="104.9" cy="342.6" r="3" fill="#FFD700" opacity="0.51"/>
    <circle cx="135.7" cy="348.9" r="3" fill="#60A5FA" opacity="0.57"/>
    <circle cx="196.1" cy="342.8" r="3" fill="#3B82F6" opacity="0.43"/>
    <circle cx="312.9" cy="341.4" r="3" fill="#FDE047" opacity="0.56"/>
    <circle cx="437.2" cy="341.2" r="3" fill="#FFD700" opacity="0.52"/>
    <circle cx="468.0" cy="348.8" r="3" fill="#FBBF24" opacity="0.56"/>
    <circle cx="586.3" cy="347.0" r="3" fill="#3B82F6" opacity="0.52"/>
    <circle cx="614.9" cy="343.5" r="3" fill="#FDE047" opacity="0.30"/>
    <circle cx="643.1" cy="341.7" r="3" fill="#3B82F6" opacity="0.41"/>
    <circle cx="737.6" cy="346.8" r="3" fill="#FFD700" opacity="0.68"/>
    <circle cx="792.3" cy="343.0" r="3" fill="#60A5FA" opacity="0.56"/>
    <circle cx="825.9" cy="341.8" r="3" fill="#60A5FA" opacity="0.46"/>
    <circle cx="855.7" cy="341.9" r="3" fill="#FDE047" opacity="0.62"/>
    <circle cx="917.6" cy="346.7" r="3" fill="#FDE047" opacity="0.65"/>
    <circle cx="942.7" cy="345.6" r="3" fill="#FBBF24" opacity="0.64"/>
    <circle cx="973.7" cy="343.7" r="3" fill="#60A5FA" opacity="0.79"/>
    <circle cx="1065.6" cy="345.5" r="3" fill="#3B82F6" opacity="0.76"/>
    <circle cx="1185.3" cy="348.0" r="3" fill="#FBBF24" opacity="0.43"/>
    <circle cx="77.6" cy="371.5" r="3" fill="#3B82F6" opacity="0.43"/>
    <circle cx="133.5" cy="376.7" r="3" fill="#3B82F6" opacity="0.70"/>
    <circle cx="347.7" cy="371.8" r="3" fill="#FBBF24" opacity="0.46"/>
    <circle cx="437.9" cy="378.0" r="3" fill="#FDE047" opacity="0.30"/>
    <circle cx="525.3" cy="374.9" r="3" fill="#FBBF24" opacity="0.33"/>
    <circle cx="647.2" cy="374.1" r="3" fill="#FDE047" opacity="0.55"/>
    <circle cx="673.6" cy="375.7" r="3" fill="#FFD700" opacity="0.35"/>
    <circle cx="734.4" cy="377.7" r="3" fill="#FFD700" opacity="0.57"/>
    <circle cx="821.0" cy="378.8" r="3" fill="#FBBF24" opacity="0.35"/>
    <circle cx="916.3" cy="373.6" r="3" fill="#FDE047" opacity="0.35"/>
    <circle cx="947.0" cy="373.5" r="3" fill="#3B82F6" opacity="0.43"/>
    <circle cx="1003.8" cy="378.4" r="3" fill="#60A5FA" opacity="0.69"/>
    <circle cx="1033.7" cy="372.8" r="3" fill="#3B82F6" opacity="0.68"/>
    <circle cx="1066.6" cy="378.0" r="3" fill="#3B82F6" opacity="0.78"/>
    <circle cx="1184.9" cy="377.2" r="3" fill="#FDE047" opacity="0.33"/>
    <circle cx="13.5" cy="403.7" r="3" fill="#FFD700" opacity="0.55"/>
    <circle cx="71.9" cy="401.0" r="3" fill="#FBBF24" opacity="0.65"/>
    <circle cx="132.7" cy="402.7" r="3" fill="#60A5FA" opacity="0.73"/>
    <circle cx="192.6" cy="408.6" r="3" fill="#FBBF24" opacity="0.33"/>
    <circle cx="253.6" cy="403.3" r="3" fill="#FDE047" opacity="0.63"/>
    <circle cx="282.1" cy="406.6" r="3" fill="#3B82F6" opacity="0.50"/>
    <circle cx="318.7" cy="401.5" r="3" fill="#3B82F6" opacity="0.50"/>
    <circle cx="377.0" cy="406.7" r="3" fill="#FDE047" opacity="0.75"/>
    <circle cx="401.5" cy="401.5" r="3" fill="#60A5FA" opacity="0.57"/>
    <circle cx="524.4" cy="408.8" r="3" fill="#FDE047" opacity="0.40"/>
    <circle cx="587.1" cy="408.8" r="3" fill="#3B82F6" opacity="0.60"/>
    <circle cx="707.7" cy="407.1" r="3" fill="#60A5FA" opacity="0.79"/>
    <circle cx="917.6" cy="402.7" r="3" fill="#FDE047" opacity="0.77"/>
    <circle cx="1004.4" cy="404.7" r="3" fill="#60A5FA" opacity="0.50"/>
    <circle cx="1066.9" cy="401.9" r="3" fill="#FBBF24" opacity="0.33"/>
    <circle cx="1184.3" cy="407.5" r="3" fill="#60A5FA" opacity="0.37"/>
    <circle cx="15.1" cy="433.0" r="3" fill="#60A5FA" opacity="0.47"/>
    <circle cx="134.0" cy="433.1" r="3" fill="#FBBF24" opacity="0.33"/>
    <circle cx="198.7" cy="431.0" r="3" fill="#FDE047" opacity="0.32"/>
    <circle cx="222.5" cy="433.8" r="3" fill="#FBBF24" opacity="0.77"/>
    <circle cx="253.5" cy="435.0" r="3" fill="#3B82F6" opacity="0.30"/>
    <circle cx="316.1" cy="431.3" r="3" fill="#FBBF24" opacity="0.48"/>
    <circle cx="343.8" cy="434.9" r="3" fill="#FBBF24" opacity="0.45"/>
    <circle cx="437.5" cy="436.9" r="3" fill="#FBBF24" opacity="0.77"/>
    <circle cx="468.4" cy="431.5" r="3" fill="#60A5FA" opacity="0.68"/>
    <circle cx="521.5" cy="436.6" r="3" fill="#FDE047" opacity="0.35"/>
    <circle cx="641.9" cy="431.0" r="3" fill="#3B82F6" opacity="0.68"/>
    <circle cx="671.8" cy="438.1" r="3" fill="#60A5FA" opacity="0.65"/>
    <circle cx="704.5" cy="432.7" r="3" fill="#FBBF24" opacity="0.52"/>
    <circle cx="767.1" cy="432.7" r="3" fill="#FFD700" opacity="0.41"/>
    <circle cx="826.2" cy="438.0" r="3" fill="#FBBF24" opacity="0.56"/>
    <circle cx="852.6" cy="438.8" r="3" fill="#FFD700" opacity="0.65"/>
    <circle cx="973.8" cy="431.6" r="3" fill="#3B82F6" opacity="0.55"/>
    <circle cx="1006.9" cy="437.3" r="3" fill="#FDE047" opacity="0.57"/>
    <circle cx="1033.0" cy="431.6" r="3" fill="#FBBF24" opacity="0.54"/>
    <circle cx="1091.9" cy="434.2" r="3" fill="#FDE047" opacity="0.37"/>
    <circle cx="1155.7" cy="438.9" r="3" fill="#3B82F6" opacity="0.66"/>
    <circle cx="1182.1" cy="438.1" r="3" fill="#3B82F6" opacity="0.43"/>
    <circle cx="12.2" cy="462.3" r="3" fill="#3B82F6" opacity="0.78"/>
    <circle cx="47.4" cy="467.9" r="3" fill="#FBBF24" opacity="0.58"/>
    <circle cx="103.9" cy="468.2" r="3" fill="#FDE047" opacity="0.65"/>
    <circle cx="163.8" cy="462.0" r="3" fill="#3B82F6" opacity="0.63"/>
    <circle cx="193.2" cy="467.8" r="3" fill="#3B82F6" opacity="0.34"/>
    <circle cx="221.4" cy="465.3" r="3" fill="#FBBF24" opacity="0.46"/>
    <circle cx="255.6" cy="466.6" r="3" fill="#60A5FA" opacity="0.60"/>
    <circle cx="281.2" cy="466.6" r="3" fill="#60A5FA" opacity="0.46"/>
    <circle cx="376.7" cy="467.2" r="3" fill="#FBBF24" opacity="0.60"/>
    <circle cx="402.9" cy="467.9" r="3" fill="#FFD700" opacity="0.42"/>
    <circle cx="494.0" cy="466.0" r="3" fill="#3B82F6" opacity="0.66"/>
    <circle cx="558.6" cy="466.2" r="3" fill="#3B82F6" opacity="0.61"/>
    <circle cx="617.0" cy="463.2" r="3" fill="#FBBF24" opacity="0.46"/>
    <circle cx="642.0" cy="462.2" r="3" fill="#FDE047" opacity="0.66"/>
    <circle cx="825.2" cy="465.3" r="3" fill="#FFD700" opacity="0.47"/>
    <circle cx="854.9" cy="462.4" r="3" fill="#60A5FA" opacity="0.38"/>
    <circle cx="911.7" cy="463.4" r="3" fill="#FDE047" opacity="0.67"/>
    <circle cx="1038.1" cy="463.6" r="3" fill="#3B82F6" opacity="0.47"/>
    <circle cx="1096.2" cy="463.0" r="3" fill="#3B82F6" opacity="0.73"/>
    <circle cx="1121.1" cy="464.8" r="3" fill="#FDE047" opacity="0.50"/>
    <circle cx="101.7" cy="498.7" r="3" fill="#3B82F6" opacity="0.74"/>
    <circle cx="135.5" cy="494.4" r="3" fill="#3B82F6" opacity="0.63"/>
    <circle cx="168.9" cy="497.4" r="3" fill="#FDE047" opacity="0.31"/>
    <circle cx="197.1" cy="491.1" r="3" fill="#FBBF24" opacity="0.56"/>
    <circle cx="258.3" cy="495.3" r="3" fill="#60A5FA" opacity="0.45"/>
    <circle cx="344.9" cy="492.9" r="3" fill="#FDE047" opacity="0.61"/>
    <circle cx="374.8" cy="498.0" r="3" fill="#3B82F6" opacity="0.51"/>
    <circle cx="524.1" cy="491.4" r="3" fill="#FBBF24" opacity="0.43"/>
    <circle cx="647.7" cy="493.3" r="3" fill="#60A5FA" opacity="0.59"/>
    <circle cx="706.8" cy="498.8" r="3" fill="#FFD700" opacity="0.69"/>
    <circle cx="731.5" cy="495.4" r="3" fill="#FBBF24" opacity="0.46"/>
    <circle cx="764.0" cy="497.3" r="3" fill="#FBBF24" opacity="0.40"/>
    <circle cx="792.5" cy="492.9" r="3" fill="#FFD700" opacity="0.69"/>
    <circle cx="824.0" cy="496.1" r="3" fill="#3B82F6" opacity="0.32"/>
    <circle cx="1061.7" cy="491.6" r="3" fill="#60A5FA" opacity="0.46"/>
    <circle cx="1121.2" cy="492.1" r="3" fill="#60A5FA" opacity="0.64"/>
    <circle cx="11.1" cy="523.1" r="3" fill="#FFD700" opacity="0.76"/>
    <circle cx="44.0" cy="522.8" r="3" fill="#FBBF24" opacity="0.42"/>
    <circle cx="223.0" cy="523.6" r="3" fill="#60A5FA" opacity="0.76"/>
    <circle cx="284.2" cy="525.8" r="3" fill="#FFD700" opacity="0.70"/>
    <circle cx="371.0" cy="525.8" r="3" fill="#3B82F6" opacity="0.43"/>
    <circle cx="525.5" cy="528.0" r="3" fill="#60A5FA" opacity="0.66"/>
    <circle cx="558.6" cy="523.0" r="3" fill="#60A5FA" opacity="0.75"/>
    <circle cx="588.3" cy="523.3" r="3" fill="#FDE047" opacity="0.38"/>
    <circle cx="702.3" cy="526.8" r="3" fill="#FFD700" opacity="0.67"/>
    <circle cx="827.1" cy="526.0" r="3" fill="#3B82F6" opacity="0.73"/>
    <circle cx="885.3" cy="525.4" r="3" fill="#FBBF24" opacity="0.34"/>
    <circle cx="916.7" cy="522.0" r="3" fill="#FBBF24" opacity="0.49"/>
    <circle cx="1006.7" cy="524.0" r="3" fill="#FFD700" opacity="0.67"/>
    <circle cx="41.4" cy="556.3" r="3" fill="#FFD700" opacity="0.32"/>
    <circle cx="74.8" cy="557.8" r="3" fill="#FBBF24" opacity="0.72"/>
    <circle cx="108.5" cy="555.5" r="3" fill="#FFD700" opacity="0.54"/>
    <circle cx="286.5" cy="557.4" r="3" fill="#3B82F6" opacity="0.33"/>
    <circle cx="404.1" cy="558.0" r="3" fill="#60A5FA" opacity="0.54"/>
    <circle cx="496.9" cy="554.9" r="3" fill="#3B82F6" opacity="0.69"/>
    <circle cx="616.9" cy="555.2" r="3" fill="#3B82F6" opacity="0.49"/>
    <circle cx="706.3" cy="556.0" r="3" fill="#3B82F6" opacity="0.56"/>
    <circle cx="736.2" cy="554.4" r="3" fill="#60A5FA" opacity="0.59"/>
    <circle cx="765.6" cy="556.4" r="3" fill="#FDE047" opacity="0.67"/>
    <circle cx="853.8" cy="558.5" r="3" fill="#FDE047" opacity="0.77"/>
    <circle cx="887.9" cy="557.6" r="3" fill="#60A5FA" opacity="0.39"/>
    <circle cx="1006.0" cy="554.3" r="3" fill="#3B82F6" opacity="0.69"/>
    <circle cx="18.2" cy="584.7" r="3" fill="#3B82F6" opacity="0.34"/>
    <circle cx="102.4" cy="585.4" r="3" fill="#FDE047" opacity="0.80"/>
    <circle cx="162.1" cy="583.2" r="3" fill="#FDE047" opacity="0.30"/>
    <circle cx="194.9" cy="586.3" r="3" fill="#FDE047" opacity="0.73"/>
    <circle cx="223.4" cy="587.8" r="3" fill="#3B82F6" opacity="0.42"/>
    <circle cx="253.2" cy="584.3" r="3" fill="#3B82F6" opacity="0.70"/>
    <circle cx="311.8" cy="581.3" r="3" fill="#60A5FA" opacity="0.55"/>
    <circle cx="346.0" cy="583.0" r="3" fill="#3B82F6" opacity="0.70"/>
    <circle cx="436.0" cy="584.7" r="3" fill="#FBBF24" opacity="0.61"/>
    <circle cx="461.2" cy="585.4" r="3" fill="#60A5FA" opacity="0.79"/>
    <circle cx="587.9" cy="584.5" r="3" fill="#FFD700" opacity="0.51"/>
    <circle cx="645.7" cy="586.5" r="3" fill="#FDE047" opacity="0.63"/>
    <circle cx="708.3" cy="583.8" r="3" fill="#60A5FA" opacity="0.44"/>
    <circle cx="791.6" cy="584.0" r="3" fill="#3B82F6" opacity="0.56"/>
    <circle cx="1063.2" cy="584.4" r="3" fill="#60A5FA" opacity="0.49"/>
    <circle cx="1181.8" cy="582.5" r="3" fill="#FBBF24" opacity="0.40"/>
    <circle cx="12.4" cy="616.5" r="3" fill="#3B82F6" opacity="0.51"/>
    <circle cx="45.9" cy="611.6" r="3" fill="#60A5FA" opacity="0.77"/>
    <circle cx="135.7" cy="611.2" r="3" fill="#3B82F6" opacity="0.47"/>
    <circle cx="166.2" cy="614.4" r="3" fill="#FBBF24" opacity="0.69"/>
    <circle cx="258.9" cy="615.5" r="3" fill="#3B82F6" opacity="0.69"/>
    <circle cx="316.2" cy="618.7" r="3" fill="#FFD700" opacity="0.32"/>
    <circle cx="526.3" cy="618.1" r="3" fill="#3B82F6" opacity="0.62"/>
    <circle cx="556.8" cy="615.2" r="3" fill="#FBBF24" opacity="0.45"/>
    <circle cx="766.7" cy="618.6" r="3" fill="#3B82F6" opacity="0.76"/>
    <circle cx="857.3" cy="614.2" r="3" fill="#60A5FA" opacity="0.52"/>
    <circle cx="944.4" cy="616.5" r="3" fill="#FFD700" opacity="0.51"/>
    <circle cx="1158.1" cy="616.0" r="3" fill="#FBBF24" opacity="0.60"/>
  </g>
</svg>