<svg xmlns="http://www.w3.org/2000/svg" width="1200" height="630" viewBox="0 0 1200 630">
  <rect width="1200" height="630" fill="#0a0a0a"/>
  <!-- Wave overlay -->
  <path d="M0 315 Q300 252 600 315 T1200 315" stroke="#4B5563" stroke-width="1" fill="none" opacity="0.3"/>
  <!-- Game of Life cells -->
  <g>
    <circle cx="72.2" cy="18.5" r="3" fill="#F87171" opacity="0.75"/>
    <circle cx="107.5" cy="17.6" r="3" fill="#C084FC" opacity="0.43"/>
    <circle cx="135.2" cy="11.1" r="3" fill="#C084FC" opacity="0.67"/>
    <circle cx="315.1" cy="15.0" r="3" fill="#EF4444" opacity="0.66"/>
    <circle cx="374.2" cy="16.5" r="3" fill="#DC2626" opacity="0.55"/>
    <circle cx="407.9" cy="18.4" r="3" fill="#A855F7" opacity="0.71"/>
    <circle cx="525.2" cy="15.0" r="3" fill="#EF4444" opacity="0.56"/>
    <circle cx="552.8" cy="17.6" r="3" fill="#A855F7" opacity="0.57"/>
    <circle cx="585.4" cy="15.6" r="3" fill="#EF4444" opacity="0.37"/>
    <circle cx="678.3" cy="11.0" r="3" fill="#F87171" opacity="0.79"/>
    <circle cx="761.9" cy="12.7" r="3" fill="#F87171" opacity="0.58"/>
    <circle cx="822.6" cy="12.7" r="3" fill="#F87171" opacity="0.55"/>
    <circle cx="1005.2" cy="17.8" r="3" fill="#EF4444" opacity="0.66"/>
    <circle cx="1128.9" cy="15.7" r="3" fill="#C084FC" opacity="0.35"/>
    <circle cx="41.5" cy="43.7" r="3" fill="#A855F7" opacity="0.67"/>
    <circle cx="138.7" cy="44.7" r="3" fill="#C084FC" opacity="0.54"/>
    <circle cx="195.3" cy="41.4" r="3" fill="#A855F7" opacity="0.37"/>
    <circle cx="226.7" cy="45.4" r="3" fill="#C084FC" opacity="0.62"/>
    <circle cx="258.8" cy="46.3" r="3" fill="#F87171" opacity="0.36"/>
    <circle cx="408.7" cy="45.0" r="3" fill="#DC2626" opacity="0.55"/>
    <circle cx="465.0" cy="48.8" r="3" fill="#C084FC" opacity="0.75"/>
    <circle cx="552.4" cy="46.7" r="3" fill="#F87171" opacity="0.76"/>
    <circle cx="675.9" cy="47.8" r="3" fill="#EF4444" opacity="0.43"/>
    <circle cx="707.2" cy="43.6" r="3" fill="#A855F7" opacity="0.71"/>
    <circle cx="735.2" cy="48.0" r="3" fill="#C084FC" opacity="0.58"/>
    <circle cx="767.4" cy="43.9" r="3" fill="#EF4444" opacity="0.56"/>
    <circle cx="797.0" cy="46.6" r="3" fill="#C084FC" opacity="0.50"/>
    <circle cx="825.2" cy="46.8" r="3" fill="#C084FC" opacity="0.70"/>
    <circle cx="855.9" cy="42.2" r="3" fill="#C084FC" opacity="0.60"/>
    <circle cx="888.5" cy="41.4" r="3" fill="#A855F7" opacity="0.53"/>
    <circle cx="913.7" cy="47.2" r="3" fill="#C084FC" opacity="0.74"/>
    <circle cx="978.3" cy="43.2" r="3" fill="#EF4444" opacity="0.50"/>
    <circle cx="1003.3" cy="45.8" r="3" fill="#EF4444" opacity="0.55"/>
    <circle cx="1067.6" cy="42.2" r="3" fill="#A855F7" opacity="0.57"/>
    <circle cx="1124.3" cy="42.7" r="3" fill="#A855F7" opacity="0.49"/>
    <circle cx="1155.8" cy="46.3" r="3" fill="#F87171" opacity="0.54"/>
    <circle cx="134.3" cy="76.0" r="3" fill="#C084FC" opacity="0.31"/>
    <circle cx="164.7" cy="78.0" r="3" fill="#DC2626" opacity="0.55"/>
    <circle cx="193.2" cy="78.8" r="3" fill="#EF4444" opacity="0.55"/>
    <circle cx="223.4" cy="75.2" r="3" fill="#DC2626" opacity="0.61"/>
    <circle cx="258.2" cy="73.9" r="3" fill="#A855F7" opacity="0.71"/>
    <circle cx="281.7" cy="76.0" r="3" fill="#C084FC" opacity="0.44"/>
    <circle cx="344.6" cy="71.9" r="3" fill="#DC2626" opacity="0.40"/>
    <circle cx="401.2" cy="73.3" r="3" fill="#EF4444" opacity="0.46"/>
    <circle cx="461.4" cy="73.7" r="3" fill="#C084FC" opacity="0.53"/>
    <circle cx="551.8" cy="78.3" r="3" fill="#C084FC" opacity="0.43"/>
    <circle cx="642.6" cy="73.6" r="3" fill="#EF4444" opacity="0.71"/>
    <circle cx="677.0" cy="76.8" r="3" fill="#C084FC" opacity="0.75"/>
    <circle cx="761.1" cy="78.7" r="3" fill="#A855F7" opacity="0.47"/>
    <circle cx="825.2" cy="73.5" r="3" fill="#C084FC" opacity="0.32"/>
    <circle cx="858.1" cy="72.7" r="3" fill="#A855F7" opacity="0.77"/>
    <circle cx="975.8" cy="76.8" r="3" fill="#C084FC" opacity="0.57"/>
    <circle cx="1037.9" cy="74.4" r="3" fill="#C084FC" opacity="0.45"/>
    <circle cx="1064.9" cy="76.6" r="3" fill="#EF4444" opacity="0.44"/>
    <circle cx="1126.3" cy="72.4" r="3" fill="#A855F7" opacity="0.39"/>
    <circle cx="1186.7" cy="77.5" r="3" fill="#EF4444" opacity="0.53"/>
    <circle cx="14.1" cy="103.1" r="3" fill="#F87171" opacity="0.69"/>
    <circle cx="101.6" cy="107.4" r="3" fill="#EF4444" opacity="0.60"/>
    <circle cx="134.3" cy="102.9" r="3" fill="#DC2626" opacity="0.46"/>
    <circle cx="161.3" cy="102.6" r="3" fill="#A855F7" opacity="0.64"/>
    <circle cx="191.0" cy="102.3" r="3" fill="#C084FC" opacity="0.59"/>
    <circle cx="258.0" cy="107.0" r="3" fill="#EF4444" opacity="0.39"/>
    <circle cx="312.9" cy="102.7" r="3" fill="#F87171" opacity="0.53"/>
    <circle cx="492.3" cy="103.0" r="3" fill="#A855F7" opacity="0.52"/>
    <circle cx="551.9" cy="101.7" r="3" fill="#A855F7" opacity="0.31"/>
    <circle cx="588.7" cy="101.6" r="3" fill="#C084FC" opacity="0.43"/>
    <circle cx="641.5" cy="104.0" r="3" fill="#C084FC" opacity="0.50"/>
    <circle cx="708.6" cy="102.1" r="3" fill="#DC2626" opacity="0.56"/>
    <circle cx="738.9" cy="101.1" r="3" fill="#DC2626" opacity="0.54"/>
    <circle cx="795.0" cy="101.4" r="3" fill="#C084FC" opacity="0.42"/>
    <circle cx="916.5" cy="103.0" r="3" fill="#C084FC" opacity="0.38"/>
    <circle cx="1068.3" cy="104.8" r="3" fill="#C084FC" opacity="0.52"/>
    <circle cx="1121.6" cy="103.3" r="3" fill="#EF4444" opacity="0.47"/>
    <circle cx="71.1" cy="132.2" r="3" fill="#F87171" opacity="0.55"/>
    <circle cx="104.1" cy="132.7" r="3" fill="#DC2626" opacity="0.31"/>
    <circle cx="197.1" cy="132.2" r="3" fill="#EF4444" opacity="0.33"/>
    <circle cx="227.8" cy="138.6" r="3" fill="#DC2626" opacity="0.53"/>
    <circle cx="258.9" cy="132.7" r="3" fill="#C084FC" opacity="0.74"/>
    <circle cx="439.0" cy="134.2" r="3" fill="#A855F7" opacity="0.30"/>
    <circle cx="494.1" cy="133.0" r="3" fill="#C084FC" opacity="0.41"/>
    <circle cx="556.7" cy="135.7" r="3" fill="#C084FC" opacity="0.58"/>
    <circle cx="587.3" cy="136.0" r="3" fill="#C084FC" opacity="0.59"/>
    <circle cx="618.1" cy="137.2" r="3" fill="#C084FC" opacity="0.49"/>
    <circle cx="705.3" cy="138.1" r="3" fill="#DC2626" opacity="0.80"/>
    <circle cx="821.7" cy="135.2" r="3" fill="#F87171" opacity="0.54"/>
    <circle cx="852.9" cy="135.0" r="3" fill="#A855F7" opacity="0.32"/>
    <circle cx="886.2" cy="136.0" r="3" fill="#C084FC" opacity="0.49"/>
    <circle cx="945.0" cy="135.5" r="3" fill="#F87171" opacity="0.54"/>
    <circle cx="1004.9" cy="132.3" r="3" fill="#A855F7" opacity="0.41"/>
    <circle cx="1035.3" cy="135.3" r="3" fill="#EF4444" opacity="0.60"/>
    <circle cx="1094.0" cy="133.7" r="3" fill="#F87171" opacity="0.52"/>
    <circle cx="101.2" cy="163.5" r="3" fill="#EF4444" opacity="0.70"/>
    <circle cx="138.8" cy="164.5" r="3" fill="#F87171" opacity="0.76"/>
    <circle cx="251.4" cy="163.3" r="3" fill="#A855F7" opacity="0.44"/>
    <circle cx="288.5" cy="162.7" r="3" fill="#EF4444" opacity="0.75"/>
    <circle cx="318.0" cy="168.5" r="3" fill="#C084FC" opacity="0.70"/>
    <circle cx="523.9" cy="166.5" r="3" fill="#EF4444" opacity="0.43"/>
    <circle cx="588.7" cy="164.2" r="3" fill="#EF4444" opacity="0.60"/>
    <circle cx="738.5" cy="162.1" r="3" fill="#C084FC" opacity="0.56"/>
    <circle cx="766.6" cy="165.9" r="3" fill="#DC2626" opacity="0.71"/>
    <circle cx="1008.3" cy="164.1" r="3" fill="#DC2626" opacity="0.51"/>
    <circle cx="1091.4" cy="164.4" r="3" fill="#C084FC" opacity="0.64"/>
    <circle cx="18.3" cy="198.0" r="3" fill="#DC2626" opacity="0.62"/>
    <circle cx="106.0" cy="194.5" r="3" fill="#EF4444" opacity="0.75"/>
    <circle cx="137.7" cy="198.2" r="3" fill="#DC2626" opacity="0.63"/>
    <circle cx="165.1" cy="191.9" r="3" fill="#C084FC" opacity="0.70"/>
    <circle cx="228.1" cy="191.0" r="3" fill="#F87171" opacity="0.44"/>
    <circle cx="252.1" cy="195.9" r="3" fill="#C084FC" opacity="0.50"/>
    <circle cx="526.7" cy="195.8" r="3" fill="#A855F7" opacity="0.44"/>
    <circle cx="641.9" cy="192.1" r="3" fill="#C084FC" opacity="0.63"/>
    <circle cx="767.0" cy="197.2" r="3" fill="#DC2626" opacity="0.79"/>
    <circle cx="974.2" cy="194.6" r="3" fill="#EF4444" opacity="0.43"/>
    <circle cx="1092.2" cy="193.6" r="3" fill="#A855F7" opacity="0.71"/>
    <circle cx="1188.8" cy="195.3" r="3" fill="#F87171" opacity="0.76"/>
    <circle cx="76.6" cy="224.5" r="3" fill="#F87171" opacity="0.40"/>
    <circle cx="108.6" cy="222.7" r="3" fill="#A855F7" opacity="0.45"/>
    <circle cx="138.8" cy="227.0" r="3" fill="#C084FC" opacity="0.54"/>
    <circle cx="197.5" cy="223.3" r="3" fill="#EF4444" opacity="0.35"/>
    <circle cx="253.2" cy="226.0" r="3" fill="#DC2626" opacity="0.47"/>
    <circle cx="281.3" cy="228.7" r="3" fill="#C084FC" opacity="0.40"/>
    <circle cx="554.9" cy="225.8" r="3" fill="#F87171" opacity="0.58"/>
    <circle cx="671.8" cy="224.5" r="3" fill="#A855F7" opacity="0.45"/>
    <circle cx="706.4" cy="225.5" r="3" fill="#A855F7" opacity="0.60"/>
    <circle cx="821.7" cy="227.9" r="3" fill="#EF4444" opacity="0.71"/>
    <circle cx="915.3" cy="228.9" r="3" fill="#A855F7" opacity="0.79"/>
    <circle cx="1068.7" cy="225.4" r="3" fill="#A855F7" opacity="0.51"/>
    <circle cx="1125.9" cy="227.4" r="3" fill="#F87171" opacity="0.43"/>
    <circle cx="1157.6" cy="228.6" r="3" fill="#EF4444" opacity="0.49"/>
    <circle cx="226.9" cy="253.5" r="3" fill="#F87171" opacity="0.43"/>
    <circle cx="287.5" cy="251.8" r="3" fill="#EF4444" opacity="0.35"/>
    <circle cx="316.0" cy="252.5" r="3" fill="#F87171" opacity="0.48"/>
    <circle cx="402.0" cy="253.5" r="3" fill="#F87171" opacity="0.30"/>
    <circle cx="641.3" cy="258.6" r="3" fill="#F87171" opacity="0.56"/>
    <circle cx="738.2" cy="256.1" r="3" fill="#A855F7" opacity="0.74"/>
    <circle cx="796.9" cy="254.0" r="3" fill="#C084FC" opacity="0.80"/>
    <circle cx="821.7" cy="256.7" r="3" fill="#DC2626" opacity="0.49"/>
    <circle cx="912.4" cy="252.3" r="3" fill="#EF4444" opacity="0.61"/>
    <circle cx="1032.4" cy="256.2" r="3" fill="#DC2626" opacity="0.59"/>
    <circle cx="1093.8" cy="254.3" r="3" fill="#A855F7" opacity="0.35"/>
    <circle cx="1151.7" cy="255.6" r="3" fill="#A855F7" opacity="0.44"/>
    <circle cx="1188.1" cy="255.4" r="3" fill="#DC2626" opacity="0.39"/>
    <circle cx="77.3" cy="288.5" r="3" fill="#F87171" opacity="0.74"/>
    <circle cx="134.9" cy="285.9" r="3" fill="#DC2626" opacity="0.30"/>
    <circle cx="196.0" cy="288.0" r="3" fill="#DC2626" opacity="0.57"/>
    <circle cx="257.7" cy="286.4" r="3" fill="#A855F7" opacity="0.31"/>
    <circle cx="343.4" cy="281.7" r="3" fill="#EF4444" opacity="0.78"/>
    <circle cx="431.0" cy="281.9" r="3" fill="#EF4444" opacity="0.57"/>
    <circle cx="558.2" cy="286.5" r="3" fill="#DC2626" opacity="0.57"/>
    <circle cx="615.2" cy="287.9" r="3" fill="#DC2626" opacity="0.45"/>
    <circle cx="647.2" cy="282.3" r="3" fill="#C084FC" opacity="0.67"/>
    <circle cx="676.7" cy="283.9" r="3" fill="#EF4444" opacity="0.59"/>
    <circle cx="797.5" cy="282.1" r="3" fill="#A855F7" opacity="0.37"/>
    <circle cx="825.5" cy="283.0" r="3" fill="#DC2626" opacity="0.64"/>
    <circle cx="851.4" cy="287.6" r="3" fill="#F87171" opacity="0.80"/>
    <circle cx="1003.7" cy="285.6" r="3" fill="#DC2626" opacity="0.32"/>
    <circle cx="1121.4" cy="283.4" r="3" fill="#C084FC" opacity="0.79"/>
    <circle cx="195.0" cy="316.7" r="3" fill="#DC2626" opacity="0.78"/>
    <circle cx="401.1" cy="317.5" r="3" fill="#C084FC" opacity="0.49"/>
    <circle cx="465.4" cy="316.5" r="3" fill="#F87171" opacity="0.58"/>
    <circle cx="585.4" cy="312.7" r="3" fill="#DC2626" opacity="0.79"/>
    <circle cx="671.5" cy="314.5" r="3" fill="#EF4444" opacity="0.44"/>
    <circle cx="763.2" cy="315.6" r="3" fill="#A855F7" opacity="0.45"/>
    <circle cx="791.7" cy="318.2" r="3" fill="#EF4444" opacity="0.58"/>
    <circle cx="851.6" cy="314.8" r="3" fill="#EF4444" opacity="0.31"/>
    <circle cx="1008.5" cy="314.5" r="3" fill="#A855F7" opacity="0.38"/>
    <circle cx="1092.2" cy="313.1" r="3" fill="#DC2626" opacity="0.62"/>
    <circle cx="1122.3" cy="316.9" r="3" fill="#EF4444" opacity="0.48"/>
    <circle cx="46.6" cy="343.1" r="3" fill="#C084FC" opacity="0.60"/>
    <circle cx="136.2" cy="343.5" r="3" fill="#A855F7" opacity="0.60"/>
    <circle cx="193.8" cy="348.5" r="3" fill="#A855F7" opacity="0.75"/>
    <circle cx="287.2" cy="348.2" r="3" fill="#F87171" opacity="0.65"/>
    <circle cx="344.0" cy="345.2" r="3" fill="#EF4444" opacity="0.50"/>
    <circle cx="373.8" cy="345.3" r="3" fill="#F87171" opacity="0.45"/>
    <circle cx="435.1" cy="342.5" r="3" fill="#C084FC" opacity="0.58"/>
    <circle cx="491.5" cy="348.6" r="3" fill="#EF4444" opacity="0.31"/>
    <circle cx="526.8" cy="346.0" r="3" fill="#F87171" opacity="0.65"/>
    <circle cx="554.6" cy="343.6" r="3" fill="#DC2626" opacity="0.34"/>
    <circle cx="677.8" cy="343.9" r="3" fill="#DC2626" opacity="0.42"/>
    <circle cx="706.8" cy="347.6" r="3" fill="#C084FC" opacity="0.34"/>
    <circle cx="797.7" cy="343.1" r="3" fill="#C084FC" opacity="0.43"/>
    <circle cx="828.2" cy="343.4" r="3" fill="#DC2626" opacity="0.70"/>
    <circle cx="858.6" cy="348.8" r="3" fill="#C084FC" opacity="0.43"/>
    <circle cx="913.1" cy="347.0" r="3" fill="#C084FC" opacity="0.72"/>
    <circle cx="1006.2" cy="341.3" r="3" fill="#F87171" opacity="0.78"/>
    <circle cx="1091.9" cy="345.6" r="3" fill="#C084FC" opacity="0.74"/>
    <circle cx="1183.0" cy="341.2" r="3" fill="#EF4444" opacity="0.44"/>
    <circle cx="74.2" cy="378.2" r="3" fill="#EF4444" opacity="0.55"/>
    <circle cx="107.6" cy="372.8" r="3" fill="#C084FC" opacity="0.40"/>
    <circle cx="132.2" cy="372.5" r="3" fill="#A855F7" opacity="0.72"/>
    <circle cx="194.3" cy="372.3" r="3" fill="#F87171" opacity="0.30"/>
    <circle cx="255.7" cy="378.1" r="3" fill="#A855F7" opacity="0.59"/>
    <circle cx="377.8" cy="372.7" r="3" fill="#EF4444" opacity="0.78"/>
    <circle cx="462.8" cy="377.8" r="3" fill="#C084FC" opacity="0.73"/>
    <circle cx="527.1" cy="378.7" r="3" fill="#EF4444" opacity="0.63"/>
    <circle cx="552.3" cy="375.7" r="3" fill="#DC2626" opacity="0.64"/>
    <circle cx="587.4" cy="376.5" r="3" fill="#C084FC" opacity="0.77"/>
    <circle cx="643.3" cy="373.8" r="3" fill="#F87171" opacity="0.40"/>
    <circle cx="674.4" cy="377.5" r="3" fill="#A855F7" opacity="0.74"/>
    <circle cx="706.3" cy="373.7" r="3" fill="#DC2626" opacity="0.65"/>
    <circle cx="733.8" cy="377.8" r="3" fill="#C084FC" opacity="0.47"/>
    <circle cx="762.5" cy="375.6" r="3" fill="#A855F7" opacity="0.69"/>
    <circle cx="797.8" cy="373.6" r="3" fill="#DC2626" opacity="0.70"/>
    <circle cx="822.7" cy="373.7" r="3" fill="#EF4444" opacity="0.44"/>
    <circle cx="887.5" cy="378.0" r="3" fill="#F87171" opacity="0.31"/>
    <circle cx="971.1" cy="377.4" r="3" fill="#C084FC" opacity="0.60"/>
    <circle cx="1007.2" cy="376.5" r="3" fill="#A855F7" opacity="0.45"/>
    <circle cx="1064.4" cy="375.0" r="3" fill="#C084FC" opacity="0.32"/>
    <circle cx="1094.9" cy="378.4" r="3" fill="#DC2626" opacity="0.48"/>
    <circle cx="1123.3" cy="374.1" r="3" fill="#A855F7" opacity="0.68"/>
    <circle cx="1152.0" cy="374.3" r="3" fill="#F87171" opacity="0.57"/>
    <circle cx="13.5" cy="402.6" r="3" fill="#F87171" opacity="0.38"/>
    <circle cx="46.6" cy="402.8" r="3" fill="#A855F7" opacity="0.53"/>
    <circle cx="72.0" cy="403.9" r="3" fill="#F87171" opacity="0.56"/>
    <circle cx="108.2" cy="408.7" r="3" fill="#A855F7" opacity="0.59"/>
    <circle cx="162.8" cy="407.8" r="3" fill="#A855F7" opacity="0.64"/>
    <circle cx="191.7" cy="402.5" r="3" fill="#F87171" opacity="0.66"/>
    <circle cx="227.8" cy="404.8" r="3" fill="#F87171" opacity="0.72"/>
    <circle cx="254.4" cy="408.8" r="3" fill="#F87171" opacity="0.51"/>
    <circle cx="284.6" cy="406.6" r="3" fill="#C084FC" opacity="0.59"/>
    <circle cx="312.6" cy="403.5" r="3" fill="#C084FC" opacity="0.54"/>
    <circle cx="342.1" cy="408.9" r="3" fill="#F87171" opacity="0.78"/>
    <circle cx="407.7" cy="404.7" r="3" fill="#A855F7" opacity="0.80"/>
    <circle cx="734.7" cy="406.2" r="3" fill="#A855F7" opacity="0.54"/>
    <circle cx="761.5" cy="403.5" r="3" fill="#F87171" opacity="0.75"/>
    <circle cx="792.5" cy="405.6" r="3" fill="#DC2626" opacity="0.37"/>
    <circle cx="821.1" cy="402.8" r="3" fill="#A855F7" opacity="0.51"/>
    <circle cx="919.0" cy="404.1" r="3" fill="#C084FC" opacity="0.47"/>
    <circle cx="945.5" cy="402.4" r="3" fill="#DC2626" opacity="0.79"/>
    <circle cx="976.7" cy="406.9" r="3" fill="#EF4444" opacity="0.47"/>
    <circle cx="1038.6" cy="401.1" r="3" fill="#A855F7" opacity="0.51"/>
    <circle cx="1064.8" cy="401.3" r="3" fill="#EF4444" opacity="0.37"/>
    <circle cx="1093.5" cy="408.8" r="3" fill="#F87171" opacity="0.52"/>
    <circle cx="15.0" cy="437.4" r="3" fill="#A855F7" opacity="0.32"/>
    <circle cx="48.7" cy="433.4" r="3" fill="#EF4444" opacity="0.34"/>
    <circle cx="75.6" cy="436.5" r="3" fill="#C084FC" opacity="0.55"/>
    <circle cx="226.1" cy="432.7" r="3" fill="#C084FC" opacity="0.37"/>
    <circle cx="254.9" cy="432.1" r="3" fill="#A855F7" opacity="0.69"/>
    <circle cx="317.0" cy="431.1" r="3" fill="#F87171" opacity="0.48"/>
    <circle cx="345.0" cy="433.4" r="3" fill="#DC2626" opacity="0.35"/>
    <circle cx="491.6" cy="435.2" r="3" fill="#C084FC" opacity="0.50"/>
    <circle cx="582.0" cy="434.2" r="3" fill="#F87171" opacity="0.53"/>
    <circle cx="645.5" cy="437.5" r="3" fill="#DC2626" opacity="0.36"/>
    <circle cx="708.6" cy="432.0" r="3" fill="#EF4444" opacity="0.51"/>
    <circle cx="731.8" cy="433.1" r="3" fill="#A855F7" opacity="0.80"/>
    <circle cx="761.8" cy="437.8" r="3" fill="#F87171" opacity="0.79"/>
    <circle cx="793.6" cy="437.7" r="3" fill="#A855F7" opacity="0.73"/>
    <circle cx="884.7" cy="432.2" r="3" fill="#EF4444" opacity="0.70"/>
    <circle cx="914.9" cy="432.9" r="3" fill="#EF4444" opacity="0.79"/>
    <circle cx="1095.5" cy="437.6" r="3" fill="#C084FC" opacity="0.57"/>
    <circle cx="77.4" cy="461.4" r="3" fill="#A855F7" opacity="0.55"/>
    <circle cx="136.5" cy="464.0" r="3" fill="#A855F7" opacity="0.64"/>
    <circle cx="195.9" cy="461.3" r="3" fill="#EF4444" opacity="0.58"/>
    <circle cx="221.6" cy="463.4" r="3" fill="#EF4444" opacity="0.35"/>
    <circle cx="341.7" cy="462.3" r="3" fill="#DC2626" opacity="0.52"/>
    <circle cx="431.4" cy="462.6" r="3" fill="#EF4444" opacity="0.65"/>
    <circle cx="551.1" cy="465.6" r="3" fill="#A855F7" opacity="0.33"/>
    <circle cx="613.9" cy="466.0" r="3" fill="#C084FC" opacity="0.37"/>
    <circle cx="648.4" cy="467.3" r="3" fill="#EF4444" opacity="0.53"/>
    <circle cx="674.7" cy="464.1" r="3" fill="#F87171" opacity="0.38"/>
    <circle cx="708.4" cy="463.9" r="3" fill="#EF4444" opacity="0.68"/>
    <circle cx="737.4" cy="468.0" r="3" fill="#DC2626" opacity="0.52"/>
    <circle cx="767.3" cy="462.4" r="3" fill="#DC2626" opacity="0.71"/>
    <circle cx="1007.8" cy="468.5" r="3" fill="#C084FC" opacity="0.65"/>
    <circle cx="1037.0" cy="463.5" r="3" fill="#EF4444" opacity="0.53"/>
    <circle cx="12.8" cy="494.8" r="3" fill="#F87171" opacity="0.53"/>
    <circle cx="41.3" cy="492.4" r="3" fill="#F87171" opacity="0.49"/>
    <circle cx="75.5" cy="494.2" r="3" fill="#DC2626" opacity="0.63"/>
    <circle cx="105.3" cy="495.2" r="3" fill="#F87171" opacity="0.35"/>
    <circle cx="133.3" cy="497.5" r="3" fill="#C084FC" opacity="0.47"/>
    <circle cx="162.2" cy="495.8" r="3" fill="#DC2626" opacity="0.33"/>
    <circle cx="193.7" cy="491.8" r="3" fill="#DC2626" opacity="0.70"/>
    <circle cx="224.7" cy="494.9" r="3" fill="#DC2626" opacity="0.77"/>
    <circle cx="315.8" cy="497.8" r="3" fill="#A855F7" opacity="0.65"/>
    <circle cx="344.6" cy="493.1" r="3" fill="#DC2626" opacity="0.62"/>
    <circle cx="372.1" cy="496.7" r="3" fill="#F87171" opacity="0.42"/>
    <circle cx="464.5" cy="496.5" r="3" fill="#C084FC" opacity="0.59"/>
    <circle cx="496.6" cy="494.8" r="3" fill="#EF4444" opacity="0.58"/>
    <circle cx="554.0" cy="494.6" r="3" fill="#DC2626" opacity="0.78"/>
    <circle cx="583.6" cy="497.9" r="3" fill="#DC2626" opacity="0.35"/>
    <circle cx="617.2" cy="491.6" r="3" fill="#C084FC" opacity="0.32"/>
    <circle cx="641.4" cy="498.7" r="3" fill="#C084FC" opacity="0.45"/>
    <circle cx="672.4" cy="494.5" r="3" fill="#A855F7" opacity="0.62"/>
    <circle cx="766.9" cy="494.7" r="3" fill="#A855F7" opacity="0.64"/>
    <circle cx="825.6" cy="491.1" r="3" fill="#A855F7" opacity="0.74"/>
    <circle cx="915.7" cy="494.2" r="3" fill="#DC2626" opacity="0.67"/>
    <circle cx="1068.9" cy="494.8" r="3" fill="#EF4444" opacity="0.67"/>
    <circle cx="1156.6" cy="493.1" r="3" fill="#EF4444" opacity="0.78"/>
    <circle cx="41.9" cy="523.0" r="3" fill="#C084FC" opacity="0.78"/>
    <circle cx="75.3" cy="526.3" r="3" fill="#F87171" opacity="0.45"/>
    <circle cx="105.7" cy="522.0" r="3" fill="#DC2626" opacity="0.73"/>
    <circle cx="315.4" cy="523.3" r="3" fill="#F87171" opacity="0.56"/>
    <circle cx="376.9" cy="523.4" r="3" fill="#EF4444" opacity="0.78"/>
    <circle cx="582.8" cy="521.6" r="3" fill="#F87171" opacity="0.50"/>
    <circle cx="708.6" cy="521.4" r="3" fill="#DC2626" opacity="0.59"/>
    <circle cx="768.6" cy="527.9" r="3" fill="#EF4444" opacity="0.50"/>
    <circle cx="797.1" cy="522.7" r="3" fill="#EF4444" opacity="0.54"/>
    <circle cx="884.4" cy="521.4" r="3" fill="#F87171" opacity="0.39"/>
    <circle cx="1008.7" cy="521.2" r="3" fill="#A855F7" opacity="0.80"/>
    <circle cx="1122.5" cy="527.7" r="3" fill="#A855F7" opacity="0.31"/>
    <circle cx="13.0" cy="554.6" r="3" fill="#A855F7" opacity="0.50"/>
    <circle cx="44.6" cy="553.0" r="3" fill="#F87171" opacity="0.70"/>
    <circle cx="107.6" cy="558.0" r="3" fill="#A855F7" opacity="0.60"/>
    <circle cx="131.7" cy="556.8" r="3" fill="#C084FC" opacity="0.43"/>
    <circle cx="161.3" cy="554.6" r="3" fill="#DC2626" opacity="0.34"/>
    <circle cx="313.5" cy="552.4" r="3" fill="#A855F7" opacity="0.56"/>
    <circle cx="341.4" cy="554.7" r="3" fill="#DC2626" opacity="0.37"/>
    <circle cx="467.1" cy="557.8" r="3" fill="#DC2626" opacity="0.66"/>
    <circle cx="527.3" cy="553.4" r="3" fill="#F87171" opacity="0.52"/>
    <circle cx="582.1" cy="558.7" r="3" fill="#F87171" opacity="0.38"/>
    <circle cx="646.4" cy="552.3" r="3" fill="#F87171" opacity="0.42"/>
    <circle cx="764.2" cy="554.1" r="3" fill="#A855F7" opacity="0.49"/>
    <circle cx="794.2" cy="557.7" r="3" fill="#EF4444" opacity="0.49"/>
    <circle cx="828.7" cy="554.5" r="3" fill="#A855F7" opacity="0.74"/>
    <circle cx="857.6" cy="554.4" r="3" fill="#C084FC" opacity="0.45"/>
    <circle cx="943.6" cy="553.2" r="3" fill="#DC2626" opacity="0.65"/>
    <circle cx="1004.8" cy="556.6" r="3" fill="#DC2626" opacity="0.54"/>
    <circle cx="76.2" cy="581.9" r="3" fill="#F87171" opacity="0.35"/>
    <circle cx="226.7" cy="581.2" r="3" fill="#DC2626" opacity="0.77"/>
    <circle cx="343.9" cy="582.2" r="3" fill="#F87171" opacity="0.73"/>
    <circle cx="438.2" cy="587.3" r="3" fill="#DC2626" opacity="0.64"/>
    <circle cx="645.9" cy="588.0" r="3" fill="#A855F7" opacity="0.56"/>
    <circle cx="702.2" cy="583.1" r="3" fill="#EF4444" opacity="0.41"/>
    <circle cx="732.9" cy="588.8" r="3" fill="#EF4444" opacity="0.36"/>
    <circle cx="828.6" cy="587.7" r="3" fill="#C084FC" opacity="0.53"/>
    <circle cx="852.4" cy="582.2" r="3" fill="#C084FC" opacity="0.42"/>
    <circle cx="911.4" cy="588.8" r="3" fill="#A855F7" opacity="0.70"/>
    <circle cx="1064.2" cy="584.9" r="3" fill="#C084FC" opacity="0.35"/>
    <circle cx="341.5" cy="618.4" r="3" fill="#F87171" opacity="0.79"/>
    <circle cx="677.0" cy="617.2" r="3" fill="#EF4444" opacity="0.72"/>
    <circle cx="708.7" cy="614.7" r="3" fill="#C084FC" opacity="0.66"/>
    <circle cx="735.9" cy="617.6" r="3" fill="#F87171" opacity="0.69"/>
    <circle cx="827.7" cy="614.2" r="3" fill="#A855F7" opacity="0.77"/>
    <circle cx="882.8" cy="616.9" r="3" fill="#DC2626" opacity="0.62"/>
    <circle cx="1064.0" cy="612.5" r="3" fill="#EF4444" opacity="0.45"/>
    <circle cx="1098.0" cy="613.3" r="3" fill="#C084FC" opacity="0.47"/>
  </g>
</svg>