<svg xmlns="http://www.w3.org/2000/svg" width="1200" height="630" viewBox="0 0 1200 630">
  <rect width="1200" height="630" fill="#052e16"/>
  <!-- Wave overlay -->
  <path d="M0 315 Q300 252 600 315 T1200 315" stroke="#4B5563" stroke-width="1" fill="none" opacity="0.3"/>
  <!-- Game of Life cells -->
  <g>
    <circle cx="43.1" cy="13.5" r="3" fill="#34D399" opacity="0.49"/>
    <circle cx="72.6" cy="17.8" r="3" fill="#34D399" opacity="0.32"/>
    <circle cx="103.8" cy="16.2" r="3" fill="#10B981" opacity="0.32"/>
    <circle cx="135.6" cy="15.1" r="3" fill="#A7F3D0" opacity="0.41"/>
    <circle cx="195.0" cy="14.0" r="3" fill="#A7F3D0" opacity="0.59"/>
    <circle cx="285.1" cy="14.9" r="3" fill="#0EA5E9" opacity="0.75"/>
    <circle cx="317.8" cy="16.2" r="3" fill="#2ECC71" opacity="0.58"/>
    <circle cx="615.7" cy="18.6" r="3" fill="#10B981" opacity="0.68"/>
    <circle cx="645.5" cy="12.1" r="3" fill="#10B981" opacity="0.41"/>
    <circle cx="673.9" cy="13.3" r="3" fill="#34D399" opacity="0.45"/>
    <circle cx="731.8" cy="12.5" r="3" fill="#10B981" opacity="0.51"/>
    <circle cx="762.3" cy="11.3" r="3" fill="#0EA5E9" opacity="0.75"/>
    <circle cx="796.9" cy="16.2" r="3" fill="#10B981" opacity="0.64"/>
    <circle cx="822.4" cy="11.9" r="3" fill="#A7F3D0" opacity="0.76"/>
    <circle cx="857.2" cy="12.1" r="3" fill="#34D399" opacity="0.61"/>
    <circle cx="888.7" cy="12.8" r="3" fill="#A7F3D0" opacity="0.34"/>
    <circle cx="977.8" cy="15.4" r="3" fill="#34D399" opacity="0.47"/>
    <circle cx="1033.8" cy="13.8" r="3" fill="#10B981" opacity="0.54"/>
    <circle cx="1067.0" cy="11.9" r="3" fill="#34D399" opacity="0.61"/>
    <circle cx="1158.3" cy="13.6" r="3" fill="#2ECC71" opacity="0.54"/>
    <circle cx="1185.3" cy="11.1" r="3" fill="#10B981" opacity="0.58"/>
    <circle cx="43.0" cy="48.5" r="3" fill="#34D399" opacity="0.34"/>
    <circle cx="102.7" cy="45.1" r="3" fill="#2ECC71" opacity="0.50"/>
    <circle cx="134.0" cy="47.0" r="3" fill="#10B981" opacity="0.37"/>
    <circle cx="161.5" cy="45.0" r="3" fill="#A7F3D0" opacity="0.49"/>
    <circle cx="221.5" cy="45.0" r="3" fill="#2ECC71" opacity="0.79"/>
    <circle cx="311.3" cy="42.0" r="3" fill="#0EA5E9" opacity="0.54"/>
    <circle cx="432.6" cy="42.9" r="3" fill="#2ECC71" opacity="0.79"/>
    <circle cx="527.5" cy="44.2" r="3" fill="#A7F3D0" opacity="0.31"/>
    <circle cx="553.8" cy="44.1" r="3" fill="#A7F3D0" opacity="0.68"/>
    <circle cx="583.1" cy="48.9" r="3" fill="#2ECC71" opacity="0.72"/>
    <circle cx="611.9" cy="41.4" r="3" fill="#10B981" opacity="0.51"/>
    <circle cx="677.7" cy="43.9" r="3" fill="#34D399" opacity="0.65"/>
    <circle cx="706.7" cy="48.0" r="3" fill="#A7F3D0" opacity="0.49"/>
    <circle cx="733.1" cy="47.7" r="3" fill="#A7F3D0" opacity="0.50"/>
    <circle cx="764.1" cy="48.2" r="3" fill="#A7F3D0" opacity="0.54"/>
    <circle cx="791.0" cy="48.9" r="3" fill="#A7F3D0" opacity="0.61"/>
    <circle cx="888.8" cy="47.8" r="3" fill="#34D399" opacity="0.40"/>
    <circle cx="948.8" cy="43.9" r="3" fill="#0EA5E9" opacity="0.37"/>
    <circle cx="978.2" cy="48.6" r="3" fill="#A7F3D0" opacity="0.36"/>
    <circle cx="1188.5" cy="47.8" r="3" fill="#0EA5E9" opacity="0.66"/>
    <circle cx="42.7" cy="78.6" r="3" fill="#10B981" opacity="0.34"/>
    <circle cx="74.9" cy="76.3" r="3" fill="#2ECC71" opacity="0.43"/>
    <circle cx="108.2" cy="74.8" r="3" fill="#10B981" opacity="0.59"/>
    <circle cx="167.8" cy="73.5" r="3" fill="#2ECC71" opacity="0.76"/>
    <circle cx="198.2" cy="77.7" r="3" fill="#2ECC71" opacity="0.42"/>
    <circle cx="287.6" cy="71.8" r="3" fill="#2ECC71" opacity="0.63"/>
    <circle cx="317.2" cy="76.7" r="3" fill="#34D399" opacity="0.51"/>
    <circle cx="347.3" cy="78.0" r="3" fill="#10B981" opacity="0.39"/>
    <circle cx="372.1" cy="76.5" r="3" fill="#34D399" opacity="0.41"/>
    <circle cx="466.1" cy="71.6" r="3" fill="#34D399" opacity="0.33"/>
    <circle cx="612.1" cy="71.7" r="3" fill="#10B981" opacity="0.60"/>
    <circle cx="703.4" cy="77.6" r="3" fill="#34D399" opacity="0.37"/>
    <circle cx="731.1" cy="73.0" r="3" fill="#2ECC71" opacity="0.50"/>
    <circle cx="766.6" cy="71.2" r="3" fill="#10B981" opacity="0.44"/>
    <circle cx="822.4" cy="71.3" r="3" fill="#A7F3D0" opacity="0.42"/>
    <circle cx="857.0" cy="76.2" r="3" fill="#2ECC71" opacity="0.59"/>
    <circle cx="972.5" cy="71.0" r="3" fill="#34D399" opacity="0.42"/>
    <circle cx="1153.5" cy="77.2" r="3" fill="#10B981" opacity="0.58"/>
    <circle cx="46.0" cy="105.8" r="3" fill="#34D399" opacity="0.53"/>
    <circle cx="77.2" cy="107.8" r="3" fill="#10B981" opacity="0.56"/>
    <circle cx="131.4" cy="102.5" r="3" fill="#A7F3D0" opacity="0.68"/>
    <circle cx="223.2" cy="102.6" r="3" fill="#A7F3D0" opacity="0.77"/>
    <circle cx="256.3" cy="108.8" r="3" fill="#2ECC71" opacity="0.50"/>
    <circle cx="288.3" cy="101.8" r="3" fill="#34D399" opacity="0.35"/>
    <circle cx="346.0" cy="106.7" r="3" fill="#A7F3D0" opacity="0.56"/>
    <circle cx="618.3" cy="101.3" r="3" fill="#0EA5E9" opacity="0.73"/>
    <circle cx="707.7" cy="104.8" r="3" fill="#A7F3D0" opacity="0.66"/>
    <circle cx="731.7" cy="108.7" r="3" fill="#0EA5E9" opacity="0.36"/>
    <circle cx="762.1" cy="108.5" r="3" fill="#0EA5E9" opacity="0.36"/>
    <circle cx="825.0" cy="107.9" r="3" fill="#A7F3D0" opacity="0.32"/>
    <circle cx="851.2" cy="102.1" r="3" fill="#2ECC71" opacity="0.58"/>
    <circle cx="918.6" cy="102.1" r="3" fill="#34D399" opacity="0.68"/>
    <circle cx="1183.3" cy="104.9" r="3" fill="#2ECC71" opacity="0.52"/>
    <circle cx="44.7" cy="135.9" r="3" fill="#2ECC71" opacity="0.40"/>
    <circle cx="102.1" cy="133.0" r="3" fill="#2ECC71" opacity="0.48"/>
    <circle cx="135.4" cy="132.2" r="3" fill="#A7F3D0" opacity="0.80"/>
    <circle cx="165.4" cy="137.0" r="3" fill="#0EA5E9" opacity="0.32"/>
    <circle cx="254.6" cy="137.3" r="3" fill="#A7F3D0" opacity="0.55"/>
    <circle cx="496.0" cy="138.5" r="3" fill="#0EA5E9" opacity="0.59"/>
    <circle cx="644.4" cy="131.7" r="3" fill="#34D399" opacity="0.32"/>
    <circle cx="855.8" cy="137.4" r="3" fill="#0EA5E9" opacity="0.66"/>
    <circle cx="881.2" cy="131.3" r="3" fill="#34D399" opacity="0.76"/>
    <circle cx="1092.1" cy="136.7" r="3" fill="#34D399" opacity="0.46"/>
    <circle cx="1156.6" cy="134.9" r="3" fill="#0EA5E9" opacity="0.66"/>
    <circle cx="42.7" cy="162.8" r="3" fill="#10B981" opacity="0.68"/>
    <circle cx="168.6" cy="164.6" r="3" fill="#2ECC71" opacity="0.61"/>
    <circle cx="346.7" cy="163.2" r="3" fill="#0EA5E9" opacity="0.48"/>
    <circle cx="433.4" cy="162.2" r="3" fill="#2ECC71" opacity="0.59"/>
    <circle cx="463.6" cy="161.7" r="3" fill="#2ECC71" opacity="0.47"/>
    <circle cx="493.6" cy="161.5" r="3" fill="#A7F3D0" opacity="0.62"/>
    <circle cx="586.8" cy="168.9" r="3" fill="#A7F3D0" opacity="0.51"/>
    <circle cx="644.6" cy="164.6" r="3" fill="#2ECC71" opacity="0.75"/>
    <circle cx="732.9" cy="165.1" r="3" fill="#10B981" opacity="0.35"/>
    <circle cx="766.4" cy="168.8" r="3" fill="#0EA5E9" opacity="0.38"/>
    <circle cx="822.1" cy="161.3" r="3" fill="#10B981" opacity="0.36"/>
    <circle cx="855.7" cy="161.2" r="3" fill="#A7F3D0" opacity="0.73"/>
    <circle cx="1127.4" cy="166.8" r="3" fill="#2ECC71" opacity="0.42"/>
    <circle cx="45.6" cy="191.8" r="3" fill="#A7F3D0" opacity="0.54"/>
    <circle cx="164.9" cy="191.7" r="3" fill="#0EA5E9" opacity="0.73"/>
    <circle cx="252.7" cy="195.0" r="3" fill="#2ECC71" opacity="0.77"/>
    <circle cx="341.9" cy="198.6" r="3" fill="#2ECC71" opacity="0.79"/>
    <circle cx="407.0" cy="197.8" r="3" fill="#34D399" opacity="0.70"/>
    <circle cx="584.9" cy="196.6" r="3" fill="#2ECC71" opacity="0.76"/>
    <circle cx="764.2" cy="194.8" r="3" fill="#2ECC71" opacity="0.79"/>
    <circle cx="797.1" cy="194.8" r="3" fill="#2ECC71" opacity="0.75"/>
    <circle cx="826.7" cy="192.7" r="3" fill="#0EA5E9" opacity="0.77"/>
    <circle cx="978.6" cy="192.8" r="3" fill="#2ECC71" opacity="0.74"/>
    <circle cx="1154.8" cy="196.4" r="3" fill="#2ECC71" opacity="0.80"/>
    <circle cx="46.9" cy="224.0" r="3" fill="#A7F3D0" opacity="0.55"/>
    <circle cx="165.1" cy="226.9" r="3" fill="#10B981" opacity="0.68"/>
    <circle cx="283.8" cy="225.0" r="3" fill="#A7F3D0" opacity="0.60"/>
    <circle cx="795.1" cy="227.9" r="3" fill="#10B981" opacity="0.55"/>
    <circle cx="856.9" cy="226.9" r="3" fill="#10B981" opacity="0.52"/>
    <circle cx="885.3" cy="223.9" r="3" fill="#10B981" opacity="0.76"/>
    <circle cx="1002.8" cy="222.3" r="3" fill="#10B981" opacity="0.71"/>
    <circle cx="1184.8" cy="226.0" r="3" fill="#A7F3D0" opacity="0.53"/>
    <circle cx="11.8" cy="258.7" r="3" fill="#0EA5E9" opacity="0.58"/>
    <circle cx="45.3" cy="251.9" r="3" fill="#2ECC71" opacity="0.39"/>
    <circle cx="77.2" cy="253.8" r="3" fill="#2ECC71" opacity="0.36"/>
    <circle cx="197.1" cy="258.7" r="3" fill="#2ECC71" opacity="0.35"/>
    <circle cx="286.1" cy="257.5" r="3" fill="#34D399" opacity="0.31"/>
    <circle cx="348.5" cy="251.4" r="3" fill="#A7F3D0" opacity="0.76"/>
    <circle cx="466.7" cy="255.6" r="3" fill="#10B981" opacity="0.67"/>
    <circle cx="523.2" cy="258.3" r="3" fill="#A7F3D0" opacity="0.44"/>
    <circle cx="588.4" cy="258.4" r="3" fill="#34D399" opacity="0.48"/>
    <circle cx="644.3" cy="255.0" r="3" fill="#0EA5E9" opacity="0.38"/>
    <circle cx="703.0" cy="257.2" r="3" fill="#0EA5E9" opacity="0.56"/>
    <circle cx="885.2" cy="256.6" r="3" fill="#2ECC71" opacity="0.73"/>
    <circle cx="916.2" cy="253.5" r="3" fill="#A7F3D0" opacity="0.74"/>
    <circle cx="948.9" cy="258.4" r="3" fill="#A7F3D0" opacity="0.52"/>
    <circle cx="1037.2" cy="258.9" r="3" fill="#A7F3D0" opacity="0.67"/>
    <circle cx="1188.0" cy="256.2" r="3" fill="#0EA5E9" opacity="0.40"/>
    <circle cx="75.0" cy="288.7" r="3" fill="#A7F3D0" opacity="0.39"/>
    <circle cx="108.6" cy="284.0" r="3" fill="#34D399" opacity="0.47"/>
    <circle cx="191.1" cy="282.8" r="3" fill="#0EA5E9" opacity="0.66"/>
    <circle cx="222.4" cy="282.0" r="3" fill="#0EA5E9" opacity="0.77"/>
    <circle cx="256.5" cy="283.3" r="3" fill="#10B981" opacity="0.56"/>
    <circle cx="348.5" cy="284.4" r="3" fill="#34D399" opacity="0.66"/>
    <circle cx="407.8" cy="286.6" r="3" fill="#A7F3D0" opacity="0.55"/>
    <circle cx="496.2" cy="286.5" r="3" fill="#A7F3D0" opacity="0.65"/>
    <circle cx="612.3" cy="285.3" r="3" fill="#34D399" opacity="0.67"/>
    <circle cx="645.9" cy="281.1" r="3" fill="#34D399" opacity="0.75"/>
    <circle cx="676.3" cy="281.4" r="3" fill="#34D399" opacity="0.55"/>
    <circle cx="767.6" cy="288.8" r="3" fill="#0EA5E9" opacity="0.58"/>
    <circle cx="794.0" cy="281.2" r="3" fill="#34D399" opacity="0.39"/>
    <circle cx="852.4" cy="286.0" r="3" fill="#10B981" opacity="0.44"/>
    <circle cx="884.6" cy="286.3" r="3" fill="#10B981" opacity="0.77"/>
    <circle cx="945.4" cy="287.0" r="3" fill="#34D399" opacity="0.65"/>
    <circle cx="1097.9" cy="284.6" r="3" fill="#34D399" opacity="0.41"/>
    <circle cx="1185.8" cy="285.3" r="3" fill="#A7F3D0" opacity="0.43"/>
    <circle cx="48.3" cy="312.9" r="3" fill="#34D399" opacity="0.69"/>
    <circle cx="73.2" cy="316.7" r="3" fill="#2ECC71" opacity="0.30"/>
    <circle cx="197.9" cy="313.1" r="3" fill="#0EA5E9" opacity="0.78"/>
    <circle cx="227.4" cy="316.0" r="3" fill="#2ECC71" opacity="0.38"/>
    <circle cx="257.4" cy="311.0" r="3" fill="#2ECC71" opacity="0.61"/>
    <circle cx="377.6" cy="314.2" r="3" fill="#A7F3D0" opacity="0.63"/>
    <circle cx="677.3" cy="312.6" r="3" fill="#10B981" opacity="0.78"/>
    <circle cx="1033.8" cy="315.9" r="3" fill="#10B981" opacity="0.56"/>
    <circle cx="15.9" cy="341.1" r="3" fill="#10B981" opacity="0.73"/>
    <circle cx="137.2" cy="348.9" r="3" fill="#A7F3D0" opacity="0.73"/>
    <circle cx="288.9" cy="345.1" r="3" fill="#0EA5E9" opacity="0.61"/>
    <circle cx="437.9" cy="343.9" r="3" fill="#2ECC71" opacity="0.55"/>
    <circle cx="464.8" cy="344.7" r="3" fill="#34D399" opacity="0.71"/>
    <circle cx="498.6" cy="346.4" r="3" fill="#10B981" opacity="0.32"/>
    <circle cx="557.8" cy="347.0" r="3" fill="#0EA5E9" opacity="0.51"/>
    <circle cx="672.3" cy="346.6" r="3" fill="#10B981" opacity="0.47"/>
    <circle cx="735.2" cy="342.7" r="3" fill="#10B981" opacity="0.45"/>
    <circle cx="826.7" cy="343.6" r="3" fill="#0EA5E9" opacity="0.35"/>
    <circle cx="976.2" cy="341.6" r="3" fill="#10B981" opacity="0.36"/>
    <circle cx="16.9" cy="378.7" r="3" fill="#34D399" opacity="0.42"/>
    <circle cx="47.5" cy="377.0" r="3" fill="#0EA5E9" opacity="0.56"/>
    <circle cx="107.6" cy="373.5" r="3" fill="#0EA5E9" opacity="0.73"/>
    <circle cx="136.2" cy="375.6" r="3" fill="#10B981" opacity="0.46"/>
    <circle cx="192.1" cy="376.0" r="3" fill="#0EA5E9" opacity="0.57"/>
    <circle cx="223.5" cy="373.9" r="3" fill="#2ECC71" opacity="0.51"/>
    <circle cx="317.4" cy="376.6" r="3" fill="#2ECC71" opacity="0.54"/>
    <circle cx="374.6" cy="376.7" r="3" fill="#A7F3D0" opacity="0.40"/>
    <circle cx="405.2" cy="377.0" r="3" fill="#A7F3D0" opacity="0.60"/>
    <circle cx="431.4" cy="372.9" r="3" fill="#A7F3D0" opacity="0.65"/>
    <circle cx="497.8" cy="374.5" r="3" fill="#34D399" opacity="0.72"/>
    <circle cx="558.0" cy="371.1" r="3" fill="#A7F3D0" opacity="0.39"/>
    <circle cx="588.2" cy="372.7" r="3" fill="#10B981" opacity="0.48"/>
    <circle cx="641.2" cy="373.9" r="3" fill="#0EA5E9" opacity="0.49"/>
    <circle cx="671.3" cy="377.0" r="3" fill="#10B981" opacity="0.62"/>
    <circle cx="798.2" cy="371.5" r="3" fill="#10B981" opacity="0.49"/>
    <circle cx="825.2" cy="375.6" r="3" fill="#10B981" opacity="0.46"/>
    <circle cx="882.5" cy="376.4" r="3" fill="#10B981" opacity="0.41"/>
    <circle cx="915.4" cy="373.5" r="3" fill="#0EA5E9" opacity="0.56"/>
    <circle cx="972.9" cy="376.2" r="3" fill="#A7F3D0" opacity="0.73"/>
    <circle cx="1091.9" cy="371.6" r="3" fill="#2ECC71" opacity="0.54"/>
    <circle cx="1123.2" cy="377.9" r="3" fill="#2ECC71" opacity="0.47"/>
    <circle cx="1184.3" cy="376.0" r="3" fill="#A7F3D0" opacity="0.79"/>
    <circle cx="19.0" cy="401.8" r="3" fill="#10B981" opacity="0.56"/>
    <circle cx="42.9" cy="408.0" r="3" fill="#0EA5E9" opacity="0.40"/>
    <circle cx="72.1" cy="402.4" r="3" fill="#2ECC71" opacity="0.57"/>
    <circle cx="101.5" cy="402.8" r="3" fill="#0EA5E9" opacity="0.59"/>
    <circle cx="169.0" cy="407.4" r="3" fill="#2ECC71" opacity="0.75"/>
    <circle cx="283.6" cy="407.3" r="3" fill="#10B981" opacity="0.45"/>
    <circle cx="314.7" cy="403.1" r="3" fill="#10B981" opacity="0.34"/>
    <circle cx="435.9" cy="407.2" r="3" fill="#0EA5E9" opacity="0.51"/>
    <circle cx="465.0" cy="401.9" r="3" fill="#34D399" opacity="0.42"/>
    <circle cx="587.6" cy="406.5" r="3" fill="#0EA5E9" opacity="0.77"/>
    <circle cx="616.2" cy="408.1" r="3" fill="#10B981" opacity="0.73"/>
    <circle cx="643.0" cy="406.4" r="3" fill="#A7F3D0" opacity="0.67"/>
    <circle cx="704.8" cy="406.7" r="3" fill="#A7F3D0" opacity="0.45"/>
    <circle cx="735.9" cy="404.4" r="3" fill="#10B981" opacity="0.42"/>
    <circle cx="764.0" cy="401.1" r="3" fill="#10B981" opacity="0.55"/>
    <circle cx="793.1" cy="405.2" r="3" fill="#10B981" opacity="0.68"/>
    <circle cx="821.3" cy="406.1" r="3" fill="#0EA5E9" opacity="0.35"/>
    <circle cx="858.9" cy="402.8" r="3" fill="#34D399" opacity="0.68"/>
    <circle cx="883.7" cy="402.3" r="3" fill="#A7F3D0" opacity="0.49"/>
    <circle cx="1038.5" cy="407.9" r="3" fill="#34D399" opacity="0.70"/>
    <circle cx="1067.2" cy="407.7" r="3" fill="#2ECC71" opacity="0.75"/>
    <circle cx="1185.5" cy="407.0" r="3" fill="#10B981" opacity="0.52"/>
    <circle cx="48.5" cy="434.8" r="3" fill="#A7F3D0" opacity="0.47"/>
    <circle cx="378.8" cy="433.8" r="3" fill="#10B981" opacity="0.39"/>
    <circle cx="492.2" cy="432.1" r="3" fill="#2ECC71" opacity="0.43"/>
    <circle cx="521.6" cy="431.7" r="3" fill="#34D399" opacity="0.54"/>
    <circle cx="583.4" cy="431.7" r="3" fill="#34D399" opacity="0.72"/>
    <circle cx="613.0" cy="437.9" r="3" fill="#A7F3D0" opacity="0.74"/>
    <circle cx="705.0" cy="438.7" r="3" fill="#0EA5E9" opacity="0.67"/>
    <circle cx="767.1" cy="431.5" r="3" fill="#A7F3D0" opacity="0.36"/>
    <circle cx="825.2" cy="436.7" r="3" fill="#A7F3D0" opacity="0.44"/>
    <circle cx="883.4" cy="437.8" r="3" fill="#10B981" opacity="0.55"/>
    <circle cx="918.1" cy="437.0" r="3" fill="#A7F3D0" opacity="0.58"/>
    <circle cx="978.3" cy="437.1" r="3" fill="#A7F3D0" opacity="0.35"/>
    <circle cx="1067.1" cy="435.9" r="3" fill="#10B981" opacity="0.72"/>
    <circle cx="77.1" cy="468.3" r="3" fill="#A7F3D0" opacity="0.73"/>
    <circle cx="135.4" cy="465.3" r="3" fill="#A7F3D0" opacity="0.37"/>
    <circle cx="162.0" cy="467.8" r="3" fill="#2ECC71" opacity="0.61"/>
    <circle cx="228.4" cy="463.7" r="3" fill="#2ECC71" opacity="0.43"/>
    <circle cx="254.2" cy="463.4" r="3" fill="#2ECC71" opacity="0.78"/>
    <circle cx="287.0" cy="461.7" r="3" fill="#0EA5E9" opacity="0.42"/>
    <circle cx="317.7" cy="462.0" r="3" fill="#2ECC71" opacity="0.80"/>
    <circle cx="408.7" cy="463.0" r="3" fill="#34D399" opacity="0.63"/>
    <circle cx="432.6" cy="465.4" r="3" fill="#2ECC71" opacity="0.42"/>
    <circle cx="522.9" cy="465.5" r="3" fill="#10B981" opacity="0.50"/>
    <circle cx="644.9" cy="466.3" r="3" fill="#0EA5E9" opacity="0.62"/>
    <circle cx="678.0" cy="467.0" r="3" fill="#2ECC71" opacity="0.58"/>
    <circle cx="821.4" cy="467.3" r="3" fill="#34D399" opacity="0.79"/>
    <circle cx="856.6" cy="468.3" r="3" fill="#10B981" opacity="0.70"/>
    <circle cx="885.9" cy="465.8" r="3" fill="#2ECC71" opacity="0.75"/>
    <circle cx="942.8" cy="468.0" r="3" fill="#2ECC71" opacity="0.43"/>
    <circle cx="72.7" cy="498.4" r="3" fill="#A7F3D0" opacity="0.66"/>
    <circle cx="133.4" cy="492.2" r="3" fill="#10B981" opacity="0.74"/>
    <circle cx="191.1" cy="494.2" r="3" fill="#34D399" opacity="0.44"/>
    <circle cx="224.8" cy="492.6" r="3" fill="#A7F3D0" opacity="0.55"/>
    <circle cx="252.7" cy="492.1" r="3" fill="#2ECC71" opacity="0.58"/>
    <circle cx="373.1" cy="496.9" r="3" fill="#34D399" opacity="0.44"/>
    <circle cx="401.7" cy="492.4" r="3" fill="#A7F3D0" opacity="0.57"/>
    <circle cx="496.2" cy="492.2" r="3" fill="#10B981" opacity="0.46"/>
    <circle cx="584.3" cy="498.8" r="3" fill="#2ECC71" opacity="0.35"/>
    <circle cx="647.1" cy="498.0" r="3" fill="#34D399" opacity="0.72"/>
    <circle cx="678.3" cy="498.0" r="3" fill="#34D399" opacity="0.54"/>
    <circle cx="703.5" cy="495.6" r="3" fill="#34D399" opacity="0.36"/>
    <circle cx="856.3" cy="497.3" r="3" fill="#2ECC71" opacity="0.67"/>
    <circle cx="1002.6" cy="494.5" r="3" fill="#34D399" opacity="0.62"/>
    <circle cx="1068.7" cy="496.6" r="3" fill="#34D399" opacity="0.37"/>
    <circle cx="14.3" cy="526.5" r="3" fill="#34D399" opacity="0.52"/>
    <circle cx="105.3" cy="528.4" r="3" fill="#0EA5E9" opacity="0.75"/>
    <circle cx="133.9" cy="527.8" r="3" fill="#0EA5E9" opacity="0.48"/>
    <circle cx="164.5" cy="526.1" r="3" fill="#0EA5E9" opacity="0.54"/>
    <circle cx="191.8" cy="524.7" r="3" fill="#0EA5E9" opacity="0.36"/>
    <circle cx="227.0" cy="524.9" r="3" fill="#10B981" opacity="0.80"/>
    <circle cx="256.4" cy="523.8" r="3" fill="#2ECC71" opacity="0.68"/>
    <circle cx="313.0" cy="526.9" r="3" fill="#34D399" opacity="0.64"/>
    <circle cx="377.7" cy="524.0" r="3" fill="#34D399" opacity="0.73"/>
    <circle cx="618.5" cy="528.4" r="3" fill="#2ECC71" opacity="0.72"/>
    <circle cx="643.6" cy="526.1" r="3" fill="#10B981" opacity="0.46"/>
    <circle cx="674.5" cy="523.2" r="3" fill="#2ECC71" opacity="0.56"/>
    <circle cx="767.5" cy="526.3" r="3" fill="#0EA5E9" opacity="0.48"/>
    <circle cx="886.2" cy="524.2" r="3" fill="#10B981" opacity="0.68"/>
    <circle cx="911.4" cy="527.1" r="3" fill="#2ECC71" opacity="0.69"/>
    <circle cx="978.6" cy="522.7" r="3" fill="#A7F3D0" opacity="0.39"/>
    <circle cx="1066.3" cy="526.0" r="3" fill="#A7F3D0" opacity="0.71"/>
    <circle cx="1098.4" cy="528.3" r="3" fill="#34D399" opacity="0.47"/>
    <circle cx="1184.9" cy="524.7" r="3" fill="#34D399" opacity="0.76"/>
    <circle cx="106.0" cy="553.7" r="3" fill="#0EA5E9" opacity="0.60"/>
    <circle cx="165.5" cy="558.7" r="3" fill="#A7F3D0" opacity="0.60"/>
    <circle cx="196.4" cy="554.3" r="3" fill="#34D399" opacity="0.63"/>
    <circle cx="287.4" cy="556.2" r="3" fill="#2ECC71" opacity="0.46"/>
    <circle cx="377.3" cy="556.4" r="3" fill="#34D399" opacity="0.38"/>
    <circle cx="405.7" cy="551.6" r="3" fill="#2ECC71" opacity="0.70"/>
    <circle cx="497.8" cy="552.6" r="3" fill="#0EA5E9" opacity="0.38"/>
    <circle cx="581.4" cy="551.3" r="3" fill="#10B981" opacity="0.44"/>
    <circle cx="701.0" cy="553.3" r="3" fill="#34D399" opacity="0.79"/>
    <circle cx="735.2" cy="553.6" r="3" fill="#34D399" opacity="0.57"/>
    <circle cx="768.8" cy="553.0" r="3" fill="#A7F3D0" opacity="0.46"/>
    <circle cx="797.6" cy="552.8" r="3" fill="#A7F3D0" opacity="0.44"/>
    <circle cx="825.4" cy="555.5" r="3" fill="#0EA5E9" opacity="0.32"/>
    <circle cx="881.6" cy="557.1" r="3" fill="#2ECC71" opacity="0.50"/>
    <circle cx="911.3" cy="556.5" r="3" fill="#A7F3D0" opacity="0.67"/>
    <circle cx="978.1" cy="558.3" r="3" fill="#A7F3D0" opacity="0.32"/>
    <circle cx="1182.0" cy="551.6" r="3" fill="#A7F3D0" opacity="0.33"/>
    <circle cx="107.9" cy="587.2" r="3" fill="#0EA5E9" opacity="0.68"/>
    <circle cx="136.8" cy="588.9" r="3" fill="#0EA5E9" opacity="0.76"/>
    <circle cx="221.5" cy="586.8" r="3" fill="#10B981" opacity="0.53"/>
    <circle cx="313.8" cy="586.1" r="3" fill="#A7F3D0" opacity="0.32"/>
    <circle cx="491.2" cy="587.0" r="3" fill="#0EA5E9" opacity="0.36"/>
    <circle cx="521.7" cy="584.1" r="3" fill="#10B981" opacity="0.59"/>
    <circle cx="551.1" cy="583.6" r="3" fill="#10B981" opacity="0.72"/>
    <circle cx="646.0" cy="586.9" r="3" fill="#0EA5E9" opacity="0.41"/>
    <circle cx="703.5" cy="581.6" r="3" fill="#10B981" opacity="0.48"/>
    <circle cx="735.1" cy="587.9" r="3" fill="#10B981" opacity="0.60"/>
    <circle cx="796.4" cy="584.9" r="3" fill="#34D399" opacity="0.72"/>
    <circle cx="855.2" cy="588.5" r="3" fill="#34D399" opacity="0.39"/>
    <circle cx="884.4" cy="586.6" r="3" fill="#10B981" opacity="0.73"/>
    <circle cx="1065.6" cy="582.8" r="3" fill="#34D399" opacity="0.77"/>
    <circle cx="1158.1" cy="581.1" r="3" fill="#10B981" opacity="0.75"/>
    <circle cx="1188.0" cy="586.4" r="3" fill="#A7F3D0" opacity="0.59"/>
    <circle cx="18.3" cy="618.1" r="3" fill="#10B981" opacity="0.73"/>
    <circle cx="48.4" cy="616.8" r="3" fill="#0EA5E9" opacity="0.45"/>
    <circle cx="74.8" cy="615.3" r="3" fill="#2ECC71" opacity="0.33"/>
    <circle cx="311.4" cy="611.2" r="3" fill="#10B981" opacity="0.59"/>
    <circle cx="464.7" cy="616.9" r="3" fill="#A7F3D0" opacity="0.32"/>
    <circle cx="558.9" cy="616.6" r="3" fill="#0EA5E9" opacity="0.70"/>
    <circle cx="612.9" cy="617.0" r="3" fill="#34D399" opacity="0.56"/>
    <circle cx="679.0" cy="616.0" r="3" fill="#34D399" opacity="0.63"/>
    <circle cx="702.9" cy="613.9" r="3" fill="#A7F3D0" opacity="0.58"/>
    <circle cx="763.7" cy="617.9" r="3" fill="#34D399" opacity="0.37"/>
    <circle cx="796.1" cy="617.7" r="3" fill="#10B981" opacity="0.76"/>
    <circle cx="856.0" cy="618.5" r="3" fill="#34D399" opacity="0.80"/>
    <circle cx="1095.1" cy="616.4" r="3" fill="#34D399" opacity="0.46"/>
    <circle cx="1159.0" cy="613.0" r="3" fill="#A7F3D0" opacity="0.35"/>
  </g>
</svg>