<svg xmlns="http://www.w3.org/2000/svg" width="1200" height="630" viewBox="0 0 1200 630">
  <rect width="1200" height="630" fill="#0a0a0a"/>
  <!-- Wave overlay -->
  <path d="M0 315 Q300 252 600 315 T1200 315" stroke="#4B5563" stroke-width="1" fill="none" opacity="0.3"/>
  <!-- Game of Life cells -->
  <g>
    <circle cx="11.3" cy="16.2" r="3" fill="#BE185D" opacity="0.45"/>
    <circle cx="45.2" cy="12.2" r="3" fill="#34D399" opacity="0.46"/>
    <circle cx="78.9" cy="16.6" r="3" fill="#BE185D" opacity="0.66"/>
    <circle cx="108.0" cy="17.8" r="3" fill="#10B981" opacity="0.52"/>
    <circle cx="166.5" cy="18.0" r="3" fill="#10B981" opacity="0.67"/>
    <circle cx="197.4" cy="18.0" r="3" fill="#EC4899" opacity="0.74"/>
    <circle cx="281.5" cy="17.1" r="3" fill="#EC4899" opacity="0.43"/>
    <circle cx="348.9" cy="14.5" r="3" fill="#EC4899" opacity="0.67"/>
    <circle cx="498.8" cy="11.2" r="3" fill="#10B981" opacity="0.54"/>
    <circle cx="553.4" cy="12.2" r="3" fill="#BE185D" opacity="0.56"/>
    <circle cx="737.0" cy="18.1" r="3" fill="#BE185D" opacity="0.71"/>
    <circle cx="796.6" cy="17.0" r="3" fill="#10B981" opacity="0.32"/>
    <circle cx="826.4" cy="11.7" r="3" fill="#34D399" opacity="0.32"/>
    <circle cx="854.3" cy="18.6" r="3" fill="#34D399" opacity="0.38"/>
    <circle cx="1002.9" cy="12.1" r="3" fill="#BE185D" opacity="0.52"/>
    <circle cx="1097.8" cy="12.6" r="3" fill="#10B981" opacity="0.57"/>
    <circle cx="1154.8" cy="18.5" r="3" fill="#F472B6" opacity="0.42"/>
    <circle cx="1181.5" cy="15.0" r="3" fill="#34D399" opacity="0.32"/>
    <circle cx="11.7" cy="47.3" r="3" fill="#EC4899" opacity="0.36"/>
    <circle cx="103.6" cy="45.9" r="3" fill="#10B981" opacity="0.60"/>
    <circle cx="132.6" cy="46.5" r="3" fill="#34D399" opacity="0.64"/>
    <circle cx="166.3" cy="46.0" r="3" fill="#F472B6" opacity="0.45"/>
    <circle cx="193.8" cy="42.9" r="3" fill="#10B981" opacity="0.42"/>
    <circle cx="461.1" cy="46.7" r="3" fill="#BE185D" opacity="0.44"/>
    <circle cx="521.2" cy="44.3" r="3" fill="#34D399" opacity="0.59"/>
    <circle cx="553.5" cy="47.2" r="3" fill="#BE185D" opacity="0.53"/>
    <circle cx="612.5" cy="49.0" r="3" fill="#10B981" opacity="0.65"/>
    <circle cx="647.5" cy="42.4" r="3" fill="#F472B6" opacity="0.63"/>
    <circle cx="851.5" cy="45.3" r="3" fill="#F472B6" opacity="0.64"/>
    <circle cx="911.5" cy="44.1" r="3" fill="#F472B6" opacity="0.64"/>
    <circle cx="947.2" cy="44.8" r="3" fill="#F472B6" opacity="0.43"/>
    <circle cx="973.8" cy="48.6" r="3" fill="#10B981" opacity="0.75"/>
    <circle cx="1006.9" cy="41.4" r="3" fill="#F472B6" opacity="0.67"/>
    <circle cx="1037.9" cy="41.0" r="3" fill="#EC4899" opacity="0.73"/>
    <circle cx="1065.6" cy="43.8" r="3" fill="#BE185D" opacity="0.35"/>
    <circle cx="1123.8" cy="45.8" r="3" fill="#F472B6" opacity="0.71"/>
    <circle cx="1156.5" cy="45.2" r="3" fill="#BE185D" opacity="0.55"/>
    <circle cx="1186.5" cy="41.4" r="3" fill="#34D399" opacity="0.58"/>
    <circle cx="102.2" cy="73.2" r="3" fill="#F472B6" opacity="0.72"/>
    <circle cx="131.0" cy="72.9" r="3" fill="#BE185D" opacity="0.60"/>
    <circle cx="168.0" cy="75.4" r="3" fill="#F472B6" opacity="0.35"/>
    <circle cx="252.0" cy="77.4" r="3" fill="#BE185D" opacity="0.31"/>
    <circle cx="314.6" cy="72.2" r="3" fill="#EC4899" opacity="0.72"/>
    <circle cx="736.0" cy="77.7" r="3" fill="#10B981" opacity="0.38"/>
    <circle cx="765.5" cy="72.0" r="3" fill="#10B981" opacity="0.66"/>
    <circle cx="798.7" cy="74.0" r="3" fill="#EC4899" opacity="0.32"/>
    <circle cx="821.4" cy="72.7" r="3" fill="#BE185D" opacity="0.38"/>
    <circle cx="851.5" cy="72.9" r="3" fill="#EC4899" opacity="0.51"/>
    <circle cx="885.6" cy="75.5" r="3" fill="#F472B6" opacity="0.35"/>
    <circle cx="917.1" cy="71.4" r="3" fill="#BE185D" opacity="0.56"/>
    <circle cx="1124.2" cy="71.1" r="3" fill="#BE185D" opacity="0.41"/>
    <circle cx="1183.8" cy="73.8" r="3" fill="#EC4899" opacity="0.58"/>
    <circle cx="102.9" cy="105.2" r="3" fill="#BE185D" opacity="0.46"/>
    <circle cx="194.4" cy="103.7" r="3" fill="#BE185D" opacity="0.65"/>
    <circle cx="403.4" cy="107.7" r="3" fill="#F472B6" opacity="0.52"/>
    <circle cx="435.4" cy="107.5" r="3" fill="#34D399" opacity="0.52"/>
    <circle cx="524.8" cy="106.4" r="3" fill="#F472B6" opacity="0.38"/>
    <circle cx="586.3" cy="104.1" r="3" fill="#BE185D" opacity="0.70"/>
    <circle cx="671.1" cy="108.2" r="3" fill="#F472B6" opacity="0.61"/>
    <circle cx="764.5" cy="101.2" r="3" fill="#BE185D" opacity="0.76"/>
    <circle cx="792.0" cy="104.4" r="3" fill="#34D399" opacity="0.58"/>
    <circle cx="823.5" cy="106.6" r="3" fill="#EC4899" opacity="0.55"/>
    <circle cx="854.5" cy="101.8" r="3" fill="#EC4899" opacity="0.78"/>
    <circle cx="883.7" cy="106.0" r="3" fill="#BE185D" opacity="0.71"/>
    <circle cx="918.2" cy="104.2" r="3" fill="#F472B6" opacity="0.34"/>
    <circle cx="974.7" cy="106.6" r="3" fill="#EC4899" opacity="0.62"/>
    <circle cx="1125.3" cy="101.5" r="3" fill="#F472B6" opacity="0.74"/>
    <circle cx="44.8" cy="133.4" r="3" fill="#BE185D" opacity="0.62"/>
    <circle cx="106.5" cy="134.9" r="3" fill="#EC4899" opacity="0.75"/>
    <circle cx="258.0" cy="133.8" r="3" fill="#EC4899" opacity="0.70"/>
    <circle cx="312.0" cy="138.4" r="3" fill="#BE185D" opacity="0.35"/>
    <circle cx="347.2" cy="133.4" r="3" fill="#EC4899" opacity="0.42"/>
    <circle cx="402.3" cy="132.9" r="3" fill="#F472B6" opacity="0.32"/>
    <circle cx="468.1" cy="138.2" r="3" fill="#BE185D" opacity="0.80"/>
    <circle cx="557.8" cy="132.8" r="3" fill="#EC4899" opacity="0.75"/>
    <circle cx="671.1" cy="135.6" r="3" fill="#10B981" opacity="0.34"/>
    <circle cx="797.4" cy="138.5" r="3" fill="#10B981" opacity="0.65"/>
    <circle cx="856.9" cy="132.1" r="3" fill="#10B981" opacity="0.63"/>
    <circle cx="913.0" cy="134.0" r="3" fill="#EC4899" opacity="0.48"/>
    <circle cx="1124.7" cy="132.4" r="3" fill="#BE185D" opacity="0.41"/>
    <circle cx="131.2" cy="167.5" r="3" fill="#EC4899" opacity="0.64"/>
    <circle cx="163.0" cy="169.0" r="3" fill="#10B981" opacity="0.62"/>
    <circle cx="191.1" cy="161.6" r="3" fill="#34D399" opacity="0.66"/>
    <circle cx="222.6" cy="169.0" r="3" fill="#BE185D" opacity="0.77"/>
    <circle cx="253.8" cy="164.9" r="3" fill="#F472B6" opacity="0.72"/>
    <circle cx="312.4" cy="163.1" r="3" fill="#F472B6" opacity="0.50"/>
    <circle cx="466.8" cy="163.5" r="3" fill="#10B981" opacity="0.71"/>
    <circle cx="556.3" cy="164.9" r="3" fill="#F472B6" opacity="0.54"/>
    <circle cx="614.3" cy="162.1" r="3" fill="#BE185D" opacity="0.55"/>
    <circle cx="823.2" cy="162.3" r="3" fill="#BE185D" opacity="0.75"/>
    <circle cx="1037.2" cy="161.3" r="3" fill="#BE185D" opacity="0.36"/>
    <circle cx="1188.2" cy="165.8" r="3" fill="#EC4899" opacity="0.45"/>
    <circle cx="14.3" cy="196.8" r="3" fill="#BE185D" opacity="0.63"/>
    <circle cx="74.7" cy="197.4" r="3" fill="#BE185D" opacity="0.49"/>
    <circle cx="105.3" cy="193.2" r="3" fill="#10B981" opacity="0.55"/>
    <circle cx="251.2" cy="198.3" r="3" fill="#34D399" opacity="0.68"/>
    <circle cx="406.4" cy="195.0" r="3" fill="#BE185D" opacity="0.66"/>
    <circle cx="438.2" cy="191.4" r="3" fill="#34D399" opacity="0.64"/>
    <circle cx="676.6" cy="198.4" r="3" fill="#BE185D" opacity="0.48"/>
    <circle cx="827.5" cy="192.0" r="3" fill="#34D399" opacity="0.46"/>
    <circle cx="855.7" cy="192.4" r="3" fill="#BE185D" opacity="0.71"/>
    <circle cx="887.2" cy="194.3" r="3" fill="#EC4899" opacity="0.56"/>
    <circle cx="1098.2" cy="191.1" r="3" fill="#34D399" opacity="0.31"/>
    <circle cx="1184.4" cy="194.7" r="3" fill="#BE185D" opacity="0.34"/>
    <circle cx="48.3" cy="221.7" r="3" fill="#34D399" opacity="0.47"/>
    <circle cx="164.0" cy="226.6" r="3" fill="#BE185D" opacity="0.40"/>
    <circle cx="192.1" cy="225.6" r="3" fill="#BE185D" opacity="0.48"/>
    <circle cx="466.9" cy="221.1" r="3" fill="#34D399" opacity="0.47"/>
    <circle cx="616.9" cy="225.1" r="3" fill="#34D399" opacity="0.57"/>
    <circle cx="644.7" cy="221.8" r="3" fill="#F472B6" opacity="0.38"/>
    <circle cx="738.6" cy="224.3" r="3" fill="#BE185D" opacity="0.46"/>
    <circle cx="766.0" cy="222.1" r="3" fill="#EC4899" opacity="0.53"/>
    <circle cx="791.0" cy="221.4" r="3" fill="#34D399" opacity="0.35"/>
    <circle cx="823.9" cy="222.8" r="3" fill="#10B981" opacity="0.74"/>
    <circle cx="888.2" cy="223.6" r="3" fill="#BE185D" opacity="0.35"/>
    <circle cx="1154.7" cy="221.5" r="3" fill="#34D399" opacity="0.52"/>
    <circle cx="103.9" cy="252.6" r="3" fill="#F472B6" opacity="0.40"/>
    <circle cx="162.8" cy="252.0" r="3" fill="#EC4899" opacity="0.51"/>
    <circle cx="222.2" cy="251.5" r="3" fill="#F472B6" opacity="0.44"/>
    <circle cx="251.3" cy="258.5" r="3" fill="#34D399" opacity="0.64"/>
    <circle cx="465.9" cy="251.2" r="3" fill="#10B981" opacity="0.75"/>
    <circle cx="585.0" cy="252.7" r="3" fill="#34D399" opacity="0.59"/>
    <circle cx="678.4" cy="253.9" r="3" fill="#34D399" opacity="0.73"/>
    <circle cx="707.7" cy="251.6" r="3" fill="#34D399" opacity="0.32"/>
    <circle cx="734.8" cy="255.0" r="3" fill="#F472B6" opacity="0.54"/>
    <circle cx="767.4" cy="254.5" r="3" fill="#34D399" opacity="0.37"/>
    <circle cx="793.1" cy="251.8" r="3" fill="#34D399" opacity="0.42"/>
    <circle cx="913.0" cy="256.2" r="3" fill="#34D399" opacity="0.46"/>
    <circle cx="974.5" cy="256.0" r="3" fill="#10B981" opacity="0.71"/>
    <circle cx="1006.4" cy="259.0" r="3" fill="#10B981" opacity="0.30"/>
    <circle cx="71.5" cy="282.1" r="3" fill="#BE185D" opacity="0.63"/>
    <circle cx="133.6" cy="282.1" r="3" fill="#F472B6" opacity="0.53"/>
    <circle cx="221.0" cy="288.8" r="3" fill="#BE185D" opacity="0.35"/>
    <circle cx="282.5" cy="286.2" r="3" fill="#10B981" opacity="0.50"/>
    <circle cx="315.9" cy="281.5" r="3" fill="#34D399" opacity="0.69"/>
    <circle cx="493.8" cy="286.2" r="3" fill="#34D399" opacity="0.79"/>
    <circle cx="521.2" cy="281.9" r="3" fill="#10B981" opacity="0.40"/>
    <circle cx="648.1" cy="287.9" r="3" fill="#EC4899" opacity="0.57"/>
    <circle cx="798.6" cy="287.4" r="3" fill="#34D399" opacity="0.35"/>
    <circle cx="828.2" cy="283.3" r="3" fill="#EC4899" opacity="0.52"/>
    <circle cx="974.0" cy="282.3" r="3" fill="#F472B6" opacity="0.71"/>
    <circle cx="1002.5" cy="287.8" r="3" fill="#10B981" opacity="0.69"/>
    <circle cx="1036.3" cy="285.2" r="3" fill="#BE185D" opacity="0.48"/>
    <circle cx="1157.7" cy="281.3" r="3" fill="#EC4899" opacity="0.72"/>
    <circle cx="46.5" cy="317.4" r="3" fill="#F472B6" opacity="0.73"/>
    <circle cx="103.3" cy="315.7" r="3" fill="#BE185D" opacity="0.64"/>
    <circle cx="138.6" cy="318.9" r="3" fill="#10B981" opacity="0.48"/>
    <circle cx="162.7" cy="311.9" r="3" fill="#BE185D" opacity="0.49"/>
    <circle cx="196.5" cy="314.3" r="3" fill="#BE185D" opacity="0.37"/>
    <circle cx="343.2" cy="313.1" r="3" fill="#34D399" opacity="0.32"/>
    <circle cx="378.7" cy="317.3" r="3" fill="#EC4899" opacity="0.58"/>
    <circle cx="407.3" cy="315.1" r="3" fill="#F472B6" opacity="0.41"/>
    <circle cx="618.8" cy="313.0" r="3" fill="#F472B6" opacity="0.66"/>
    <circle cx="646.7" cy="311.8" r="3" fill="#EC4899" opacity="0.62"/>
    <circle cx="673.3" cy="315.8" r="3" fill="#10B981" opacity="0.33"/>
    <circle cx="735.0" cy="314.8" r="3" fill="#BE185D" opacity="0.34"/>
    <circle cx="765.5" cy="318.4" r="3" fill="#10B981" opacity="0.47"/>
    <circle cx="795.0" cy="315.4" r="3" fill="#34D399" opacity="0.79"/>
    <circle cx="828.6" cy="314.0" r="3" fill="#EC4899" opacity="0.34"/>
    <circle cx="944.6" cy="314.0" r="3" fill="#F472B6" opacity="0.45"/>
    <circle cx="1035.0" cy="311.0" r="3" fill="#34D399" opacity="0.55"/>
    <circle cx="1094.3" cy="316.7" r="3" fill="#EC4899" opacity="0.79"/>
    <circle cx="1121.3" cy="317.5" r="3" fill="#EC4899" opacity="0.54"/>
    <circle cx="77.5" cy="342.6" r="3" fill="#34D399" opacity="0.42"/>
    <circle cx="138.5" cy="345.8" r="3" fill="#EC4899" opacity="0.41"/>
    <circle cx="166.1" cy="348.9" r="3" fill="#EC4899" opacity="0.38"/>
    <circle cx="191.4" cy="346.2" r="3" fill="#34D399" opacity="0.75"/>
    <circle cx="465.7" cy="347.3" r="3" fill="#34D399" opacity="0.64"/>
    <circle cx="493.0" cy="346.0" r="3" fill="#EC4899" opacity="0.75"/>
    <circle cx="557.0" cy="342.4" r="3" fill="#34D399" opacity="0.61"/>
    <circle cx="584.2" cy="345.0" r="3" fill="#10B981" opacity="0.61"/>
    <circle cx="616.0" cy="345.5" r="3" fill="#BE185D" opacity="0.30"/>
    <circle cx="648.5" cy="341.8" r="3" fill="#F472B6" opacity="0.77"/>
    <circle cx="674.7" cy="341.9" r="3" fill="#10B981" opacity="0.41"/>
    <circle cx="738.5" cy="345.6" r="3" fill="#10B981" opacity="0.48"/>
    <circle cx="768.3" cy="342.4" r="3" fill="#F472B6" opacity="0.46"/>
    <circle cx="797.1" cy="345.8" r="3" fill="#F472B6" opacity="0.44"/>
    <circle cx="828.1" cy="341.8" r="3" fill="#BE185D" opacity="0.74"/>
    <circle cx="857.3" cy="344.3" r="3" fill="#F472B6" opacity="0.31"/>
    <circle cx="887.5" cy="345.1" r="3" fill="#BE185D" opacity="0.58"/>
    <circle cx="943.7" cy="346.6" r="3" fill="#34D399" opacity="0.61"/>
    <circle cx="1092.7" cy="348.2" r="3" fill="#F472B6" opacity="0.44"/>
    <circle cx="1128.5" cy="344.8" r="3" fill="#10B981" opacity="0.32"/>
    <circle cx="1181.7" cy="348.3" r="3" fill="#34D399" opacity="0.51"/>
    <circle cx="11.4" cy="373.8" r="3" fill="#F472B6" opacity="0.79"/>
    <circle cx="78.4" cy="375.5" r="3" fill="#BE185D" opacity="0.73"/>
    <circle cx="106.3" cy="378.5" r="3" fill="#BE185D" opacity="0.58"/>
    <circle cx="169.0" cy="377.4" r="3" fill="#10B981" opacity="0.45"/>
    <circle cx="194.0" cy="374.8" r="3" fill="#EC4899" opacity="0.51"/>
    <circle cx="223.5" cy="371.2" r="3" fill="#EC4899" opacity="0.80"/>
    <circle cx="251.3" cy="376.0" r="3" fill="#10B981" opacity="0.36"/>
    <circle cx="288.1" cy="378.2" r="3" fill="#EC4899" opacity="0.32"/>
    <circle cx="311.5" cy="372.5" r="3" fill="#34D399" opacity="0.35"/>
    <circle cx="345.8" cy="373.2" r="3" fill="#10B981" opacity="0.76"/>
    <circle cx="375.1" cy="378.7" r="3" fill="#34D399" opacity="0.50"/>
    <circle cx="402.9" cy="371.2" r="3" fill="#F472B6" opacity="0.48"/>
    <circle cx="528.1" cy="378.9" r="3" fill="#F472B6" opacity="0.77"/>
    <circle cx="586.3" cy="373.9" r="3" fill="#EC4899" opacity="0.50"/>
    <circle cx="616.7" cy="374.7" r="3" fill="#BE185D" opacity="0.72"/>
    <circle cx="645.5" cy="374.4" r="3" fill="#34D399" opacity="0.77"/>
    <circle cx="731.1" cy="377.7" r="3" fill="#BE185D" opacity="0.65"/>
    <circle cx="823.2" cy="372.2" r="3" fill="#10B981" opacity="0.57"/>
    <circle cx="882.4" cy="377.0" r="3" fill="#BE185D" opacity="0.42"/>
    <circle cx="913.8" cy="378.9" r="3" fill="#34D399" opacity="0.57"/>
    <circle cx="941.2" cy="373.6" r="3" fill="#BE185D" opacity="0.30"/>
    <circle cx="976.1" cy="372.1" r="3" fill="#34D399" opacity="0.71"/>
    <circle cx="1005.5" cy="375.2" r="3" fill="#10B981" opacity="0.76"/>
    <circle cx="1035.8" cy="378.4" r="3" fill="#10B981" opacity="0.72"/>
    <circle cx="1121.9" cy="374.2" r="3" fill="#EC4899" opacity="0.75"/>
    <circle cx="137.7" cy="402.0" r="3" fill="#10B981" opacity="0.51"/>
    <circle cx="167.3" cy="403.0" r="3" fill="#BE185D" opacity="0.56"/>
    <circle cx="198.8" cy="404.4" r="3" fill="#BE185D" opacity="0.32"/>
    <circle cx="222.0" cy="401.9" r="3" fill="#BE185D" opacity="0.31"/>
    <circle cx="284.2" cy="405.3" r="3" fill="#BE185D" opacity="0.74"/>
    <circle cx="317.2" cy="405.9" r="3" fill="#BE185D" opacity="0.32"/>
    <circle cx="342.7" cy="402.2" r="3" fill="#34D399" opacity="0.46"/>
    <circle cx="377.5" cy="405.7" r="3" fill="#EC4899" opacity="0.43"/>
    <circle cx="406.6" cy="401.2" r="3" fill="#10B981" opacity="0.49"/>
    <circle cx="526.7" cy="403.6" r="3" fill="#F472B6" opacity="0.31"/>
    <circle cx="617.0" cy="402.1" r="3" fill="#EC4899" opacity="0.42"/>
    <circle cx="676.6" cy="402.6" r="3" fill="#F472B6" opacity="0.67"/>
    <circle cx="705.4" cy="406.0" r="3" fill="#10B981" opacity="0.45"/>
    <circle cx="737.1" cy="403.6" r="3" fill="#10B981" opacity="0.34"/>
    <circle cx="766.3" cy="407.5" r="3" fill="#34D399" opacity="0.30"/>
    <circle cx="852.5" cy="406.6" r="3" fill="#10B981" opacity="0.55"/>
    <circle cx="948.9" cy="402.5" r="3" fill="#EC4899" opacity="0.38"/>
    <circle cx="1007.0" cy="408.7" r="3" fill="#10B981" opacity="0.53"/>
    <circle cx="1038.1" cy="403.8" r="3" fill="#F472B6" opacity="0.48"/>
    <circle cx="1068.5" cy="407.7" r="3" fill="#BE185D" opacity="0.79"/>
    <circle cx="1181.7" cy="405.3" r="3" fill="#F472B6" opacity="0.61"/>
    <circle cx="18.2" cy="436.0" r="3" fill="#34D399" opacity="0.72"/>
    <circle cx="47.8" cy="435.4" r="3" fill="#EC4899" opacity="0.77"/>
    <circle cx="74.2" cy="431.1" r="3" fill="#BE185D" opacity="0.73"/>
    <circle cx="105.2" cy="436.0" r="3" fill="#F472B6" opacity="0.67"/>
    <circle cx="134.9" cy="432.8" r="3" fill="#F472B6" opacity="0.46"/>
    <circle cx="194.2" cy="435.8" r="3" fill="#EC4899" opacity="0.75"/>
    <circle cx="228.9" cy="436.7" r="3" fill="#34D399" opacity="0.63"/>
    <circle cx="288.4" cy="438.7" r="3" fill="#34D399" opacity="0.42"/>
    <circle cx="377.2" cy="436.0" r="3" fill="#34D399" opacity="0.75"/>
    <circle cx="581.8" cy="431.6" r="3" fill="#34D399" opacity="0.36"/>
    <circle cx="612.0" cy="432.2" r="3" fill="#F472B6" opacity="0.57"/>
    <circle cx="675.1" cy="436.0" r="3" fill="#BE185D" opacity="0.44"/>
    <circle cx="762.6" cy="433.2" r="3" fill="#34D399" opacity="0.58"/>
    <circle cx="798.7" cy="437.9" r="3" fill="#10B981" opacity="0.68"/>
    <circle cx="821.8" cy="434.4" r="3" fill="#F472B6" opacity="0.68"/>
    <circle cx="858.9" cy="431.6" r="3" fill="#34D399" opacity="0.72"/>
    <circle cx="974.9" cy="435.8" r="3" fill="#BE185D" opacity="0.50"/>
    <circle cx="1006.4" cy="434.2" r="3" fill="#EC4899" opacity="0.53"/>
    <circle cx="1122.4" cy="437.0" r="3" fill="#EC4899" opacity="0.36"/>
    <circle cx="1153.1" cy="432.7" r="3" fill="#34D399" opacity="0.41"/>
    <circle cx="16.7" cy="468.1" r="3" fill="#BE185D" opacity="0.73"/>
    <circle cx="42.3" cy="467.9" r="3" fill="#F472B6" opacity="0.77"/>
    <circle cx="102.5" cy="464.7" r="3" fill="#F472B6" opacity="0.70"/>
    <circle cx="131.3" cy="463.8" r="3" fill="#10B981" opacity="0.33"/>
    <circle cx="225.2" cy="465.0" r="3" fill="#34D399" opacity="0.32"/>
    <circle cx="282.6" cy="467.8" r="3" fill="#F472B6" opacity="0.74"/>
    <circle cx="346.6" cy="467.8" r="3" fill="#BE185D" opacity="0.33"/>
    <circle cx="374.7" cy="467.2" r="3" fill="#F472B6" opacity="0.72"/>
    <circle cx="406.1" cy="468.7" r="3" fill="#BE185D" opacity="0.72"/>
    <circle cx="467.2" cy="465.1" r="3" fill="#F472B6" opacity="0.65"/>
    <circle cx="492.8" cy="461.5" r="3" fill="#BE185D" opacity="0.70"/>
    <circle cx="558.7" cy="462.9" r="3" fill="#10B981" opacity="0.32"/>
    <circle cx="586.5" cy="463.6" r="3" fill="#10B981" opacity="0.42"/>
    <circle cx="615.5" cy="466.9" r="3" fill="#BE185D" opacity="0.71"/>
    <circle cx="671.6" cy="468.5" r="3" fill="#BE185D" opacity="0.56"/>
    <circle cx="762.9" cy="463.1" r="3" fill="#34D399" opacity="0.74"/>
    <circle cx="792.1" cy="468.6" r="3" fill="#F472B6" opacity="0.45"/>
    <circle cx="825.8" cy="466.5" r="3" fill="#BE185D" opacity="0.59"/>
    <circle cx="854.9" cy="467.3" r="3" fill="#EC4899" opacity="0.74"/>
    <circle cx="911.5" cy="465.1" r="3" fill="#34D399" opacity="0.57"/>
    <circle cx="944.9" cy="462.2" r="3" fill="#BE185D" opacity="0.60"/>
    <circle cx="1003.9" cy="462.1" r="3" fill="#10B981" opacity="0.35"/>
    <circle cx="1068.1" cy="465.3" r="3" fill="#34D399" opacity="0.56"/>
    <circle cx="1125.1" cy="468.6" r="3" fill="#BE185D" opacity="0.41"/>
    <circle cx="48.9" cy="494.3" r="3" fill="#10B981" opacity="0.78"/>
    <circle cx="136.3" cy="497.6" r="3" fill="#10B981" opacity="0.39"/>
    <circle cx="161.4" cy="496.2" r="3" fill="#F472B6" opacity="0.43"/>
    <circle cx="193.1" cy="492.5" r="3" fill="#EC4899" opacity="0.39"/>
    <circle cx="257.9" cy="491.2" r="3" fill="#10B981" opacity="0.30"/>
    <circle cx="281.8" cy="495.1" r="3" fill="#BE185D" opacity="0.49"/>
    <circle cx="678.9" cy="494.3" r="3" fill="#BE185D" opacity="0.79"/>
    <circle cx="734.9" cy="496.4" r="3" fill="#F472B6" opacity="0.36"/>
    <circle cx="795.1" cy="494.4" r="3" fill="#34D399" opacity="0.36"/>
    <circle cx="855.3" cy="495.1" r="3" fill="#F472B6" opacity="0.49"/>
    <circle cx="882.8" cy="492.6" r="3" fill="#34D399" opacity="0.35"/>
    <circle cx="948.5" cy="497.2" r="3" fill="#EC4899" opacity="0.52"/>
    <circle cx="1006.1" cy="497.3" r="3" fill="#34D399" opacity="0.32"/>
    <circle cx="1038.6" cy="492.9" r="3" fill="#34D399" opacity="0.38"/>
    <circle cx="1061.9" cy="496.0" r="3" fill="#34D399" opacity="0.31"/>
    <circle cx="12.7" cy="521.2" r="3" fill="#10B981" opacity="0.54"/>
    <circle cx="43.2" cy="521.7" r="3" fill="#34D399" opacity="0.36"/>
    <circle cx="78.1" cy="523.4" r="3" fill="#F472B6" opacity="0.60"/>
    <circle cx="132.9" cy="528.2" r="3" fill="#34D399" opacity="0.47"/>
    <circle cx="164.9" cy="528.6" r="3" fill="#34D399" opacity="0.63"/>
    <circle cx="198.8" cy="523.4" r="3" fill="#10B981" opacity="0.44"/>
    <circle cx="255.7" cy="523.6" r="3" fill="#BE185D" opacity="0.78"/>
    <circle cx="288.6" cy="524.0" r="3" fill="#34D399" opacity="0.32"/>
    <circle cx="314.1" cy="525.5" r="3" fill="#EC4899" opacity="0.50"/>
    <circle cx="463.9" cy="522.2" r="3" fill="#BE185D" opacity="0.72"/>
    <circle cx="555.9" cy="523.1" r="3" fill="#BE185D" opacity="0.40"/>
    <circle cx="581.2" cy="527.1" r="3" fill="#10B981" opacity="0.54"/>
    <circle cx="641.4" cy="525.8" r="3" fill="#10B981" opacity="0.78"/>
    <circle cx="765.0" cy="527.1" r="3" fill="#BE185D" opacity="0.38"/>
    <circle cx="795.4" cy="524.5" r="3" fill="#BE185D" opacity="0.41"/>
    <circle cx="948.0" cy="527.3" r="3" fill="#34D399" opacity="0.63"/>
    <circle cx="972.2" cy="528.7" r="3" fill="#F472B6" opacity="0.48"/>
    <circle cx="12.4" cy="555.7" r="3" fill="#34D399" opacity="0.63"/>
    <circle cx="136.1" cy="551.8" r="3" fill="#EC4899" opacity="0.52"/>
    <circle cx="224.3" cy="558.2" r="3" fill="#10B981" opacity="0.47"/>
    <circle cx="288.9" cy="558.9" r="3" fill="#F472B6" opacity="0.34"/>
    <circle cx="431.4" cy="554.5" r="3" fill="#F472B6" opacity="0.76"/>
    <circle cx="584.6" cy="553.2" r="3" fill="#F472B6" opacity="0.68"/>
    <circle cx="703.0" cy="553.1" r="3" fill="#10B981" opacity="0.70"/>
    <circle cx="732.9" cy="557.6" r="3" fill="#F472B6" opacity="0.69"/>
    <circle cx="828.5" cy="557.0" r="3" fill="#34D399" opacity="0.40"/>
    <circle cx="1004.1" cy="553.1" r="3" fill="#EC4899" opacity="0.48"/>
    <circle cx="1061.2" cy="555.1" r="3" fill="#10B981" opacity="0.73"/>
    <circle cx="73.5" cy="586.7" r="3" fill="#34D399" opacity="0.46"/>
    <circle cx="107.3" cy="585.2" r="3" fill="#F472B6" opacity="0.31"/>
    <circle cx="166.8" cy="587.6" r="3" fill="#34D399" opacity="0.30"/>
    <circle cx="222.2" cy="585.8" r="3" fill="#EC4899" opacity="0.74"/>
    <circle cx="257.7" cy="586.0" r="3" fill="#10B981" opacity="0.37"/>
    <circle cx="287.0" cy="585.1" r="3" fill="#F472B6" opacity="0.30"/>
    <circle cx="437.3" cy="588.9" r="3" fill="#F472B6" opacity="0.32"/>
    <circle cx="497.8" cy="587.5" r="3" fill="#F472B6" opacity="0.71"/>
    <circle cx="677.7" cy="586.4" r="3" fill="#10B981" opacity="0.70"/>
    <circle cx="705.3" cy="587.6" r="3" fill="#F472B6" opacity="0.32"/>
    <circle cx="738.8" cy="587.5" r="3" fill="#BE185D" opacity="0.70"/>
    <circle cx="793.8" cy="583.1" r="3" fill="#BE185D" opacity="0.75"/>
    <circle cx="824.4" cy="587.0" r="3" fill="#BE185D" opacity="0.64"/>
    <circle cx="912.9" cy="586.8" r="3" fill="#BE185D" opacity="0.40"/>
    <circle cx="971.5" cy="583.8" r="3" fill="#10B981" opacity="0.46"/>
    <circle cx="1123.4" cy="587.5" r="3" fill="#F472B6" opacity="0.34"/>
    <circle cx="73.2" cy="617.4" r="3" fill="#34D399" opacity="0.75"/>
    <circle cx="104.8" cy="616.4" r="3" fill="#34D399" opacity="0.58"/>
    <circle cx="162.4" cy="618.2" r="3" fill="#EC4899" opacity="0.49"/>
    <circle cx="344.0" cy="615.3" r="3" fill="#F472B6" opacity="0.42"/>
    <circle cx="582.6" cy="611.2" r="3" fill="#BE185D" opacity="0.46"/>
    <circle cx="616.4" cy="614.8" r="3" fill="#BE185D" opacity="0.73"/>
    <circle cx="645.4" cy="618.2" r="3" fill="#34D399" opacity="0.71"/>
    <circle cx="737.1" cy="611.1" r="3" fill="#F472B6" opacity="0.33"/>
    <circle cx="794.6" cy="617.9" r="3" fill="#EC4899" opacity="0.40"/>
    <circle cx="856.1" cy="611.7" r="3" fill="#34D399" opacity="0.56"/>
    <circle cx="883.1" cy="615.2" r="3" fill="#10B981" opacity="0.63"/>
    <circle cx="1002.3" cy="618.3" r="3" fill="#34D399" opacity="0.58"/>
    <circle cx="1038.4" cy="618.8" r="3" fill="#F472B6" opacity="0.44"/>
    <circle cx="1182.7" cy="611.1" r="3" fill="#34D399" opacity="0.39"/>
  </g>
</svg>